<svg id="Layer_1" data-name="Layer 1" xmlns="http://www.w3.org/2000/svg" xmlns:xlink="http://www.w3.org/1999/xlink" viewBox="0 0 217.04 200"><defs><style>.cls-1{fill:#fff;}.cls-2{fill:#c6444a;}.cls-3{fill:#4d090d;}.cls-4{mask:url(#mask);}.cls-11,.cls-5{fill:#969395;}.cls-12,.cls-6{fill:#757575;}.cls-13,.cls-7{fill:#cecece;}.cls-14,.cls-8{fill:#3a3a3a;}.cls-9{fill:#b32229;}.cls-10{fill:#481212;}.cls-11,.cls-12,.cls-13,.cls-14{stroke:#fff;stroke-miterlimit:79.84;stroke-width:3.23px;}.cls-15{fill:none;}.cls-16{fill:#f7efe8;}.cls-17{fill:#ddc9ba;}.cls-18{fill:#8f1c21;}.cls-19{fill:url(#linear-gradient);}.cls-20{fill:url(#linear-gradient-2);}.cls-21{fill:url(#linear-gradient-3);}.cls-22{fill:#494a49;}.cls-23{fill:#333;}.cls-24{fill:#7f7f7f;}.cls-25{fill:#0d0d0d;}.cls-26{fill:#262626;}.cls-27{fill:#686868;}.cls-28{fill:#161616;}.cls-29{fill:#c6c6c6;}.cls-30{fill:#0092ff;}.cls-31{fill:#005dcc;}.cls-32{fill:#003084;}.cls-33{fill:#191919;}</style><mask id="mask" x="-29.3" y="-39.79" width="270.09" height="270.09" maskUnits="userSpaceOnUse"><g transform="translate(-6.8 -17.28)"><g id="TranspMask"><rect class="cls-1" x="-22.51" y="-22.51" width="270.09" height="270.09"/></g></g></mask><linearGradient id="linear-gradient" x1="0.19" y1="511.7" x2="-30.65" y2="492.87" gradientTransform="translate(86.36 -325.22)" gradientUnits="userSpaceOnUse"><stop offset="0" stop-color="#fff"/><stop offset="1" stop-color="#fff"/></linearGradient><linearGradient id="linear-gradient-2" x1="1.22" y1="510.28" x2="-41.74" y2="479.88" xlink:href="#linear-gradient"/><linearGradient id="linear-gradient-3" x1="-2.27" y1="515.26" x2="-56.5" y2="477.63" xlink:href="#linear-gradient"/></defs><title>Racoon-cool</title><g id="Group"><path class="cls-2" d="M82.48,193.88a94.51,94.51,0,0,1,46.61-176.6h.57A94.53,94.53,0,0,1,219.6,139.8l0-.05L184,106.39a54.93,54.93,0,1,0-55.5,60.34l35.23,33,0,0a94.89,94.89,0,0,1-34.09,6.51H129A94,94,0,0,1,82.48,193.88Z" transform="translate(-6.8 -17.28)"/><path class="cls-2" d="M223.67,196,99.27,76.85c5.71-7.17,13.38-13.51,31.44-15.48l93,90.81Z" transform="translate(-6.8 -17.28)"/><path class="cls-2" d="M175.74,203,80.93,114.11C82.11,96,88.11,88.05,95,82l124.51,119Z" transform="translate(-6.8 -17.28)"/></g><g id="Shadow_1" data-name="Shadow 1"><g id="Group_1" data-name="Group 1"><path class="cls-3" d="M28.24,176.58l1.45-1.76,11.2,1.66-6.74,7.26C31.9,181.55,28.75,180,28.24,176.58Z" transform="translate(-6.8 -17.28)"/><path d="M33.7,184.2c-.13-.13-.26-.27-.4-.39-.32-.31-.65-.61-1-.9l-1.12-1c-.27-.25-.53-.5-.78-.76a8,8,0,0,1-2-3c-.06-.18-.1-.35-.14-.52a4.52,4.52,0,0,1-.09-1l.15.39a8.84,8.84,0,0,0,.38.83,1.62,1.62,0,0,1,.1.18,9,9,0,0,0,.62.9,15.25,15.25,0,0,0,2.65,2.42l.57.44c.31.23.63.48.93.73l.46.37c1.75-2,3.54-3.94,5.35-5.87-.86-.14-1.72-.28-2.58-.44l-1.67-.29L34.09,176,33,175.81l-.55-.11c-.56-.11-1.11-.24-1.67-.36l-1-.21c-.49.5-1,1-1.53,1.45h0c.25-.43.51-.86.78-1.28.11-.16.21-.32.32-.47a1.7,1.7,0,0,1,.15-.22l.08-.1.16,0,.57.05c.75.06,1.51.11,2.26.18l.56.06,1.69.18.57.06,1.68.21c.75.08,1.5.18,2.25.28l1.68.23,1.34.2c-.87.93-1.73,1.87-2.59,2.81-.45.49-.91,1-1.36,1.45q-1,1.08-2,2.16c-.71.75-1.46,1.49-2.16,2.26Zm.9-.92-.5-.44-.42.47ZM40.36,176l-.91,1,1.33.22Zm-10.45-1-.26.1.13,0Z" transform="translate(-6.8 -17.28)"/><g class="cls-4"><g id="Group_2" data-name="Group 2"><path class="cls-5" d="M32.73,188.37c-3.53-4.91-.49-19.79,4.17-27.91S51.7,140.65,62.57,142s14.24,11.16,10.58,19c-6,12.9-16.73,20.88-23.77,29.51C49.38,190.56,39.55,190.1,32.73,188.37Z" transform="translate(-6.8 -17.28)"/><path class="cls-6" d="M32.73,188.37c-3.53-4.91-.49-19.79,4.17-27.91S51.7,140.65,62.57,142a14.62,14.62,0,0,1,7.58,3.07c-13-1.67-23.42,11.49-27.61,23.28-2.29,7.29-.75,14.55,1.06,21.74A77.92,77.92,0,0,1,32.73,188.37Z" transform="translate(-6.8 -17.28)"/><path class="cls-7" d="M48.35,190.5c.74-2.37,2.4-4.22,3.75-5.9,5.31-6.72,13.79-14.12,17.36-22,3-5.46,3.3-8.35,3.31-14.44a13.82,13.82,0,0,1,.38,12.93c-6,12.9-16.73,20.88-23.77,29.51Z" transform="translate(-6.8 -17.28)"/><path class="cls-8" d="M49.49,190.8h-.12c-.1,0-9.93-.48-16.7-2.2l-.08,0-.05-.07c-.12-.17-.24-.36-.35-.55-3-5.42,0-19.71,4.51-27.62,4.34-7.55,14.69-20,25.89-18.55,4.81.6,8.58,2.94,10.61,6.59a14.12,14.12,0,0,1,.16,12.77c-4.14,8.91-10.65,15.61-16.4,21.52-2.68,2.75-5.21,5.36-7.4,8Zm7.14-8.46c5.72-5.89,12.2-12.55,16.31-21.39a13.66,13.66,0,0,0-.15-12.34c-2-3.52-5.59-5.77-10.25-6.36-11-1.38-21.15,10.88-25.44,18.33-4.48,7.8-7.44,21.86-4.5,27.15.08.15.18.3.27.44a103.29,103.29,0,0,0,16.4,2.15C51.46,187.65,54,185.07,56.63,182.34Z" transform="translate(-6.8 -17.28)"/></g></g><path class="cls-9" d="M54.18,179.05c-5.85-5.65-16.7-9.3-25.17-3.33,2.5-9.41,9.49-23.48,16.46-32.26,9.2-9.2,24.58-8.27,22.27,8.23Z" transform="translate(-6.8 -17.28)"/><path class="cls-10" d="M52.78,177.91c-.34-.26-.7-.51-1.06-.74l-.26-.18-.6-.38-.9-.53a28.46,28.46,0,0,0-2.61-1.26c-.36-.15-.72-.28-1.08-.42s-.8-.27-1.2-.39l-.65-.19-.71-.18a21.22,21.22,0,0,0-2.63-.44l-.25,0-.67,0-.59,0h-.85c-.22,0-.45,0-.67,0s-.45,0-.68.05l-.73.08c-.43.06-.86.14-1.28.23s-.76.19-1.14.29-.5.16-.74.24a13.74,13.74,0,0,0-1.38.56c-.25.11-.48.23-.72.35s-.56.3-.83.46-.78.5-1.16.76l-1.33.91c.14-.5.28-1,.41-1.5.22-.85.45-1.68.71-2.52.48-1.54,1-3.06,1.59-4.57.26-.67.52-1.34.8-2s.57-1.39.87-2.07.5-1.15.77-1.72c.55-1.2,1.12-2.4,1.71-3.58s1.12-2.19,1.7-3.27c.34-.63.69-1.25,1-1.88s.73-1.27,1.1-1.89c.47-.79.94-1.57,1.43-2.34s.81-1.28,1.23-1.91c.32-.47.63-.94,1-1.41.53-.75,1.07-1.5,1.63-2.24.21-.28.43-.57.66-.85.08-.11.17-.24.26-.34s.1-.1.15-.15l.31-.3c.4-.38.83-.76,1.26-1.1.24-.2.48-.4.74-.58s.44-.33.67-.48c.56-.39,1.13-.74,1.72-1.07s.91-.49,1.38-.71c.25-.12.52-.24.78-.34l.64-.25c.36-.14.73-.26,1.1-.37s.57-.17.87-.24a16.32,16.32,0,0,1,2.61-.42c.51,0,1-.05,1.53,0s.8,0,1.19.1A10.24,10.24,0,0,1,64,138.48a8.76,8.76,0,0,1,1.64,1.33,9.83,9.83,0,0,1,2.2,3.6c.14.4.26.81.36,1.22s.12.55.18.82a12.5,12.5,0,0,1,.17,1.37c0,.17,0,.33,0,.5s0,.39,0,.59q0,.53,0,1.05c0,.4,0,.79-.07,1.18,0,.2,0,.4-.05.59l0,.27c0,.1,0,.2,0,.3a2.19,2.19,0,0,1,0,.27l0,.22v.06s0,0,0,0a.25.25,0,0,1,0,.09c-.2.47-.63.86-.69,1.37s-.51.88-.69,1.35a14.72,14.72,0,0,1-.7,1.37l-.69,1.36-2.08,4.07-2.09,4.08c-.7,1.36-1.42,2.71-2.12,4.06-.82,1.59-1.64,3.16-2.48,4.74L56,175.69c-.6,1.12-1.22,2.23-1.82,3.35h0v0C53.74,178.65,53.26,178.28,52.78,177.91Zm1.4,1.13h0Zm.94-2.08.62-1.4c.31-.7.64-1.39,1-2.08q1-2.08,1.94-4.15l1.3-2.76c2.38-5,4.8-10,7.22-15,.06-.46.11-.92.14-1.38,0-.65.06-1.3,0-2l0-.62c0-.15,0-.31,0-.46a1.5,1.5,0,0,0,0-.22c0-.25-.06-.49-.09-.73s0-.29-.08-.44c-.07-.35-.14-.7-.24-1a11.79,11.79,0,0,0-.39-1.14,10.54,10.54,0,0,0-.68-1.34,7.87,7.87,0,0,0-1.1-1.41,5.49,5.49,0,0,0-.43-.4,3,3,0,0,0-.27-.23l-.46-.34a9.81,9.81,0,0,0-1-.55c-.15-.07-.33-.16-.49-.22s-.25-.11-.39-.15l-.29-.1q-.4-.12-.81-.21a9.75,9.75,0,0,0-1.78-.23l-.51,0c-.23,0-.46,0-.68,0s-.64,0-1,.09-.63.08-.94.14c-.52.11-1,.23-1.53.38-.15,0-.31.09-.46.15l-.39.13-.43.16-.35.14-.44.19-.79.37-.39.19c-.4.22-.79.45-1.18.69s-.52.32-.77.5A21.42,21.42,0,0,0,47,143L46,144c-.86,1.09-1.68,2.21-2.48,3.35q-.57.81-1.11,1.62c-.37.57-.74,1.14-1.1,1.72s-.79,1.25-1.17,1.89c-.58,1-1.15,1.93-1.7,2.91q-.6,1-1.17,2.13l-1,1.82c-.28.54-.55,1.08-.82,1.62-.39.82-.79,1.63-1.18,2.45s-.76,1.66-1.13,2.5-.63,1.46-.93,2.19q-1.11,2.7-2,5.46c-.09.28-.18.57-.26.85.27-.16.54-.3.82-.44s.74-.35,1.12-.51.46-.19.69-.27a17.65,17.65,0,0,1,2.12-.61c.38-.09.77-.15,1.16-.21a16.06,16.06,0,0,1,2.2-.19H39l.78,0,.79.07q.75.07,1.5.21a22.16,22.16,0,0,1,6.11,2.07c.57.28,1.12.59,1.66.92s.92.59,1.37.91.84.63,1.25,1a16.42,16.42,0,0,1,1.23,1.11c.18.18.35.36.53.53C54.49,178.34,54.81,177.65,55.12,177ZM30,174.46c-.16.08-.31.17-.46.26l-.82.54.86.61C29.69,175.4,29.82,174.93,30,174.46Zm37.24-23,0,.09s0,.06,0,.09ZM46,144l0,0L46,144S46,144,46,144Z" transform="translate(-6.8 -17.28)"/><g class="cls-4"><g id="Group_3" data-name="Group 3"><path class="cls-11" d="M100.5,196.12c1.57-11,.17-24.32,5.58-37.48,3.3-8,12.79-12.19,21.16-5.13s6.65,22.44,3.85,31.37-11.69,21.26-17.69,22C107.51,203,100.5,196.12,100.5,196.12Z" transform="translate(-6.8 -17.28)"/><path class="cls-12" d="M104.75,200.06c6.52-3.54,12.89-7.34,16.7-14,5.82-11.08,8.45-27.64-1.61-36.08a14.58,14.58,0,0,1,7.4,3.49c8.37,7.06,6.65,22.44,3.85,31.37s-11.69,21.26-17.69,22A78.67,78.67,0,0,1,104.75,200.06Z" transform="translate(-6.8 -17.28)"/><path class="cls-13" d="M100.5,196.12c1.57-11,.17-24.32,5.58-37.48a13.81,13.81,0,0,1,9.76-8.49c-4.47,4.13-6.38,6.34-8.37,12.22-3.4,8-3.09,19.25-4.43,27.71-.32,2.14-.56,4.61-1.79,6.76C100.77,196.39,100.5,196.12,100.5,196.12Z" transform="translate(-6.8 -17.28)"/><path class="cls-14" d="M113.35,207.12l-.07-.05c-5.85-3.81-12.87-10.71-12.94-10.78l-.08-.08v-.12c.49-3.43.69-7.06.9-10.89.44-8.23,1-17.56,4.69-26.64a14.1,14.1,0,0,1,9.5-8.55c4.06-1,8.33.2,12,3.32,8.64,7.29,6.53,23.3,3.92,31.62-2.72,8.7-11.21,20.58-17.24,22a4.76,4.76,0,0,1-.64.11Zm.61-.59c5.89-1.42,14.21-13.13,16.9-21.72,2.58-8.2,4.68-24-3.77-31.12-3.59-3-7.71-4.17-11.62-3.22a13.65,13.65,0,0,0-9.18,8.26c-3.7,9-4.21,18.3-4.65,26.49-.21,3.8-.41,7.4-.89,10.82a103.1,103.1,0,0,0,12.71,10.59A4.42,4.42,0,0,0,114,206.53Z" transform="translate(-6.8 -17.28)"/></g></g><path class="cls-15" d="M103.2,152.17c-.19,1.93,1.33,3.68,1.39,4.08a156.21,156.21,0,0,0-3.45,25.6" transform="translate(-6.8 -17.28)"/><path class="cls-1" d="M101.14,181.85l-.09,0,0,0-.05-.06-.07-.1-.1-.22-.14-.43-.16-.86-.1-.85-.06-.85,0-.84,0-.84v-1.68l0-.83,0-.83,0-.82.06-.83.07-.81.08-.82.09-.81.1-.81.1-.81.11-.8.13-.8.13-.8.13-.79.15-.79.15-.78.17-.79.35-1.55.38-1.54.42-1.53.39-1.26h0l-.05-.1,0-.12,0-.12,0-.13-.06-.14-.06-.14,0-.16-.06-.15,0-.17,0-.17-.05-.17,0-.18,0-.19,0-.19,0-.19,0-.2v-.4l0-.2,0-.21,0-.2.07-.2.1-.19.08-.09.06-.05,0,0h.09l.09,0,0,0,.05.05.07.09.1.17.08.15.07.16.08.14.07.14.08.14.07.13.08.14.08.13.07.12.08.13.08.12.09.12.08.11.08.12.08.11.08.11.08.1.08.1.08.1.07.09.07.09.07.1.07.08.06.09.06.09.06.09.05.09.06.12.06.14,0,.1,0,.25,0,.25-.18,1.56-.19,1.55-.22,1.55-.22,1.55-.11.78-.11.77-.12.78-.12.78-.12.78-.11.79-.13.78-.11.79-.13.79-.12.79-.12.79-.13.8-.12.8-.13.8-.13.8-.14.8-.13.81-.15.81-.15.82-.16.81-.18.82-.2.83-.25.82-.18.42-.12.2-.08.1-.06.05,0,0Zm2.38-25.27v0l0-.05,0-.07v.11l0,0Zm0-.15,0-.16,0-.25-.07.24,0,.09,0,.08Z" transform="translate(-6.8 -17.28)"/><path class="cls-15" d="M101.45,174.74c16.5-4.42,27,1.82,30.41,20.88" transform="translate(-6.8 -17.28)"/><path class="cls-1" d="M131.82,195.61h0a.59.59,0,0,1-.23-.24l-.08-.13a2,2,0,0,1-.13-.25c-.1-.18-.18-.38-.27-.57l-.23-.57c-.11-.3-.23-.59-.34-.89-.25-.69-.51-1.38-.77-2.07-1.76-4.63-4-9.26-8-12.39a17,17,0,0,0-6.78-3.2,26.43,26.43,0,0,0-6.27-.62c-1.11,0-2.22.06-3.33.13-.75,0-1.5.11-2.25.14a7.55,7.55,0,0,1-1,0l-.25,0c-.13,0-.41,0-.46-.19v-.09a.55.55,0,0,1,.13-.17l.14-.12.11-.07.07,0a2.61,2.61,0,0,1,.28-.17l.29-.15.59-.26c.29-.11.58-.23.88-.33a24.65,24.65,0,0,1,3.5-.91,24.06,24.06,0,0,1,6.88-.28,19.37,19.37,0,0,1,4.5,1,18,18,0,0,1,3.38,1.66,16.08,16.08,0,0,1,2.42,1.84A23.11,23.11,0,0,1,131,187.17a31.29,31.29,0,0,1,.9,3.8c.09.57.17,1.14.22,1.71,0,.26.05.53.06.79s0,.6,0,.9v.28a1.1,1.1,0,0,0,0,.18c0,.07,0,.13,0,.19a.28.28,0,0,1,0,.09c0,.14-.07.46-.24.51Z" transform="translate(-6.8 -17.28)"/><g class="cls-4"><g id="Group_4" data-name="Group 4"><path class="cls-5" d="M46.58,212a35.55,35.55,0,0,1,3.73-4.76c-.41,1.91-.71,3.78-.92,5.62C48.45,212.56,47.52,212.28,46.58,212Z" transform="translate(-6.8 -17.28)"/><path class="cls-6" d="M48,212.44q.93-2,2-4c-.29,1.49-.51,3-.66,4.39Z" transform="translate(-6.8 -17.28)"/><path class="cls-7" d="M46.58,212a35.55,35.55,0,0,1,3.73-4.76c0,.12-.11,1.28-.13,1.41q-1.36,1.85-2.54,3.68Z" transform="translate(-6.8 -17.28)"/><path class="cls-8" d="M49.16,212.77c.17-1.56.42-3.15.74-4.76a37.27,37.27,0,0,0-3.1,4l-.46-.14a35.61,35.61,0,0,1,3.79-4.85l.58-.6-.17.81a53.56,53.56,0,0,0-.92,5.63Z" transform="translate(-6.8 -17.28)"/></g></g><g class="cls-4"><g id="Group_5" data-name="Group 5"><path class="cls-5" d="M107.06,209.74c-4.18-2.83-2.88-12-2.88-12l15.54-5.47c.07,3.33,3,12.6,4.57,15.15C124,209.59,111.24,212.57,107.06,209.74Z" transform="translate(-6.8 -17.28)"/><path class="cls-6" d="M112.64,194.79l7.08-2.49c.07,3.33,3,12.6,4.57,15.15-.12.79-1.94,1.7-4.4,2.38C117.51,204.81,115,199.85,112.64,194.79Z" transform="translate(-6.8 -17.28)"/><path class="cls-8" d="M106.93,209.93c-4.25-2.87-3-11.82-3-12.2v-.14l16-5.62v.32c.08,3.17,3,12.44,4.54,15l0,.07v.08c-.27,1.81-7.28,3.65-12.13,3.65A10,10,0,0,1,106.93,209.93ZM124,207.49c-1.56-2.71-4.31-11.36-4.54-14.87l-15.11,5.32c-.13,1.15-.93,9.08,2.8,11.61a9.65,9.65,0,0,0,5.2,1.12C117.59,210.67,123.64,208.8,124,207.49Z" transform="translate(-6.8 -17.28)"/></g></g><g class="cls-4"><g id="Group_6" data-name="Group 6"><path class="cls-16" d="M48.12,212.46a92.73,92.73,0,0,1,4.27-12.41c4.94-11.74,8.74-23.64,7.06-38.83-1.3-14.51,8.71-21.51,17-25.7,0,0,22.17,6.44,25.62,7.68s16.79,4,15.54,9.61-10.67,31.62-12.24,44c3.75,5.63,4.43,8.95,5.07,16.53A113.52,113.52,0,0,1,48.12,212.46Z" transform="translate(-6.8 -17.28)"/><path class="cls-17" d="M96.78,213.19c1.16-6-5.26-4.94-5.9-13.88-.45-6.19-10.36-9.3-7.54-14.41,5.18-10.24,17.42-22.79,7.06-31.63-6.11-5.12-9.41,7-15.53,9.3,0-9.13,4.13-17.15,8.36-25.06,6.82,2,16.59,4.9,18.79,5.69,3.45,1.23,16.79,4,15.54,9.61s-10.67,31.62-12.24,44c3.75,5.63,4.43,8.95,5.07,16.53a112.58,112.58,0,0,1-14.84,2.95A13.55,13.55,0,0,0,96.78,213.19Z" transform="translate(-6.8 -17.28)"/><g class="cls-4"><g id="Group_7" data-name="Group 7"><path class="cls-8" d="M82.46,148.08a13.16,13.16,0,0,1,10.1-4.19v.47h-.24a12.59,12.59,0,0,0-9.4,3.93,18.51,18.51,0,0,0-4.31,7.92A15.9,15.9,0,0,1,82.46,148.08Z" transform="translate(-6.8 -17.28)"/></g></g><path class="cls-8" d="M105.12,197l-.05-.07v-.08c1.07-8.47,5.7-23,9.08-33.59,1.55-4.86,2.77-8.69,3.17-10.46,1-4.47-8.13-7.17-13-8.61-1-.29-1.8-.53-2.36-.74-3.3-1.18-24-7.19-25.52-7.64-7.83,4-18,11-16.74,25.43,1.62,14.53-1.66,26.07-7.08,38.94a93.85,93.85,0,0,0-4.26,12.39l-.45-.14A94.44,94.44,0,0,1,52.17,200c5.39-12.8,8.65-24.28,7-38.72-1.32-14.79,9.12-21.88,17.08-25.92l.09,0,.08,0c.23.06,22.22,6.45,25.64,7.68.55.19,1.38.44,2.33.72,5,1.49,14.46,4.27,13.36,9.16-.4,1.79-1.63,5.63-3.18,10.5-3.36,10.55-8,25-9,33.42,3.77,5.67,4.44,9.17,5.07,16.53l-.46.12C109.54,206.07,108.88,202.6,105.12,197Z" transform="translate(-6.8 -17.28)"/></g></g><path class="cls-18" d="M94.79,149.67c2.18-2.17,5.93-4.71,5-5.93-7.4-9.24-24.15-3.69-35.51-6.79l44.94-.28c7.32-.33,16.81,3.32,18.52,6,13.25,21-8,28.3-6.36,40.58,1.73,6.87-1.31,14.32,2,22.51.51.87,1,1.73,1.54,2.58a110.59,110.59,0,0,1-15,5.12C114.53,198.22,111.54,176.79,94.79,149.67Z" transform="translate(-6.8 -17.28)"/><g class="cls-4"><g id="Group_8" data-name="Group 8"><path class="cls-5" d="M114.45,205.1l8.91,1c.38.79.81,1.58,1.27,2.38a113.46,113.46,0,0,1-19.37,6.14A62.88,62.88,0,0,1,114.45,205.1Z" transform="translate(-6.8 -17.28)"/><path class="cls-7" d="M113.32,206.05c-1.93,2.63-3.86,5.31-5.73,8l-2.33.54A71.78,71.78,0,0,1,113.32,206.05Z" transform="translate(-6.8 -17.28)"/><path class="cls-6" d="M117.79,205.48l5.57.63c.38.79.81,1.58,1.27,2.38-1.5.63-3,1.22-4.53,1.79C119.34,208.67,118.57,207.08,117.79,205.48Z" transform="translate(-6.8 -17.28)"/><path class="cls-8" d="M114.45,205.1a66.48,66.48,0,0,0-8.92,9.47l-.7.15A53.65,53.65,0,0,1,114.45,205.1Zm8.91,1,.43-.2c.38.8.81,1.59,1.27,2.4l-.44.18C124.17,207.69,123.74,206.9,123.36,206.11Z" transform="translate(-6.8 -17.28)"/></g></g><path class="cls-9" d="M46.78,212.05l.09-.11A256.39,256.39,0,0,0,54.47,178c2.54-16.58,5.07-33,9.77-41.08,5.35,19.25,17.57,20.63,32.3,11.76L117.69,141l3.65,42.26a37.47,37.47,0,0,0,2,22.51c.51.87,1,1.73,1.54,2.58A113.42,113.42,0,0,1,46.78,212.05Z" transform="translate(-6.8 -17.28)"/><path class="cls-15" d="M53.12,178.7c-.27,1.5-4.26,24.76-6.25,33.24l-.09.11m78.12-3.68c-.51-.85-1-1.71-1.54-2.58a37.47,37.47,0,0,1-2-22.51c8.72-13.12,22.45-25.85,6.36-40.88-14.33-10.54-39.88-6.73-63.46-5.45" transform="translate(-6.8 -17.28)"/><path class="cls-10" d="M46.5,211.86l.08-.15,0,.06,0,.09c-.1.07-.1.06-.1.06l.13-.15c.23-1,.44-1.93.66-2.9q.59-2.69,1.12-5.39c.14-.66.27-1.33.4-2,.43-2.08.83-4.18,1.24-6.27q1-5.13,2-10.26c.11-.59.23-1.18.33-1.77.08-.44.18-.89.26-1.34s.17-.85.25-1.28.14-.7.2-1.05.1-.54.16-.81c0,.11,0,.23-.06.34l-.09.63c-.09.59-.19,1.18-.28,1.77L52.45,183c-.22,1.37-.44,2.75-.67,4.12q-.93,5.74-1.94,11.47c-.24,1.3-.47,2.59-.71,3.89-.33,1.86-.69,3.72-1.05,5.58-.1.52-.21,1-.31,1.55-.07.31-.13.63-.2,1s-.15.72-.24,1.08c0,.12,0,.25-.08.37s0,.11,0,.13A1.11,1.11,0,0,1,46.5,211.86Zm76.25-5.71a2,2,0,0,1-.1-.21l-.09-.23c-.1-.25-.19-.49-.28-.74s-.16-.41-.23-.62c-.25-.71-.48-1.42-.7-2.14s-.42-1.49-.6-2.24a37.69,37.69,0,0,1-.86-5.5c0-.71-.09-1.42-.1-2.13,0-.41,0-.82,0-1.23,0-.17,0-.35,0-.52,0-.48,0-1,.06-1.45.06-.89.14-1.78.25-2.66l.15-1c.06-.45.14-.89.22-1.34l.09-.46c0-.06,0-.13,0-.2a3.2,3.2,0,0,0,.07-.33s0-.1,0-.13l.06-.09.17-.24.56-.83c.44-.64.89-1.28,1.34-1.91.88-1.23,1.77-2.45,2.65-3.67.65-.9,1.31-1.8,1.94-2.71s1.45-2.1,2.14-3.17c.52-.83,1-1.65,1.51-2.5.17-.31.34-.61.5-.92l.23-.43.43-.85.25-.54c.21-.44.4-.89.58-1.34.11-.27.22-.55.32-.83s.14-.38.2-.58l.19-.61c.08-.27.15-.53.22-.8s.1-.41.15-.62.07-.33.1-.49a2,2,0,0,1,.05-.24c.05-.31.1-.61.13-.91a15.17,15.17,0,0,0,.07-3.23,17.26,17.26,0,0,0-.3-1.91c-.11-.48-.24-1-.39-1.43s-.3-.85-.48-1.27-.39-.85-.6-1.27c-.1-.19-.2-.38-.31-.57-.29-.52-.61-1-.94-1.51a23.38,23.38,0,0,0-1.54-2c-.38-.45-.77-.88-1.17-1.3s-.93-.95-1.4-1.4c-.33-.24-.65-.47-1-.69a28.91,28.91,0,0,0-2.84-1.67c-.46-.23-.91-.45-1.37-.66s-.94-.41-1.41-.6-1.17-.45-1.76-.65l-.58-.2-1.14-.35-1.08-.3c-.88-.22-1.76-.44-2.66-.62l-1.28-.25-.71-.13-.57-.09-1.08-.16c-1-.14-2-.26-2.93-.36-2-.21-4-.33-6.08-.41q-2.49-.1-5-.09c-1.62,0-3.25,0-4.88.06-3.42.09-6.84.26-10.26.45-3.62.19-7.23.42-10.85.6l-3.34.16-2.33.1c.77-.07,1.55-.12,2.32-.18l3.9-.32c4-.31,8-.66,11.94-1l4-.27c1.78-.1,3.57-.19,5.36-.26,1.5-.06,3-.1,4.52-.12h1.8l1.88,0c1.19,0,2.38,0,3.56.11l1.67.1,1.05.08c.56,0,1.13.09,1.68.15s1.24.13,1.85.22l.68.08.76.12c.77.11,1.53.25,2.3.39s1.59.33,2.39.52c.59.14,1.18.3,1.77.47l.78.23.77.25c.39.13.79.26,1.17.4.7.26,1.38.53,2.06.83a29.36,29.36,0,0,1,3.89,2c.4.25.78.5,1.16.77l.31.21.18.13.11.1a1.29,1.29,0,0,0,.17.16c.34.32.68.66,1,1s.87.92,1.29,1.4c.58.67,1.14,1.37,1.66,2.1l.44.64.4.63.36.62c.16.27.31.56.44.83s.3.62.44.94.24.57.35.86a16.07,16.07,0,0,1,1,4.43,13.09,13.09,0,0,1,0,1.53c0,.19,0,.37,0,.56a15.79,15.79,0,0,1-.29,2.38,10.62,10.62,0,0,1-.24,1.12l-.15.59-.16.55c-.06.17-.11.35-.17.52l-.21.61-.21.57c-.18.46-.37.92-.58,1.37a51.06,51.06,0,0,1-4.5,7.78c-.57.85-1.15,1.67-1.74,2.5-1.29,1.84-2.62,3.65-3.92,5.49-.53.76-1,1.53-1.57,2.3-.2,1-.38,2.05-.51,3.08-.15,1.22-.25,2.44-.29,3.67,0,.6,0,1.21,0,1.81s0,1.28.09,1.91c.06.9.16,1.79.3,2.68a38.3,38.3,0,0,0,2.44,8.78c.52.88,1,1.75,1.57,2.62l-1.33.56C123.74,207.82,123.24,207,122.75,206.15Zm1.25-.68,0,0,0,.09S124,205.49,124,205.47Zm-2-21.93a.59.59,0,0,0,0-.13l-.1.25Zm5.34-40.75,0,0,0,0Z" transform="translate(-6.8 -17.28)"/><path class="cls-15" d="M58.18,156.16c0-.24,1.6,4.14,0,7.09-2.76,14.25-10.36,47.08-10.79,48.41" transform="translate(-6.8 -17.28)"/><path class="cls-10" d="M47.39,211.64s0,0,0-.06.05-.32.08-.47.07-.47.11-.7.12-.7.17-1.06.11-.61.17-.91c.13-.73.26-1.45.4-2.18.3-1.59.62-3.18.94-4.77.56-2.75,1.15-5.5,1.74-8.25.32-1.48.63-3,1-4.43.89-4,1.77-8.06,2.69-12.08l1.05-4.65c.62-2.66,1.22-5.32,1.83-8,.06-.22.11-.44.16-.66s0-.2.06-.29a1,1,0,0,1,.12-.23c.07-.14.14-.29.2-.43a6,6,0,0,0,.38-1.23,9.4,9.4,0,0,0,.16-2c0-.24,0-.48,0-.71a16.55,16.55,0,0,0-.23-1.74,2.82,2.82,0,0,0-.07-.31s0-.11,0-.15,0-.1,0-.12l0,0h0l0,0a1.13,1.13,0,0,1,.11.22,1.42,1.42,0,0,1,.08.18c.06.12.1.24.15.37a10.41,10.41,0,0,1,.39,1.38,9.09,9.09,0,0,1,0,3.85,5.38,5.38,0,0,1-.31,1,2.14,2.14,0,0,0-.1.22c-.9,5.55-2,11.06-3.2,16.56-.63,3-1.3,5.93-2,8.89q-1.44,6.33-3.06,12.62c-.27,1.05-.55,2.09-.83,3.14-.12.46-.25.93-.38,1.39-.25.87-.49,1.75-.75,2.62-.13.44-.26.87-.4,1.31l-.27.83c-.07.21-.15.41-.22.62a1.82,1.82,0,0,0-.11.3S47.39,211.65,47.39,211.64ZM58.6,163.38v0a.56.56,0,0,1,0,.12A.16.16,0,0,1,58.6,163.38Z" transform="translate(-6.8 -17.28)"/><path class="cls-3" d="M101.26,181.66l19.84-6.19c4.36,9.4,8.64,21.23,6.75,30.23C117.37,203.74,109,194.86,101.26,181.66Z" transform="translate(-6.8 -17.28)"/><path d="M127.28,206c-.46-.09-.92-.21-1.37-.33a25.21,25.21,0,0,1-3.9-1.42,31.76,31.76,0,0,1-7.89-5.33,54.6,54.6,0,0,1-7.88-9.09c-1.13-1.6-2.2-3.26-3.22-4.94-.33-.56-.66-1.13-1-1.7-.12-.2-.23-.41-.34-.62,0,0-.13-.24-.14-.25s-.11-.25-.12-.26l-.18-.39.73-.29.48-.19.74-.25,1.47-.5,1.48-.5,3-1q3-1,5.93-1.92l2-.63,2-.64,2.27-.72c.34.75.7,1.49,1,2.24s.66,1.48,1,2.22q1,2.28,1.83,4.6a63.31,63.31,0,0,1,2.93,10.27,34.21,34.21,0,0,1,.63,8c-.05.73-.11,1.45-.22,2.16-.08.54-.19,1.07-.29,1.61Zm.65-.68-.39-.07c0,.13-.05.26-.08.39Zm-.82-11.55a59.55,59.55,0,0,0-2-7.43,108.1,108.1,0,0,0-4.17-10.44l-7.67,2.32q-2.47.76-5,1.49l-2,.59-2,.58-1.25.36-.5.14-.51.12-.76.17c.14.19.29.39.42.58l.24.36.31.47c.3.47.6.94.91,1.41,1.08,1.64,2.19,3.26,3.35,4.84.6.82,1.22,1.63,1.85,2.42,3.85,4.81,8.47,9.34,14.17,11.88a26.43,26.43,0,0,0,2.48.95,24.49,24.49,0,0,0,2.55.67A30.4,30.4,0,0,0,127.11,193.76Zm-5.91-18-.41-.18.12.27Z" transform="translate(-6.8 -17.28)"/><g class="cls-4"><g id="Group_9" data-name="Group 9"><path class="cls-5" d="M100.5,196.12c1.57-11,.17-24.32,5.58-37.48,3.3-8,12.79-12.19,21.16-5.13s6.65,22.44,3.85,31.37-11.69,21.26-17.69,22C107.51,203,100.5,196.12,100.5,196.12Z" transform="translate(-6.8 -17.28)"/><path class="cls-6" d="M104.75,200.06c6.52-3.54,12.89-7.34,16.7-14,5.82-11.08,8.45-27.64-1.61-36.08a14.58,14.58,0,0,1,7.4,3.49c8.37,7.06,6.65,22.44,3.85,31.37s-11.69,21.26-17.69,22A78.67,78.67,0,0,1,104.75,200.06Z" transform="translate(-6.8 -17.28)"/><path class="cls-7" d="M100.5,196.12c1.57-11,.17-24.32,5.58-37.48a13.81,13.81,0,0,1,9.76-8.49c-4.47,4.13-6.38,6.34-8.37,12.22-3.4,8-3.09,19.25-4.43,27.71-.32,2.14-.56,4.61-1.79,6.76C100.77,196.39,100.5,196.12,100.5,196.12Z" transform="translate(-6.8 -17.28)"/><path class="cls-8" d="M113.35,207.12l-.07-.05c-5.85-3.81-12.87-10.71-12.94-10.78l-.08-.08v-.12c.49-3.43.69-7.06.9-10.89.44-8.23,1-17.56,4.69-26.64a14.1,14.1,0,0,1,9.5-8.55c4.06-1,8.33.2,12,3.32,8.64,7.29,6.53,23.3,3.92,31.62-2.72,8.7-11.21,20.58-17.24,22a4.76,4.76,0,0,1-.64.11Zm.61-.59c5.89-1.42,14.21-13.13,16.9-21.72,2.58-8.2,4.68-24-3.77-31.12-3.59-3-7.71-4.17-11.62-3.22a13.65,13.65,0,0,0-9.18,8.26c-3.7,9-4.21,18.3-4.65,26.49-.21,3.8-.41,7.4-.89,10.82a103.1,103.1,0,0,0,12.71,10.59A4.42,4.42,0,0,0,114,206.53Z" transform="translate(-6.8 -17.28)"/></g></g><g id="Group_10" data-name="Group 10"><path class="cls-19" d="M70.24,195.67a16.35,16.35,0,0,1,8.07-30.55h.09A16.35,16.35,0,0,1,94,186.31h0l-6.15-5.77A9.5,9.5,0,1,0,78.2,191l6.09,5.72h0a16.45,16.45,0,0,1-5.9,1.13h-.11A16.36,16.36,0,0,1,70.24,195.67Z" transform="translate(-6.8 -17.28)"/><path class="cls-20" d="M94.67,196,73.15,175.42c1-1.24,2.31-2.33,5.44-2.68l16.08,15.71Z" transform="translate(-6.8 -17.28)"/><path class="cls-21" d="M86.38,197.24,70,181.87c.2-3.14,1.24-4.51,2.43-5.55L94,196.91Z" transform="translate(-6.8 -17.28)"/></g><g class="cls-4"><g id="Group_11" data-name="Group 11"><path class="cls-22" d="M96.34,208.54c-6.09-1.23-23.82-8.82-27.06-8.74s-12.19,1.91-16.48,2.14-6.52-.53-6.13-1.84,9.06-1.64,11.55-2.93c-4.43-.3-16.83-2.34-15.48-6,.75-1.54,9,.91,14.84.41-4.9-1.63-12.55-6.31-10.55-8.63,1.08-1.19,7.41,3.39,11.27,3.94s4.09-.56,3.59-2.43-5.32-5-3.72-6.58,6.65,3.9,8.19,6.34,2.84,5.06,7.85,5.59,15.3-.56,22.72-.38,11.81,3.52,14.66,7.65c2.37,3.46,3.7,9.27.66,11.18S102.42,209.76,96.34,208.54Z" transform="translate(-6.8 -17.28)"/><path class="cls-23" d="M52.33,191.42a29.16,29.16,0,0,0,5.25.13c-4.9-1.63-12.55-6.31-10.55-8.63a.64.64,0,0,1,.16-.11c1.32,3.23,8.72,7.57,14.18,8.89A20.29,20.29,0,0,1,52.33,191.42Z" transform="translate(-6.8 -17.28)"/><path class="cls-24" d="M96.79,190.67c-9-.3-16.61,1.32-23.06.16-1.76-.32-5.3-.72-8.09-5.73A34.39,34.39,0,0,0,61,178.45a24.41,24.41,0,0,1,5.38,5.74c1.53,2.45,2.84,5.06,7.85,5.59s15.3-.56,22.72-.38c5.9.14,9.89,2.29,12.71,5.24A23.52,23.52,0,0,0,96.79,190.67Z" transform="translate(-6.8 -17.28)"/><path class="cls-23" d="M59.55,187c2.66.14,2.78-.92,2.34-2.56-.51-1.86-5.32-5-3.72-6.58a.8.8,0,0,1,.27-.18c.42,1.94,3.3,4.18,4.68,6.43.62,1.82-1.62,3.39-3.06,3A3.8,3.8,0,0,0,59.55,187Z" transform="translate(-6.8 -17.28)"/><path class="cls-23" d="M58.22,197.17c-4.41-.3-16.74-2.33-15.49-6,3.57,3.33,12.71,4.75,19.44,4.66a25.56,25.56,0,0,1-6.12,2A9.64,9.64,0,0,0,58.22,197.17Z" transform="translate(-6.8 -17.28)"/><path class="cls-23" d="M96.34,208.54c-6.09-1.23-23.82-8.82-27.06-8.74s-12.19,1.91-16.48,2.14c-4.12.22-6.33-.47-6.16-1.69,6.69.81,14-1.55,20.11-3.25a14.4,14.4,0,0,1,7.81.18c10.94,3.93,29.18,11,36.22-1.22.28.35.55.72.81,1.09,2.37,3.46,3.7,9.27.66,11.18S102.42,209.76,96.34,208.54Z" transform="translate(-6.8 -17.28)"/><path class="cls-25" d="M96.29,208.76c-2.88-.57-8.34-2.57-13.62-4.49C76.91,202.16,71,200,69.29,200s-4.55.51-7.7,1-6.59,1-8.78,1.14c-3.27.18-5.46-.21-6.16-1.09a1.09,1.09,0,0,1-.21-1c.24-.82,2.37-1.2,5.83-1.75a43.26,43.26,0,0,0,4.94-1c-4.46-.44-12.76-2-14.47-4.58a1.78,1.78,0,0,1-.22-1.68c.19-.38.63-.58,1.4-.64a28.56,28.56,0,0,1,5,.38,52.59,52.59,0,0,0,7.49.58c-4-1.56-9.21-4.7-9.88-7.09a1.56,1.56,0,0,1,.31-1.52.88.88,0,0,1,.62-.27c.94-.08,2.68.76,4.69,1.74a24.62,24.62,0,0,0,6.18,2.39c1.9.27,3,.15,3.34-.37.23-.33.22-.85,0-1.77A8.31,8.31,0,0,0,59.82,182c-1.45-1.57-3-3.2-1.82-4.34a1.24,1.24,0,0,1,.79-.36c2.22-.17,6.45,4.64,7.77,6.74l.28.46c1.45,2.33,2.81,4.54,7.39,5a91.74,91.74,0,0,0,11.6-.11c3.8-.18,7.74-.36,11.1-.27,6.5.16,11.36,2.69,14.86,7.75,1.54,2.26,2.92,6,2.32,8.85a4,4,0,0,1-1.73,2.66,10.72,10.72,0,0,1-4.77,1.29A43.19,43.19,0,0,1,96.29,208.76Zm11.28.49a10.37,10.37,0,0,0,4.56-1.21,3.54,3.54,0,0,0,1.52-2.37c.57-2.73-.77-6.31-2.25-8.49-3.4-4.92-8.14-7.39-14.48-7.55-3.35-.08-7.28.1-11.07.27a91,91,0,0,1-11.67.11c-4.81-.51-6.3-2.91-7.74-5.24l-.28-.45c-1.5-2.38-5.53-6.67-7.33-6.52a.71.71,0,0,0-.49.21c-.83.83.52,2.3,1.83,3.71a8.3,8.3,0,0,1,1.94,2.65,2.56,2.56,0,0,1,0,2.16c-.5.69-1.65.86-3.79.56A25.22,25.22,0,0,1,52,184.66c-1.87-.91-3.63-1.76-4.45-1.7a.42.42,0,0,0-.3.12,1.09,1.09,0,0,0-.21,1.08c.63,2.25,6.25,5.69,10.66,7.17l1.07.35-1.23.11a45,45,0,0,1-8.62-.53,29.74,29.74,0,0,0-4.91-.38c-.57,0-.91.17-1,.36a1.35,1.35,0,0,0,.17,1.25c1.66,2.52,10.66,4.14,15.11,4.45l.83.06-.74.38a25.72,25.72,0,0,1-6,1.37c-2.35.38-5.27.84-5.44,1.41a.67.67,0,0,0,.11.63c.59.73,2.75,1.08,5.78.92,2.16-.12,5.51-.64,8.73-1.14,2.69-.42,5.24-.82,6.94-.95.3,0,.57,0,.82-.05,1.76,0,7.49,2.05,13.56,4.26,5.26,1.92,10.7,3.91,13.54,4.48A42.61,42.61,0,0,0,107.57,209.25Z" transform="translate(-6.8 -17.28)"/></g></g><path class="cls-9" d="M128.66,203.84c1-21.1-15.8-30.11-27.42-22.31a126.89,126.89,0,0,1,7.56-37.64c11.16-5.11,23.81-3.07,26.29,12.67C137.3,176.67,134.06,191.34,128.66,203.84Z" transform="translate(-6.8 -17.28)"/><path class="cls-10" d="M128.34,202.76c0-.59,0-1.2,0-1.79a29.56,29.56,0,0,0-1.39-8.35,22.76,22.76,0,0,0-3.19-6.34,18.2,18.2,0,0,0-7-5.83,16.22,16.22,0,0,0-1.67-.68,16.65,16.65,0,0,0-2.77-.66,15.63,15.63,0,0,0-4.32,0,16.2,16.2,0,0,0-4.56,1.31c-.46.21-.91.44-1.36.68-.28.15-.56.33-.85.47a2.52,2.52,0,0,1,.25-.21l.37-.26.72-.44a15.66,15.66,0,0,1,7-2h1.45a16.48,16.48,0,0,1,7.71,2.36,19,19,0,0,1,4.78,4.12,23.21,23.21,0,0,1,1.61,2.22c.24.37.45.75.67,1.14A27.39,27.39,0,0,1,129,200c0,.66.06,1.31.06,2a82.32,82.32,0,0,0,2.88-8.21c.32-1.08.62-2.18.89-3.27a82.83,82.83,0,0,0,1.73-9,93.63,93.63,0,0,0,.84-12.53,114.24,114.24,0,0,0-.7-12.4q-.18-1.14-.45-2.28a17.73,17.73,0,0,0-4.66-8.72,13.19,13.19,0,0,0-3.9-2.59l-.61-.26c-.32-.12-.67-.23-1-.33l-.36-.11-.28-.07c-.44-.11-.88-.19-1.33-.27a18.58,18.58,0,0,0-4.28-.16,25.51,25.51,0,0,0-6.79,1.52c-.67.25-1.32.52-2,.8-1,2.59-1.86,5.23-2.64,7.88-.72,2.44-1.36,4.89-1.93,7.37-.69,3-1.26,6-1.73,9.09-.39,2.51-.71,5.05-1,7.58-.1.91-.19,1.82-.28,2.74s-.16,1.82-.28,2.73v-1.15c0-.15,0-.3,0-.45l.06-1.15c0-.69.09-1.37.14-2.06.19-2.62.46-5.24.82-7.84a119.2,119.2,0,0,1,2.89-14.62c1-3.6,2.07-7.13,3.36-10.62.92-.42,1.84-.81,2.79-1.14a27,27,0,0,1,5.16-1.27c.43-.06.86-.1,1.28-.14s1-.06,1.48-.06a17.53,17.53,0,0,1,4.27.47,15.29,15.29,0,0,1,3.2,1.15,14.49,14.49,0,0,1,6.19,6,20.27,20.27,0,0,1,1.49,3.33c.23.67.44,1.38.61,2.07.07.33.15.65.22,1s.12.63.18.94l.09.53c0,.25,0,.51.08.76.08.74.15,1.49.21,2.23.17,1.92.28,3.83.35,5.74a97.8,97.8,0,0,1-.28,11.86,86.05,86.05,0,0,1-2.08,12.77,82.11,82.11,0,0,1-3.12,10c-.37,1-.76,1.94-1.16,2.89l-1.26,3C128.26,204.77,128.32,203.76,128.34,202.76Zm.71-.78c-.23.58-.47,1.15-.72,1.72l.69.16C129,203.23,129.05,202.61,129.05,202Zm5.64-45.38h0v0Zm-25.62-12.46s0-.09.05-.13l-.18.19Z" transform="translate(-6.8 -17.28)"/><path class="cls-15" d="M103.2,152.17c-.19,1.93,1.33,3.68,1.39,4.08a156.21,156.21,0,0,0-3.45,25.6" transform="translate(-6.8 -17.28)"/><path class="cls-10" d="M101.1,181.59l0-.17v-.17c0-.19,0-.39,0-.59s0-.34,0-.51c0-.33,0-.67,0-1s0-.9,0-1.34c0-1.05.13-2.1.21-3.15.24-3,.61-5.92,1.08-8.86.51-3.2,1.14-6.39,1.89-9.55,0-.08-.09-.19-.12-.26l-.35-.64a6,6,0,0,1-.72-2.2,2.91,2.91,0,0,1,0-.66.59.59,0,0,1,0-.14l.07-.18,0,.18,0,.18,0,.17,0,.17,0,.17,0,.16,0,.17,0,.15,0,.16.06.15.06.16.06.14.07.15.07.14.07.13.07.13.07.13.07.13.07.12.07.11.07.11.07.11.06.1.06.09.06.09,0,.09,0,.08,0,.07,0,.07,0,.08,0,.07v.18l-.28,1.53-.28,1.55-.28,1.54-.27,1.55-.13.78-.13.78-.13.79-.12.78-.12.79-.12.79-.12.79-.11.79-.12.8-.11.8-.1.8-.11.81-.1.8-.09.81-.1.82-.09.81-.09.82-.09.82-.09.82-.09.83-.09.83-.08.83-.1.84-.06.42-.12.42C101.13,181.76,101.11,181.68,101.1,181.59Zm3.21-25.4s0,0,0,.06a.25.25,0,0,1,0,.07Z" transform="translate(-6.8 -17.28)"/><path class="cls-9" d="M108.29,158.25l-2.79-8.93,1.74-5,10.21-3.63Z" transform="translate(-6.8 -17.28)"/><path class="cls-18" d="M126,189.47c3.65.2,21.32-54.27-17.22-45.58,11.16-5.11,23.81-3.07,26.29,12.67,2.21,20.11-1,34.78-6.43,47.28A29.36,29.36,0,0,0,126,189.47Z" transform="translate(-6.8 -17.28)"/><path class="cls-15" d="M101.45,174.74c16.5-4.42,27,1.82,30.41,20.88" transform="translate(-6.8 -17.28)"/><path class="cls-10" d="M131.79,195.44l-.09-.25c0-.09,0-.18-.07-.26-.08-.29-.14-.57-.22-.86s-.12-.45-.17-.67c-.12-.44-.23-.88-.36-1.32a42.81,42.81,0,0,0-2.12-6,20.86,20.86,0,0,0-8.12-9.78,17.13,17.13,0,0,0-3.88-1.68,21,21,0,0,0-5-.83,33.37,33.37,0,0,0-6.55.38l-1.48.25-.76.13-.77.15-.31.05-.4,0,.22-.11.14-.07.15-.05.38-.12c.45-.14.89-.27,1.35-.38a31.94,31.94,0,0,1,5-.85,24.09,24.09,0,0,1,6,.16,19,19,0,0,1,4.19,1.15,18.62,18.62,0,0,1,2.36,1.19,17,17,0,0,1,2.48,1.82A24,24,0,0,1,130.23,188a38,38,0,0,1,1.33,5.14c.08.46.16.92.22,1.39l.06.44,0,.18v.46Z" transform="translate(-6.8 -17.28)"/><path class="cls-15" d="M61.3,157.1c-2.09,3.63-3.81,8.41-3.81,11.78" transform="translate(-6.8 -17.28)"/><path class="cls-10" d="M57.41,168.68a3.2,3.2,0,0,1-.17-.71,4.62,4.62,0,0,1-.06-.64,8.32,8.32,0,0,1,.06-1.41c0-.24,0-.47.09-.7a17.43,17.43,0,0,1,.66-2.58c.13-.37.26-.73.41-1.09a18.53,18.53,0,0,1,1.08-2.19,10.54,10.54,0,0,1,1.05-1.52,3.86,3.86,0,0,1,.77-.74,4.83,4.83,0,0,1-.15.83c-.09.36-.21.73-.33,1.09-.3.87-.61,1.74-.93,2.6-.22.61-.43,1.22-.64,1.83-.12.36-.25.72-.36,1.08l-.33,1L58.14,167c-.14.46-.27.92-.43,1.38,0,.12-.09.26-.14.38a.77.77,0,0,0-.07.16A1.76,1.76,0,0,1,57.41,168.68Z" transform="translate(-6.8 -17.28)"/><path class="cls-15" d="M33.26,165.19c7.31-.77,14.63.74,21.94,7.56" transform="translate(-6.8 -17.28)"/><path class="cls-10" d="M54.79,172.51c-.29-.17-.57-.35-.84-.53L52.51,171l-.59-.38-.61-.39-1-.59-.5-.29c-.54-.31-1.11-.6-1.67-.88-.39-.2-.81-.4-1.21-.57s-1.06-.46-1.6-.66-.89-.32-1.34-.46-.83-.25-1.26-.36-1.09-.27-1.64-.39l-.6-.11-.57-.1c-.46-.07-.92-.15-1.37-.2l-.61-.07c-.68-.07-1.37-.13-2.05-.17l-1.23-.09c-.47,0-1-.06-1.42-.13a10.28,10.28,0,0,1,2-.49l.42,0c.53-.07,1.07-.11,1.61-.14h.48c.41,0,.84,0,1.26,0s.8,0,1.2.08a22.16,22.16,0,0,1,10.52,3.94,21,21,0,0,1,3.17,2.7,12.67,12.67,0,0,1,.84.95c.07.09.13.18.2.26s.13.21.2.3A3.38,3.38,0,0,1,54.79,172.51Z" transform="translate(-6.8 -17.28)"/><g class="cls-4"><g id="Group_12" data-name="Group 12"><path class="cls-22" d="M83.83,211.5c-3.58-2.21-10.74-8.25-13.47-9.83s-19.4-1.74-24.82-3.26-11.25-4.23-13.4-7.64.27-8.9,3-11.46c3.32-3,7.78-4.52,14.09-1.3s14.79,9.12,19.14,10.86,6-.41,7.88-2.27,7.33-5.34,8.33-2.91-3.76,3.49-4.6,5.22-.89,3,2.49,4.2,9.76-.71,10.42,1c1.17,3.35-6.34,4.75-10.84,4.21,4.79,3.19,12.35,4.44,12.64,6.4.33,4.5-10.61.94-14.43-.78,1.82,2.5,9.09,6.83,9.13,8.39S87.41,213.71,83.83,211.5Z" transform="translate(-6.8 -17.28)"/><path class="cls-23" d="M78.85,196.8c4.91,1.11,12.13-.05,14-2.84a.67.67,0,0,1,.12.2c1.17,3.35-6.34,4.75-10.84,4.21a26.48,26.48,0,0,0,4.47,2.29A18,18,0,0,1,78.85,196.8Z" transform="translate(-6.8 -17.28)"/><path class="cls-24" d="M68.58,190.19c-5.71-1.75-11.77-6.95-19.47-10.78-4.5-2.23-7.91-2.56-11.75-1.73,3-1.8,6.89-2.23,11.91.33,6.32,3.22,14.79,9.12,19.14,10.86s6-.41,7.88-2.27A16,16,0,0,1,82.11,183a25.36,25.36,0,0,0-5.42,4.86C73.23,191.87,70.14,190.67,68.58,190.19Z" transform="translate(-6.8 -17.28)"/><path class="cls-23" d="M81,192.6c-1.31-.3-2.85-3-1.92-4.61,1.66-1.74,4.59-2.76,5.38-4.62a1.69,1.69,0,0,1,.19.32c1,2.43-3.76,3.49-4.6,5.22-.74,1.52-.87,2.68,1.41,3.76A2,2,0,0,0,81,192.6Z" transform="translate(-6.8 -17.28)"/><path class="cls-23" d="M80.3,204A11.61,11.61,0,0,0,82,205.71a31.16,31.16,0,0,1-4.74-4.94c5.68,3.2,13.73,5.9,17.48,4C95,209.24,84.1,205.7,80.3,204Z" transform="translate(-6.8 -17.28)"/><path class="cls-23" d="M83.83,211.5c-3.58-2.21-10.74-8.25-13.47-9.83s-19.4-1.74-24.82-3.26-11.25-4.23-13.4-7.64.27-8.9,3-11.46c.29-.27.61-.53.92-.77,3.26,16.05,20.25,17.05,30.38,17.94a12.73,12.73,0,0,1,6.64,3.4c4.84,4.63,10.46,10.45,16.3,12.68C89.29,213.92,87.27,213.63,83.83,211.5Z" transform="translate(-6.8 -17.28)"/><path class="cls-25" d="M83.77,211.74c-1.82-1.13-4.55-3.22-7.17-5.24s-5-3.81-6.29-4.59-6.93-1.27-12.26-1.7c-4.9-.4-10-.82-12.52-1.53a35.79,35.79,0,0,1-9.78-4.21A12.33,12.33,0,0,1,32,190.92a6.19,6.19,0,0,1-.87-3.59A12.89,12.89,0,0,1,35,179.09c4.07-3.72,8.74-4.15,14.28-1.33,2.87,1.47,6.16,3.47,9.34,5.4a82.32,82.32,0,0,0,9.78,5.45c4,1.6,5.63-.09,7.37-1.88l.34-.35c1.57-1.6,6.22-4.73,8.06-3.52a1.55,1.55,0,0,1,.58.74c.72,1.73-.91,2.74-2.49,3.73a5.92,5.92,0,0,0-2.11,1.75,2.72,2.72,0,0,0-.4,1.85c.2.71,1.08,1.33,2.75,1.92a16.52,16.52,0,0,0,5.75.33c1.92-.1,3.57-.19,4.36.32a1.19,1.19,0,0,1,.46.58,2.2,2.2,0,0,1-.07,1.73c-1.1,2.21-6.2,3.12-9.93,2.91a44.4,44.4,0,0,0,6.46,2.85,25.73,25.73,0,0,1,4.33,1.89,2,2,0,0,1,1,1.33,2,2,0,0,1-.55,1.66c-2,2-9.38-.25-13.25-1.84a44.46,44.46,0,0,0,4,3.3c2.8,2.17,4.52,3.54,4.54,4.51a1.19,1.19,0,0,1-.4,1C88.44,214,86.5,213.43,83.77,211.74ZM89,213a.67.67,0,0,0,.23-.6c0-.68-2.39-2.52-4.29-4a28.46,28.46,0,0,1-4.77-4.21l-.54-.74.72.32c3.83,1.73,11.8,4.17,13.76,2.27a1.44,1.44,0,0,0,.43-1.23c0-.24-.3-.53-.77-.84a24.39,24.39,0,0,0-4.24-1.85,38.18,38.18,0,0,1-7.41-3.42l-1-.67,1,.11c4.06.49,9.57-.56,10.6-2.63a1.5,1.5,0,0,0,.06-1.23.47.47,0,0,0-.23-.26c-.68-.45-2.36-.36-4.13-.27a16.42,16.42,0,0,1-5.89-.35c-1.88-.66-2.82-1.37-3.08-2.33a3.28,3.28,0,0,1,.43-2.29,5.92,5.92,0,0,1,2.23-1.9c1.42-.89,2.88-1.8,2.37-3.05a.94.94,0,0,0-.37-.46c-1.5-1-5.85,1.68-7.64,3.49l-.34.35c-1.73,1.78-3.53,3.63-7.71,2a82.45,82.45,0,0,1-9.84-5.48c-3.18-1.93-6.46-3.92-9.31-5.38-5.4-2.75-9.95-2.33-13.92,1.28a12.43,12.43,0,0,0-3.78,7.9,5.58,5.58,0,0,0,.76,3.19A11.9,11.9,0,0,0,35.88,194a35.74,35.74,0,0,0,9.67,4.15c2.53.71,7.58,1.12,12.46,1.52,5.62.46,10.93.9,12.41,1.76l.68.42c1.41.93,3.47,2.52,5.66,4.2,2.62,2,5.33,4.1,7.13,5.21C86.42,212.82,88.32,213.45,89,213Z" transform="translate(-6.8 -17.28)"/></g></g><path class="cls-15" d="M65.11,138.41c3.64,18.51,22.76,18.7,31.65,9.28" transform="translate(-6.8 -17.28)"/><path class="cls-10" d="M81.13,154.24c-.29,0-.58,0-.87-.07s-.81-.1-1.21-.17l-.69-.13a15,15,0,0,1-1.71-.47c-.51-.17-1-.36-1.51-.58a7.12,7.12,0,0,1-.74-.35l-.49-.25-.8-.46a16.55,16.55,0,0,1-6.2-7.06c-.18-.37-.35-.75-.5-1.13a20.79,20.79,0,0,1-.75-2.27c-.14-.5-.25-1-.35-1.51s-.14-.92-.2-1.38c.28,1,.57,1.89.91,2.82.22.6.46,1.19.72,1.78.09.2.19.4.28.59.16.34.34.66.51,1,.29.53.61,1,.94,1.53s.63.88,1,1.3.54.64.83.94.41.42.62.61c.42.4.85.76,1.31,1.12A16.56,16.56,0,0,0,75,151.79a17.71,17.71,0,0,0,1.7.68,14.36,14.36,0,0,0,2.14.57c.35.07.69.13,1,.18a18.94,18.94,0,0,0,4,.12c.55,0,1.09-.1,1.63-.19.37-.05.74-.12,1.1-.2.59-.12,1.17-.28,1.75-.45.34-.1.69-.22,1-.34.56-.21,1.12-.43,1.67-.68l.48-.23,1-.51c.42-.23.83-.49,1.24-.75a20,20,0,0,0,1.69-1.21c.31-.24.62-.49.92-.75.12-.11.27-.22.39-.34l-.15.18-.33.4c-.29.32-.58.62-.89.91a17.61,17.61,0,0,1-3.58,2.6,19.24,19.24,0,0,1-3.42,1.49c-.29.1-.59.19-.89.27s-.85.23-1.27.31-.82.16-1.23.22l-.83.1c-.3,0-.6.05-.9.07A17,17,0,0,1,81.13,154.24Z" transform="translate(-6.8 -17.28)"/><path class="cls-15" d="M62,140c1.58,25.91,28.38,23.26,35.18,13.85" transform="translate(-6.8 -17.28)"/><path class="cls-10" d="M79.65,160.89l-1-.1a20,20,0,0,1-5.22-1.37,18.13,18.13,0,0,1-2.89-1.53,16.63,16.63,0,0,1-2.11-1.62,13.51,13.51,0,0,1-1.08-1.06,18,18,0,0,1-2.41-3.28,20.29,20.29,0,0,1-1.15-2.34c-.16-.37-.3-.76-.43-1.14s-.31-.91-.43-1.37-.27-1-.37-1.5c-.06-.27-.11-.54-.16-.81s-.09-.52-.13-.78-.09-.66-.12-1-.07-.72-.1-1.08c0-.64,0-1.27,0-1.91a47.25,47.25,0,0,0,.92,5c.17.64.35,1.26.55,1.88.13.42.29.84.45,1.25s.44,1.09.69,1.61c.18.36.36.72.55,1.07s.38.65.58,1,.27.41.41.61.43.62.67.91.45.56.69.83.49.53.75.79.74.69,1.12,1,.79.62,1.19.9.75.49,1.13.71,1,.57,1.57.81l1.2.48c.36.14.73.26,1.1.37a8.56,8.56,0,0,0,.83.23c.38.09.75.18,1.13.25a20.86,20.86,0,0,0,2.72.35c.6,0,1.2,0,1.8,0a24.76,24.76,0,0,0,4.92-.58c.65-.15,1.29-.32,1.93-.52s1.22-.42,1.82-.66c.39-.15.76-.33,1.14-.5s.76-.38,1.13-.59a17.35,17.35,0,0,0,2.73-1.91,12.47,12.47,0,0,0,1-.94c.12-.12.23-.24.34-.37a1.27,1.27,0,0,0,.14-.17c-.07.13-.16.25-.24.38a10.45,10.45,0,0,1-1.13,1.36A12.61,12.61,0,0,1,94.15,157l-.23.16c-.3.22-.62.43-.94.62a18.35,18.35,0,0,1-1.68.93l-.54.25c-.53.23-1.08.45-1.62.64A24.13,24.13,0,0,1,85,160.68c-.46.07-.91.12-1.37.17l-1,.07-.65,0C81.17,161,80.41,161,79.65,160.89Z" transform="translate(-6.8 -17.28)"/><g class="cls-4"><g id="Group_13" data-name="Group 13"><path class="cls-16" d="M10.17,54.9c6.31-3.32,23.27,7.91,29.92,17.19-5.16,4.59-12,22.7-15,36C6.16,99.14,3.87,58.23,10.17,54.9Z" transform="translate(-6.8 -17.28)"/><path class="cls-17" d="M8.09,58.19C7.47,72.86,16.83,84.9,30.2,90.91a140.93,140.93,0,0,0-5.07,17.17C8.75,100.36,4.81,68.81,8.09,58.19Z" transform="translate(-6.8 -17.28)"/><g class="cls-4"><g id="Group_14" data-name="Group 14"><path class="cls-22" d="M17.81,70.11c2.6-1.61,10.17,6,14.6,10.54,0,0-3.21,8.29-4.13,13.34C22.67,91.58,15.22,71.71,17.81,70.11Z" transform="translate(-6.8 -17.28)"/><path class="cls-23" d="M17.5,70.48c.28,5.63,3.33,12.43,8.3,15.33a14.55,14.55,0,0,1,4.1-7.71c.9.9,1.75,1.77,2.51,2.55,0,0-3.21,8.29-4.13,13.34C22.94,91.7,16,73.65,17.5,70.48Z" transform="translate(-6.8 -17.28)"/><path class="cls-25" d="M28.46,94.31l-.27-.11c-4.88-2.1-10.7-16.27-11.11-21.81-.1-1.35.1-2.16.61-2.48a1.82,1.82,0,0,1,1-.25c3.05,0,9,5.79,13.91,10.83l.11.11-.06.14c0,.08-3.21,8.32-4.11,13.29Zm3.68-13.6c-2.9-3-10.27-10.59-13.48-10.59a1.44,1.44,0,0,0-.73.18c-.19.13-.51.55-.4,2.06.43,5.76,6.21,19,10.58,21.29A100.34,100.34,0,0,1,32.14,80.71Z" transform="translate(-6.8 -17.28)"/></g></g><path class="cls-8" d="M25.29,108.41l-.26-.12C13,102.62,7.15,83.73,6.81,68.58c-.17-7.42,1.08-12.74,3.25-13.88a6.07,6.07,0,0,1,2.88-.63c7.82,0,21.57,9.84,27.34,17.89l.12.17-.16.13c-5.13,4.56-12,22.57-14.89,35.87ZM39.78,72.06c-5.66-7.77-19.33-17.53-26.84-17.53a5.78,5.78,0,0,0-2.66.57c-2,1-3.17,6.34-3,13.47.33,14.9,6,33.44,17.7,39.18C27.91,94.54,34.64,76.86,39.78,72.06Z" transform="translate(-6.8 -17.28)"/></g></g><g class="cls-4"><g id="Group_15" data-name="Group 15"><path class="cls-5" d="M83.3,60.86C89.6,53.64,92.93,39.2,98.94,35c0,0-.28,19.2-.51,30.21A153.3,153.3,0,0,1,83.3,60.86Z" transform="translate(-6.8 -17.28)"/><path class="cls-6" d="M83.3,60.86C85.8,58,87.83,54,89.75,50c1.48,3.17,5,4.29,8.88,4.59-.07,3.8-.14,7.56-.2,10.68A153.3,153.3,0,0,1,83.3,60.86Z" transform="translate(-6.8 -17.28)"/><path class="cls-8" d="M98.65,65.5l-.27-.06a152.67,152.67,0,0,1-15.16-4.36L82.91,61l.22-.25c2.87-3.29,5.13-8.11,7.31-12.77,2.6-5.56,5.07-10.82,8.37-13.11l.37-.26V35c0,.19-.28,19.32-.51,30.2Zm0-30c-3,2.36-5.37,7.37-7.85,12.67-2.14,4.57-4.35,9.29-7.16,12.62,5.48,2,13,3.81,14.52,4.17C98.41,55,98.66,38.44,98.7,35.47Z" transform="translate(-6.8 -17.28)"/></g></g><g class="cls-4"><g id="Group_16" data-name="Group 16"><path class="cls-16" d="M94.65,61.21c-1.49-10.44.91-26,6.18-27.4s11.81,6.3,15.86,17.65,2.91,20.1,0,29C112.26,75.82,104.05,66.71,94.65,61.21Z" transform="translate(-6.8 -17.28)"/><path class="cls-17" d="M104.6,68.5c8.24-9.2,7.62-23.14,1.19-33.64,4,2.49,8.06,8.64,10.9,16.6,4,11.35,2.91,20.1,0,29C113.92,77.55,109.68,72.92,104.6,68.5Z" transform="translate(-6.8 -17.28)"/><g class="cls-4"><g id="Group_17" data-name="Group 17"><path class="cls-22" d="M102.61,65.85c-.11-6.65-1.43-20.23,2.58-20.58s9.06,13.93,5.33,26.54C110.52,71.81,105.31,67.51,102.61,65.85Z" transform="translate(-6.8 -17.28)"/><path class="cls-23" d="M102.61,65.85c0-1.37-.1-3-.16-4.82,2.62.7,4.33,1.87,6.7,4.47,1.27-6.35,1.09-14.45-2.63-19.84,3.67,2.35,7.32,14.9,4,26.15C110.52,71.81,105.31,67.51,102.61,65.85Z" transform="translate(-6.8 -17.28)"/><path class="cls-25" d="M110.64,72.2l-.26-.22c-.06,0-5.24-4.3-7.89-5.94l-.1-.06v-.13c0-1.07-.07-2.34-.12-3.68-.3-7.49-.67-16.82,2.91-17.13.94-.08,2,.56,2.92,1.84,3,4,5.61,15,2.65,25Zm-2.92-25a3.35,3.35,0,0,0-2.39-1.66h-.12c-3.14.27-2.75,10.13-2.49,16.65,0,1.29.1,2.52.12,3.57,2.34,1.47,6.47,4.8,7.56,5.69C113.16,61.62,110.64,51.07,107.72,47.16Z" transform="translate(-6.8 -17.28)"/></g></g><path class="cls-8" d="M116.79,80.87l-.26-.28c-.43-.44-.89-.92-1.37-1.44C110.61,74.37,103,66.36,94.53,61.4l-.09,0,0-.11c-1.41-9.86.69-26.17,6.36-27.65a5.17,5.17,0,0,1,1.31-.17c5,0,11,7.22,14.82,18,4.37,12.25,2.58,21.24,0,29.12Zm-.32-29.33c-3.76-10.56-9.55-17.66-14.38-17.66a4.81,4.81,0,0,0-1.2.15c-4.89,1.28-7.54,16.28-6,27,8.49,5,16.08,13,20.63,17.78l1.1,1.15C119.08,72.27,120.73,63.46,116.47,51.54Z" transform="translate(-6.8 -17.28)"/></g></g><g class="cls-4"><g id="Group_18" data-name="Group 18"><path class="cls-5" d="M13.61,121.38c10.66-4.7,7.11-8.25,12.06-29.54S45.25,60.29,64.48,55.93s30.63.58,40.83,8.6,17.13,22.57,24.07,28.8c-5.51,10-14.91,18.88-45.16,24.84S20.37,125.85,13.61,121.38Z" transform="translate(-6.8 -17.28)"/><path class="cls-7" d="M102.32,65.22C86.58,53.12,62.14,55.1,45.83,63.13a62.5,62.5,0,0,1,18.65-7.2c19.23-4.35,30.63.58,40.83,8.6,5.86,4.61,10.64,11.37,15,17.48C113.47,75.89,109.81,71.46,102.32,65.22Z" transform="translate(-6.8 -17.28)"/><path class="cls-6" d="M13.61,121.38c10.66-4.7,7.11-8.25,12.06-29.54,2.87-12.33,9-21,17.36-26.88-9.36,11.85-11,28.65-8.1,44a30.64,30.64,0,0,0,7.44,14.57C28.26,124.38,17.19,123.74,13.61,121.38Z" transform="translate(-6.8 -17.28)"/><path class="cls-8" d="M13.48,121.57l-.35-.23.39-.17c7.43-3.28,7.84-6,9.2-14.79.57-3.73,1.28-8.37,2.72-14.59C30,72.43,42.7,60.63,64.43,55.71a60.16,60.16,0,0,1,13.41-1.63c10.2,0,18.46,3.07,27.61,10.27,5.86,4.61,10.69,11.43,15,17.44,3.18,4.49,6.18,8.72,9.13,11.37l.13.12-.08.16c-5.94,10.79-15.91,19.16-45.32,25-18,3.54-38.15,5.74-52.68,5.74C25.09,124.13,16.69,123.69,13.48,121.57ZM84.17,118c29.09-5.73,39-14,44.92-24.57-3-2.69-5.92-6.88-9.06-11.32-4.25-6-9.06-12.78-14.87-17.35C96.1,57.58,87.93,54.54,77.84,54.54a60.39,60.39,0,0,0-13.31,1.62C43,61,30.35,72.72,25.89,91.89c-1.44,6.21-2.15,10.84-2.72,14.56-1.33,8.64-1.78,11.65-9.07,15,2.68,1.48,8.7,2.26,17.48,2.26C46.09,123.67,66.24,121.48,84.17,118Z" transform="translate(-6.8 -17.28)"/></g></g><g class="cls-4"><g id="Group_19" data-name="Group 19"><path class="cls-16" d="M49.22,147.82c-13.3-2.68-22.92-7.41-25.67-11.31.91-.15,2.17-.15,4.16-.46-4.85-1.11-10.89-2.86-15.24-14.79,6.53-1,14.32-4.81,23.26-15.93S58.47,74.16,70.54,76.14,90.25,89.59,90.25,89.59c-2.14-6.42.23-16.12,6.65-17.19S109.78,76,117.23,82.52s10.5,9.56,15.55,11.35,7.9,1.18,9.13.69c.46,3.86-2,9-7.34,14.33a11.17,11.17,0,0,0,5-1.91c-.72,3.82-13.79,28-39.92,36.64-3.9,4-8.31,3.38-11.75,2.46C80.15,148.72,62.51,150.49,49.22,147.82Z" transform="translate(-6.8 -17.28)"/><path class="cls-17" d="M49.22,147.82c-13.3-2.68-22.92-7.41-25.67-11.31.91-.15,2.17-.15,4.16-.46-4.85-1.11-10.89-2.86-15.24-14.79,6.47-1,14.19-4.75,23-15.65-3.91,7.83-8.82,14.77-17.53,17.14,6.87,9.63,19.71,10.09,30.25,11.47-5.5,2.75-11,2.29-17,2.29,16.51,7.34,35.3,11.92,52.73,8.71-1.38-2.75-3.67-4.58-5-7.33,4.13,4.12,9.63,6.41,15.13,5.5s7.8-6.88,10.55-11c.46,2.3-.92,4.13.46,6.42,12.12-8.31,24.51-16.89,33.2-28.5-4,8-16.7,26.12-38.59,33.32-3.9,4-8.31,3.38-11.75,2.46C80.15,148.72,62.51,150.49,49.22,147.82Z" transform="translate(-6.8 -17.28)"/><path class="cls-8" d="M49.17,148c-12.38-2.49-22.76-7.07-25.81-11.4l-.21-.3.36-.06c.4-.06.86-.1,1.4-.15s.95-.07,1.53-.14c-4.26-1.06-10-3.31-14.19-14.65l-.1-.26.28,0c8-1.26,15.56-6.45,23.12-15.85,1.08-1.34,2.23-2.81,3.44-4.37,8.26-10.57,19.57-25,29.85-25a10,10,0,0,1,1.74.14c9.88,1.62,16.88,9.65,19.11,12.52a17.35,17.35,0,0,1,1.69-12.22,8,8,0,0,1,5.48-4,12,12,0,0,1,1.9-.15c5.69,0,11.34,4,18.62,10.33l2.27,2c5.82,5.14,8.75,7.72,13.2,9.31a18.23,18.23,0,0,0,6,1.19,8,8,0,0,0,3-.5l.28-.12,0,.3c.48,4-2,9.09-6.94,14.07a12.35,12.35,0,0,0,4.3-1.82l.45-.29-.1.53c-.81,4.27-14.38,28.33-40,36.8a9.93,9.93,0,0,1-7.4,3.17,17.47,17.47,0,0,1-4.46-.67c-5.53,1.86-14.86,3.05-23.79,3.05A76.22,76.22,0,0,1,49.17,148Zm38.7-2.18.06,0,.07,0a17.5,17.5,0,0,0,4.41.67,9.51,9.51,0,0,0,7.12-3.07l0,0,.06,0c24.56-8.08,38-30.52,39.63-35.93a11,11,0,0,1-4.67,1.65H134l.41-.41c5-4.89,7.61-9.92,7.3-13.84a8.89,8.89,0,0,1-2.86.42,18.84,18.84,0,0,1-6.15-1.21c-4.54-1.62-7.49-4.22-13.35-9.39l-2.27-2c-7.2-6.31-12.77-10.22-18.32-10.22a11.08,11.08,0,0,0-1.82.15,7.5,7.5,0,0,0-5.17,3.83,16.8,16.8,0,0,0-1.3,13.06L91,91.14l-1-1.42C90,89.6,82.33,78.32,70.5,76.37a10.14,10.14,0,0,0-1.66-.13c-10.06,0-21.29,14.37-29.49,24.87-1.21,1.55-2.36,3-3.44,4.37-7.55,9.38-15.12,14.61-23.13,16,4.46,12,10.78,13.42,15,14.38l1.17.26-1.19.19c-1.15.17-2.06.25-2.79.31l-1,.09c2.77,3.5,11.53,8.14,25.3,10.91a76.11,76.11,0,0,0,14.9,1.33C72.94,148.92,82.47,147.69,87.87,145.86Z" transform="translate(-6.8 -17.28)"/></g></g><g class="cls-4"><g id="Group_20" data-name="Group 20"><path class="cls-22" d="M41.5,121.38C51.78,112,46,92.39,61.6,86.54c14.08-5.3,19.79,1.6,23.61,6.79,0,0,2.65,8.92,2.19,11.31C72.87,102.38,61.49,123.65,41.5,121.38Z" transform="translate(-6.8 -17.28)"/><path class="cls-25" d="M41.47,121.61l-.49-.06.37-.34c4.35-4,5.83-9.95,7.25-15.72,1.93-7.76,3.92-15.78,12.92-19.17a26.82,26.82,0,0,1,9.29-1.92c7.48,0,11.45,4.54,14.58,8.79l0,.08c.11.36,2.66,9,2.2,11.42l0,.22-.22,0a14,14,0,0,0-2.15-.16c-5.86,0-11.35,3.67-17.17,7.55-6.68,4.46-14.25,9.52-23.56,9.52h0A27.93,27.93,0,0,1,41.47,121.61Zm26.32-9.73c5.88-3.92,11.43-7.63,17.43-7.63a13.32,13.32,0,0,1,2,.14c.25-2.52-2-10.34-2.21-11-3.06-4.15-6.94-8.57-14.19-8.57a26.37,26.37,0,0,0-9.13,1.89C52.9,90.05,51,97.61,49.05,105.6c-1.4,5.67-2.85,11.53-7,15.6.83.08,1.65.12,2.47.12h0C53.66,121.32,60.84,116.52,67.79,111.88Z" transform="translate(-6.8 -17.28)"/></g></g><g class="cls-4"><g id="Group_21" data-name="Group 21"><path class="cls-22" d="M97.89,103.07c-3.74-1.79-6.57-10.8-6.57-10.8-.76-6.73,1.26-13.48,8-13.68,13.86-.42,23.68,19.33,34.23,22C129.38,105.1,106.3,106.76,97.89,103.07Z" transform="translate(-6.8 -17.28)"/><path class="cls-25" d="M97.79,103.27c-3.79-1.8-6.57-10.56-6.69-11-.55-4.76.35-8.89,2.46-11.33a7.64,7.64,0,0,1,5.78-2.6c8.07-.24,14.65,6.13,21,12.28,4.57,4.43,8.89,8.61,13.3,9.73l.38.1-.26.28c-2.8,3-13.1,4.58-21.82,4.58h0C105.83,105.33,100.81,104.6,97.79,103.27Zm35.34-2.56c-4.4-1.29-8.64-5.4-13.12-9.74-6.27-6.09-12.77-12.4-20.66-12.15a7.18,7.18,0,0,0-5.44,2.44c-2,2.34-2.89,6.34-2.37,10.94,0,.09,2.84,8.94,6.45,10.66,3,1.29,7.9,2,13.94,2h0C121.46,104.87,130.39,103.1,133.13,100.71Z" transform="translate(-6.8 -17.28)"/></g></g><g class="cls-4"><g id="Group_22" data-name="Group 22"><path class="cls-5" d="M87.14,110c-1.09-1.72-1.84-10.37-3.27-16.85a22.38,22.38,0,0,0-8.71-13.75c-4.42-3.2-12.44-3.67-12.44-3.67L91,71.9a23.37,23.37,0,0,0-1.43,13.95c1.68,7.49,10.81,16.1,11.15,20.17C99.92,107.28,91.38,110.6,87.14,110Z" transform="translate(-6.8 -17.28)"/><path class="cls-8" d="M87.11,110.26H87l-.06-.1c-.65-1-1.15-4.24-1.78-8.3-.43-2.77-.91-5.91-1.51-8.62A22.16,22.16,0,0,0,75,79.61,15.33,15.33,0,0,0,69,76.76a11.31,11.31,0,0,0-5.62.67,1.81,1.81,0,0,1-1.09.1c.22,0,1.86-2,7.21-1.31,2.11.25,4.35,2,5.83,3a22.63,22.63,0,0,1,8.8,13.89c.6,2.73,1.09,5.87,1.51,8.65.58,3.73,1.09,7,1.67,8,4.24.5,12.27-2.72,13.2-3.86-.2-1.8-2.13-4.52-4.35-7.66-2.75-3.88-5.86-8.28-6.79-12.4-.07-.32-.13-.64-.19-1,.06-.52.16-1,.25-1.55a21,21,0,0,0,.39,2.4c.9,4,4,8.39,6.71,12.23,2.3,3.25,4.29,6.06,4.45,8v.08l0,.06c-.82,1.29-8.26,4.19-12.73,4.19A8.87,8.87,0,0,1,87.11,110.26Z" transform="translate(-6.8 -17.28)"/></g></g><g class="cls-4"><g id="Group_23" data-name="Group 23"><path class="cls-26" d="M86.66,110.45c-.15-3.59,2.83-6.64,6.8-7.26s8.48,1,8.64,4.89-2,7.72-5.81,8.33C91.51,117.18,86.81,114,86.66,110.45Z" transform="translate(-6.8 -17.28)"/><path class="cls-27" d="M93.46,103.19c3.08-.47,6.46.39,7.91,2.6a11.89,11.89,0,0,0-14.4,2.5A7.94,7.94,0,0,1,93.46,103.19Z" transform="translate(-6.8 -17.28)"/><path class="cls-28" d="M86.66,110.45a6.5,6.5,0,0,1,.19-1.77c6.67,9.56,13.53,3.93,14.77-2.46a4.49,4.49,0,0,1,.48,1.86c.15,3.9-2,7.72-5.81,8.33C91.51,117.18,86.81,114,86.66,110.45Z" transform="translate(-6.8 -17.28)"/><path class="cls-25" d="M86.43,110.46c-.15-3.63,2.85-6.86,7-7.49a10.51,10.51,0,0,1,1.69-.13c3.37,0,7.06,1.64,7.2,5.23.15,3.76-1.86,7.91-6,8.57a9.29,9.29,0,0,1-1.5.12C90.49,116.76,86.57,113.82,86.43,110.46Zm9.82,5.73c3.87-.62,5.76-4.54,5.62-8.1-.13-3.31-3.49-4.79-6.75-4.79a10.94,10.94,0,0,0-1.62.12c-3.92.6-6.75,3.62-6.61,7,.13,3.12,3.84,5.86,7.93,5.86A9.73,9.73,0,0,0,96.25,116.19Z" transform="translate(-6.8 -17.28)"/></g></g><g class="cls-4"><g id="Group_24" data-name="Group 24"><g class="cls-4"><g id="Group_25" data-name="Group 25"><path class="cls-1" d="M101,98.1c-3.15-7.17-1.68-14.56,1.79-16.49s8.8,1,11.9,6.59,2.8,11.66-.68,13.59S103.07,102.9,101,98.1Z" transform="translate(-6.8 -17.28)"/><path class="cls-29" d="M101,98.1a20.46,20.46,0,0,1-1.69-6.69,10.88,10.88,0,0,0,9,6.72c3.58.32,7.64-1.84,8.2-5.16.85,3.93,0,7.44-2.5,8.82C110.5,103.72,103.07,102.9,101,98.1Z" transform="translate(-6.8 -17.28)"/><path class="cls-25" d="M105.7,102.34a8,8,0,0,1-4.94-4.16c-3.27-7.44-1.63-14.8,1.88-16.75s9,1,12.19,6.67,2.82,11.89-.76,13.88a9.4,9.4,0,0,1-4.45,1A12.42,12.42,0,0,1,105.7,102.34Zm8.17-.73c3.37-1.88,3.63-7.84.59-13.3-2.41-4.34-6.2-7.08-9.34-7.08a4.56,4.56,0,0,0-2.27.57C99.5,83.66,98.06,91,101.15,98a7.53,7.53,0,0,0,4.69,3.93A10.81,10.81,0,0,0,113.87,101.61Z" transform="translate(-6.8 -17.28)"/></g></g></g></g><g class="cls-4"><g id="Group_26" data-name="Group 26"><path class="cls-30" d="M103.42,95.38c-1.23-3.5-.47-7,1.71-7.73s5,1.45,6.18,4.94.47,7-1.71,7.73S104.65,98.88,103.42,95.38Z" transform="translate(-6.8 -17.28)"/><path class="cls-31" d="M103.42,95.38a9.91,9.91,0,0,1-.46-1.82,8.93,8.93,0,0,0,5.38.68,11.17,11.17,0,0,0,3-1.49c1.16,3.44.39,6.81-1.76,7.57S104.65,98.88,103.42,95.38Z" transform="translate(-6.8 -17.28)"/><path class="cls-25" d="M104.56,96.11c-.88-2.49-.34-5,1.21-5.5s3.52,1,4.4,3.51.34,4.95-1.21,5.5S105.44,98.59,104.56,96.11Z" transform="translate(-6.8 -17.28)"/><path class="cls-1" d="M104.44,92a2,2,0,1,1,1.64,2.35A2,2,0,0,1,104.44,92Z" transform="translate(-6.8 -17.28)"/><path class="cls-1" d="M105.13,97.52a.91.91,0,0,1,1-.75.91.91,0,0,1-.31,1.79A.91.91,0,0,1,105.13,97.52Z" transform="translate(-6.8 -17.28)"/><path class="cls-32" d="M103.2,95.46c-1.27-3.61-.44-7.21,1.85-8a3,3,0,0,1,1.53-.12c2,.33,4,2.42,5,5.2a9.35,9.35,0,0,1,.43,5,3.81,3.81,0,0,1-2.28,3,3,3,0,0,1-1.53.12C106.17,100.32,104.18,98.23,103.2,95.46Zm6.33,4.64a3.37,3.37,0,0,0,2-2.67,8.82,8.82,0,0,0-.41-4.76c-.93-2.62-2.77-4.59-4.59-4.9a2.57,2.57,0,0,0-1.3.1c-2.06.73-2.76,4.06-1.57,7.43.92,2.62,2.76,4.59,4.58,4.9A2.62,2.62,0,0,0,109.53,100.1Z" transform="translate(-6.8 -17.28)"/></g></g><g class="cls-4"><g id="Group_27" data-name="Group 27"><g class="cls-4"><g id="Group_28" data-name="Group 28"><path class="cls-1" d="M54.45,104c-1.12-6.2,1.69-13.89,5.85-14.69C65.83,88.24,72,93.82,73.15,100a10,10,0,0,1-7.68,11.84A9.33,9.33,0,0,1,54.45,104Z" transform="translate(-6.8 -17.28)"/><path class="cls-29" d="M54.45,104c0-.18-.06-.36-.08-.55,2.82,3.32,7.74,4.31,12.08,3.31a8.86,8.86,0,0,0,6.76-6.35,10,10,0,0,1-7.74,11.46A9.33,9.33,0,0,1,54.45,104Z" transform="translate(-6.8 -17.28)"/><path class="cls-25" d="M58.54,110.74a9.75,9.75,0,0,1-4.3-6.71c-1.18-6.6,1.85-14.14,6-14.94a9.54,9.54,0,0,1,7.1,1.8,14.63,14.63,0,0,1,6,9.1,10.6,10.6,0,0,1-1.73,8.09,9.84,9.84,0,0,1-6.13,4,10.25,10.25,0,0,1-1.75.15A9.77,9.77,0,0,1,58.54,110.74Zm12.74-2.91a10.11,10.11,0,0,0,1.66-7.77,14.18,14.18,0,0,0-5.82-8.82,9.72,9.72,0,0,0-5.45-1.86,7.4,7.4,0,0,0-1.33.13c-3.89.74-6.81,8.17-5.68,14.44a9.3,9.3,0,0,0,4.11,6.43,9.47,9.47,0,0,0,6.66,1.27A9.34,9.34,0,0,0,71.28,107.83Z" transform="translate(-6.8 -17.28)"/></g></g></g></g><g class="cls-4"><g id="Group_29" data-name="Group 29"><path class="cls-30" d="M58.06,104.35c-.68-3.78,1-7.26,3.85-7.76s5.64,2.15,6.32,5.93-1,7.26-3.85,7.76S58.75,108.13,58.06,104.35Z" transform="translate(-6.8 -17.28)"/><path class="cls-31" d="M58.06,104.35a9.36,9.36,0,0,1-.13-2,11.92,11.92,0,0,0,10.13-.57c.06.25.12.51.17.77.68,3.78-1,7.26-3.85,7.76S58.75,108.13,58.06,104.35Z" transform="translate(-6.8 -17.28)"/><path class="cls-25" d="M59.08,105.62c-.48-2.71.75-5.19,2.75-5.55s4,1.53,4.52,4.24-.75,5.19-2.75,5.54S59.57,108.32,59.08,105.62Z" transform="translate(-6.8 -17.28)"/><path class="cls-1" d="M60.3,102.49A2.43,2.43,0,1,1,62.72,105,2.45,2.45,0,0,1,60.3,102.49Z" transform="translate(-6.8 -17.28)"/><path class="cls-1" d="M60.19,107.9a1.08,1.08,0,1,1,2.16,0,1.08,1.08,0,1,1-2.16,0Z" transform="translate(-6.8 -17.28)"/><path class="cls-32" d="M57.84,104.39c-.71-3.9,1.1-7.5,4-8a4.51,4.51,0,0,1,.73-.07c2.71,0,5.22,2.66,5.86,6.19.7,3.9-1.11,7.5-4,8a4.49,4.49,0,0,1-.73.06C61,110.57,58.47,107.91,57.84,104.39Zm6.5,5.67c2.68-.49,4.32-3.85,3.66-7.5-.59-3.31-2.91-5.81-5.4-5.81a3.66,3.66,0,0,0-.65.06c-2.67.48-4.32,3.85-3.66,7.5.6,3.31,2.92,5.8,5.4,5.8A4.62,4.62,0,0,0,64.34,110.06Z" transform="translate(-6.8 -17.28)"/></g></g><g class="cls-4"><g id="Group_30" data-name="Group 30"><path d="M94.14,124.07l-.22-.4c1.93-1.1,2.64-3.47,2.14-7.23l.46-.06C97,120.35,96.26,122.86,94.14,124.07Z" transform="translate(-6.8 -17.28)"/></g></g><g class="cls-4"><g id="Group_31" data-name="Group 31"><path class="cls-5" d="M80.47,62.66a18.68,18.68,0,0,0-6.66-.39L60.18,58.22S66.26,46.27,76,43.52c-1.83,2.06-4.59,5.65-5.58,8.33,4.43-3.14,11.46-6.2,16.74-1-4-.19-8.41,1.19-12.84,4.4,6.19-.46,11.39,2.9,12.15,5.73a18,18,0,0,0-8.6-.69A5.63,5.63,0,0,1,80.47,62.66Z" transform="translate(-6.8 -17.28)"/><path class="cls-7" d="M80.47,62.66a18.68,18.68,0,0,0-6.66-.39l-.15,0a11.94,11.94,0,0,1,4.83-.91,18.71,18.71,0,0,0-4.59-1.83,19.25,19.25,0,0,1,10.54,0,15,15,0,0,0-12.83-2.76c2.29-4.12,6.42-5.5,10.08-7.33C77.51,49,73,50.51,68.37,55.53a16.3,16.3,0,0,1,3.9-8.94c-4.4,2.4-8.66,8.35-12.09,11.63,2-4.14,7.88-12.46,15.86-14.7-1.83,2.06-4.59,5.65-5.58,8.33,4.43-3.14,11.46-6.2,16.74-1-4-.19-8.41,1.19-12.84,4.4,6.19-.46,11.39,2.9,12.15,5.73a18,18,0,0,0-8.6-.69A5.63,5.63,0,0,1,80.47,62.66Z" transform="translate(-6.8 -17.28)"/><path class="cls-8" d="M81,63l-.58-.14a23,23,0,0,0-6.61-.61,15.13,15.13,0,0,1,6.14,0,4.7,4.7,0,0,0-2.12-1.84l-.64-.24.66-.19a18.13,18.13,0,0,1,8.29.54C85,58.05,80.26,55,74.38,55.43l-.81.07.65-.48c4.14-3,8.28-4.49,12.37-4.45-5.4-4.73-12.3-1.15-16,1.46l-.61.43.26-.7A30.9,30.9,0,0,1,75.34,44a21.38,21.38,0,0,0-7.14,4.28,39.84,39.84,0,0,0-8,10A33.73,33.73,0,0,1,67.76,48,21.55,21.55,0,0,1,76,43.29l.75-.21-.52.59A34.66,34.66,0,0,0,71,51.22c3.49-2.32,10.85-6,16.39-.57l.43.42-.61,0c-4-.19-8,1.13-12,3.9C81.3,54.79,86,58.2,86.73,60.88l.12.42-.42-.15a18.51,18.51,0,0,0-7.79-.8,6.46,6.46,0,0,1,2,2.08Z" transform="translate(-6.8 -17.28)"/></g></g><path class="cls-18" d="M130.29,147c-4.71-3.47-9.89-6.14-18-4.12-2.81,1.12-4.91,1.91-7.15,2.74,3.24-5,6.16-6.1,9.09-8.31C123.39,139.78,129.29,142.9,130.29,147Z" transform="translate(-6.8 -17.28)"/><path class="cls-15" d="M77.74,121.28c10,6,19.45,4.38,28.56-4.08" transform="translate(-6.8 -17.28)"/><path d="M86.61,125.33a19.22,19.22,0,0,1-3.07-.79c-.55-.2-1.08-.41-1.62-.65a18.37,18.37,0,0,1-2.28-1.2,12.47,12.47,0,0,1-1.9-1.41c.3.11.61.23.91.36l.49.2.85.34,1.16.44A26.21,26.21,0,0,0,86.81,124a19.54,19.54,0,0,0,5,0,21.32,21.32,0,0,0,3.62-.82c.44-.14.86-.29,1.29-.45l.75-.31c.25-.1.51-.21.75-.33.67-.3,1.33-.64,2-1a55,55,0,0,0,4.77-3c.31-.22.62-.42.93-.63.13-.09.27-.17.39-.26a1.94,1.94,0,0,1-.21.29c-.1.14-.21.27-.33.41-.33.39-.69.76-1,1.12a26,26,0,0,1-3.7,3,21.67,21.67,0,0,1-7.17,3.13A18.47,18.47,0,0,1,86.61,125.33Z" transform="translate(-6.8 -17.28)"/><path class="cls-15" d="M90.07,129.1a8.92,8.92,0,0,0,4.93.6,16.3,16.3,0,0,0,6.61-2.87" transform="translate(-6.8 -17.28)"/><path d="M93.36,130.44l-.53-.07a6,6,0,0,1-1.86-.59,3.19,3.19,0,0,1-.9-.68,8.12,8.12,0,0,1,1,0l.54,0,.54,0h1l.61,0,.6-.06.58-.09.36-.07c.35-.07.7-.16,1-.26.61-.17,1.21-.37,1.8-.59s1.13-.44,1.7-.66c.33-.13.67-.27,1-.38l.49-.14.33-.07a1.2,1.2,0,0,1-.13.21,3.61,3.61,0,0,1-.52.59,8.37,8.37,0,0,1-1.57,1.2A10.87,10.87,0,0,1,96,130.25a8.7,8.7,0,0,1-.89.15l-.21,0c-.29,0-.61,0-.9,0ZM94.9,129h0Z" transform="translate(-6.8 -17.28)"/><path class="cls-15" d="M79.86,119.27c-2.13,1.15-2.65,3-2.27,5.1" transform="translate(-6.8 -17.28)"/><path d="M77.22,124a2.77,2.77,0,0,1-.35-1.22,3.21,3.21,0,0,1,0-.62c0-.12,0-.24.05-.36a3.42,3.42,0,0,1,.93-1.72,3.07,3.07,0,0,1,.64-.5,1.83,1.83,0,0,1,1.36-.27,4.32,4.32,0,0,1-.58,1l-.18.26-.15.23a4.64,4.64,0,0,0-.43.79,6.68,6.68,0,0,0-.34,1l-.15.59a5.92,5.92,0,0,1-.27.91,3.18,3.18,0,0,1-.16.32A1.07,1.07,0,0,1,77.22,124Z" transform="translate(-6.8 -17.28)"/><path class="cls-15" d="M105.12,116a2.71,2.71,0,0,1,.27,3.47" transform="translate(-6.8 -17.28)"/><path d="M105.36,118.91a10.36,10.36,0,0,0,.08-1.11,3.5,3.5,0,0,0-.08-.64c0-.12,0-.24-.08-.36a2.91,2.91,0,0,1-.16-.82,1.29,1.29,0,0,1,.88.63,2.15,2.15,0,0,1,.08,2.19,1.33,1.33,0,0,1-.68.66A1.68,1.68,0,0,1,105.36,118.91Z" transform="translate(-6.8 -17.28)"/><path d="M39.33,90.35l90.08-13.26c2.08,7.37,1.52,13.88-1.32,21-19.86,10.59-29.48,5.47-38.34-9.43a3.29,3.29,0,0,0-4.16.38c-3.3,22-19.73,23.12-29.94,24.37C40.09,111.83,38.44,96,39.33,90.35Z" transform="translate(-6.8 -17.28)"/><path d="M22.21,106.22l17.14-15.9,1.19,8.45L21.84,112C20.69,111.84,21.32,106,22.21,106.22Z" transform="translate(-6.8 -17.28)"/><path class="cls-23" d="M22.21,106.22,38.34,91.63c-.62,1.78-.08,4.84.67,6.69-6.13-.76-15.65,8.57-16.48,9.79a4.16,4.16,0,0,0-.69,3.91C20.69,111.84,21.32,106,22.21,106.22Z" transform="translate(-6.8 -17.28)"/><path class="cls-1" d="M56.13,88.38c-4.59,8.18-8.31,15.76,1.09,23.94C44.72,110.18,35.89,93,56.13,88.38Z" transform="translate(-6.8 -17.28)"/><path class="cls-1" d="M104.48,81.17c.13-.15.37-.24.36-.15-3,20.83,10.47,20.76,10.88,20.8C101.33,104.06,94.71,92.24,104.48,81.17Z" transform="translate(-6.8 -17.28)"/><path d="M98,90.94l.1-8.79,10.78-2.08,2.84,9C108.56,91.12,103.35,94.87,98,90.94Z" transform="translate(-6.8 -17.28)"/><path d="M43.32,98.6c-9-.29,1.63-5.5,0-8.51l13.08-2.2L59.15,97C53.33,98.41,46.13,101.92,43.32,98.6Z" transform="translate(-6.8 -17.28)"/><path class="cls-33" d="M45.11,108.82c-5.78-5.55-6.4-14.5-5.78-18.47l1.08-.12c-1.49,13.77,8,29.28,31.49,19.15a32.82,32.82,0,0,1-16.25,4A17.22,17.22,0,0,1,45.11,108.82Z" transform="translate(-6.8 -17.28)"/><path class="cls-33" d="M101.82,101.63c-6-3.14-9.81-8.76-11.76-13l3.09,3.41c6.52,10,18.23,16.25,35.21,5.58-3.43,3.4-8.37,5.4-14.52,6.27A20.74,20.74,0,0,1,101.82,101.63Z" transform="translate(-6.8 -17.28)"/></g></g></svg>