<svg xmlns="http://www.w3.org/2000/svg" xmlns:xlink="http://www.w3.org/1999/xlink" viewBox="0 0 212.98 203.99"><defs><style>.cls-1{fill:#c4424a}.cls-1,.cls-10,.cls-11,.cls-12,.cls-13,.cls-14,.cls-15,.cls-16,.cls-17,.cls-18,.cls-19,.cls-2,.cls-20,.cls-21,.cls-22,.cls-23,.cls-24,.cls-25,.cls-26,.cls-27,.cls-28,.cls-29,.cls-3,.cls-30,.cls-31,.cls-32,.cls-33,.cls-34,.cls-35,.cls-36,.cls-37,.cls-38,.cls-39,.cls-4,.cls-40,.cls-41,.cls-5,.cls-6,.cls-7,.cls-8,.cls-9{fill-rule:evenodd}.cls-2,.cls-25{fill:#949194}.cls-3{fill:#737373}.cls-4{fill:#ccc}.cls-26,.cls-5{fill:#383838}.cls-6{fill:#b22129}.cls-7{fill:#471212}.cls-42,.cls-8{fill:none}.cls-30,.cls-9{fill:#fff}.cls-10{fill:#f5ede5}.cls-11{fill:#dbc7b8}.cls-12{fill:#4c080d}.cls-14{fill:#8f191f}.cls-15{fill:url(#Linear_Gradient_1)}.cls-16{fill:url(#Linear_Gradient_1-2)}.cls-17{fill:url(#Linear_Gradient_1-3)}.cls-18,.cls-22{fill:#474a47}.cls-19,.cls-23{fill:#333}.cls-20,.cls-24{fill:#0d0d0d}.cls-21{fill:#7d7d7d}.cls-22,.cls-23,.cls-24,.cls-25,.cls-26,.cls-27,.cls-28,.cls-29,.cls-30,.cls-31,.cls-32,.cls-33,.cls-34{stroke:#fff;stroke-miterlimit:10;stroke-width:3.9px}.cls-27,.cls-35{fill:#242424}.cls-28,.cls-36{fill:#666}.cls-29,.cls-37{fill:#141414}.cls-31,.cls-38{fill:#c4c4c4}.cls-32,.cls-39{fill:#0091ff}.cls-33,.cls-40{fill:#005ccc}.cls-34,.cls-41{fill:#002e82}</style><linearGradient id="Linear_Gradient_1" x1="117.23" x2="84.61" y1="212.49" y2="191.29" gradientUnits="userSpaceOnUse"><stop offset="0" stop-color="#fff"/><stop offset="1" stop-color="#fff"/></linearGradient><linearGradient id="Linear_Gradient_1-2" x1="118.68" x2="73.25" y1="210.62" y2="176.38" xlink:href="#Linear_Gradient_1"/><linearGradient id="Linear_Gradient_1-3" x1="114.66" x2="57.29" y1="216.02" y2="173.63" xlink:href="#Linear_Gradient_1"/></defs><title>Racoon-flushed</title><g id="Layer_1" data-name="Layer 1"><path d="M83,193.32A94.52,94.52,0,0,1,129.59,16.71h.57a94.54,94.54,0,0,1,89.93,122.52l0,0-35.57-33.37A54.93,54.93,0,1,0,129,166.16l35.23,33,0,0a95.34,95.34,0,0,1-34.1,6.51h-.65A94.12,94.12,0,0,1,83,193.32Z" class="cls-1" transform="translate(-11.35 -16.71)"/><path d="M224.17,195.45,99.77,76.28c5.7-7.17,13.37-13.51,31.43-15.48l93,90.81Z" class="cls-1" transform="translate(-11.35 -16.71)"/><path d="M176.24,202.43,81.43,113.55c1.18-18.13,7.17-26.07,14.08-32.09L220,200.51Z" class="cls-1" transform="translate(-11.35 -16.71)"/><path d="M114,184c-3.88-8.86-.31-19.9,11.19-21.44s22.21,11.63,27.15,20.77a57.85,57.85,0,0,1,5.65,18.38c-.31.19-.62.38-.92.58q-5.13,3.18-10.49,5.85c-2.38,1.18-4.8,2.28-7.24,3.3-1.24.52-2.49,1-3.75,1.49C128.38,204.7,119.35,196.35,114,184Z" class="cls-2" transform="translate(-11.35 -16.71)"/><path d="M146.32,192.22c-4.43-13.28-15.43-28.1-29.2-26.22a15,15,0,0,1,8-3.46c11.5-1.54,22.21,11.63,27.15,20.77a57.85,57.85,0,0,1,5.65,18.38c-.31.19-.62.38-.92.58q-4.91,3-10,5.62A35.84,35.84,0,0,0,146.32,192.22Z" class="cls-3" transform="translate(-11.35 -16.71)"/><path d="M114,184a16.4,16.4,0,0,1,.4-14.56c0,6.85.35,10.11,3.49,16.26,3.79,8.92,12.75,17.25,18.37,24.83l1.26,1.65c-.64.26-1.28.51-1.93.75C128.38,204.7,119.35,196.35,114,184Z" class="cls-4" transform="translate(-11.35 -16.71)"/><path d="M131.07,208.33c-6.08-6.66-13-14.2-17.35-24.24a16.8,16.8,0,0,1,.18-14.38,14.26,14.26,0,0,1,11.21-7.43c11.86-1.59,22.8,12.39,27.39,20.9a57.63,57.63,0,0,1,5.65,18.37l-.44.28a57.49,57.49,0,0,0-5.63-18.38c-4.54-8.4-15.31-22.2-26.91-20.65-4.93.66-8.78,3.2-10.84,7.16a16.23,16.23,0,0,0-.16,13.9c4.35,10,11.2,17.47,17.25,24.09,1.52,1.66,3,3.27,4.38,4.86l-.52.2C133.94,211.47,132.53,209.92,131.07,208.33Z" class="cls-5" transform="translate(-11.35 -16.71)"/><path d="M134,204.25l-14.34-30.81c-2.45-18.59,13.83-19.64,23.56-9.28A85.54,85.54,0,0,1,157.83,195C148.8,196,140.2,197.89,134,204.25Z" class="cls-6" transform="translate(-11.35 -16.71)"/><path d="M134,204.25h0L132.84,202l-.77-1.5-.76-1.52c-.38-.76-.77-1.52-1.14-2.28l-1.5-3.05c-.74-1.53-1.49-3-2.23-4.58s-1.48-3.06-2.22-4.59-1.47-3.05-2.2-4.59c-.25-.51-.52-1-.73-1.53l-1.47-3.07a4.49,4.49,0,0,0-.73-1.53l0-.1a.61.61,0,0,1,0-.14l-.06-.39c-.07-.62-.14-1.25-.17-1.87a25.06,25.06,0,0,1,0-2.6c0-.6.09-1.19.17-1.79a14.19,14.19,0,0,1,1.31-4.39,10.43,10.43,0,0,1,.86-1.43,9.66,9.66,0,0,1,1.21-1.42l.31-.28a8,8,0,0,1,1.14-.87,9.68,9.68,0,0,1,1.56-.82,11.92,11.92,0,0,1,5.57-.8c.44,0,.88.1,1.32.17a14,14,0,0,1,1.56.34c.52.15,1,.31,1.54.5s1,.41,1.52.64c.33.15.65.31,1,.49.54.29,1.06.59,1.57.93l.62.41.53.38c.52.39,1,.8,1.54,1.24.3.27.62.55.91.85s.43.41.63.64a1.34,1.34,0,0,1,.2.21l.16.21.37.51c.37.5.73,1,1.08,1.51.58.84,1.16,1.69,1.71,2.55.4.62.79,1.23,1.17,1.86.15.23.29.48.43.71s.34.58.51.87c.36.6.7,1.21,1,1.82q1.15,2.1,2.19,4.26a83.6,83.6,0,0,1,3.29,7.95c.35,1,.69,2,1,3,.16.51.31,1,.47,1.54s.28,1,.41,1.45c.18.67.36,1.33.53,2s.26,1.1.41,1.65l-1.73.2c-.88.1-1.76.2-2.63.33l-1.32.19-1.55.25-1.22.23-1.19.25c-.69.15-1.37.32-2,.5l-1.16.32-.53.17-.61.19-.67.23-.45.16-.73.28c-.73.29-1.46.61-2.16.95l-.6.3c-.3.16-.6.32-.89.49l-.26.14-.56.33c-.46.27-.9.58-1.34.88-.28.19-.55.38-.81.59l-.67.52c-.31.25-.63.51-.93.78s-.35.3-.51.47Zm0,0Zm.12-.13.23-.25c.31-.33.61-.64.94-1a23.46,23.46,0,0,1,3.32-2.64c.39-.26.8-.51,1.21-.75q1.21-.7,2.49-1.29c.37-.17.75-.34,1.13-.49l.56-.22c.53-.21,1.07-.41,1.61-.59l.69-.23,1.5-.44c1.05-.3,2.12-.54,3.18-.78l1.49-.29c.48-.1,1-.18,1.45-.26,1-.17,2.1-.32,3.15-.47l-.35-1.28c-.18-.64-.37-1.27-.57-1.91l-.24-.78c-.27-.88-.57-1.76-.88-2.62q-.33-1-.69-1.89l-.35-.92c-.21-.51-.41-1-.62-1.54s-.4-1-.61-1.44c-.14-.3-.27-.6-.4-.91l-.26-.57c-.23-.51-.48-1-.72-1.52s-.48-1-.73-1.48-.64-1.26-1-1.89c-.48-.88-1-1.76-1.48-2.63s-1.09-1.81-1.65-2.71-1.11-1.71-1.68-2.55l-.93-1.34c-.43-.59-.85-1.18-1.28-1.76s-.89-.9-1.36-1.32c-.23-.21-.46-.41-.7-.6l-.61-.49c-.22-.18-.45-.35-.68-.51-.41-.28-.81-.55-1.22-.8s-.94-.55-1.43-.79c-.31-.15-.62-.31-.94-.45l-.39-.16a17.93,17.93,0,0,0-1.74-.61,14.82,14.82,0,0,0-1.6-.37l-.53-.08c-.23,0-.47-.07-.7-.08l-.85,0h-.48l-.6,0-.36,0a8.7,8.7,0,0,0-1.12.18l-.65.17a5.44,5.44,0,0,0-.57.19c-.18.07-.34.13-.51.21a8,8,0,0,0-2.67,1.9,9,9,0,0,0-1.47,2.13,12.88,12.88,0,0,0-1.19,3.9,21.73,21.73,0,0,0-.14,4.56c0,.51.09,1,.15,1.53l3.46,7.63c.7,1.55,1.39,3.1,2.09,4.66.46,1,.93,2.06,1.39,3.1l1.38,3.11,1.37,3.11c.23.52.47,1,.69,1.56.34.78.68,1.56,1,2.34l.68,1.57c.33.78.66,1.57,1,2.35,0,0,.6,1.44.66,1.57Zm23.63-9.75-.68.09.18.69C157.43,194.88,157.6,194.62,157.76,194.36ZM120.3,173.24a.54.54,0,0,1,0-.11l.06.21A.34.34,0,0,1,120.3,173.24Zm22.33-8.57,0,0,0,0Z" class="cls-7" transform="translate(-11.35 -16.71)"/><path d="M87.2,181.44c-.2,2.18-2.13,3.78-2.27,4.21a188.51,188.51,0,0,1-1.72,29" class="cls-8" transform="translate(-11.35 -16.71)"/><path d="M83.21,214.68l-.1,0,0,0,0-.07L83,214.4l-.09-.25-.09-.49-.09-1,0-1,0-.94v-1.87l0-.93,0-.92,0-.92,0-.92,0-.91,0-.91,0-.9,0-.91,0-.9,0-.9,0-.89,0-.89.08-1.79.08-1.77.09-1.77.09-1.76.1-1.76.11-1.75.14-1.76,0-.27.08-.26,0-.12.1-.15.08-.11.08-.1.08-.08.08-.09.08-.08.09-.08.09-.09.09-.08.1-.09.1-.09.1-.1.1-.09.11-.11.11-.1.1-.11.11-.11.11-.11.11-.12.11-.12.11-.12.11-.13.1-.12.11-.14.1-.13.11-.14.11-.15.1-.15.12-.16.14-.16.09-.08.06-.05,0,0h.09l.09,0,0,0,0,.06.06.12.07.23,0,.24v.47l0,.22,0,.23,0,.22-.06.21-.06.21-.08.2-.07.2-.08.19-.09.18-.09.18-.09.17-.09.16-.09.16-.08.15-.09.14-.08.13-.08.12-.08.11-.06.11h0l.15,1.48.12,1.78L86.5,191l0,1.79v1.8l0,1.81-.07,1.82,0,.91,0,.91-.07.92-.08.92-.08.92-.1.92-.11.92-.12.92-.13.92-.15.93-.16.92-.17.93-.2.92-.21.93-.24.92-.28.92-.35.91-.22.44-.15.22-.1.11-.07.05,0,0ZM86,186.25l0-.05,0,0,0-.08h0l0,.07,0,.05v0Zm.08-.16,0-.08.06-.09,0-.28,0,.27Z" class="cls-9" transform="translate(-11.35 -16.71)"/><path d="M80,205.42c-14.27-12.94-26.68-13-36.85,2.33" class="cls-8" transform="translate(-11.35 -16.71)"/><path d="M43.13,207.77l0,0,0,0a.09.09,0,0,1,0-.05,1,1,0,0,1,0-.43c0-.05,0-.09,0-.14l0-.17.06-.18c0-.08.06-.16.09-.25.1-.24.21-.48.32-.71.22-.46.47-.91.73-1.34a22.92,22.92,0,0,1,1.92-2.75,22.67,22.67,0,0,1,4.94-4.6,18.47,18.47,0,0,1,4.22-2.1,17.38,17.38,0,0,1,3.47-.77,19.28,19.28,0,0,1,10,1.8,28.08,28.08,0,0,1,4.13,2.34,31.44,31.44,0,0,1,3.8,3c.46.42.91.88,1.34,1.34.18.2.37.39.54.6l.29.34.33.45.22.29.14.25.1.16c.07.14.22.43.12.58l0,0-.06,0a1,1,0,0,1-.42-.06l-.3-.13-.48-.24-.54-.29-.74-.44-1.27-.78c-1-.6-2-1.2-3-1.77-.75-.43-1.52-.83-2.29-1.22A22.07,22.07,0,0,0,59.8,197.8a15.6,15.6,0,0,0-6.07,1.64A24.42,24.42,0,0,0,48.6,203c-.8.7-1.57,1.42-2.33,2.17-.52.51-1,1-1.57,1.54a9.1,9.1,0,0,1-.88.78l-.25.19a.89.89,0,0,1-.38.15Z" class="cls-9" transform="translate(-11.35 -16.71)"/><path d="M84.56,220.39c-.76,0-1.52-.12-2.28-.19-1-.09-2-.2-3-.32-2.8-15-11.06-39.5-12.26-45.19-1.33-6.28,12.78-9.43,16.44-10.82s27.1-8.65,27.1-8.65c8.71,4.72,19.3,12.61,17.93,28.95a78,78,0,0,0,2.8,30.28,120.11,120.11,0,0,1-22.77,5.26,118.81,118.81,0,0,1-17.68,1C88.71,220.64,86.64,220.54,84.56,220.39Z" class="cls-10" transform="translate(-11.35 -16.71)"/><path d="M84.56,220.39c-.76,0-1.52-.12-2.28-.19-1-.09-2-.2-3-.32-2.8-15-11.06-39.5-12.26-45.19-1.33-6.28,12.78-9.43,16.44-10.82,2.32-.89,12.66-4.15,19.87-6.4,4.48,8.9,8.85,17.93,8.85,28.22-6.48-2.62-10-16.24-16.44-10.48-11,10,2,24.1,7.47,35.62,1.91,3.68-1.66,6.43-4.62,9.75-2.58.12-5.17.15-7.75.1C88.71,220.64,86.64,220.54,84.56,220.39Z" class="cls-11" transform="translate(-11.35 -16.71)"/><path d="M103.62,169.61a12.94,12.94,0,0,0-10-4.43h-.25v-.53a13.49,13.49,0,0,1,10.68,4.72,18.43,18.43,0,0,1,4.09,9.15A21.22,21.22,0,0,0,103.62,169.61Z" class="cls-5" transform="translate(-11.35 -16.71)"/><path d="M79,219.85c-1.8-9.61-5.82-23.06-8.88-33.27-1.64-5.48-2.94-9.81-3.36-11.83-1.17-5.51,8.78-8.63,14.12-10.32,1-.31,1.89-.59,2.47-.81,3.62-1.38,26.88-8.58,27.12-8.65l.09,0,.09.05c8.43,4.56,19.47,12.54,18.07,29.2a77.27,77.27,0,0,0,2.79,30.18l-.47.16a77.54,77.54,0,0,1-2.82-30.39c1.37-16.28-9.42-24.14-17.71-28.64-1.64.51-23.5,7.28-27,8.61-.6.23-1.48.51-2.49.83-5.19,1.63-14.85,4.66-13.79,9.7.42,2,1.72,6.31,3.35,11.78,3.08,10.28,7.14,23.84,8.93,33.49Z" class="cls-5" transform="translate(-11.35 -16.71)"/><path d="M84.56,220.39c-.76,0-1.52-.12-2.28-.19-3.15-.28-6.28-.71-9.4-1.25s-6-1.17-9-1.93a48,48,0,0,0-.9-8l5.91-45.53,20.33,6.6c15.58,10,28.5,8.44,34.16-13.25,5,9.13,7.65,27.59,10.34,46.27.48,3.32,1,6.64,1.59,9.9a120.13,120.13,0,0,1-26.83,6.71,118.81,118.81,0,0,1-17.68,1C88.71,220.64,86.64,220.54,84.56,220.39Z" class="cls-6" transform="translate(-11.35 -16.71)"/><path d="M135.14,203.86c.09.58.65,4,1.42,8.66M63.87,217a48,48,0,0,0-.9-8l13.11-44.34,47.29-7.84" class="cls-8" transform="translate(-11.35 -16.71)"/><path d="M63.17,216.84c0-.11,0-.21,0-.31,0-.51,0-1-.08-1.54s-.08-1-.13-1.48-.1-.89-.16-1.33c-.07-.63-.17-1.27-.28-1.9l-.12-.65a1.43,1.43,0,0,0,0-.22v-.07s0-.05,0-.08a1.43,1.43,0,0,1,0-.22l0-.07a1.77,1.77,0,0,1,.06-.17c.22-.74.81-1.46.66-2.22s.44-1.48.66-2.21.49-1.47.66-2.22.44-1.47.66-2.21l.66-2.22c.23-.74.45-1.47.67-2.21s.44-1.48.66-2.22l2-6.64q3.36-11.24,6.75-22.45,13.17-2.1,26.35-4.15l4.73-.73,4.74-.73,4.74-.7,7.11-1.06-4.71.87-7.08,1.3-2.36.42-4.72.84q-14,2.48-28,4.88-6.37,22-12.8,43.91c.22,1.17.41,2.35.56,3.53.18,1.42.29,2.85.34,4.28,0,.11,0,.22,0,.34Zm72.7-8c-.17-1.14-.35-2.29-.51-3.44l-.15-1.06c0-.12,0-.24-.05-.36a.77.77,0,0,1,0-.15,1.38,1.38,0,0,0,0,.2c0,.14.05.27.08.4.08.42.15.85.23,1.27l.66,3.64c.18,1,.37,2.07.56,3.1l-.28.1C136.23,211.34,136.05,210.11,135.87,208.87Zm-72.2.18,0-.18c0,.12,0,.24,0,.36C63.64,209.17,63.65,209.11,63.67,209.05Zm12.8-43.91.09-.31-.4.37Z" class="cls-7" transform="translate(-11.35 -16.71)"/><path d="M129.78,178.47c-.05-.28-1.69,4.66,0,8,1.2,6.63,3.28,16.83,5.34,26.62" class="cls-8" transform="translate(-11.35 -16.71)"/><path d="M133.27,208q-1.16-5.62-2.21-11.27-.48-2.56-.92-5.15c-.28-1.64-.56-3.29-.8-4.94a6.54,6.54,0,0,1-.41-1.2l-.09-.44c0-.21-.06-.43-.09-.64a8.54,8.54,0,0,1-.05-1,12.66,12.66,0,0,1,.31-2.68,9.15,9.15,0,0,1,.31-1.14c.06-.18.12-.36.19-.55a3.26,3.26,0,0,1,.18-.38.32.32,0,0,1,.08-.12h0a.84.84,0,0,0-.09.28c0,.12-.06.24-.08.36-.07.4-.13.79-.18,1.19a14.87,14.87,0,0,0-.11,1.63,12.32,12.32,0,0,0,.07,1.61c0,.19.05.37.08.55s0,.13,0,.2c0,.22.09.43.15.64a5.18,5.18,0,0,0,.34.93,2.06,2.06,0,0,0,.17.33.69.69,0,0,1,.05.13c0,.06,0,.14,0,.2s0,.18.05.27.05.23.08.34c.14.67.28,1.33.43,2l.72,3.34.69,3.22.42,2c.35,1.62.7,3.25,1,4.87.72,3.43,1.45,6.86,2.16,10.3l-1.45.54C134,211.55,133.64,209.76,133.27,208Zm-3.94-21.42s0,0,0,.06l0,.07C129.36,186.63,129.35,186.59,129.33,186.55Z" class="cls-7" transform="translate(-11.35 -16.71)"/><path d="M46.29,211c3.45-6,9.17-11.33,14.49-15.6l16.83,16.35a71.47,71.47,0,0,1-11.17,5.88A119.39,119.39,0,0,1,46.29,211Z" class="cls-12" transform="translate(-11.35 -16.71)"/><path d="M65.9,217.52c.8-.31,1.59-.63,2.38-1,1.9-.83,3.76-1.76,5.6-2.75L76,212.65c.47-.26.93-.54,1.42-.76l.24-.12-.35-.26s-.21-.17-.23-.19l-.21-.19-.55-.49-.86-.79-.43-.4-.86-.8-2.56-2.41c-3.62-3.41-7.2-6.87-10.8-10.3-1.17,1-2.34,1.94-3.47,2.95S55,201,53.92,202.08a52,52,0,0,0-5.37,6.26c-.66.92-1.29,1.87-1.86,2.85l-.8-.35c.4-.69.82-1.37,1.27-2a50.29,50.29,0,0,1,6.34-7.51c.84-.82,1.69-1.63,2.56-2.41s1.92-1.69,2.9-2.5l1.84-1.49c.64.63,1.24,1.19,1.9,1.87l3.35,3.3q2.51,2.48,5,5l2.49,2.49,1.24,1.26c.42.41.83.83,1.24,1.25.2.21.41.42.61.64s.26.29.39.44l.59.66-.32.26-.21.17-.23.15-.56.38-1.34.86c-1.59,1-3.24,1.9-4.91,2.74-1,.51-2,1-3.07,1.44ZM61,195.74l-.48,0,.23.23A2.43,2.43,0,0,1,61,195.74Z" class="cls-13" transform="translate(-11.35 -16.71)"/><path d="M63.87,217a48,48,0,0,0-.9-8l7.48-40,19.86-4.58c8.5-6.06,23-4.69,33.06-7.63l-32.7,7.54-.36.09a15.23,15.23,0,0,0-4.14,4.35c-11.76,18.69-17.83,35-19.75,48.83C65.57,217.44,64.72,217.24,63.87,217Z" class="cls-14" transform="translate(-11.35 -16.71)"/><path d="M72.88,219a118.34,118.34,0,0,1-23.7-6.73,51.31,51.31,0,0,1-1.43-13.74c.55-9.58,4.48-24.39,15.1-26.22s18.24,7.08,18.49,16.12c.35,12.11-3.72,21.83-6.58,30.88Z" class="cls-2" transform="translate(-11.35 -16.71)"/><path d="M49.18,212.22a51.31,51.31,0,0,1-1.43-13.74c.55-9.58,4.48-24.39,15.1-26.22a15,15,0,0,1,8.38.87C58.5,175.28,55,191.66,56.58,204.81a34.26,34.26,0,0,0,4.1,11.34A118.05,118.05,0,0,1,49.18,212.22Z" class="cls-3" transform="translate(-11.35 -16.71)"/><path d="M72.88,219l-.16,0,.12-.52C74.63,210,79,200.06,78.65,191c.23-6.39-.82-9.42-3.61-15.57a17.61,17.61,0,0,1,6.3,13c.35,12.11-3.72,21.83-6.58,30.88Z" class="cls-4" transform="translate(-11.35 -16.71)"/><path d="M74.5,219.22c.46-1.45,1-2.93,1.46-4.44,2.55-7.63,5.43-16.29,5.14-26.44a17.39,17.39,0,0,0-5.82-12.44,14.69,14.69,0,0,0-12.35-3.4c-10.72,1.84-14.44,17.24-14.94,26a51.55,51.55,0,0,0,1.44,13.78l-.5-.2a51.85,51.85,0,0,1-1.43-13.7C48,189.5,51.81,173.9,62.77,172a15.2,15.2,0,0,1,12.78,3.54,18,18,0,0,1,6,12.87c.29,10.23-2.61,18.93-5.17,26.6-.49,1.45-1,2.88-1.41,4.28Z" class="cls-5" transform="translate(-11.35 -16.71)"/><path d="M77.68,211.67c-7.37-11.8-23.41-13.95-31.67-.77-1-.42-1.93-.85-2.88-1.3.37-12,3.23-24.78,11.06-38.85,8.11-12.86,21-7.83,29.9,2.84A121.21,121.21,0,0,1,77.68,211.67Z" class="cls-6" transform="translate(-11.35 -16.71)"/><path d="M93.44,197.85a17.13,17.13,0,0,1,15-9.29h.1A16.47,16.47,0,0,1,117,191c7.18,4.36,10.31,13.38,8,21.45h0l-6.51-6.5a10.74,10.74,0,0,0-5-8.24,9.73,9.73,0,0,0-13.71,4,11.09,11.09,0,0,0,3.75,14.6,9.54,9.54,0,0,0,4.83,1.41l1.79,1.79,0,0-1.65.22q-5.77.75-11.6.94A19.29,19.29,0,0,1,93.44,197.85Z" class="cls-15" transform="translate(-11.35 -16.71)"/><path d="M120.07,217.61,103,200.17c1.05-1.4,2.45-2.64,5.75-3l17,17.69v1.32c-1.87.53-3.76,1-5.65,1.46Z" class="cls-16" transform="translate(-11.35 -16.71)"/><path d="M111.47,219.27,99.61,207.43c.21-3.54,1.31-5.08,2.57-6.25l16.45,16.74,0,0q-3.57.78-7.17,1.34Z" class="cls-17" transform="translate(-11.35 -16.71)"/><path d="M60.47,216.09a14.41,14.41,0,0,1,7.12,1.16,19,19,0,0,1,2.15,1.11C66.62,217.73,63.53,217,60.47,216.09Z" class="cls-18" transform="translate(-11.35 -16.71)"/><path d="M60.47,216.09a14.41,14.41,0,0,1,7.12,1.16c.44.19.87.41,1.31.64l-.26.25C65.9,217.55,63.17,216.87,60.47,216.09Z" class="cls-19" transform="translate(-11.35 -16.71)"/><path d="M68.92,218.2c-.46-.25-.93-.49-1.43-.71a14.68,14.68,0,0,0-6.32-1.2l-1.32-.38A14.53,14.53,0,0,1,67.68,217a21.83,21.83,0,0,1,2.79,1.51Z" class="cls-20" transform="translate(-11.35 -16.71)"/><path d="M84,177.34a122,122,0,0,1-6.33,34.33c-7.37-11.8-23.41-13.95-31.67-.77m-2.88-1.3c.37-12,3.23-24.78,11.06-38.85" class="cls-8" transform="translate(-11.35 -16.71)"/><path d="M77.29,212.3c-.13-.2-.25-.4-.38-.59q-.48-.71-1-1.38a21,21,0,0,0-4.35-4.18,18.19,18.19,0,0,0-9.11-3.41,18.69,18.69,0,0,0-2,0,15.85,15.85,0,0,0-1.81.18l-.82.15-.54.13c-.62.16-1.22.35-1.82.57a16.81,16.81,0,0,0-4.91,3,20.07,20.07,0,0,0-2.93,3.17c-.28.39-.57.78-.83,1.19l-.09.15-1.43-.62.39-.62c.38-.57.77-1.12,1.19-1.65l.45-.56.45-.52A2.09,2.09,0,0,0,48,207l.44-.46c.45-.45.92-.9,1.41-1.3l.5-.41a16.31,16.31,0,0,1,1.47-1,18.25,18.25,0,0,1,1.83-1l.52-.23c.33-.15.66-.28,1-.41l.57-.2c.39-.14.81-.25,1.21-.35s.78-.18,1.18-.25l.52-.08a16.7,16.7,0,0,1,2-.17,10.84,10.84,0,0,1,1.14,0A19,19,0,0,1,71.07,204c.45.28.9.58,1.32.9s.75.56,1.11.86.67.59,1,.9.84.84,1.24,1.28c.19.22.39.44.57.67l.26.31.39.51.52.71c1-3,1.87-6,2.66-9.09.24-1,.48-1.92.7-2.88.08-.33.15-.66.23-1,.3-1.37.6-2.74.85-4.12.19-1,.38-2,.55-3,.3-1.82.56-3.64.79-5.48.2-1.62.38-3.25.53-4.88l.21-2.33c0,.84,0,1.68,0,2.52,0,1.53-.09,3-.2,4.58,0,.76-.12,1.53-.19,2.29s-.13,1.32-.2,2c0,.4-.09.79-.14,1.18s-.13,1.07-.21,1.6c-.12.79-.23,1.57-.36,2.35s-.21,1.29-.33,1.94-.23,1.24-.35,1.86c-.19,1-.39,1.89-.6,2.83s-.38,1.69-.59,2.53q-.75,3-1.64,6c-.28.92-.56,1.84-.85,2.76-.15.47-.31.95-.46,1.43C77.68,212.92,77.48,212.61,77.29,212.3Zm.94-1c-.23-.34-.44-.7-.68-1l-.06-.09c-.15.43-.29.87-.43,1.3Zm-35.79-2c0-.51,0-1,.07-1.55.06-1.11.15-2.23.27-3.33.15-1.59.35-3.17.61-4.75.13-.83.28-1.66.44-2.49,0-.17.06-.33.1-.5.09-.43.17-.86.27-1.29.17-.8.36-1.59.56-2.38a77.59,77.59,0,0,1,2.47-8c.46-1.24.94-2.46,1.46-3.67q1.41-3.28,3.07-6.4c.5-.93,1-1.86,1.56-2.77l.46-.77c.14-.22.28-.43.4-.66-.12.3-.27.58-.41.87L53.09,173c-.19.4-.38.8-.56,1.2l-.28.6c-.24.51-.47,1-.7,1.54s-.59,1.34-.87,2q-1.56,3.69-2.8,7.52a82.86,82.86,0,0,0-3.31,14.38c-.15,1.1-.28,2.2-.38,3.29-.2,2.12-.33,4.23-.37,6.35Z" class="cls-7" transform="translate(-11.35 -16.71)"/><path d="M86.2,177c-.2,2.18-2.13,3.78-2.27,4.2.11,9.38-2.81,20.23-5.61,29.39" class="cls-8" transform="translate(-11.35 -16.71)"/><path d="M78.32,210.56l0-.46.1-.44.21-.89.22-.9.23-.9.24-.9.23-.91.24-.92.23-.92.23-.92.23-.93.23-.93.22-.94.22-.93.21-.94.21-.94.2-.94.19-.94.18-.94.18-.94.16-.93.16-.94.15-.93.13-.93.13-.92.11-.92.1-.92.09-.91.08-.9.06-.9,0-.89v-.44l0-.45v-.87l0-.13,0-.06,0-.08,0-.07.06-.07.06-.07.06-.08.08-.08.07-.09.08-.09.09-.1.09-.1.1-.11.09-.11.1-.12.1-.12.1-.13.1-.13.1-.13.1-.14.1-.15.1-.14.09-.16.09-.15.09-.16.08-.17.08-.17.08-.17.07-.18.06-.18.07-.19,0-.19.09-.19,0,.08a2.54,2.54,0,0,1-.08.91c0,.15-.09.31-.14.46a7.7,7.7,0,0,1-1.13,2l-.45.58a2.1,2.1,0,0,0-.2.27,53.45,53.45,0,0,1-.65,9.7c-.23,1.52-.51,3-.82,4.54-.51,2.46-1.12,4.9-1.81,7.31-.28,1-.56,2-.86,2.92-.21.65-.41,1.31-.63,2s-.4,1.16-.61,1.73c-.07.2-.14.4-.23.6l-.06.16-.09.16Zm5.9-29.32v-.07a.69.69,0,0,0,0,.13A.14.14,0,0,1,84.22,181.24Z" class="cls-7" transform="translate(-11.35 -16.71)"/><path d="M43.13,209.6c.37-12,3.23-24.78,11.06-38.85,8.11-12.86,21-7.83,29.9,2.84-33.92-28.78-36.72,30-33.14,31.79A20.68,20.68,0,0,0,46,210.9C45.05,210.48,44.08,210.05,43.13,209.6Z" class="cls-14" transform="translate(-11.35 -16.71)"/><path d="M80,205.42c-14.27-12.94-26.68-13-36.85,2.33" class="cls-8" transform="translate(-11.35 -16.71)"/><path d="M43.21,207.51l.06-.17.09-.14c.07-.13.14-.25.22-.37.26-.43.53-.85.81-1.27a32.16,32.16,0,0,1,3.22-3.94,22.3,22.3,0,0,1,4.84-3.84,17,17,0,0,1,4-1.71,15.4,15.4,0,0,1,2.61-.49c5.28-.54,10.35,1.62,14.74,4.6A41,41,0,0,1,78,203.46l.71.65.38.37.44.44.13.13.11.15.17.22-.39-.23c-.07,0-.14-.11-.21-.16l-.42-.32-1.44-1.11a51.5,51.5,0,0,0-4.59-3.19c-4.33-2.65-9.23-4.55-14.29-3.86a15.43,15.43,0,0,0-3.28.81,18.72,18.72,0,0,0-4.24,2.24,29,29,0,0,0-5.33,5c-.52.6-1,1.22-1.52,1.85l-.51.65-.22.27a1.13,1.13,0,0,1-.1.13c-.09.1-.21.2-.31.3Z" class="cls-7" transform="translate(-11.35 -16.71)"/><path d="M126.48,179.53c2.21,4.09,4,9.47,4,13.26" class="cls-8" transform="translate(-11.35 -16.71)"/><path d="M130.3,192.26c-.11-.33-.2-.66-.3-1s-.2-.7-.29-1.06c-.17-.61-.35-1.21-.53-1.82-.26-.84-.53-1.68-.8-2.52q-.25-.81-.54-1.62c-.14-.41-.27-.82-.41-1.23-.24-.69-.47-1.39-.67-2.1a5.91,5.91,0,0,1-.28-1.39,5.14,5.14,0,0,1,1.1,1.22,14.5,14.5,0,0,1,1.11,1.86,22.67,22.67,0,0,1,1.18,2.84q.19.59.36,1.17c.14.54.27,1.08.37,1.63.05.25.08.49.12.73.06.4.09.81.11,1.21a7.72,7.72,0,0,1-.11,1.92,3.11,3.11,0,0,1-.11.41l-.1.27A2.44,2.44,0,0,1,130.3,192.26Z" class="cls-7" transform="translate(-11.35 -16.71)"/><path d="M156.14,188.64c-7.73-.87-15.47.83-23.21,8.52" class="cls-8" transform="translate(-11.35 -16.71)"/><path d="M133.37,196.51a12.92,12.92,0,0,1,.87-1.06c.44-.48.89-.95,1.36-1.38.32-.29.63-.57,1-.84s.68-.54,1-.8.79-.58,1.2-.84l.6-.39c.36-.22.74-.43,1.11-.63.12-.08.26-.14.39-.21l.57-.29c.22-.1.43-.21.65-.3.63-.28,1.27-.54,1.92-.76s1.19-.37,1.8-.52a21.77,21.77,0,0,1,4.89-.63,20.77,20.77,0,0,1,3,.18,11.3,11.3,0,0,1,2.49.6c-.51.08-1,.12-1.54.15-.72.06-1.44.1-2.16.17s-1.42.13-2.12.23l-.64.09a30.5,30.5,0,0,0-3,.62c-.83.22-1.64.46-2.45.75a30.74,30.74,0,0,0-4.26,1.93,39.85,39.85,0,0,0-3.51,2.16c-.72.49-1.43,1-2.16,1.51l-.81.56-.26.16-.3.19A4.57,4.57,0,0,1,133.37,196.51Z" class="cls-7" transform="translate(-11.35 -16.71)"/><path d="M143.9,202.66c3.15-1.38,8.21-1.5,11.13.82q-4.17,2.49-8.5,4.64c-2.38,1.18-4.8,2.28-7.24,3.3-.93.39-1.86.76-2.8,1.13A12.07,12.07,0,0,1,143.9,202.66Z" class="cls-18" transform="translate(-11.35 -16.71)"/><path d="M141.33,204.14a18.11,18.11,0,0,0-3.29,7.79l-1.55.62A12.09,12.09,0,0,1,141.33,204.14Z" class="cls-21" transform="translate(-11.35 -16.71)"/><path d="M142.73,203.25c.38-.21.77-.41,1.17-.59,3.15-1.38,8.21-1.5,11.13.82q-3.85,2.29-7.86,4.32A23.17,23.17,0,0,0,142.73,203.25Z" class="cls-19" transform="translate(-11.35 -16.71)"/><path d="M143.74,202.41a13,13,0,0,1,9.78-.1,7.87,7.87,0,0,1,1.72,1l-.41.25a7.15,7.15,0,0,0-1.38-.81,12.52,12.52,0,0,0-9.39.12,11.88,11.88,0,0,0-7.28,9.52l-.59.23A12.29,12.29,0,0,1,143.74,202.41Z" class="cls-20" transform="translate(-11.35 -16.71)"/><path d="M122.45,158.48C118.6,179.32,98.37,179.54,89,168.93" class="cls-8" transform="translate(-11.35 -16.71)"/><path d="M93.33,173a19.22,19.22,0,0,1-3.22-2.7c-.27-.28-.54-.59-.79-.9l-.17-.21c-.06-.08-.12-.17-.18-.24l.26.23.4.37c.44.39.89.77,1.36,1.13a22.53,22.53,0,0,0,5,3,20,20,0,0,0,11.6,1.4,16.18,16.18,0,0,0,3.53-1.08,16,16,0,0,0,2.17-1.13,15.48,15.48,0,0,0,2-1.44l.47-.41.68-.65a19.87,19.87,0,0,0,1.86-2.22c.36-.5.7-1,1-1.55a25.46,25.46,0,0,0,1.59-3.23,42.79,42.79,0,0,0,1.59-4.84l-.06.49c0,.32-.08.65-.14,1a23.29,23.29,0,0,1-.63,2.72c-.07.23-.15.46-.22.7s-.26.74-.4,1.1a21.2,21.2,0,0,1-1,2.28,18.26,18.26,0,0,1-1.11,1.86c-.27.41-.56.8-.85,1.19l-.22.26c-.33.4-.68.79-1,1.17l-.47.45c-.33.33-.7.63-1.06.93l-.49.38-.48.35-.51.34-.5.3a16.3,16.3,0,0,1-3,1.39c-.4.14-.8.26-1.2.37a18.18,18.18,0,0,1-4.92.61A20.14,20.14,0,0,1,93.33,173Z" class="cls-7" transform="translate(-11.35 -16.71)"/><path d="M125.75,160.28c-1.67,29.18-30,26.19-37.22,15.6" class="cls-8" transform="translate(-11.35 -16.71)"/><path d="M98.24,182.8a22.18,22.18,0,0,1-4.62-2.06,15.64,15.64,0,0,1-1.69-1.14c-.26-.2-.52-.41-.77-.63a13.18,13.18,0,0,1-1.76-1.82c-.19-.24-.37-.49-.55-.75l-.17-.28c-.05-.08-.09-.16-.15-.24a1.73,1.73,0,0,1,.17.21l.18.2a8.87,8.87,0,0,0,.72.78,16.76,16.76,0,0,0,1.4,1.26l.47.35.39.29.61.4.45.29,1,.58.84.42.64.29c.61.26,1.22.49,1.84.7a23.6,23.6,0,0,0,2.62.72c.7.14,1.39.26,2.1.35a23.18,23.18,0,0,0,6.39-.09c.74-.12,1.47-.28,2.19-.47l1-.32c.34-.11.68-.24,1-.37s.84-.35,1.24-.55a19.71,19.71,0,0,0,2-1.13c.33-.21.65-.44,1-.67s.57-.45.85-.69a17.92,17.92,0,0,0,1.66-1.6c.18-.19.35-.39.51-.59l.24-.28.48-.63c.36-.47.69-1,1-1.48a27.11,27.11,0,0,0,3.18-8c.23-1,.43-2,.59-3,.13-.85.25-1.7.37-2.56,0,.45,0,.91,0,1.36a28,28,0,0,1-.24,2.88c-.12.89-.27,1.79-.47,2.66-.08.37-.17.73-.26,1.09,0,.14-.08.27-.11.41-.09.32-.19.64-.29.95-.21.68-.46,1.35-.73,2a22.57,22.57,0,0,1-1.58,3.1c-.23.37-.47.74-.72,1.09s-.32.45-.49.67a14,14,0,0,1-.93,1.11c-.27.3-.55.59-.84.88s-.36.33-.54.5l-.34.3c-.18.16-.37.31-.56.46s-.6.47-.91.68a19.7,19.7,0,0,1-1.9,1.16,18.62,18.62,0,0,1-3.17,1.32c-.46.14-.91.27-1.37.38s-.89.2-1.34.28a23.27,23.27,0,0,1-2.76.29c-.55,0-1.11,0-1.66,0A24,24,0,0,1,98.24,182.8Z" class="cls-7" transform="translate(-11.35 -16.71)"/><path d="M23.8,69.06c3.11-1.65,10.89,8.29,15.43,14.29,0,0-4.48,9.63-6,15.61C27.09,95.45,20.7,70.71,23.8,69.06Z" class="cls-22" transform="translate(-11.35 -16.71)"/><path d="M23.41,69.48c-.25,6.81,2.49,15.33,7.82,19.36A17.54,17.54,0,0,1,36.66,80c.92,1.17,1.79,2.31,2.57,3.34,0,0-4.48,9.63-6,15.61C27.4,95.62,21.34,73.12,23.41,69.48Z" class="cls-23" transform="translate(-11.35 -16.71)"/><path d="M33.36,99.37l-.29-.17c-5.31-3-10.44-20.76-10.33-27.47,0-1.63.33-2.59,1-2.92a2,2,0,0,1,1.12-.2c3.45.33,9.63,8,14.62,14.57l.11.13-.08.16c0,.1-4.48,9.68-6,15.56Zm5.56-16c-3-3.93-10.53-13.88-14.16-14.22a1.37,1.37,0,0,0-.84.14c-.24.12-.64.61-.66,2.43-.11,7,5.07,23.56,9.78,26.79A124.5,124.5,0,0,1,38.92,83.39Z" class="cls-24" transform="translate(-11.35 -16.71)"/><path d="M120.14,73.18c.56-8,.46-24.52,5-24.49s8.81,17.75,3.31,32.53C128.48,81.22,123,75.47,120.14,73.18Z" class="cls-22" transform="translate(-11.35 -16.71)"/><path d="M120.14,73.18c.12-1.65.2-3.67.31-5.82,2.9,1.13,4.7,2.72,7.12,6.12,2.08-7.51,2.71-17.29-.94-24.18,3.91,3.22,6.76,18.74,1.85,31.92C128.48,81.22,123,75.47,120.14,73.18Z" class="cls-23" transform="translate(-11.35 -16.71)"/><path d="M128.57,81.71l-.28-.29c0-.06-5.47-5.76-8.3-8l-.12-.09v-.15c.09-1.3.17-2.83.24-4.45.43-9,1-20.32,5-20.3,1.07,0,2.16.88,3.11,2.53,3,5.19,4.82,18.63.44,30.38Zm-.74-30.48c-.8-1.4-1.68-2.18-2.52-2.26h-.14c-3.59,0-4.15,11.9-4.53,19.78-.07,1.56-.14,3-.23,4.31,2.5,2,6.83,6.49,8,7.68C132.51,69.24,130.74,56.26,127.83,51.23Z" class="cls-24" transform="translate(-11.35 -16.71)"/><path d="M45.34,133.39c12.59-10.23,8.1-34.42,26.3-39.77,16.47-4.85,22.22,4.09,26,10.76,0,0,2.08,11,1.32,13.86C82.76,113.93,67.72,138.31,45.34,133.39Z" class="cls-22" transform="translate(-11.35 -16.71)"/><path d="M48.68,134.19h0a30.22,30.22,0,0,1-3.39-.53l-.56-.13.45-.37C50.52,128.83,52.8,121.82,55,115c3-9.13,6-18.58,16.57-21.68a28.82,28.82,0,0,1,10.71-1.3c8.46.82,12.48,6.72,15.59,12.18l0,.09c.09.45,2.09,11.13,1.32,14l-.07.26-.24-.07a15.36,15.36,0,0,0-2.42-.44c-6.62-.63-13.21,3.19-20.19,7.23C68.29,130,59.21,135.21,48.68,134.19Zm27.37-9.38c7-4.08,13.71-7.94,20.49-7.29a15.3,15.3,0,0,1,2.23.39c.55-3-1.23-12.67-1.37-13.43-3-5.34-7-11.08-15.17-11.87a28,28,0,0,0-10.52,1.28c-10.26,3-13.15,11.91-16.21,21.32-2.17,6.67-4.41,13.57-9.55,18,.92.18,1.85.32,2.78.41h0C59.09,134.64,67.71,129.64,76.05,124.81Z" class="cls-24" transform="translate(-11.35 -16.71)"/><path d="M111,117.48c-4-2.55-6.32-13.72-6.32-13.72-.18-8.18,2.81-16.08,10.47-15.59,15.73,1,24.81,25.86,36.46,30.23C146.39,123.37,120.12,122.85,111,117.48Z" class="cls-22" transform="translate(-11.35 -16.71)"/><path d="M126.64,121.74h0c-6.91-.67-12.51-2.09-15.78-4-4.1-2.59-6.35-13.44-6.45-14-.13-5.8,1.31-10.67,4-13.37a8.34,8.34,0,0,1,6.8-2.51c9.15.59,15.94,9,22.49,17.08,4.71,5.83,9.16,11.34,14,13.17l.42.15-.33.32C148.3,121.92,136.5,122.69,126.64,121.74Zm24.44-3.25c-4.83-2-9.21-7.44-13.83-13.16-6.48-8-13.18-16.33-22.12-16.89a7.86,7.86,0,0,0-6.41,2.36c-2.53,2.59-3.91,7.32-3.8,12.9,0,.11,2.3,11.08,6.2,13.54,3.2,1.89,8.73,3.29,15.56,3.94h0C137.47,122.22,147.74,121.07,151.08,118.49Z" class="cls-24" transform="translate(-11.35 -16.71)"/><path d="M98.12,124.7c-1.06-2.19-1-12.69-2-20.65s-4.27-13.63-8.44-17.51C83,82.2,74,80.77,74,80.77l32.38-1.57a29.75,29.75,0,0,0-3,16.64c1.13,9.2,10.58,20.57,10.55,25.51C112.85,122.78,102.85,125.85,98.12,124.7Z" class="cls-25" transform="translate(-11.35 -16.71)"/><path d="M98.06,125l-.12,0,0-.11c-.64-1.33-.88-5.24-1.17-10.2-.2-3.38-.43-7.21-.83-10.54-.86-7.16-3.67-13-8.36-17.34-1.66-1.55-4.24-3.53-6.55-4.1a12,12,0,0,0-6.43.2,2,2,0,0,1-1.24,0c.25,0,2.31-2.15,8.29-.79,2.36.54,4.72,2.83,6.28,4.28,4.78,4.45,7.65,10.4,8.53,17.69.4,3.35.63,7.19.83,10.57.27,4.57.51,8.52,1.06,9.87,4.74,1.06,14.15-1.94,15.33-3.21,0-2.18-1.95-5.67-4.15-9.7-2.7-5-5.78-10.61-6.4-15.67,0-.39-.08-.78-.11-1.16.12-.62.28-1.23.43-1.85a24.76,24.76,0,0,0,.2,2.94c.61,5,3.65,10.53,6.34,15.46,2.26,4.16,4.22,7.76,4.21,10.08v.09l-.05.08c-1.06,1.46-9.78,4.13-14.83,3.65A9.85,9.85,0,0,1,98.06,125Z" class="cls-26" transform="translate(-11.35 -16.71)"/><path d="M97.54,125.15c.19-4.34,3.87-7.69,8.43-8s9.49,2.13,9.26,6.83-3,9.08-7.42,9.4C102.32,133.78,97.34,129.49,97.54,125.15Z" class="cls-27" transform="translate(-11.35 -16.71)"/><path d="M106,117.15c3.52-.23,7.27,1.17,8.68,4-6-4.15-12.47-2.36-16.55,1.44A9,9,0,0,1,106,117.15Z" class="cls-28" transform="translate(-11.35 -16.71)"/><path d="M97.54,125.15a7.8,7.8,0,0,1,.39-2.11c6.57,12.24,14.89,6.21,17-1.36a5.91,5.91,0,0,1,.34,2.3c-.22,4.71-3,9.08-7.42,9.4C102.32,133.78,97.34,129.49,97.54,125.15Z" class="cls-29" transform="translate(-11.35 -16.71)"/><path d="M106.12,133.64c-4.9-.48-9-4.45-8.85-8.5a9,9,0,0,1,8.68-8.26,12.44,12.44,0,0,1,1.93,0c3.81.36,7.82,2.74,7.61,7.09-.21,4.54-2.92,9.31-7.66,9.66A10.85,10.85,0,0,1,106.12,133.64ZM115,124c.2-4-3.44-6.15-7.14-6.51a11.41,11.41,0,0,0-1.85,0c-4.48.3-8,3.62-8.19,7.74-.16,3.77,3.75,7.47,8.37,7.91a8.9,8.9,0,0,0,1.63,0C112.24,132.78,114.77,128.26,115,124Z" class="cls-24" transform="translate(-11.35 -16.71)"/><path d="M115,111.83c-2.83-9-.42-17.7,3.71-19.65s9.85,2.18,12.78,9.23,2,14.34-2.15,16.29S116.86,117.85,115,111.83Z" class="cls-30" transform="translate(-11.35 -16.71)"/><path d="M115,111.83a25.73,25.73,0,0,1-1.22-8.23,12.64,12.64,0,0,0,9.49,9.07c4,.78,8.82-1.38,9.8-5.32.56,4.82-.78,9-3.73,10.35C125.18,119.65,116.86,117.85,115,111.83Z" class="cls-31" transform="translate(-11.35 -16.71)"/><path d="M119.9,117.46a9.31,9.31,0,0,1-5.16-5.55c-2.94-9.31-.33-18,3.84-20s10.12,2.2,13.11,9.37,2,14.62-2.28,16.63a10,10,0,0,1-5.14.7A13.32,13.32,0,0,1,119.9,117.46Zm9.31,0c4-1.89,4.91-9,2-16C129,96,125,92.32,121.4,92a4.9,4.9,0,0,0-2.62.43c-4,1.88-6.36,10.55-3.59,19.34a8.93,8.93,0,0,0,4.9,5.25C123.08,118.4,126.83,118.59,129.21,117.47Z" class="cls-24" transform="translate(-11.35 -16.71)"/><path d="M118,108.83c-1-4.35.18-8.43,2.73-9.12s5.44,2.28,6.48,6.63-.18,8.42-2.72,9.11S119.07,113.17,118,108.83Z" class="cls-32" transform="translate(-11.35 -16.71)"/><path d="M118,108.83a14,14,0,0,1-.34-2.24,9.65,9.65,0,0,0,6,1.4,11.8,11.8,0,0,0,3.57-1.46c1,4.27-.26,8.24-2.76,8.92S119.07,113.17,118,108.83Z" class="cls-33" transform="translate(-11.35 -16.71)"/><path d="M119.24,109.83c-.73-3.09.13-6,1.94-6.48s3.88,1.61,4.62,4.7-.13,6-1.94,6.49S120,112.92,119.24,109.83Z" class="cls-24" transform="translate(-11.35 -16.71)"/><path d="M121.14,107.93a2.47,2.47,0,0,1-1.61-3,2.28,2.28,0,0,1,2.8-1.76,2.47,2.47,0,0,1,1.61,3A2.3,2.3,0,0,1,121.14,107.93Z" class="cls-30" transform="translate(-11.35 -16.71)"/><path d="M119.75,111.59a1,1,0,0,1,1.25-.78,1.09,1.09,0,0,1,.71,1.33,1,1,0,0,1-1.24.79A1.11,1.11,0,0,1,119.75,111.59Z" class="cls-30" transform="translate(-11.35 -16.71)"/><path d="M122.84,115.69c-2.2-.62-4.24-3.35-5.06-6.79-1.07-4.49.23-8.73,2.91-9.45a3.16,3.16,0,0,1,1.75,0c2.2.62,4.23,3.35,5,6.8a11.89,11.89,0,0,1,0,6.08,4.53,4.53,0,0,1-2.89,3.37A3.22,3.22,0,0,1,122.84,115.69Zm4.13-3.51a11.39,11.39,0,0,0,0-5.78c-.78-3.25-2.66-5.82-4.69-6.39a2.67,2.67,0,0,0-1.48,0c-2.4.65-3.54,4.59-2.54,8.78.78,3.26,2.67,5.83,4.69,6.4a2.76,2.76,0,0,0,1.48,0A4,4,0,0,0,127,112.18Z" class="cls-34" transform="translate(-11.35 -16.71)"/><path d="M61.77,113.86c-.63-7.59,3.33-16.55,8.12-17,6.36-.67,12.8,6.72,13.43,14.31s-4.61,12.92-9.9,13.41S62.4,121.44,61.77,113.86Z" class="cls-30" transform="translate(-11.35 -16.71)"/><path d="M61.77,113.86c0-.22,0-.45,0-.67,2.85,4.3,8.32,6,13.33,5.3,4-.39,6.93-3.38,8.29-6.91.39,7.34-4.75,12.47-9.93,13S62.4,121.44,61.77,113.86Z" class="cls-31" transform="translate(-11.35 -16.71)"/><path d="M71.44,124.78a10.74,10.74,0,0,1-5.74-2.35,12,12,0,0,1-4.17-8.55c-.67-8.08,3.54-16.82,8.33-17.33a10.42,10.42,0,0,1,7.85,2.94,18,18,0,0,1,5.85,11.61,13.27,13.27,0,0,1-2.79,9.55,10.91,10.91,0,0,1-7.33,4.14A10.28,10.28,0,0,1,71.44,124.78Zm9-4.46a12.79,12.79,0,0,0,2.67-9.18,17.51,17.51,0,0,0-5.67-11.25,10.77,10.77,0,0,0-6-2.83,7.72,7.72,0,0,0-1.52,0c-4.48.47-8.54,9.1-7.9,16.77A11.44,11.44,0,0,0,66,122a10.25,10.25,0,0,0,7.4,2.26A10.48,10.48,0,0,0,80.41,120.32Z" class="cls-24" transform="translate(-11.35 -16.71)"/><path d="M65.82,114.68c-.39-4.62,1.92-8.62,5.15-8.92s6.15,3.2,6.53,7.83-1.92,8.62-5.15,8.93S66.2,119.31,65.82,114.68Z" class="cls-32" transform="translate(-11.35 -16.71)"/><path d="M65.82,114.68a11.74,11.74,0,0,1,.05-2.45,12.82,12.82,0,0,0,11.51.41c.05.31.1.63.12,1,.38,4.63-1.92,8.62-5.15,8.93S66.2,119.31,65.82,114.68Z" class="cls-33" transform="translate(-11.35 -16.71)"/><path d="M66.84,116.32c-.27-3.31,1.37-6.16,3.68-6.38s4.4,2.29,4.67,5.6-1.37,6.16-3.68,6.38S67.11,119.63,66.84,116.32Z" class="cls-24" transform="translate(-11.35 -16.71)"/><path d="M68.54,112.69a2.84,2.84,0,0,1,3-2.71A2.92,2.92,0,0,1,74,113.22a2.84,2.84,0,0,1-3,2.71A2.91,2.91,0,0,1,68.54,112.69Z" class="cls-30" transform="translate(-11.35 -16.71)"/><path d="M67.86,119.19A1.27,1.27,0,0,1,69.19,118a1.31,1.31,0,0,1,1.11,1.44A1.27,1.27,0,0,1,69,120.63,1.29,1.29,0,0,1,67.86,119.19Z" class="cls-30" transform="translate(-11.35 -16.71)"/><path d="M71.54,122.79c-3.05-.29-5.62-3.77-6-8.08-.4-4.77,2-8.91,5.38-9.23a3.93,3.93,0,0,1,.84,0c3,.29,5.62,3.77,6,8.08.4,4.78-2,8.92-5.38,9.23A3.93,3.93,0,0,1,71.54,122.79Zm5.7-9.18c-.33-4-2.7-7.31-5.51-7.58a4.57,4.57,0,0,0-.74,0c-3.08.29-5.28,4.16-4.91,8.63.33,4,2.7,7.31,5.51,7.58a4.57,4.57,0,0,0,.74,0C75.41,122,77.61,118.08,77.24,113.61Z" class="cls-34" transform="translate(-11.35 -16.71)"/><path d="M104.6,142.37l-.22-.5c2.31-1.13,3.35-3.9,3.17-8.48l.52,0C108.25,138.2,107.12,141.14,104.6,142.37Z" class="cls-26" transform="translate(-11.35 -16.71)"/><path d="M16.72,49.92c7.47-3.32,25.5,12.06,32.07,24-6.3,5-15.93,26-20.6,41.71C7.65,102.76,9.25,53.23,16.72,49.92Z" class="cls-10" transform="translate(-11.35 -16.71)"/><path d="M14,53.65c-2.2,17.59,7.14,33.11,21.65,41.82a173.15,173.15,0,0,0-7.49,20.12C10.46,104.51,9.23,66.08,14,53.65Z" class="cls-11" transform="translate(-11.35 -16.71)"/><path d="M23.8,69.06c3.11-1.65,10.89,8.29,15.43,14.29,0,0-4.48,9.63-6,15.61C27.09,95.45,20.7,70.71,23.8,69.06Z" class="cls-18" transform="translate(-11.35 -16.71)"/><path d="M23.41,69.48c-.25,6.81,2.49,15.33,7.82,19.36A17.54,17.54,0,0,1,36.66,80c.92,1.17,1.79,2.31,2.57,3.34,0,0-4.48,9.63-6,15.61C27.4,95.62,21.34,73.12,23.41,69.48Z" class="cls-19" transform="translate(-11.35 -16.71)"/><path d="M33.36,99.37l-.29-.17c-5.31-3-10.44-20.76-10.33-27.47,0-1.63.33-2.59,1-2.92a2,2,0,0,1,1.12-.2c3.45.33,9.63,8,14.62,14.57l.11.13-.08.16c0,.1-4.48,9.68-6,15.56Zm5.56-16c-3-3.93-10.53-13.88-14.16-14.22a1.37,1.37,0,0,0-.84.14c-.24.12-.64.61-.66,2.43-.11,7,5.07,23.56,9.78,26.79A124.5,124.5,0,0,1,38.92,83.39Z" class="cls-20" transform="translate(-11.35 -16.71)"/><path d="M28.34,116l-.28-.17C15,107.69,10.35,84.3,11.52,66c.57-8.95,2.52-15.22,5.1-16.36a6.6,6.6,0,0,1,3.31-.44c8.85.86,23.39,14.2,29.09,24.52l.12.22-.19.15C42.68,79,33.11,100,28.44,115.67ZM48.45,73.81c-5.61-10-20.07-23.22-28.57-24a6.08,6.08,0,0,0-3.06.4c-2.36,1-4.23,7.28-4.78,15.88C10.89,84,15.41,107,28,115.17,32.73,99.58,42.15,79,48.45,73.81Z" class="cls-5" transform="translate(-11.35 -16.71)"/><path d="M98.81,65.07c7.87-8,13.11-25,20.34-29.42,0,0-2.29,23.09-3.67,36.31A164.86,164.86,0,0,1,98.81,65.07Z" class="cls-2" transform="translate(-11.35 -16.71)"/><path d="M98.81,65.07c3.12-3.18,5.83-7.77,8.41-12.44,1.36,4,5.27,5.72,9.58,6.5-.47,4.57-.93,9.1-1.32,12.83A164.86,164.86,0,0,1,98.81,65.07Z" class="cls-3" transform="translate(-11.35 -16.71)"/><path d="M115.7,72.33l-.3-.1a169.85,169.85,0,0,1-16.7-6.91l-.34-.17.27-.28c3.59-3.65,6.63-9.21,9.58-14.58,3.52-6.41,6.84-12.47,10.81-14.88l.44-.27,0,.54c0,.23-2.3,23.24-3.67,36.31Zm3.13-36.15c-3.66,2.51-6.82,8.29-10.17,14.39-2.89,5.27-5.88,10.72-9.4,14.42a166,166,0,0,0,16,6.6C116.51,59.62,118.48,39.75,118.83,36.18Z" class="cls-5" transform="translate(-11.35 -16.71)"/><path d="M111.61,66.72c-.62-12.72,3.7-31.23,9.81-32.31s12.7,8.88,16.12,23,1.23,24.52-3,34.89C130,86.23,121.68,74.37,111.61,66.72Z" class="cls-10" transform="translate(-11.35 -16.71)"/><path d="M122.12,76.59c10.26-10.18,11-27,4.8-40.37,4.26,3.43,8.22,11.28,10.62,21.17,3.42,14.11,1.23,24.52-3,34.89C131.74,88.5,127.42,82.46,122.12,76.59Z" class="cls-11" transform="translate(-11.35 -16.71)"/><path d="M120.14,73.18c.56-8,.46-24.52,5-24.49s8.81,17.75,3.31,32.53C128.48,81.22,123,75.47,120.14,73.18Z" class="cls-18" transform="translate(-11.35 -16.71)"/><path d="M120.14,73.18c.12-1.65.2-3.67.31-5.82,2.9,1.13,4.7,2.72,7.12,6.12,2.08-7.51,2.71-17.29-.94-24.18,3.91,3.22,6.76,18.74,1.85,31.92C128.48,81.22,123,75.47,120.14,73.18Z" class="cls-19" transform="translate(-11.35 -16.71)"/><path d="M128.57,81.71l-.28-.29c0-.06-5.47-5.76-8.3-8l-.12-.09v-.15c.09-1.3.17-2.83.24-4.45.43-9,1-20.32,5-20.3,1.07,0,2.16.88,3.11,2.53,3,5.19,4.82,18.63.44,30.38Zm-.74-30.48c-.8-1.4-1.68-2.18-2.52-2.26h-.14c-3.59,0-4.15,11.9-4.53,19.78-.07,1.56-.14,3-.23,4.31,2.5,2,6.83,6.49,8,7.68C132.51,69.24,130.74,56.26,127.83,51.23Z" class="cls-20" transform="translate(-11.35 -16.71)"/><path d="M134.64,92.81l-.27-.36L133,90.57c-4.65-6.26-12.44-16.73-21.51-23.62l-.1-.08v-.14c-.58-12,3.46-31.43,10-32.59a5.38,5.38,0,0,1,1.5-.06c5.69.55,11.68,9.89,14.92,23.24,3.69,15.22.75,25.85-3,35.07Zm2.65-35.35c-3.18-13.13-9-22.3-14.47-22.83a5.14,5.14,0,0,0-1.36,0c-5.67,1-10.2,18.78-9.6,31.89,9.1,7,16.87,17.4,21.52,23.66l1.12,1.51C138.11,82.71,140.88,72.29,137.29,57.46Z" class="cls-5" transform="translate(-11.35 -16.71)"/><path d="M13.8,130.34c12.54-4.49,8.88-9.16,16.66-34.25S55.83,60.23,78,57.08s34.58,4,45.29,14.81,17.07,29.05,24.28,37.3c-7.25,11.45-18.79,21.11-53.62,25S21,136.46,13.8,130.34Z" class="cls-2" transform="translate(-11.35 -16.71)"/><path d="M119.87,72.39c-16.55-16.29-44.4-16.56-63.66-8.68A67.69,67.69,0,0,1,78,57.08c22.2-3.15,34.58,4,45.29,14.81,6.16,6.19,10.88,14.85,15.14,22.67C131.4,86.46,127.71,80.73,119.87,72.39Z" class="cls-4" transform="translate(-11.35 -16.71)"/><path d="M13.8,130.34c12.54-4.49,8.88-9.16,16.66-34.25C35,81.55,42.77,71.83,52.85,65.61c-11.79,13.26-15.34,33.3-13.67,52.15a38.43,38.43,0,0,0,6.92,18.36C30.05,135.55,17.6,133.58,13.8,130.34Z" class="cls-3" transform="translate(-11.35 -16.71)"/><path d="M33.84,135.62c-7.34-.71-16.8-2.16-20.2-5.06l-.38-.32.46-.16c8.74-3.13,9.47-6.3,11.91-16.8,1-4.43,2.31-9.94,4.58-17.28C37.29,73.18,52.92,60.36,78,56.81a63.86,63.86,0,0,1,15.34-.5c11.53,1.11,20.55,5.71,30.16,15.37,6.16,6.2,10.93,14.94,15.13,22.64,3.13,5.75,6.09,11.17,9.16,14.69l.14.16-.12.18c-7.81,12.34-20,21.34-53.8,25.11C73.33,136.76,50.28,137.2,33.84,135.62ZM94,133.9c33.48-3.72,45.58-12.56,53.31-24.68-3-3.56-6-8.93-9.08-14.62-4.19-7.67-8.93-16.38-15-22.51q-2.5-2.52-5-4.59a48,48,0,0,0-11.29-7.18,43.27,43.27,0,0,0-13.59-3.46,64.43,64.43,0,0,0-15.22.5C53.2,60.88,37.72,73.58,30.71,96.18c-2.27,7.31-3.55,12.81-4.57,17.23-2.39,10.26-3.21,13.84-11.79,17,2.87,2.08,9.6,3.68,19.54,4.64C50.29,136.65,73.31,136.2,94,133.9Z" class="cls-5" transform="translate(-11.35 -16.71)"/><path d="M51.36,166.06c-14.76-4.67-25.16-11.42-27.88-16.41,1.06-.09,2.48,0,4.76-.1-5.37-1.86-12-4.64-15.73-19.47,7.5-.53,16.7-4.23,28-16.65s28.9-35.06,42.35-31.35,20.92,18.35,20.92,18.35c-1.76-8,1.91-19.39,9.28-20s14.2,5.73,22,14.41,10.91,12.64,16.43,15.36,8.82,2.28,10.25,1.82c.13,4.7-3.17,10.69-9.76,16.45a12,12,0,0,0,5.9-1.75c-1.21,4.52-18.47,32.27-48.91,39.77-4.82,4.4-9.74,3.16-13.54,1.68C86.25,170.52,66.13,170.74,51.36,166.06Z" class="cls-10" transform="translate(-11.35 -16.71)"/><path d="M51.36,166.06c-14.76-4.67-25.16-11.42-27.88-16.41,1.06-.09,2.48,0,4.76-.1-5.37-1.87-12-4.64-15.73-19.47,7.43-.52,16.55-4.18,27.66-16.33-5.22,9-11.49,16.81-21.59,18.73,6.8,12.34,21.27,14.29,33.05,17.1-6.5,2.71-12.68,1.56-19.42.91,17.92,10.63,38.71,18.2,58.74,16.24-1.27-3.46-3.68-5.92-5-9.39,4.24,5.42,10.23,8.78,16.54,8.28s9.52-7.43,13.06-12.1c.28,2.81-1.46,4.87-.14,7.78,14.56-8.69,29.45-17.67,40.47-30.7-5.32,9.15-21.57,29.63-47.06,35.91-4.82,4.4-9.74,3.16-13.54,1.68C86.25,170.52,66.13,170.74,51.36,166.06Z" class="cls-11" transform="translate(-11.35 -16.71)"/><path d="M68.1,169.57a82.78,82.78,0,0,1-16.81-3.24c-13.76-4.35-25-11-28-16.55l-.21-.38.41,0c.46,0,1,0,1.61,0s1.08,0,1.74,0c-4.71-1.73-11-5.08-14.55-19.18l-.08-.32.32,0c9.17-.64,18.26-6.06,27.77-16.56,1.36-1.5,2.81-3.14,4.34-4.88C55,96.53,69.3,80.33,80.93,81.45a12.65,12.65,0,0,1,1.95.36c11,3,18.11,13.46,20.33,17.17a22,22,0,0,1,3.17-14.53A8.94,8.94,0,0,1,113,80.17a12,12,0,0,1,2.16,0c6.44.62,12.43,6,20,14.47l2.37,2.66c6.06,6.82,9.1,10.25,14,12.64a19.61,19.61,0,0,0,6.67,2.09,8.27,8.27,0,0,0,3.41-.28l.32-.1V112c.13,4.85-3.25,10.72-9.3,16.18a13.34,13.34,0,0,0,5.06-1.71l.54-.31-.17.63c-1.36,5.06-19.17,32.55-49,39.94a10.8,10.8,0,0,1-8.69,3,18.47,18.47,0,0,1-5-1.3C88.87,170.12,78.2,170.54,68.1,169.57Zm27.17-1.64.08,0,.07,0a19,19,0,0,0,4.92,1.29,10.4,10.4,0,0,0,8.36-2.93l0-.05h.06c28.61-7.05,46.08-32.61,48.51-38.94a11.92,11.92,0,0,1-5.46,1.47l-.66-.05.51-.44c6.12-5.36,9.63-11.12,9.68-15.88a9.19,9.19,0,0,1-3.28.2,20,20,0,0,1-6.83-2.13c-5-2.44-8-5.89-14.14-12.77l-2.37-2.65c-7.49-8.39-13.39-13.7-19.66-14.31a12,12,0,0,0-2.08,0,8.45,8.45,0,0,0-6.23,4A21.38,21.38,0,0,0,104,100.36l.44,2-.93-1.81c-.07-.15-7.57-14.58-20.75-18.21A10.46,10.46,0,0,0,80.88,82C69.51,80.91,55.34,97,45,108.74c-1.53,1.74-3,3.39-4.34,4.89-9.5,10.48-18.6,15.94-27.8,16.7,3.81,14.91,10.82,17.34,15.47,18.95l1.3.45-1.36.1c-1.32.08-2.36.07-3.2.07-.41,0-.79,0-1.12,0,2.77,4.51,12.2,11.06,27.5,15.9A81.86,81.86,0,0,0,68.14,169C78.08,170,89,169.53,95.27,167.93Z" class="cls-5" transform="translate(-11.35 -16.71)"/><path d="M45.34,133.38C58,123,53.49,98.4,71.7,92.93c16.47-5,22.21,4.12,26,10.89,0,0,2.07,11.2,1.31,14.09C82.8,113.55,67.71,138.34,45.34,133.38Z" class="cls-18" transform="translate(-11.35 -16.71)"/><path d="M48.68,134.19h0a28.12,28.12,0,0,1-3.39-.54l-.56-.12.46-.38c5.34-4.41,7.63-11.54,9.84-18.44,3-9.28,6.07-18.88,16.6-22a28.09,28.09,0,0,1,10.71-1.33c8.46.81,12.48,6.8,15.58,12.35l0,.09c.08.46,2.07,11.3,1.3,14.21l-.07.27-.25-.07a15.24,15.24,0,0,0-2.41-.44c-6.62-.64-13.22,3.26-20.2,7.38C68.29,129.85,59.21,135.21,48.68,134.19Zm27.39-9.57c7.05-4.16,13.72-8.09,20.5-7.44a14.07,14.07,0,0,1,2.23.39c.55-3-1.21-12.87-1.35-13.64-3-5.42-7-11.25-15.16-12A27.7,27.7,0,0,0,71.77,93.2c-10.27,3.09-13.18,12.13-16.25,21.7-2.18,6.78-4.42,13.79-9.57,18.32.92.18,1.85.32,2.78.41h0C59.1,134.63,67.72,129.54,76.07,124.62Z" class="cls-20" transform="translate(-11.35 -16.71)"/><path d="M111,117.48c-4-2.55-6.32-13.72-6.32-13.72-.18-8.18,2.81-16.08,10.47-15.59,15.73,1,24.81,25.86,36.46,30.23C146.39,123.37,120.12,122.85,111,117.48Z" class="cls-18" transform="translate(-11.35 -16.71)"/><path d="M126.64,121.74h0c-6.91-.67-12.51-2.09-15.78-4-4.1-2.58-6.35-13.44-6.45-14-.13-5.8,1.31-10.67,4-13.37a8.34,8.34,0,0,1,6.8-2.51c9.15.59,15.94,9,22.49,17.08,4.71,5.83,9.16,11.34,14,13.17l.42.15-.33.32C148.3,121.92,136.5,122.69,126.64,121.74Zm24.44-3.25c-4.83-2-9.21-7.44-13.83-13.16-6.48-8-13.18-16.33-22.12-16.89a7.86,7.86,0,0,0-6.41,2.36c-2.53,2.59-3.91,7.32-3.8,12.9,0,.11,2.3,11.08,6.2,13.54,3.2,1.89,8.73,3.29,15.56,3.94h0C137.47,122.22,147.74,121.07,151.08,118.49Z" class="cls-20" transform="translate(-11.35 -16.71)"/><path d="M98.12,124.7c-1.06-2.19-1-12.69-2-20.65s-4.27-13.63-8.44-17.51C83,82.2,74,80.77,74,80.77l32.38-1.57a29.75,29.75,0,0,0-3,16.64c1.13,9.2,10.58,20.57,10.55,25.51C112.85,122.78,102.85,125.85,98.12,124.7Z" class="cls-2" transform="translate(-11.35 -16.71)"/><path d="M98.06,125l-.12,0,0-.11c-.64-1.33-.88-5.24-1.17-10.2-.2-3.38-.43-7.21-.83-10.54-.86-7.16-3.67-13-8.36-17.34-1.66-1.55-4.24-3.53-6.55-4.1a12,12,0,0,0-6.43.2,2,2,0,0,1-1.24,0c.25,0,2.31-2.15,8.29-.79,2.36.54,4.72,2.83,6.28,4.28,4.78,4.45,7.65,10.4,8.53,17.69.4,3.35.63,7.19.83,10.57.27,4.57.51,8.52,1.06,9.87,4.74,1.06,14.15-1.94,15.33-3.21,0-2.18-1.95-5.67-4.15-9.7-2.7-5-5.78-10.61-6.4-15.67,0-.39-.08-.78-.11-1.16.12-.62.28-1.23.43-1.85a24.76,24.76,0,0,0,.2,2.94c.61,5,3.65,10.53,6.34,15.46,2.26,4.16,4.22,7.76,4.21,10.08v.09l-.05.08c-1.06,1.46-9.78,4.13-14.83,3.65A9.85,9.85,0,0,1,98.06,125Z" class="cls-5" transform="translate(-11.35 -16.71)"/><path d="M97.54,125.15c.19-4.34,3.87-7.69,8.43-8s9.49,2.13,9.26,6.83-3,9.08-7.42,9.4C102.32,133.78,97.34,129.49,97.54,125.15Z" class="cls-35" transform="translate(-11.35 -16.71)"/><path d="M106,117.15c3.52-.23,7.27,1.17,8.68,4-6-4.15-12.47-2.36-16.55,1.44A9,9,0,0,1,106,117.15Z" class="cls-36" transform="translate(-11.35 -16.71)"/><path d="M97.54,125.15a7.8,7.8,0,0,1,.39-2.11c6.57,12.24,14.89,6.21,17-1.36a5.91,5.91,0,0,1,.34,2.3c-.22,4.71-3,9.08-7.42,9.4C102.32,133.78,97.34,129.49,97.54,125.15Z" class="cls-37" transform="translate(-11.35 -16.71)"/><path d="M106.12,133.64c-4.9-.48-9-4.45-8.85-8.5a9,9,0,0,1,8.68-8.26,12.44,12.44,0,0,1,1.93,0c3.81.36,7.82,2.74,7.61,7.09-.21,4.54-2.92,9.31-7.66,9.66A10.85,10.85,0,0,1,106.12,133.64ZM115,124c.2-4-3.44-6.15-7.14-6.51a11.41,11.41,0,0,0-1.85,0c-4.48.3-8,3.62-8.19,7.74-.16,3.77,3.75,7.47,8.37,7.91a8.9,8.9,0,0,0,1.63,0C112.24,132.78,114.77,128.26,115,124Z" class="cls-20" transform="translate(-11.35 -16.71)"/><path d="M111.1,112.49c-2-6.59,1.32-13,5.7-14.43s9.78,1.61,12.07,6.78.6,10.53-3.77,12S112.44,116.91,111.1,112.49Z" class="cls-9" transform="translate(-11.35 -16.71)"/><path d="M111.1,112.49a13.53,13.53,0,0,1-.43-6c.89,3.34,4.25,6,8.75,6.65,4,.57,9.1-1,10.47-3.9.1,3.54-1.66,6.57-4.79,7.6C120.71,118.23,112.44,116.91,111.1,112.49Z" class="cls-38" transform="translate(-11.35 -16.71)"/><path d="M115.56,116.62c-1.77-.63-4-1.84-4.7-4.07-2.07-6.84,1.43-13.21,5.86-14.66s10.06,1.61,12.39,6.87.56,10.74-3.94,12.21a14.59,14.59,0,0,1-5.29.52A16.82,16.82,0,0,1,115.56,116.62Zm9.46,0c4.24-1.39,5.87-6.64,3.62-11.71-1.78-4-5.49-6.75-9.06-7a7.08,7.08,0,0,0-2.71.31c-4.22,1.38-7.48,7.74-5.53,14.2.64,2.1,2.78,3.25,4.47,3.85A15.76,15.76,0,0,0,125,116.63Z" class="cls-20" transform="translate(-11.35 -16.71)"/><path d="M116.27,110.33c-.34-3.24,1.57-6,4.26-6.27s5.12,2.21,5.45,5.46-1.57,6-4.25,6.27S116.6,113.57,116.27,110.33Z" class="cls-39" transform="translate(-11.35 -16.71)"/><path d="M116.27,110.33a6.48,6.48,0,0,1,0-1.65,12.07,12.07,0,0,0,5.84,1.65,16.45,16.45,0,0,0,3.85-.67c.26,3.18-1.62,5.91-4.26,6.13S116.6,113.57,116.27,110.33Z" class="cls-40" transform="translate(-11.35 -16.71)"/><path d="M117.33,111.18c-.24-2.31,1.12-4.3,3-4.46s3.64,1.57,3.88,3.88-1.12,4.3-3,4.46S117.56,113.48,117.33,111.18Z" class="cls-20" transform="translate(-11.35 -16.71)"/><path d="M118.43,107.68a2.75,2.75,0,0,1,3.11-1,1.59,1.59,0,0,1,1.13,2.34,2.76,2.76,0,0,1-3.11,1A1.58,1.58,0,0,1,118.43,107.68Z" class="cls-9" transform="translate(-11.35 -16.71)"/><path d="M117.55,112.5a1.23,1.23,0,0,1,1.38-.43c.53.17.75.63.51,1a1.23,1.23,0,0,1-1.39.43A.71.71,0,0,1,117.55,112.5Z" class="cls-9" transform="translate(-11.35 -16.71)"/><path d="M120,115.78a6.25,6.25,0,0,1-4-5.43c-.34-3.34,1.68-6.26,4.51-6.49a4.52,4.52,0,0,1,1.75.2,6.26,6.26,0,0,1,4,5.43,6.6,6.6,0,0,1-1,4.38,4.66,4.66,0,0,1-3.47,2.12A4.4,4.4,0,0,1,120,115.78Zm4.76-2.08a6.27,6.27,0,0,0,1-4.16,5.88,5.88,0,0,0-3.68-5.11,3.79,3.79,0,0,0-1.49-.17c-2.54.21-4.34,2.92-4,6a5.85,5.85,0,0,0,3.68,5.1,3.82,3.82,0,0,0,1.49.18A4.12,4.12,0,0,0,124.75,113.7Z" class="cls-41" transform="translate(-11.35 -16.71)"/><path d="M95.43,66.92a20.09,20.09,0,0,0-7.5-1.19l-15-6.37s8.11-13.72,19.45-16c-2.29,2.28-5.77,6.31-7.16,9.42,5.33-3.29,13.59-6.2,19,.58-4.56-.67-9.63.51-15,3.89,7,.13,12.58,4.74,13.15,8.23a19.13,19.13,0,0,0-9.65-1.76A6.67,6.67,0,0,1,95.43,66.92Z" class="cls-2" transform="translate(-11.35 -16.71)"/><path d="M95.43,66.92a20.09,20.09,0,0,0-7.5-1.19l-.16-.06a12.51,12.51,0,0,1,5.55-.57,21,21,0,0,0-5-2.71c3.73-.76,8.71-.42,11.93,1.15A16.4,16.4,0,0,0,86,58.83c3-4.72,7.83-5.93,12.16-7.74-4.69-.9-9.94.39-15.7,5.93A20.16,20.16,0,0,1,87.8,46.68c-5.22,2.41-10.65,9.12-14.87,12.68,2.72-4.76,10.19-14.14,19.45-16-2.29,2.28-5.77,6.31-7.16,9.42,5.33-3.29,13.59-6.2,19,.58-4.56-.67-9.63.51-15,3.89,7,.13,12.58,4.74,13.15,8.23a19.13,19.13,0,0,0-9.65-1.76A6.67,6.67,0,0,1,95.43,66.92Z" class="cls-4" transform="translate(-11.35 -16.71)"/><path d="M96,67.42l-.64-.24a25,25,0,0,0-7.42-1.45,16.39,16.39,0,0,1,6.95.71A5.47,5.47,0,0,0,92.67,64l-.7-.36.76-.16A19.61,19.61,0,0,1,102.05,65c-1-3.14-6.07-7.34-12.77-7.46h-.92l.79-.5c5-3.16,9.82-4.5,14.44-4-5.62-6.28-13.79-2.72-18.24,0l-.73.45.36-.81c1.26-2.8,4.18-6.35,6.56-8.83A23.84,23.84,0,0,0,83,48.23a47.59,47.59,0,0,0-10.1,11.13,40.2,40.2,0,0,1,9.63-11.44,23.62,23.62,0,0,1,9.77-4.8l.87-.18-.64.65a42,42,0,0,0-6.71,8.52c4.19-2.4,12.89-6,18.6,1.1l.44.56-.68-.1c-4.45-.66-9.16.48-14,3.38,7,.48,12,5.11,12.5,8.41l.09.53-.46-.23a20.13,20.13,0,0,0-8.73-1.82,7.83,7.83,0,0,1,2,2.72Z" class="cls-5" transform="translate(-11.35 -16.71)"/><path d="M100.09,76.43c1-15.65,7.06-19.73,16.47-13.06,3.85,3.2,5.48,7,6.74,10.14C115,65.51,106.93,62.53,100.09,76.43Z" class="cls-2" transform="translate(-11.35 -16.71)"/><path d="M125.91,75.76c-16.33-14.89-19.37-6.36-20.7,2.33-1.41,9.15-1.25,21.3-.78,22.9" class="cls-8" transform="translate(-11.35 -16.71)"/><path d="M104.4,101c0-.06-.05-.1-.07-.15a.75.75,0,0,1-.07-.12,6,6,0,0,1-.26-.58c-.09-.23-.16-.46-.24-.7-.16-.51-.28-1-.4-1.58a38.4,38.4,0,0,1-.6-4c-.13-1.33-.22-2.65-.27-4-.06-1.69-.07-3.38,0-5.06,0-1.26.09-2.52.21-3.76,0-.25,0-.5.06-.75q.07-.82.18-1.65c.15-1.27.35-2.52.6-3.78A20.6,20.6,0,0,1,105,70.3,10.15,10.15,0,0,1,107,67.48a7.28,7.28,0,0,1,1.69-1.24,6.44,6.44,0,0,1,1.19-.48,4.69,4.69,0,0,1,.72-.17,5.58,5.58,0,0,1,.57-.08l.4,0a7.67,7.67,0,0,1,.83,0,2.22,2.22,0,0,1,.37,0c.33,0,.65.1,1,.17a13.11,13.11,0,0,1,2.87,1.08c.39.2.78.42,1.16.66.56.34,1.11.72,1.65,1.12.69.51,1.33,1.07,2,1.64l.62.59c.34.33.67.66,1,1a24.59,24.59,0,0,1,2,2.43,11.41,11.41,0,0,1,.94,1.53,16.66,16.66,0,0,1-1.87-.87c-.54-.28-1.07-.58-1.6-.88l-2.55-1.43-1.21-.65-.78-.39c-.24-.13-.5-.25-.75-.36l-.68-.31-1-.4-.53-.18-.26-.08c-.31-.11-.65-.18-1-.26s-.48-.08-.71-.11a4,4,0,0,0-2.46.44,3.63,3.63,0,0,0-.85.81,6.33,6.33,0,0,0-.44.7c-.07.12-.15.26-.21.39s-.14.3-.2.45a14.19,14.19,0,0,0-.65,1.9l-.21.82c-.09.36-.17.73-.25,1.09-.14.67-.26,1.36-.38,2a0,0,0,0,0,0,0c-.09.57-.19,1.13-.27,1.7-.2,1.29-.38,2.58-.54,3.88-.1.8-.2,1.61-.29,2.42s-.19,1.66-.28,2.48-.17,1.51-.25,2.26c-.06.45-.1.9-.16,1.35-.1.91-.2,1.82-.32,2.72-.07.59-.14,1.17-.22,1.75,0,.25-.07.5-.11.75s-.1.69-.15,1l-.09.52c0,.23-.08.47-.11.71s-.06.27-.08.41-.06.32-.07.46a.19.19,0,0,0,0,.08Z" class="cls-13" transform="translate(-11.35 -16.71)"/><path d="M79.42,80.7l11.94,1.61,6.36,20.31C88.91,98.81,84.89,88.83,79.42,80.7Z" class="cls-2" transform="translate(-11.35 -16.71)"/><path d="M92.73,96.74C80.9,86.3,68.63,86.08,56,93.33,60,81.09,72.36,78.24,88.83,79.91Z" class="cls-2" transform="translate(-11.35 -16.71)"/><path d="M57.26,93.93c24.36-15.9,25.28,1.89,36.36,3" class="cls-8" transform="translate(-11.35 -16.71)"/><path d="M89.34,96.9a18.27,18.27,0,0,1-5-2.57L82.42,93l-.58-.39-1.15-.73c-.25-.16-.5-.3-.76-.44s-.72-.39-1.08-.55l-.26-.11a10.51,10.51,0,0,0-1.18-.44,12.74,12.74,0,0,0-1.62-.39l-.4,0-.42,0-.69,0c-.35,0-.69,0-1,0l-.45,0-.81.07-.85.11c-.44.06-.89.15-1.32.25-1.11.23-2.19.54-3.27.87-.54.16-1.08.34-1.62.52l-1.71.59c-1.11.38-2.21.77-3.34,1.12-.41.13-.83.24-1.25.35a10.73,10.73,0,0,1-1.36.23,12,12,0,0,1,2.22-2.6,21.22,21.22,0,0,1,1.71-1.43c.71-.54,1.44-1.05,2.2-1.52a22.63,22.63,0,0,1,8.72-3.31,16.61,16.61,0,0,1,1.72-.14,14.09,14.09,0,0,1,2.75.2,12.82,12.82,0,0,1,2.43.65,16.08,16.08,0,0,1,3.83,2.1A39,39,0,0,1,87,91.63c.53.53,1.07,1.06,1.62,1.58l.61.56c.18.17.37.33.55.48s.52.43.78.63.58.43.89.64.88.58,1.33.86l.56.35a1,1,0,0,0,.27.15,1,1,0,0,1-.35.14,3.79,3.79,0,0,1-.81.18A7.73,7.73,0,0,1,89.34,96.9Z" class="cls-13" transform="translate(-11.35 -16.71)"/><path d="M112.74,148.32c-4.43,3.37-9.84,3.9-16.6.46" class="cls-8" transform="translate(-11.35 -16.71)"/><path d="M100.67,151.36A14.23,14.23,0,0,1,98,150.19a11.17,11.17,0,0,1-1.08-.71c-.17-.13-.34-.27-.5-.42a3.44,3.44,0,0,0-.27-.27,1.54,1.54,0,0,1,.37,0c.23,0,.47.08.69.13l1.25.31.9.22c.37.1.74.17,1.11.26l.84.17a21.39,21.39,0,0,0,3,.33,15.28,15.28,0,0,0,5.19-.74q.45-.13.9-.3l.87-.33c.33-.13.66-.27,1-.39l.51-.16a5.24,5.24,0,0,1-1.13,1.26,9.48,9.48,0,0,1-2.77,1.64,10.5,10.5,0,0,1-1.89.56A12.64,12.64,0,0,1,100.67,151.36Z" class="cls-13" transform="translate(-11.35 -16.71)"/><line x1="86.74" x2="83.25" y1="75.09" y2="57.71" class="cls-42"/><polygon points="86.74 75.09 86.37 74.04 86.07 72.97 85.53 70.82 84.59 66.49 83.79 62.13 83.45 59.94 83.32 58.83 83.25 57.71 83.62 58.76 83.92 59.83 84.46 61.98 85.4 66.31 86.2 70.67 86.54 72.87 86.67 73.97 86.74 75.09" class="cls-13"/><path d="M95.52,87.31a11.9,11.9,0,0,1,2.58,5.85c.3,2.33-.41,4-2,3.59" class="cls-8" transform="translate(-11.35 -16.71)"/><path d="M96.26,96.92c-.07,0-.11-.12-.18-.16a.39.39,0,0,1,.15-.06l.13,0a1.4,1.4,0,0,0,.61-.36l0,0a.61.61,0,0,0,.1-.14,2.42,2.42,0,0,0,.28-1.06,5.27,5.27,0,0,0,0-.69c0-.1,0-.2,0-.3s0-.23,0-.35,0-.28,0-.41,0-.23-.06-.33c-.06-.33-.13-.67-.21-1-.18-.72-.42-1.43-.66-2.13-.19-.52-.41-1-.59-1.57a4.63,4.63,0,0,1-.26-1,2,2,0,0,1,.59.31l.22.16a5,5,0,0,1,.65.65l.21.26a6.19,6.19,0,0,1,.41.59A7.69,7.69,0,0,1,98,90a8.62,8.62,0,0,1,1,4.24,4.67,4.67,0,0,1-.09.74,5.33,5.33,0,0,1-.17.66,2.19,2.19,0,0,1-1.47,1.51,1.19,1.19,0,0,1-.46,0A1.24,1.24,0,0,1,96.26,96.92Zm1-3.66s0,0,0,0h0S97.29,93.27,97.29,93.26Z" class="cls-13" transform="translate(-11.35 -16.71)"/><path d="M99.75,86.48A12.42,12.42,0,0,0,98.88,93c.37,2.37,1.54,3.82,3,2.86" class="cls-8" transform="translate(-11.35 -16.71)"/><path d="M99,95.55a7.06,7.06,0,0,1-1-4,9,9,0,0,1,.34-2.43A7.18,7.18,0,0,1,99,87.35a2.86,2.86,0,0,1,.75-.87,6.41,6.41,0,0,1,0,1c0,.3-.05.59-.07.89s0,.45,0,.68c0,.4,0,.8-.07,1.21,0,.23,0,.46,0,.69s0,.71,0,1c0,.19,0,.37,0,.56s0,.23,0,.34.06.42.1.63a3.2,3.2,0,0,0,.07.33l.06.23a1.05,1.05,0,0,1,0,.19l.09.26a1.31,1.31,0,0,0,.08.21c0,.1.08.19.13.29a1.62,1.62,0,0,0,.62.72,1.69,1.69,0,0,0,.49.13h.49a.54.54,0,0,1,0,.11,1.24,1.24,0,0,1-.59.52A1.94,1.94,0,0,1,99,95.55Zm.69-2.67h0v0Z" class="cls-13" transform="translate(-11.35 -16.71)"/><path d="M84.54,86.31c-3.51-9-10.38-10.91-21-5.11" class="cls-8" transform="translate(-11.35 -16.71)"/><path d="M83.65,84.7c-.12-.21-.24-.43-.38-.63-.23-.38-.47-.75-.73-1.11-.12-.18-.26-.36-.4-.53s-.31-.4-.48-.59-.44-.5-.69-.73l-.18-.17-.44-.39-.41-.32-.47-.34-.49-.3c-.17-.1-.35-.19-.53-.28a8.58,8.58,0,0,0-1-.43c-.18-.07-.37-.13-.55-.18l-.57-.13a10.63,10.63,0,0,0-1.13-.18,15.92,15.92,0,0,0-5.89.7L68,79.47l-.8.28c-.39.14-.78.29-1.16.45l-1.77.72-.73.29a7,7,0,0,1,.65-.46c.27-.17.54-.34.82-.5A22.54,22.54,0,0,1,67.45,79l.67-.28c.42-.16.83-.31,1.25-.45.25-.09.51-.16.77-.24s.5-.14.75-.19.73-.17,1.1-.22l.78-.11.24,0a10.94,10.94,0,0,1,1.15,0,10,10,0,0,1,4.1.83,8.66,8.66,0,0,1,1.43.79,9.2,9.2,0,0,1,1.41,1.15c.17.17.34.33.49.51s.44.5.64.77l.55.8a6.42,6.42,0,0,1,.34.56l.15.26c.13.23.25.47.36.71a13.19,13.19,0,0,1,.91,2.46C84.24,85.78,84,85.22,83.65,84.7Z" class="cls-13" transform="translate(-11.35 -16.71)"/><path d="M123.3,73.51c-1.26-3.17-2.89-6.94-6.74-10.14-9.41-6.67-15.42-2.59-16.47,13.06" class="cls-8" transform="translate(-11.35 -16.71)"/><path d="M100.08,75.89c0-.31,0-.62,0-.93,0-.76.08-1.51.16-2.27s.21-1.72.36-2.58c.1-.59.23-1.19.38-1.77a19.28,19.28,0,0,1,1-3.09c.09-.22.19-.43.29-.64s.36-.7.56-1a6.49,6.49,0,0,1,.36-.55l.18-.26.19-.24c.13-.17.28-.34.43-.5a6.43,6.43,0,0,1,.76-.72,4.59,4.59,0,0,1,.44-.33l.17-.12.47-.27.25-.13a7.44,7.44,0,0,1,.78-.31,8.56,8.56,0,0,1,5.84.56c.5.22,1,.45,1.47.72.29.15.57.31.85.48l.39.24.3.2.3.2.42.29a3.46,3.46,0,0,1,.31.22l.29.25a18.8,18.8,0,0,1,3,3.32,20.07,20.07,0,0,1,1.2,1.93c.24.42.45.86.66,1.3a27.7,27.7,0,0,1,1.39,3.65c-.31-.62-.6-1.24-.91-1.86-.47-.93-1-1.86-1.5-2.74a21.82,21.82,0,0,0-2.57-3.38c-.41-.44-.85-.86-1.29-1.26-.22-.2-.45-.39-.68-.58l-1-.63c-.25-.15-.49-.31-.74-.45a17.79,17.79,0,0,0-1.79-.92c-.19-.09-.38-.16-.58-.24l-.26-.1a3.4,3.4,0,0,0-.34-.12l-.27-.09-.29-.08a7.87,7.87,0,0,0-1.07-.24,7.63,7.63,0,0,0-1.26-.09c-.2,0-.41,0-.61,0l-.21,0c-.17,0-.35.06-.53.1a5.61,5.61,0,0,0-1.63.71l-.25.17c-.14.1-.28.2-.41.31s-.35.31-.51.48l-.19.19c-.16.19-.34.39-.49.6l-.17.24a11.52,11.52,0,0,0-.64,1c-.17.32-.33.64-.49,1a25.44,25.44,0,0,0-1.59,5c-.11.52-.22,1.05-.31,1.57-.05.24-.09.49-.13.74s-.11.65-.16,1-.13.84-.19,1.26l-.12.85a3.65,3.65,0,0,0-.07.46C100.08,76.26,100.08,76.07,100.08,75.89Zm16.25-12.21h0Z" class="cls-13" transform="translate(-11.35 -16.71)"/><path d="M68.58,116.15c-2.06-7,1.39-13.81,5.93-15.33S84.67,102.52,87,108s.6,11.19-4,12.71S70,120.84,68.58,116.15Z" class="cls-9" transform="translate(-11.35 -16.71)"/><path d="M68.58,116.15a14.78,14.78,0,0,1-.44-6.42c.91,3.55,4.4,6.41,9.07,7.07,4.14.61,9.44-1.08,10.87-4.15.09,3.76-1.74,7-5,8.08C78.54,122.25,70,120.84,68.58,116.15Z" class="cls-38" transform="translate(-11.35 -16.71)"/><path d="M73.2,120.54c-1.84-.67-4.17-2-4.87-4.33-2.13-7.26,1.51-14,6.11-15.58s10.43,1.72,12.84,7.31.56,11.41-4.11,13a14.58,14.58,0,0,1-5.49.55A16.74,16.74,0,0,1,73.2,120.54Zm9.81,0c4.41-1.47,6.1-7.05,3.78-12.44-1.84-4.28-5.68-7.17-9.39-7.44a7.25,7.25,0,0,0-2.81.34c-4.38,1.46-7.78,8.23-5.76,15.08.66,2.23,2.88,3.46,4.62,4.1A16,16,0,0,0,83,120.54Z" class="cls-20" transform="translate(-11.35 -16.71)"/><path d="M74.2,113c-.19-3.23,1.92-5.93,4.71-6s5.21,2.42,5.4,5.64-1.92,5.93-4.71,6S74.38,116.26,74.2,113Z" class="cls-39" transform="translate(-11.35 -16.71)"/><path d="M74.2,113a6.33,6.33,0,0,1,.1-1.64,12.92,12.92,0,0,0,6,1.89,17.77,17.77,0,0,0,4-.5c.12,3.16-2,5.78-4.71,5.89S74.38,116.26,74.2,113Z" class="cls-40" transform="translate(-11.35 -16.71)"/><path d="M75.25,113.92a3.83,3.83,0,0,1,3.36-4.29,4,4,0,0,1,3.84,4,3.82,3.82,0,0,1-3.35,4.3A4,4,0,0,1,75.25,113.92Z" class="cls-20" transform="translate(-11.35 -16.71)"/><path d="M77.62,112.87c-1.2-.43-1.67-1.49-1.06-2.37a3,3,0,0,1,3.28-.83c1.2.42,1.67,1.48,1.06,2.36A3,3,0,0,1,77.62,112.87Z" class="cls-9" transform="translate(-11.35 -16.71)"/><path d="M75.89,116.3c-.53-.19-.74-.66-.47-1a1.31,1.31,0,0,1,1.46-.37c.53.19.74.66.47,1.05A1.32,1.32,0,0,1,75.89,116.3Z" class="cls-9" transform="translate(-11.35 -16.71)"/><path d="M77.8,118.6a6.19,6.19,0,0,1-3.88-5.55c-.2-3.33,2-6.13,5-6.25a4.83,4.83,0,0,1,1.81.28,6.2,6.2,0,0,1,3.88,5.55,6.35,6.35,0,0,1-1.28,4.3,4.89,4.89,0,0,1-3.7,1.95A4.83,4.83,0,0,1,77.8,118.6Zm5-1.86A6,6,0,0,0,84,112.65a5.8,5.8,0,0,0-3.58-5.21,4.07,4.07,0,0,0-1.54-.24c-2.63.11-4.63,2.72-4.45,5.83A5.81,5.81,0,0,0,78,118.25a4.2,4.2,0,0,0,4.79-1.51Z" class="cls-41" transform="translate(-11.35 -16.71)"/><path d="M118.25,139.92c-8.72,3.36-19.35,3.89-32.66.45" class="cls-8" transform="translate(-11.35 -16.71)"/><path d="M99.84,143.52c-.83-.05-1.64-.12-2.46-.21-1.13-.11-2.24-.28-3.36-.47a42.79,42.79,0,0,1-6.37-1.62c-.48-.16-1-.35-1.43-.55-.22-.09-.42-.2-.63-.29a6.79,6.79,0,0,1,.9.05l1.33.14,3.59.46,1.4.17,1.54.17c.67.07,1.34.14,2,.19l1.53.11c.88.07,1.78.11,2.67.13,1.76.06,3.52,0,5.28-.05l1.82-.12c1.1-.1,2.21-.21,3.31-.38,1.27-.19,2.53-.39,3.78-.65l1.76-.36c.58-.12,1.15-.24,1.74-.32a15.34,15.34,0,0,1-2.2,1.15c-.51.22-1,.43-1.57.61l-.78.26-.76.23c-.4.12-.82.24-1.24.34s-1.1.26-1.67.37-1.17.21-1.76.29a38.37,38.37,0,0,1-4.67.4C102.35,143.61,101.09,143.59,99.84,143.52Z" class="cls-13" transform="translate(-11.35 -16.71)"/><path d="M86.71,138.6a5.26,5.26,0,0,0-2.18,4.68" class="cls-8" transform="translate(-11.35 -16.71)"/><path d="M84.18,142.86a2.45,2.45,0,0,1-.23-1.17,3.58,3.58,0,0,1,.94-2.37,2.87,2.87,0,0,1,.46-.4,1.54,1.54,0,0,1,1.36-.32,4.07,4.07,0,0,1-.49,1.46c-.14.28-.29.57-.42.86s-.22.51-.34.76a7.38,7.38,0,0,1-.64,1.29c-.06.07-.12.15-.18.21l-.1.1A1.05,1.05,0,0,1,84.18,142.86Z" class="cls-13" transform="translate(-11.35 -16.71)"/><path d="M107.46,133.41c.15,2.79.14,5.58-1.53,8.37" class="cls-8" transform="translate(-11.35 -16.71)"/><path d="M106.07,141.23c.06-.16.11-.33.16-.5s.1-.3.14-.44l.12-.4c.11-.36.21-.75.29-1.13s.11-.53.15-.79l.06-.41c0-.16,0-.32.06-.48.07-.5.11-1,.15-1.53s0-.77.09-1.16a4.68,4.68,0,0,1,.17-1,3.76,3.76,0,0,1,.2.73,9.79,9.79,0,0,1,.17,1.31,10.5,10.5,0,0,1-.45,3.86,7.94,7.94,0,0,1-.31.81,5.56,5.56,0,0,1-.94,1.48l-.2.18A3.41,3.41,0,0,1,106.07,141.23Z" class="cls-13" transform="translate(-11.35 -16.71)"/></g></svg>