<svg id="Layer_1" data-name="Layer 1" xmlns="http://www.w3.org/2000/svg" xmlns:xlink="http://www.w3.org/1999/xlink" viewBox="0 0 210.69 212.53"><defs><style>.cls-1,.cls-34{fill:#fff;}.cls-2{fill:#c6444a;}.cls-3{mask:url(#mask);}.cls-10,.cls-30,.cls-4{fill:#969395;}.cls-11,.cls-5{fill:#757575;}.cls-12,.cls-6{fill:#cecece;}.cls-13,.cls-22,.cls-7{fill:#3a3a3a;}.cls-8{fill:#b32229;}.cls-9{fill:#481212;}.cls-10,.cls-11,.cls-12,.cls-13,.cls-19,.cls-20,.cls-21,.cls-22,.cls-23,.cls-24,.cls-25,.cls-26,.cls-27,.cls-28,.cls-29,.cls-30,.cls-31,.cls-32,.cls-33,.cls-34,.cls-35,.cls-36,.cls-37,.cls-38{stroke:#fff;}.cls-10,.cls-11,.cls-12,.cls-13,.cls-19,.cls-20,.cls-21,.cls-22,.cls-23,.cls-24,.cls-25,.cls-26,.cls-27,.cls-28,.cls-29,.cls-30,.cls-31,.cls-32,.cls-33,.cls-34,.cls-35,.cls-36,.cls-37,.cls-38,.cls-55{stroke-miterlimit:79.84;}.cls-10,.cls-11,.cls-12,.cls-13{stroke-width:3.14px;}.cls-14,.cls-56{fill:none;}.cls-15,.cls-28{fill:#f7efe8;}.cls-16,.cls-29{fill:#ddc9ba;}.cls-17{fill:#8f1c21;}.cls-18{fill:#4d090d;}.cls-19,.cls-39,.cls-55{fill:#494a49;}.cls-19,.cls-20,.cls-21,.cls-22,.cls-23,.cls-24,.cls-25,.cls-26,.cls-27,.cls-28,.cls-29,.cls-30,.cls-31,.cls-32,.cls-33,.cls-34,.cls-35,.cls-36,.cls-37,.cls-38{stroke-width:3.75px;}.cls-20,.cls-40{fill:#333;}.cls-21,.cls-41{fill:#0d0d0d;}.cls-23,.cls-42{fill:#7f0000;}.cls-24,.cls-43{fill:#350000;}.cls-25,.cls-44{fill:#ffa6a6;}.cls-26,.cls-45{fill:#f27c7c;}.cls-27,.cls-46{fill:#c63838;}.cls-31,.cls-47{fill:#262626;}.cls-32,.cls-48{fill:#686868;}.cls-33,.cls-49{fill:#161616;}.cls-35,.cls-50{fill:#c6c6c6;}.cls-36,.cls-51{fill:#0092ff;}.cls-37,.cls-52{fill:#005dcc;}.cls-38,.cls-53{fill:#003084;}.cls-54{fill:#7f7f7f;}.cls-55,.cls-56{stroke:#000;}.cls-55{stroke-width:0.47px;}.cls-56{stroke-linecap:round;stroke-linejoin:round;stroke-width:0.94px;}.cls-57{fill:url(#linear-gradient);}.cls-58{fill:url(#linear-gradient-2);}.cls-59{fill:url(#linear-gradient-3);}</style><mask id="mask" x="-35.65" y="-29.22" width="270.09" height="270.09" maskUnits="userSpaceOnUse"><g transform="translate(-13.14 -6.71)"><g id="TranspMask"><rect class="cls-1" x="-22.51" y="-22.51" width="270.09" height="270.09"/></g></g></mask><linearGradient id="linear-gradient" x1="0.24" y1="511.66" x2="-34.19" y2="487.71" gradientTransform="translate(94.25 -327.13)" gradientUnits="userSpaceOnUse"><stop offset="0" stop-color="#fff"/><stop offset="1" stop-color="#fff"/></linearGradient><linearGradient id="linear-gradient-2" x1="1.53" y1="510.09" x2="-46.14" y2="471.89" xlink:href="#linear-gradient"/><linearGradient id="linear-gradient-3" x1="-2.85" y1="515.63" x2="-63.08" y2="468.26" xlink:href="#linear-gradient"/></defs><title>Racoon-thums up</title><g id="Group"><path class="cls-2" d="M82.48,193.88a94.51,94.51,0,0,1,46.61-176.6h.57A94.53,94.53,0,0,1,219.6,139.8l0-.05L184,106.39a54.93,54.93,0,1,0-55.5,60.34l35.23,33,0,0a94.89,94.89,0,0,1-34.09,6.51H129A94,94,0,0,1,82.48,193.88Z" transform="translate(-13.14 -6.71)"/><path class="cls-2" d="M223.67,196,99.27,76.85c5.71-7.17,13.38-13.51,31.44-15.48l93,90.81Z" transform="translate(-13.14 -6.71)"/><path class="cls-2" d="M175.74,203,80.93,114.11C82.11,96,88.11,88.05,95,82l124.51,119Z" transform="translate(-13.14 -6.71)"/></g><g class="cls-3"><g id="Group_2" data-name="Group 2"><path class="cls-4" d="M31,186.11c-3.74-5.94.8-23,6.77-32.05s18.52-21.93,31-19.6,15.73,13.93,10.94,22.79c-7.85,14.53-20.83,23-29.59,32.55C50.15,189.8,38.79,188.58,31,186.11Z" transform="translate(-13.14 -6.71)"/><path class="cls-5" d="M31,186.11c-3.74-5.94.8-23,6.77-32.05s18.52-21.93,31-19.6a17,17,0,0,1,8.57,4.09c-15-2.84-27.93,11.69-33.6,25.06-3.16,8.29-1.88,16.81-.28,25.27A92.75,92.75,0,0,1,31,186.11Z" transform="translate(-13.14 -6.71)"/><path class="cls-6" d="M49,189.66c1-2.69,3.07-4.72,4.76-6.58,6.62-7.42,17-15.41,21.65-24.33,3.82-6.12,4.4-9.46,4.83-16.5a16,16,0,0,1-.46,15c-7.85,14.53-20.83,23-29.59,32.55Z" transform="translate(-13.14 -6.71)"/><path class="cls-7" d="M50.26,190.08h-.13c-.12,0-11.48-1.24-19.2-3.71l-.09,0-.06-.08c-.12-.21-.25-.43-.36-.66-3.11-6.49,1.32-22.84,7.14-31.69,5.55-8.45,18.4-22.11,31.29-19.7,5.53,1,9.73,4,11.82,8.37A16.39,16.39,0,0,1,80,157.39c-5.42,10-13.43,17.34-20.49,23.79-3.3,3-6.41,5.85-9.14,8.81Zm8.86-9.31c7-6.42,15-13.69,20.38-23.65a15.85,15.85,0,0,0,.69-14.31c-2-4.21-6.08-7.08-11.44-8.08C56.14,132.38,43.49,145.87,38,154.21c-5.74,8.73-10.15,24.81-7.1,31.14a4.44,4.44,0,0,0,.28.53c7.21,2.27,17.56,3.49,18.86,3.63C52.76,186.57,55.85,183.75,59.12,180.77Z" transform="translate(-13.14 -6.71)"/></g></g><path class="cls-8" d="M31,165.69A85.78,85.78,0,0,1,48.88,135c11.3-10,29.06-7.88,25.24,11.08l-17.6,30.76C50.13,169.85,40.83,167.37,31,165.69Z" transform="translate(-13.14 -6.71)"/><path class="cls-9" d="M55.8,176.11c-.22-.19-.43-.39-.66-.58-.43-.37-.87-.75-1.33-1.09s-.62-.46-.94-.68-.68-.47-1-.69c-.53-.35-1.09-.68-1.64-1l-.61-.33c-.34-.19-.69-.35-1-.53l-.81-.38c-.51-.23-1-.45-1.54-.66s-.85-.34-1.29-.5-1-.37-1.56-.55c-.77-.25-1.54-.47-2.32-.7-.57-.16-1.15-.3-1.72-.45s-1-.26-1.58-.37l-1.42-.31-1.7-.33c-.91-.18-1.82-.33-2.73-.48l-1.75-.3c.19-.55.37-1.11.55-1.67.24-.71.48-1.42.74-2.12q.7-2,1.5-3.87c.41-1,.85-2,1.3-2.94s.78-1.66,1.19-2.47.94-1.85,1.45-2.75c.33-.59.65-1.17,1-1.75s.77-1.3,1.16-1.94c.82-1.33,1.7-2.64,2.59-3.93.31-.44.63-.89,1-1.32,1.08-1.47,2.19-2.91,3.35-4.32.46-.56.93-1.11,1.41-1.66.18-.22.37-.43.56-.64l.28-.32.12-.14.18-.15c.16-.14.31-.28.48-.41l.5-.41c.34-.27.68-.53,1-.78s.75-.51,1.13-.76l.49-.31c.27-.16.54-.32.82-.47s.78-.42,1.18-.62.69-.32,1-.47,1-.41,1.48-.58.7-.24,1.06-.34l.61-.17.52-.13.64-.15.93-.16c.37-.06.76-.1,1.13-.14s.64-.05,1-.07.7,0,1,0l.47,0c.24,0,.49,0,.72.06s.72.08,1.08.14.88.18,1.32.3a11.7,11.7,0,0,1,3.33,1.53,10.79,10.79,0,0,1,1.31,1l.36.36a6.91,6.91,0,0,1,.51.57l.33.4.34.48c.09.15.19.29.27.43s.18.3.26.45.28.54.4.81a15.18,15.18,0,0,1,1.19,6.38,19.92,19.92,0,0,1-.11,2c-.07.66-.16,1.3-.27,1.95,0,.22-.08.46-.13.68l-.06.29a.43.43,0,0,1,0,.12,0,0,0,0,1,0,0s0,.07-.05.1c-.28.52-.78,1-.9,1.53s-.64,1-.9,1.53-.59,1-.89,1.53L70.26,154c-.3.51-.61,1-.9,1.52-.6,1-1.21,2-1.81,3l-1.8,3.06-1.83,3c-.91,1.52-1.81,3-2.73,4.56l-1.39,2.26s-.9,1.48-.92,1.52l-1.42,2.25-.94,1.49h0a0,0,0,0,0,0,0C56.29,176.56,56,176.33,55.8,176.11Zm.72.67Zm1.22-2.35.82-1.58c.41-.78.83-1.56,1.25-2.34.83-1.57,1.68-3.12,2.53-4.68l1.7-3.11c.28-.52.56-1,.85-1.55.85-1.56,1.72-3.1,2.57-4.66,2-3.58,4-7.15,6-10.72,0-.25.1-.5.14-.76s.07-.49.11-.74q.11-.75.15-1.5a17.9,17.9,0,0,0-.07-3.73,12.78,12.78,0,0,0-.89-3.38c-.12-.27-.24-.52-.38-.78a9.89,9.89,0,0,0-.6-1l-.26-.34c-.1-.14-.21-.26-.32-.39s-.31-.33-.46-.5l-.38-.35a9.38,9.38,0,0,0-1.6-1.12,10.74,10.74,0,0,0-1-.49A13.37,13.37,0,0,0,61.1,130a18.17,18.17,0,0,0-1.79.33c-.18.05-.37.08-.55.14l-.46.12-.77.25-.68.23c-.67.26-1.33.53-2,.84l-1,.5c-.28.15-.55.31-.82.47s-.67.41-1,.63a24.35,24.35,0,0,0-2.62,2c-.55.61-1.1,1.23-1.63,1.86-1,1.16-2,2.34-2.88,3.56-1.15,1.49-2.24,3-3.3,4.59-.82,1.19-1.58,2.43-2.33,3.66-.61,1-1.19,2-1.75,3.05l-.36.67c-.28.51-.54,1-.8,1.54s-.65,1.28-1,1.93l-.27.58q-1,2.17-1.92,4.4c-.32.82-.64,1.64-1,2.47-.17.44-.32.89-.48,1.34.7.13,1.4.26,2.1.41s1.69.36,2.54.56c.65.15,1.31.31,2,.48l.79.21.57.16.66.19,1.38.43c.53.17,1,.36,1.57.54l.62.24c.5.18,1,.38,1.49.59l.48.21c.36.15.71.31,1.06.48a30.62,30.62,0,0,1,4.48,2.58A26.44,26.44,0,0,1,55,175.15c.34.34.68.69,1,1,.17.2.33.4.51.58ZM31.85,165.2l-.74-.14.49.84C31.68,165.66,31.77,165.43,31.85,165.2Zm41.66-19.52-.07.11s0,.07,0,.11A1.43,1.43,0,0,1,73.51,145.68Zm-24-10.13,0,0-.07.07Z" transform="translate(-13.14 -6.71)"/><g class="cls-3"><g id="Group_3" data-name="Group 3"><path class="cls-10" d="M109.28,189c2.16-10.61,1.57-23.59,7.58-36,3.67-7.59,13.11-11.08,20.82-3.75s5.15,22.15,1.92,30.65-12.57,19.94-18.43,20.3A99.43,99.43,0,0,1,109.28,189Z" transform="translate(-13.14 -6.71)"/><path class="cls-11" d="M113.17,193.08c6.53-3.06,12.93-6.37,17-12.58,6.29-10.4,9.79-26.32.53-35.08a14.12,14.12,0,0,1,7,3.81c7.72,7.34,5.15,22.15,1.92,30.65s-12.57,19.94-18.43,20.3A77.54,77.54,0,0,1,113.17,193.08Z" transform="translate(-13.14 -6.71)"/><path class="cls-12" d="M109.28,189c2.16-10.61,1.57-23.59,7.58-36a13.42,13.42,0,0,1,10-7.67c-4.57,3.75-6.56,5.78-8.83,11.37-3.75,7.56-4.11,18.49-5.9,26.62a18.14,18.14,0,0,1-2.13,6.45Z" transform="translate(-13.14 -6.71)"/><path class="cls-13" d="M121.1,200.41l-.07,0a100.43,100.43,0,0,1-11.92-11.21l-.07-.09,0-.1c.67-3.3,1.07-6.81,1.5-10.52.91-8,1.94-17,6.09-25.57a13.77,13.77,0,0,1,9.71-7.73c4-.72,8.07.67,11.48,3.92,7.95,7.57,5,23,2,30.89-3.15,8.28-12.07,19.31-18,20.37a4.52,4.52,0,0,1-.63.08Zm.63-.52c5.79-1,14.54-11.92,17.65-20.09,3-7.81,5.93-23-1.86-30.4-3.3-3.15-7.23-4.5-11.08-3.8a13.24,13.24,0,0,0-9.37,7.48c-4.12,8.52-5.15,17.5-6.06,25.42-.42,3.68-.82,7.15-1.48,10.44a98.63,98.63,0,0,0,11.71,11A4.1,4.1,0,0,0,121.73,199.89Z" transform="translate(-13.14 -6.71)"/></g></g><path class="cls-14" d="M114.45,146.53c-.3,1.87,1.07,3.66,1.1,4a153,153,0,0,0-4.82,24.63" transform="translate(-13.14 -6.71)"/><path class="cls-1" d="M110.73,175.2l-.09,0,0,0,0-.06-.07-.11-.08-.22-.1-.42-.11-.84,0-.83V171l0-.82,0-.81.07-.81.07-.81.08-.8.1-.79.1-.8.12-.79.12-.79.28-1.56.3-1.54.34-1.54.37-1.51.39-1.51.43-1.49.46-1.47.5-1.45.45-1.2h0l0-.1,0-.11,0-.12,0-.13,0-.14,0-.15-.09-.3-.08-.33-.07-.35,0-.36v-.78l0-.2,0-.19.06-.2.08-.19.12-.18.08-.08,0,0,0,0h.09l.08,0,0,0,0,0,.06.09.08.17.07.16.07.15.06.15.06.14.07.14.06.13.07.13.06.13.15.26.14.24.14.23.15.23.07.1.07.1.07.1.06.1.07.09.06.09.06.09,0,.09.06.08,0,.09,0,.11,0,.11,0,.13,0,.1,0,.25,0,.24-.26,1.5-.28,1.49-.3,1.49-.3,1.5-.31,1.49-.32,1.5-.32,1.5-.32,1.51-.33,1.53-.17.76-.17.76-.16.77-.17.76-.18.78-.17.77-.18.77-.19.78-.2.78-.2.79-.22.78-.24.79-.3.78-.19.39-.13.2-.09.09-.06,0h0Zm3.77-24.36h0v-.07l0-.07v.09h0Zm0-.15v-.16l0-.25-.09.24,0,.08,0,.09Z" transform="translate(-13.14 -6.71)"/><g class="cls-3"><g id="Group_4" data-name="Group 4"><path class="cls-4" d="M47.56,211.79c.91-1,1.76-1.92,2.51-2.62-.3,1.08-.56,2.14-.8,3.2Z" transform="translate(-13.14 -6.71)"/><path class="cls-5" d="M48.71,212.18c.32-.54.65-1.07,1-1.6-.15.6-.3,1.2-.43,1.79Z" transform="translate(-13.14 -6.71)"/><path class="cls-6" d="M47.56,211.79c.91-1,1.76-1.92,2.51-2.62,0,.14-.2,1.48-.24,1.62-.39.46-.77.93-1.14,1.39Z" transform="translate(-13.14 -6.71)"/><path class="cls-7" d="M49,212.28c.16-.74.34-1.48.54-2.23-.55.55-1.13,1.16-1.72,1.83l-.55-.19c.91-1.05,1.8-2,2.6-2.72l.71-.66-.26.93c-.3,1.08-.57,2.16-.8,3.22Z" transform="translate(-13.14 -6.71)"/></g></g><g class="cls-3"><g id="Group_5" data-name="Group 5"><path class="cls-15" d="M76.4,218.37A133.29,133.29,0,0,1,48.24,212,112.62,112.62,0,0,1,53,201c6.54-13.26,11.78-26.78,10.87-44.5-.49-16.9,11.59-24.33,21.43-28.6,0,0,25.24,9,29.15,10.66s19.18,5.84,17.34,12.22-14.56,35.9-17.24,50.16a29.66,29.66,0,0,1,4.58,15.44c-.92.2-1.85.39-2.79.56-2.36.44-4.72.83-7.11,1.14q-2.82.38-5.66.63c-1.73.15-3.46.27-5.2.36-1.33.07-2.66.11-4,.15-.81,0-1.63,0-2.44,0H90.79l-1.28,0-1.52,0-.95,0q-1.68-.06-3.36-.15C81.25,218.85,78.82,218.66,76.4,218.37Z" transform="translate(-13.14 -6.71)"/><path class="cls-16" d="M97.63,202.81c-.09-7.2-11.36-11.49-7.73-17.22,6.71-11.5,21.77-25.2,10.38-36.16-6.74-6.35-11.4,7.43-18.65,9.7.63-10.58,6-19.59,11.42-28.45,7.77,2.79,18.89,6.82,21.38,7.88,3.92,1.68,19.18,5.84,17.34,12.22s-14.56,35.9-17.24,50.16a29.66,29.66,0,0,1,4.58,15.44c-.92.2-1.85.39-2.79.56-2.36.44-4.72.83-7.11,1.14q-2.77.36-5.56.62C104.82,212.5,97.76,212.9,97.63,202.81Z" transform="translate(-13.14 -6.71)"/><g class="cls-3"><g id="Group_6" data-name="Group 6"><path class="cls-7" d="M91.43,142.87a15.23,15.23,0,0,1,12-4.15l0,.54-.28,0a14.66,14.66,0,0,0-11.17,3.9A21.54,21.54,0,0,0,86.39,152,18.47,18.47,0,0,1,91.43,142.87Z" transform="translate(-13.14 -6.71)"/></g></g><path class="cls-7" d="M114.3,201.08l0-.09v-.09c1.83-9.74,8.2-26.24,12.85-38.29,2.13-5.52,3.81-9.88,4.4-11.91,1.47-5.1-8.92-8.86-14.51-10.88-1.09-.39-2-.74-2.68-1-3.73-1.6-27.27-10-29-10.62-9.36,4.08-21.66,11.46-21.16,28.3.86,16.95-3.74,30.1-10.91,44.63a114.77,114.77,0,0,0-4.73,11l-.51-.17a112.7,112.7,0,0,1,4.75-11.06c7.14-14.45,11.71-27.53,10.85-44.37-.5-17.23,12.08-24.73,21.59-28.86l.09-.05.11,0c.25.09,25.29,9,29.17,10.68.63.26,1.57.6,2.65,1,5.75,2.07,16.46,5.94,14.84,11.53-.59,2.05-2.27,6.42-4.41,12-4.62,12-11,28.4-12.8,38.1a30.11,30.11,0,0,1,4.57,15.43l-.54.11A29.91,29.91,0,0,0,114.3,201.08Z" transform="translate(-13.14 -6.71)"/></g></g><g class="cls-3"><g id="Group_7" data-name="Group 7"><path class="cls-4" d="M124.54,211.15l8.47,1.49h.05l-1,.33c-2.35.74-4.71,1.44-7.09,2-.95.24-1.89.48-2.83.7-1.34.32-2.69.61-4,.89A62.06,62.06,0,0,1,124.54,211.15Z" transform="translate(-13.14 -6.71)"/><path class="cls-6" d="M123.18,212.18q-1.68,2-3.33,4l-1.77.37C120.26,214.54,122,213.07,123.18,212.18Z" transform="translate(-13.14 -6.71)"/><path class="cls-5" d="M128.39,211.83l4.62.81h.05l-1,.33c-.94.3-1.88.59-2.83.87C128.94,213.16,128.67,212.49,128.39,211.83Z" transform="translate(-13.14 -6.71)"/><path class="cls-7" d="M124.54,211.15a64.5,64.5,0,0,0-6.22,5.4l-.71.14A53.34,53.34,0,0,1,124.54,211.15Z" transform="translate(-13.14 -6.71)"/></g></g><path class="cls-8" d="M76.4,218.37a133.05,133.05,0,0,1-29.78-6.91c3-10.58,5.92-23.6,9-36.36,4.56-18.94,9.46-37.32,15.46-46.39l54.51,1.55L134,186.35a43.45,43.45,0,0,0,.63,25.76l-2.62.86c-2.35.74-4.71,1.44-7.09,2-.95.24-1.89.48-2.83.7-1.92.45-3.86.87-5.81,1.23-2.36.44-4.72.83-7.11,1.14q-2.82.38-5.66.63c-1.73.15-3.46.27-5.2.36-1.33.07-2.66.11-4,.15-.81,0-1.63,0-2.44,0H90.79l-1.28,0-1.52,0-.95,0q-1.68-.06-3.36-.15C81.25,218.85,78.82,218.66,76.4,218.37Z" transform="translate(-13.14 -6.71)"/><path class="cls-14" d="M55.31,176.32c-.38,1.56-5.59,23.86-8.7,35.13m88.06.66a43.45,43.45,0,0,1-.63-25.76l12.12-55.58-75.08-2.06" transform="translate(-13.14 -6.71)"/><path class="cls-9" d="M46.22,211.31c0-.12.06-.24.1-.36.26-.91.51-1.83.76-2.74s.48-1.76.71-2.65c.42-1.58.84-3.16,1.25-4.74.74-2.82,1.46-5.64,2.19-8.47.24-.93.46-1.86.71-2.78.28-1.13.57-2.25.85-3.38.4-1.59.81-3.18,1.21-4.77l.42-1.63c.16-.66.33-1.31.5-2l.15-.61c0-.1.06-.2.08-.3s.1-.41.16-.6c0,.12-.06.26-.09.39s-.11.48-.16.72c-.14.68-.29,1.35-.44,2s-.32,1.49-.49,2.23c-.13.58-.25,1.15-.38,1.73l-.57,2.52c-.55,2.47-1.12,4.95-1.7,7.41-.67,2.89-1.35,5.78-2.06,8.67-.58,2.38-1.16,4.75-1.78,7.13-.21.82-.42,1.64-.64,2.45Zm87.17-.52c-.12-.42-.24-.84-.35-1.27-.19-.76-.38-1.51-.53-2.28a44.49,44.49,0,0,1-.81-5.62c-.11-1.47-.14-2.92-.11-4.39,0-.53,0-1.06.07-1.59s.06-.89.11-1.33c0-.23,0-.45.07-.68l.06-.6c.06-.45.12-.89.19-1.34s.12-.79.19-1.18c0-.19.07-.39.11-.58.1-.49.2-1,.31-1.47s.23-1,.36-1.52l.21-.78c4-18.27-12.54-37.33-8.48-55.58-8.5-.28,3.58.25-4.92,0l-11.26-.38c-2.5-.08-5-.18-7.5-.27l-7.51-.27-3.75-.13L78.59,129l-7.51-.31,11.27.15c2.5,0,5,0,7.51.09l3.76.08,7.51.14,7.51.14,11.26.24c9,.18-2.56-.4,6.45-.2-2.64,12.3,15.31,25.4,12.66,37.7-.6,2.77-1.19,5.56-1.8,8.34-.2.92-.39,1.85-.6,2.78l-1.2,5.56a16,16,0,0,0-.6,2.78l-.1.4a45.29,45.29,0,0,0-1.31,7.23c-.08.77-.14,1.55-.16,2.33s0,1.29,0,1.94,0,1.05,0,1.57l0,.69c0,.36,0,.72.08,1.08.09,1,.22,2.08.38,3.11a46.24,46.24,0,0,0,1.72,7c-.52.19-1,.37-1.57.54C133.71,211.85,133.55,211.32,133.39,210.79Zm-.12-24.64h0v0Zm-7.71-55.55-.6-.76c-.06.25-.11.49-.17.74Z" transform="translate(-13.14 -6.71)"/><path class="cls-14" d="M62.74,150.54c.06-.27.29,2.9-1.08,7.89-3.95,14.39-12.13,44.33-14.58,53.19" transform="translate(-13.14 -6.71)"/><path class="cls-9" d="M46.87,211.55c0-.18.07-.35.11-.52s.11-.53.17-.79.17-.8.26-1.2c.35-1.55.72-3.11,1.09-4.66s.83-3.38,1.26-5.07q1-3.84,2-7.66,1.88-7.08,3.83-14.14,1.74-6.24,3.58-12.47c.4-1.36.8-2.71,1.22-4.06.27-.89.54-1.79.82-2.68h0c.24-.77.47-1.54.66-2.32.09-.38.19-.75.27-1.14,0-.21.09-.42.13-.63s.14-.71.2-1.06c.09-.51.17-1,.23-1.54,0-.23,0-.47.06-.71,0-.09,0-.22,0-.31s0,0,0-.06h0s0,.14,0,.16c0,.23.06.47.08.71a17.83,17.83,0,0,1-.05,2.83,31.23,31.23,0,0,1-.48,3.32c-.17.84-.39,1.68-.59,2.51-.51,2.19-1.07,4.37-1.62,6.55-.5,2-1,4-1.56,6q-1.26,4.8-2.56,9.57c-.77,2.81-1.55,5.61-2.35,8.42-.35,1.26-.71,2.53-1.08,3.8-.64,2.22-1.28,4.45-2,6.67-.17.53-.32,1.07-.49,1.61s-.25.82-.37,1.23c-.28.94-.58,1.87-.87,2.81-.36,1.16-.74,2.32-1.13,3.47-.16.49-.33,1-.5,1.46Z" transform="translate(-13.14 -6.71)"/><path class="cls-17" d="M109.32,137.33c-5-15.55-26.93-3.55-38.46,4-4,2.6-6.07,10.43-7.93,13.24-.63,1,4.27-9.89,2.1-16.22-2-5.84-10.84-5.86-11.86-6.21l71.76-2.63L134,186.35a43.45,43.45,0,0,0,.63,25.76l-2.62.86c-2.35.74-4.71,1.44-7.09,2l-1.39.35C127.64,197.72,127.5,168.35,109.32,137.33Z" transform="translate(-13.14 -6.71)"/><path class="cls-14" d="M118.4,146.29c-.94,3.25,3.21,7.68,3.73,7A76.24,76.24,0,0,0,125,172.64" transform="translate(-13.14 -6.71)"/><path class="cls-9" d="M125,172.64l-.12-.08-.07-.09-.12-.2-.2-.42-.18-.43-.17-.45-.17-.47-.16-.47-.15-.49-.15-.51-.15-.51-.14-.53-.14-.54-.14-.55-.13-.56-.12-.58-.13-.59-.11-.59-.12-.62-.1-.62-.11-.64-.1-.64-.09-.66-.08-.68-.08-.68-.08-.7-.06-.71-.06-.72,0-.73-.05-.74,0-.76,0-.76,0-.78V154h0l-.1-.06-.1-.06-.09-.06-.09-.07-.1-.07-.09-.07-.09-.08-.1-.09-.09-.09-.1-.1-.1-.1-.19-.21-.19-.23-.2-.24-.19-.26-.19-.27-.19-.29-.18-.29-.17-.32-.16-.31-.16-.33-.13-.34-.13-.34-.11-.35-.09-.35-.07-.35,0-.35,0-.18v-.7l0-.17,0-.17,0-.17,0-.16.06-.16.08-.15.06-.07.09-.06.06.1,0,.08v.31l0,.16v.15l0,.15,0,.15,0,.14,0,.15,0,.15,0,.15,0,.15.1.29.11.3.12.29.14.29.15.29.16.28.16.27.18.27.18.26.18.25.19.24.19.23.18.21.19.2.18.18.17.17.08.08.09.07.07.06.08.06.07.06.07.05.06,0,.06,0,0,0h.26l.2,0,.18.11.14.15.09.19,0,.2,0,.78,0,.77,0,.75.06.74,0,.73.06.72.06.71.06.69.07.68.07.68.07.66.08.64.08.64.07.63.09.62.08.6.08.6.09.58.09.57.09.56.08.55.09.54.09.53.09.52.08.51.09.5.08.49.08.48.07.47.06.47,0,.46v.34Zm-3.15-18.54h.31l.19-.06.17-.11.09-.08-.17.12-.2.07h-.2l-.2,0-.18-.1-.15-.15-.09-.19,0-.2V154l.1,0,.11,0,.11,0Zm-.25-1.29,0,0h0Zm0,0,.1-.05.11,0H122l0,0h0l-.15.05Zm.39-.09h0Z" transform="translate(-13.14 -6.71)"/><path class="cls-18" d="M126.74,186.92c-.68-1.42-1.81-3.35-1.72-5l17.89-14.15c6.86,7.36,14.75,15.93,15.71,24.81C148.35,194,137.86,196.79,126.74,186.92Z" transform="translate(-13.14 -6.71)"/><path d="M140.46,194a24.95,24.95,0,0,1-8.14-2.84c-.48-.28-1-.56-1.43-.87a24.87,24.87,0,0,1-2.76-2c-.27-.23-.55-.47-.81-.71l-.35-.33-.23-.27a5.2,5.2,0,0,1-.39-.64c-.2-.35-.4-.72-.58-1.08a7,7,0,0,1-.93-3.35c.62-.5.94-.75,1.84-1.49.58-.48,1.18-1,1.77-1.43s1.18-1,1.78-1.43l3.54-2.87,3.57-2.85c1.87-1.49,3.73-3,5.61-4.48,1,1.06,2,2.12,3,3.2,1.77,1.93,3.51,3.89,5.14,5.94,1.19,1.5,2.33,3,3.36,4.62a35.1,35.1,0,0,1,3.12,5.87,23.7,23.7,0,0,1,.8,2.33,19.92,19.92,0,0,1,.47,2c.1.54.16,1.09.23,1.64-1.41.18-2.82.38-4.23.58-2.44.35-4.89.67-7.35.8A32.81,32.81,0,0,1,140.46,194Zm5.89-.29a118.53,118.53,0,0,0,11.85-1.41,26.06,26.06,0,0,0-4-10.08,61.68,61.68,0,0,0-4.37-6c-2.22-2.73-4.6-5.31-7-7.89l-5.13,4-3.59,2.81-3.61,2.8L125.19,182a5.41,5.41,0,0,0,.25,1.65,16.11,16.11,0,0,0,.76,1.93l.27.61a4.59,4.59,0,0,1,.27.7c.39.24.74.55,1.1.82.53.39,1,.78,1.58,1.15a28.44,28.44,0,0,0,5,2.8,24.88,24.88,0,0,0,5.61,1.63A31.51,31.51,0,0,0,146.35,193.69Zm12.22-1.46-.37.05c0,.12,0,.25,0,.37ZM125.19,182a.19.19,0,0,0,0-.08l-.07.13Zm17.94-14-.49,0,.23.25Z" transform="translate(-13.14 -6.71)"/><g class="cls-3"><g id="Group_8" data-name="Group 8"><path class="cls-4" d="M131.62,200.46c-1.87-10.65-7.16-22.52-6.12-36.3.64-8.41,8.15-15.11,18-11.1s12.89,18.73,13,27.82-4.41,23.16-9.73,25.64A99.37,99.37,0,0,1,131.62,200.46Z" transform="translate(-13.14 -6.71)"/><path class="cls-5" d="M136.73,202.83c5-5.23,9.7-10.66,11.23-17.92,2-12-.51-28.08-12.33-32.85a14.12,14.12,0,0,1,7.88,1c9.86,4,12.89,18.73,13,27.82s-4.41,23.16-9.73,25.64A76,76,0,0,1,136.73,202.83Z" transform="translate(-13.14 -6.71)"/><path class="cls-6" d="M131.62,200.46c-1.87-10.65-7.16-22.52-6.12-36.3A13.41,13.41,0,0,1,132,153.39c-2.88,5.15-4,7.76-4.06,13.8-.72,8.41,2.94,18.71,4.24,26.93.35,2.07.88,4.42.38,6.78Z" transform="translate(-13.14 -6.71)"/><path class="cls-7" d="M146.79,206.76l-.08,0a100.86,100.86,0,0,1-15.19-6.07l-.1,0,0-.11c-.59-3.32-1.49-6.73-2.45-10.34-2.06-7.74-4.4-16.51-3.68-26a13.75,13.75,0,0,1,6.21-10.75c3.45-2.13,7.76-2.32,12.12-.55,10.17,4.13,13,19.56,13.13,28,.09,8.86-4.18,22.39-9.3,25.54a6.38,6.38,0,0,1-.56.31Zm.4-.72c5-3.09,9.17-16.41,9.08-25.15-.09-8.36-2.9-23.58-12.85-27.62-4.22-1.72-8.38-1.53-11.7.51a13.27,13.27,0,0,0-6,10.4c-.72,9.44,1.6,18.17,3.66,25.87,1,3.58,1.85,7,2.43,10.26a99.77,99.77,0,0,0,14.93,6A4.77,4.77,0,0,0,147.19,206Z" transform="translate(-13.14 -6.71)"/></g></g><path class="cls-8" d="M158.72,191.25c-4.15-15.27-21.74-10.79-32.59-7.56-2.21-8.68-3.56-21.11-4-31.47-.14-3.3,1.12-12.46,1.21-15.76,1.41-6.35,4-8.66,7.51-9.53,6.26-1.57,12.57.82,17.08,9.68C156,154.53,160,178.08,158.72,191.25Z" transform="translate(-13.14 -6.71)"/><path class="cls-14" d="M122.13,152.22c.44,10.36.86,20.81,3.06,29.49,10.85-3.23,29.09-5.25,33.24,10,1.23-13.18-.19-27.71-8.28-45.62-7-13.8-19.32-11.88-28.1-3.81" transform="translate(-13.14 -6.71)"/><path class="cls-9" d="M158.23,192.48l-.14-.07-.1,0a.3.3,0,0,1-.08-.08,1.2,1.2,0,0,1-.12-.11s0-.12-.07-.15a2,2,0,0,1-.12-.37c0-.09-.06-.18-.08-.27l-.21-.66c-.09-.25-.18-.5-.28-.75a15.58,15.58,0,0,0-1.39-2.73,13.75,13.75,0,0,0-4.14-4.11,15.87,15.87,0,0,0-2.62-1.36l-.84-.32a29.73,29.73,0,0,0-3.14-.49c-4.39-.14-8.2.87-9.68,1-1.29.12-2.59.31-3.86.55-.93.16-1.85.35-2.77.56l-1.32.32-.85.22-.42.12-.41.11-.2.06-.2,0h0l-.1,0-.14,0-.19-.16,0-.09a.88.88,0,0,1-.1-.3c0-.06,0-.11,0-.17l-.08-.33c0-.05,0-.11,0-.16s0-.12,0-.17l-.07-.34c-.07-.28-.12-.56-.18-.84-.23-1.09-.45-3.8-.62-4.9A132.69,132.69,0,0,1,122.14,160c0-1-.06-2.07-.08-3.1,0-.52,0-1,0-1.56s0-1.16,0-1.75c0-.19,0-.39,0-.58s0-.2,0-.29,0-.33.06-.49a3.73,3.73,0,0,1,.12.58c0,.25.06.51.09.77.09,1,.16,1.94.24,2.91.06.77.11,1.55.17,2.32.12,1.66.24,3.33.38,5,.28,3.34.61,6.66,1.11,10,.36,2.41.82,6.42,1.42,8.78,1.21-.35,2.44-.67,3.67-.95l1.78-.37c1.23-.24,2.47-.43,3.71-.58,1-.12,2-.2,3.05-.25.76,0,1.42-.37,2.18-.36,1,0,3.57-.32,4.58-.21a19.44,19.44,0,0,1,9,3,14.93,14.93,0,0,1,1.61,1.47,14.51,14.51,0,0,1,1.74,2.23,16,16,0,0,1,.94,1.66,85,85,0,0,0,0-9.17,78.44,78.44,0,0,0-1.11-9.55c-.34-1.93-.75-3.86-1.22-5.76-.3-1.2-.63-2.4-1-3.58-.45-1.56-.95-3.1-1.47-4.62-1-3.07-2.26-6.1-3.57-9.06-1.65-3.28-4.89-15.88-8.14-17.73a13.2,13.2,0,0,0-5.17-1.64,14.7,14.7,0,0,0-3,0c-.37,0-.75.1-1.12.17l-.84.19a17.46,17.46,0,0,0-1.87.56c-.57.2-1.12.43-1.67.68a24.64,24.64,0,0,0-3.65,2c-.54.36-1.07.73-1.59,1.12l-.62.46-.27.21-.28.18-.19.12.14-.18.21-.27.23-.23q.28-.28.57-.54l.25-.22c.27-.25.56-.48.84-.71.57-.45,1.15-.88,1.76-1.28A18.68,18.68,0,0,1,135.84,126a13.8,13.8,0,0,1,2.72.37,14,14,0,0,1,3.5,1.35,13.72,13.72,0,0,1,3.63,3.3c1,1.13,3.69,6.29,4.48,7.6.22.37,5.63,15.62,6.45,23.15.45,1.62.84,3.26,1.19,4.9.29,1.34.54,2.68.76,4,.27,1.72.49,3.44.66,5.17a80.5,80.5,0,0,1,.35,9.32q0,1.67-.12,3.33c0,.17,0,.34,0,.51a2.09,2.09,0,0,1,0,.25c0,.25,0,.51-.06.76a1.1,1.1,0,0,1,0,.25c0,.16,0,.33,0,.5l0,.49a2.29,2.29,0,0,0,0,.25,2,2,0,0,1,0,.25,1.29,1.29,0,0,1-.06.21.07.07,0,0,1,0,.05,1.21,1.21,0,0,1-.1.14l-.06.08s-.13.09-.17.13a.37.37,0,0,1-.2.07l-.06,0a.29.29,0,0,1-.16,0Zm-.52-1a.07.07,0,0,1,0,0s0-.06.06-.09l.09-.14.22-.15.26-.07a.2.2,0,0,1,.11,0h.16l.15.07.1,0s.18.17.19.19l0,0,.09.19a19.9,19.9,0,0,0-1.27-3.38c-.06,1.18-.15,2.35-.26,3.53Zm-32.05-8.92-.62.19.2,0h.05l.23.08.19.16s0,0,0,.05l.09.18C125.76,183,125.71,182.75,125.66,182.53Zm23.89-36.16v0Z" transform="translate(-13.14 -6.71)"/><path class="cls-17" d="M151.52,181.29c3.43-.91,4.12-64.12-28.87-44.51,3.7-13.12,19.89-13.74,25.63-.05,8.08,17.91,11.94,42.4,10.71,55.57C158,186.32,154.41,184.27,151.52,181.29Z" transform="translate(-13.14 -6.71)"/><g id="Group_9" data-name="Group 9"><g class="cls-3"><g id="Group_10" data-name="Group 10"><path class="cls-19" d="M40.85,46.7C36,41.07,27.8,31.79,24.67,33.46s4.14,25.22,10.48,28.4C36.56,56.08,40.85,46.7,40.85,46.7Z" transform="translate(-13.14 -6.71)"/><path class="cls-20" d="M40.85,46.7c-.82-1-1.74-2-2.72-3.13a16.8,16.8,0,0,0-5.29,8.64c-5.56-3.7-8.62-11.79-8.56-18.33-2,3.56,4.84,25,10.87,28C36.56,56.08,40.85,46.7,40.85,46.7Z" transform="translate(-13.14 -6.71)"/><path class="cls-21" d="M35.33,62.25l.08-.33c1.39-5.69,5.64-15,5.69-15.11l.07-.16-.11-.13C35.76,40.34,29.22,33.21,25.69,33a2.22,2.22,0,0,0-1.14.23c-.62.34-.91,1.26-.89,2.83.09,6.44,5.85,23.27,11.37,26ZM24.19,36.05c0-1.75.37-2.22.61-2.35a1.56,1.56,0,0,1,.86-.16c3.71.22,11.73,9.52,14.88,13.2A116.51,116.51,0,0,0,35,61.46C30.07,58.5,24.29,42.76,24.19,36.05Z" transform="translate(-13.14 -6.71)"/></g></g><g class="cls-3"><g id="Group_11" data-name="Group 11"><path class="cls-19" d="M52.79,95c20.62.7,34.48-20,50.12-16.65.7-2.75-1.75-13.26-1.75-13.26C97.09,58.77,91,50.37,74.27,55.54c-18.44,5.7-13.14,28.77-25.7,39A31.17,31.17,0,0,0,52.79,95Z" transform="translate(-13.14 -6.71)"/><path class="cls-21" d="M80,85.79c7-4.1,13.63-8,20.42-7.56a16.07,16.07,0,0,1,2.48.34l.25.05.06-.25c.71-2.77-1.65-13-1.75-13.38l0-.09c-3.33-5.14-7.62-10.68-16.29-11.2a31.13,31.13,0,0,0-10.9,1.58C63.53,58.58,60.67,67.74,57.9,76.6c-2,6.58-4.18,13.39-9.5,17.71l-.45.37.57.1a31.72,31.72,0,0,0,3.48.41h0C62.79,95.83,71.91,90.5,80,85.79ZM49.18,94.35c5.12-4.43,7.21-11.12,9.23-17.59C61.26,67.63,64,59,74.35,55.79a30.54,30.54,0,0,1,10.71-1.56c8.4.51,12.59,5.9,15.85,10.92.16.73,2.26,9.95,1.8,12.84a16.25,16.25,0,0,0-2.3-.29c-7-.42-13.64,3.49-20.72,7.63-8.37,4.9-17,10-27.65,9.33h0C51.09,94.6,50.13,94.5,49.18,94.35Z" transform="translate(-13.14 -6.71)"/></g></g><g class="cls-3"><g id="Group_12" data-name="Group 12"><g class="cls-3"><g id="Group_13" data-name="Group 13"><g class="cls-3"><g id="Group_14" data-name="Group 14"><path class="cls-22" d="M117.74,118.36s-.53,3.54-4.53,6.64l.32.42C117.72,122.18,117.74,118.36,117.74,118.36Z" transform="translate(-13.14 -6.71)"/></g></g><g class="cls-3"><g id="Group_15" data-name="Group 15"><path class="cls-22" d="M102.42,127.16l.13-.52A14.27,14.27,0,0,1,94.84,121,12.85,12.85,0,0,0,102.42,127.16Z" transform="translate(-13.14 -6.71)"/></g></g><g class="cls-3"><g id="Group_16" data-name="Group 16"><path class="cls-23" d="M108.6,118.43c5-.56,6.79-3.12,8.1-8.37s7.88-9.13,8.81-14.67a63.41,63.41,0,0,1-12.24,3c-5.7.67-17.43,0-24.11-4C87,94.79,85.3,96.31,83.77,98c4.42,2.91,10.09,8.07,13,13.42C99.82,117,103.64,119,108.6,118.43Z" transform="translate(-13.14 -6.71)"/><path class="cls-24" d="M108.6,118.43c5-.56,6.79-3.12,8.1-8.37a9.94,9.94,0,0,1,.67-1.82c-2-3.57-4.94-6.47-9.11-7.49a21.84,21.84,0,0,0-16.72,3.73,33.23,33.23,0,0,1,5.22,6.91C99.82,117,103.64,119,108.6,118.43Z" transform="translate(-13.14 -6.71)"/><g class="cls-3"><g id="Group_17" data-name="Group 17"><g class="cls-3"><g id="Group_18" data-name="Group 18"><path class="cls-25" d="M108.6,118.43c3.44-.39,5.37-1.74,6.66-4.27-2.89-4.48-11.57-6.93-17.23-.7C100.87,117.52,104.3,118.93,108.6,118.43Z" transform="translate(-13.14 -6.71)"/><path class="cls-26" d="M100.77,111.41l-.09-.14-.39.26Z" transform="translate(-13.14 -6.71)"/><path class="cls-26" d="M108.6,118.43a8.48,8.48,0,0,0,4.9-1.91,12,12,0,0,1-12.73-5.11l-.48.12A11.83,11.83,0,0,0,98,113.46C100.87,117.52,104.3,118.93,108.6,118.43Z" transform="translate(-13.14 -6.71)"/><path class="cls-27" d="M108.63,118.7c3.43-.39,5.49-1.71,6.87-4.42l.07-.14-.08-.12a11,11,0,0,0-8.49-4.56,11.28,11.28,0,0,0-9.16,3.83l-.15.15.13.18c2.28,3.26,5.05,4.95,8.46,5.15A13.38,13.38,0,0,0,108.63,118.7Zm-10.25-5.21A10.7,10.7,0,0,1,107,110a10.54,10.54,0,0,1,8,4.18c-1.3,2.43-3.22,3.63-6.39,4a13.38,13.38,0,0,1-2.26.07C103.13,118.05,100.54,116.5,98.38,113.49Z" transform="translate(-13.14 -6.71)"/></g></g></g></g><path class="cls-22" d="M108.63,118.7c5.33-.61,7.09-3.61,8.33-8.58.61-2.45,2.37-4.56,4.22-6.8,2-2.42,4.09-4.92,4.59-7.89l.08-.45-.43.16a63.32,63.32,0,0,1-12.18,3,45.41,45.41,0,0,1-7.77.13c-3.17-.19-10.69-.94-15.86-3.87a5.6,5.6,0,0,0-.82.13c5.27,3.25,13.32,4.07,16.65,4.27a45.44,45.44,0,0,0,7.86-.13,62.59,62.59,0,0,0,11.86-2.86c-.6,2.64-2.52,5-4.38,7.19s-3.7,4.45-4.34,7c-1.21,4.86-2.83,7.6-7.87,8.18a12.41,12.41,0,0,1-2.26.07c-3.9-.23-6.86-2.45-9.31-7-2.89-5.33-8.49-10.49-13-13.49-.13.12-.25.26-.37.39,4.51,3,10.08,8.08,12.94,13.35,2.54,4.7,5.64,7,9.75,7.25A13.41,13.41,0,0,0,108.63,118.7Z" transform="translate(-13.14 -6.71)"/></g></g><g class="cls-3"><g id="Group_19" data-name="Group 19"><path class="cls-28" d="M109.68,100.84c8.73,4.08,16.37-4.13,18.73-8.1,0,0-8.59-1-11-.79-4.59.31-13.7-.92-21.3-.4a17.31,17.31,0,0,0-9.66,4C93.36,103.17,102.71,104.42,109.68,100.84Z" transform="translate(-13.14 -6.71)"/><path class="cls-29" d="M109.68,100.84c6.53,3,12.44-.77,16-4.55-4.12,2.55-8.85,5.76-12.22.85a7.07,7.07,0,0,1-1-3.88c-5.64,8.24-17.37,6.33-25.93,2.25l-.09.08C93.36,103.17,102.71,104.42,109.68,100.84Z" transform="translate(-13.14 -6.71)"/><path class="cls-22" d="M109.68,101.13c9.07,4.13,16.76-4.55,19-8.26l-.45-.27c-2.15,3.61-9.64,12.09-18.4,8l-.12-.06-.11.06c-7.51,3.86-16.53,1.82-23-5.19l-.39.36A21.54,21.54,0,0,0,100.64,103,17.52,17.52,0,0,0,109.68,101.13Z" transform="translate(-13.14 -6.71)"/><g class="cls-3"><g id="Group_20" data-name="Group 20"><path class="cls-22" d="M129.12,92.84a8.63,8.63,0,0,0-6-1.15,10.74,10.74,0,0,1,5.7,1.6,11.19,11.19,0,0,1,4,4.44A9,9,0,0,0,129.12,92.84Z" transform="translate(-13.14 -6.71)"/></g></g><g class="cls-3"><g id="Group_21" data-name="Group 21"><path class="cls-22" d="M85.86,96.29A17.8,17.8,0,0,1,92,93.46a13.41,13.41,0,0,0-6.47,2.4c-3,2.2-4,6.48-4,6.48A15.46,15.46,0,0,1,85.86,96.29Z" transform="translate(-13.14 -6.71)"/></g></g></g></g></g></g></g></g><g class="cls-3"><g id="Group_22" data-name="Group 22"><path class="cls-30" d="M118.25,80.83c-.12-4.74-10.1-15.36-11.53-24.15a27.15,27.15,0,0,1,2.63-16.06l-33,2.51s9.27,1.09,14.17,5.11a26,26,0,0,1,9.14,16.54c1.21,7.61,1.47,17.68,2.61,19.75C107.11,85.49,117.23,82.23,118.25,80.83Z" transform="translate(-13.14 -6.71)"/><path class="cls-22" d="M118.46,81l.06-.07v-.09c-.06-2.23-2.17-5.62-4.61-9.55-2.88-4.64-6.16-9.9-6.92-14.63a23.3,23.3,0,0,1-.29-2.81c-.14.59-.29,1.18-.39,1.78q.06.55.15,1.11c.79,4.84,4.09,10.15,7,14.84,2.36,3.79,4.41,7.08,4.52,9.18-1.16,1.25-10.69,4.42-15.57,3.55-.6-1.27-1-5.06-1.37-9.43-.3-3.24-.65-6.92-1.16-10.12A26.15,26.15,0,0,0,90.64,48c-1.63-1.35-4.1-3.47-6.53-3.91-6.15-1.12-8.2,1-8.46,1a2.12,2.12,0,0,0,1.28,0,13,13,0,0,1,6.56-.39c2.38.47,5.07,2.3,6.82,3.73a25.68,25.68,0,0,1,9,16.37c.51,3.19.86,6.86,1.16,10.09.45,4.75.8,8.5,1.49,9.75l.06.11.12,0a7.79,7.79,0,0,0,1.24.15C108.6,85.25,117.43,82.42,118.46,81Z" transform="translate(-13.14 -6.71)"/></g></g><g class="cls-3"><g id="Group_23" data-name="Group 23"><path class="cls-31" d="M112.39,92.56c4.47-.44,7.22-4.72,7.31-9.25s-5-6.7-9.67-6.26-8.31,3.77-8.38,7.94S106.8,93.12,112.39,92.56Z" transform="translate(-13.14 -6.71)"/><path class="cls-32" d="M102.15,82.51A13.8,13.8,0,0,1,119,80.61c-1.53-2.67-5.39-3.9-9-3.56A9.21,9.21,0,0,0,102.15,82.51Z" transform="translate(-13.14 -6.71)"/><path class="cls-33" d="M112.39,92.56c4.47-.44,7.22-4.72,7.31-9.25a5.16,5.16,0,0,0-.42-2.19C117.39,88.44,109.06,94.48,102,83a7.26,7.26,0,0,0-.34,2C101.58,89.16,106.8,93.12,112.39,92.56Z" transform="translate(-13.14 -6.71)"/><path class="cls-21" d="M112.42,92.82c4.84-.47,7.46-5.14,7.55-9.5.08-4.18-4.08-6.34-8-6.57a12.94,12.94,0,0,0-2,0c-4.84.45-8.55,4-8.62,8.2-.07,3.9,4.27,7.58,9.28,7.88A11.37,11.37,0,0,0,112.42,92.82ZM101.92,85c.07-3.95,3.57-7.25,8.14-7.68a11.91,11.91,0,0,1,1.89,0c3.78.23,7.56,2.18,7.48,6-.08,4.12-2.53,8.54-7.06,9a10.33,10.33,0,0,1-1.67,0C106,92,101.86,88.62,101.92,85Z" transform="translate(-13.14 -6.71)"/></g></g><g class="cls-3"><g id="Group_24" data-name="Group 24"><g class="cls-3"><g id="Group_25" data-name="Group 25"><path class="cls-34" d="M133.9,76.84c4.16-2,4.93-9,1.72-15.69s-9.17-10.47-13.33-8.47-6.37,10.46-3.22,19C121.19,77.38,129.74,78.84,133.9,76.84Z" transform="translate(-13.14 -6.71)"/><path class="cls-35" d="M133.9,76.84c3-1.43,4.22-5.43,3.5-10-.88,3.8-5.74,6-9.85,5.4a12.61,12.61,0,0,1-10-8.4,23.53,23.53,0,0,0,1.49,7.86C121.19,77.38,129.74,78.84,133.9,76.84Z" transform="translate(-13.14 -6.71)"/><path class="cls-21" d="M134,77.07c4.27-2.06,5.09-9.25,1.83-16s-9.38-10.63-13.66-8.58-6.61,10.44-3.34,19.28a9.27,9.27,0,0,0,5.44,5.17,14.4,14.4,0,0,0,4.49,1A11,11,0,0,0,134,77.07Zm-9.55-.62a8.74,8.74,0,0,1-5.16-4.88c-3.09-8.35-.91-16.74,3.1-18.67a5.5,5.5,0,0,1,2.67-.5c3.64.22,7.83,3.65,10.33,8.85,3.14,6.54,2.42,13.43-1.61,15.37C131.39,77.77,127.56,77.71,124.46,76.45Z" transform="translate(-13.14 -6.71)"/></g></g></g></g><g class="cls-3"><g id="Group_26" data-name="Group 26"><path class="cls-36" d="M128.93,74.83c2.58-.74,3.71-4.69,2.52-8.83s-4.24-6.89-6.82-6.15-3.7,4.69-2.52,8.83S126.36,75.57,128.93,74.83Z" transform="translate(-13.14 -6.71)"/><path class="cls-37" d="M128.93,74.83c2.54-.73,3.67-4.57,2.57-8.64a12.89,12.89,0,0,1-3.61,1.51,10.38,10.38,0,0,1-6.19-1.16,12.79,12.79,0,0,0,.41,2.14C123.3,72.82,126.36,75.57,128.93,74.83Z" transform="translate(-13.14 -6.71)"/><path class="cls-21" d="M128.24,74c1.83-.53,2.63-3.34,1.79-6.28s-3-4.91-4.86-4.38-2.63,3.34-1.79,6.28S126.4,74.51,128.24,74Z" transform="translate(-13.14 -6.71)"/><path class="cls-34" d="M128.07,65.94a2.33,2.33,0,1,0-2.81,1.78A2.36,2.36,0,0,0,128.07,65.94Z" transform="translate(-13.14 -6.71)"/><path class="cls-34" d="M126,71.75a1,1,0,1,0-1.25.79A1,1,0,0,0,126,71.75Z" transform="translate(-13.14 -6.71)"/><path class="cls-38" d="M129,75.09a4.45,4.45,0,0,0,2.85-3.33,10.76,10.76,0,0,0-.15-5.83c-1-3.28-3.1-5.84-5.37-6.37a3.57,3.57,0,0,0-1.78,0c-2.72.78-3.93,4.89-2.7,9.16.94,3.29,3.1,5.84,5.37,6.37A3.57,3.57,0,0,0,129,75.09Zm-6.64-6.48c-1.15-4-.1-7.81,2.34-8.51a3.08,3.08,0,0,1,1.51,0c2.09.49,4.09,2.89,5,6a10.33,10.33,0,0,1,.15,5.55,4,4,0,0,1-2.49,3,3.08,3.08,0,0,1-1.51,0C125.26,74.12,123.26,71.71,122.37,68.61Z" transform="translate(-13.14 -6.71)"/></g></g><g class="cls-3"><g id="Group_27" data-name="Group 27"><g class="cls-3"><g id="Group_28" data-name="Group 28"><path class="cls-34" d="M86.72,72c-.87-7.26-7.66-14.16-14.15-13.32-4.87.63-8.66,9.36-7.79,16.62A10.8,10.8,0,0,0,77,85.14,11.61,11.61,0,0,0,86.72,72Z" transform="translate(-13.14 -6.71)"/><path class="cls-35" d="M86.76,72.4a10.26,10.26,0,0,1-8.27,6.89c-5.1.86-10.74-.63-13.77-4.66,0,.21,0,.42.06.64A10.8,10.8,0,0,0,77,85.14,11.59,11.59,0,0,0,86.76,72.4Z" transform="translate(-13.14 -6.71)"/><path class="cls-21" d="M77,85.39a11.39,11.39,0,0,0,7.36-4.2A12.22,12.22,0,0,0,87,71.94a17,17,0,0,0-6.31-11,11.06,11.06,0,0,0-8.11-2.57c-4.89.63-8.93,9.15-8,16.88A11,11,0,0,0,75,85.45,11.71,11.71,0,0,0,77,85.39ZM69.34,83A10.82,10.82,0,0,1,65,75.24c-.87-7.35,3-15.75,7.58-16.34a8.09,8.09,0,0,1,1.56-.06,11.37,11.37,0,0,1,6.18,2.53A16.48,16.48,0,0,1,86.47,72,11.73,11.73,0,0,1,84,80.88a10.83,10.83,0,0,1-7,4A10.94,10.94,0,0,1,69.34,83Z" transform="translate(-13.14 -6.71)"/></g></g></g></g><g class="cls-3"><g id="Group_29" data-name="Group 29"><path class="cls-36" d="M80.84,74.51c-.52-4.42-3.62-7.7-6.9-7.31s-5.53,4.3-5,8.73,3.62,7.7,6.91,7.31S81.37,78.94,80.84,74.51Z" transform="translate(-13.14 -6.71)"/><path class="cls-37" d="M80.84,74.51c0-.3-.09-.6-.15-.9a13.85,13.85,0,0,1-11.77,0,10.29,10.29,0,0,0,0,2.35c.53,4.43,3.62,7.7,6.91,7.31S81.37,78.94,80.84,74.51Z" transform="translate(-13.14 -6.71)"/><path class="cls-21" d="M78.54,76.46C78.16,73.29,76,71,73.6,71.23S69.65,74.3,70,77.47,72.62,83,75,82.7,78.92,79.62,78.54,76.46Z" transform="translate(-13.14 -6.71)"/><path class="cls-34" d="M77.28,74.27a2.82,2.82,0,1,0-3,2.69A2.85,2.85,0,0,0,77.28,74.27Z" transform="translate(-13.14 -6.71)"/><path class="cls-34" d="M73.66,80.34a1.26,1.26,0,1,0-1.33,1.2A1.27,1.27,0,0,0,73.66,80.34Z" transform="translate(-13.14 -6.71)"/><path class="cls-38" d="M75.88,83.51c3.43-.41,5.77-4.46,5.23-9-.49-4.12-3.22-7.38-6.35-7.57a5,5,0,0,0-.86,0c-3.42.41-5.77,4.46-5.22,9,.49,4.13,3.22,7.39,6.35,7.57A4.83,4.83,0,0,0,75.88,83.51ZM69.2,75.9c-.51-4.28,1.63-8.06,4.77-8.43a3.84,3.84,0,0,1,.76,0c2.87.17,5.39,3.22,5.85,7.1.51,4.27-1.63,8-4.76,8.43a3.86,3.86,0,0,1-.76,0C72.18,82.83,69.66,79.78,69.2,75.9Z" transform="translate(-13.14 -6.71)"/></g></g><g class="cls-3"><g id="Group_30" data-name="Group 30"><path class="cls-22" d="M112.66,92.54l-.53,0c.31,4.39-.67,7.08-3,8.23l.24.48C111.91,100,113,97.17,112.66,92.54Z" transform="translate(-13.14 -6.71)"/></g></g><g class="cls-3"><g id="Group_31" data-name="Group 31"><path class="cls-15" d="M51.51,47.23C44.45,36,25.58,21.82,18,25.24s-7.72,51,13.64,62.66C36,72.7,45.22,52.19,51.51,47.23Z" transform="translate(-13.14 -6.71)"/><path class="cls-16" d="M38.75,68.36c-15.08-7.9-25.09-22.5-23.35-39.45C10.86,41,13.24,77.82,31.68,87.9A162.94,162.94,0,0,1,38.75,68.36Z" transform="translate(-13.14 -6.71)"/><g class="cls-3"><g id="Group_32" data-name="Group 32"><path class="cls-39" d="M42,56.62C37.2,51,29,41.71,25.84,43.39S30,68.6,36.31,71.78C37.73,66,42,56.62,42,56.62Z" transform="translate(-13.14 -6.71)"/><path class="cls-40" d="M42,56.62c-.82-1-1.75-2-2.73-3.13A16.92,16.92,0,0,0,34,62.14c-5.56-3.71-8.61-11.8-8.55-18.34-2,3.57,4.84,25,10.86,28C37.73,66,42,56.62,42,56.62Z" transform="translate(-13.14 -6.71)"/><path class="cls-41" d="M36.49,72.17l.08-.32c1.39-5.69,5.65-15,5.69-15.12l.07-.16-.11-.13c-5.3-6.18-11.84-13.3-15.37-13.51a2.12,2.12,0,0,0-1.14.22c-.62.34-.91,1.26-.88,2.84.09,6.43,5.85,23.27,11.37,26ZM25.36,46c0-1.75.37-2.23.61-2.36a1.55,1.55,0,0,1,.85-.16c3.72.22,11.73,9.53,14.89,13.2a114,114,0,0,0-5.57,14.72C31.24,68.43,25.45,52.68,25.36,46Z" transform="translate(-13.14 -6.71)"/></g></g><path class="cls-7" d="M31.85,88.29l.09-.32c4.31-15.21,13.48-35.6,19.74-40.53l.18-.14-.12-.21C45.62,37.37,30.37,25,21.3,24.48a7,7,0,0,0-3.37.52c-2.6,1.18-4.41,7.25-4.73,15.85C12.54,58.43,18,80.73,31.56,88.13ZM13.73,40.87c.31-8.27,2-14.31,4.42-15.39A6.49,6.49,0,0,1,21.27,25c8.7.51,23.87,12.77,29.89,22.17-6.29,5.2-15.31,25.22-19.64,40.33C18.38,80.05,13.08,58.16,13.73,40.87Z" transform="translate(-13.14 -6.71)"/></g></g><g class="cls-3"><g id="Group_33" data-name="Group 33"><path class="cls-4" d="M122.27,8.35c-7.25,4.43-12.11,20.94-19.91,28.86a175.27,175.27,0,0,0,17.23,6.1C120.62,30.58,122.27,8.35,122.27,8.35Z" transform="translate(-13.14 -6.71)"/><path class="cls-5" d="M120.56,31c-4.43-.61-8.48-2.15-10-5.93-2.51,4.55-5.14,9.05-8.23,12.19a175.27,175.27,0,0,0,17.23,6.1C119.88,39.71,120.22,35.35,120.56,31Z" transform="translate(-13.14 -6.71)"/><path class="cls-7" d="M119.83,43.66l0-.33c1-12.59,2.67-34.74,2.69-35l0-.52-.45.27c-4,2.44-7.2,8.36-10.6,14.62-2.85,5.25-5.8,10.67-9.36,14.29l-.27.27.35.16a179.39,179.39,0,0,0,17.26,6.1Zm-17-6.54c3.49-3.66,6.38-9,9.18-14.13,3.24-6,6.3-11.6,10-14.13-.26,3.44-1.69,22.57-2.62,34.1C117.61,42.44,109,39.81,102.82,37.12Z" transform="translate(-13.14 -6.71)"/></g></g><g class="cls-3"><g id="Group_34" data-name="Group 34"><path class="cls-15" d="M141.7,28.64c-3.9-13.43-10.94-22.78-17.15-21.55s-10.07,19.12-9.07,31.31c10.51,7,19.4,18.15,24.22,23.8C143.67,52.12,145.61,42.07,141.7,28.64Z" transform="translate(-13.14 -6.71)"/><path class="cls-16" d="M141.7,28.64c-2.74-9.42-7-16.83-11.47-20,6.72,12.61,6.46,28.81-3.72,38.89C132.09,53,136.69,58.67,139.7,62.2,143.67,52.12,145.61,42.07,141.7,28.64Z" transform="translate(-13.14 -6.71)"/><g class="cls-3"><g id="Group_35" data-name="Group 35"><path class="cls-39" d="M128.81,20.67c-4.68.12-4.09,15.95-4.42,23.66,3,2.11,8.75,7.46,8.75,7.46C138.33,37.43,133.48,20.55,128.81,20.67Z" transform="translate(-13.14 -6.71)"/><path class="cls-40" d="M130.32,21.21c3.93,6.5,3.58,15.9,1.67,23.17-2.57-3.18-4.46-4.65-7.46-5.64,0,2.07-.07,4-.14,5.59,3,2.11,8.75,7.46,8.75,7.46C137.77,39,134.41,24.18,130.32,21.21Z" transform="translate(-13.14 -6.71)"/><path class="cls-41" d="M133.26,52.25l.13-.37c4.13-11.42,1.88-24.26-1.34-29.14-1-1.55-2.15-2.37-3.25-2.34-4.17.11-4.39,10.94-4.56,19.64,0,1.56-.06,3-.11,4.28v.14l.12.09c3,2.08,8.66,7.38,8.72,7.43Zm-8.6-8c0-1.22.08-2.64.11-4.15.15-7.57.38-19,4-19.12H129c.86,0,1.78.77,2.64,2.09,3.12,4.74,5.31,17.14,1.43,28.29C131.83,50.21,127.28,46.06,124.66,44.2Z" transform="translate(-13.14 -6.71)"/></g></g><path class="cls-7" d="M139.78,62.71l.16-.41c3.54-9,6.23-19.25,2-33.74C138.26,15.85,131.86,7.07,126,6.72a6,6,0,0,0-1.53.11c-6.67,1.32-10.23,20.07-9.28,31.59v.13l.1.07c9.48,6.34,17.74,16.14,22.67,22l1.49,1.76Zm-1.37-2.44c-4.93-5.85-13.18-15.64-22.67-22-1-12.57,3.1-29.76,8.87-30.9A5.37,5.37,0,0,1,126,7.26c5.6.33,11.81,9,15.45,21.45,4.1,14.12,1.58,24.21-1.84,33Z" transform="translate(-13.14 -6.71)"/></g></g><g class="cls-3"><g id="Group_36" data-name="Group 36"><path class="cls-4" d="M99.45,103.68c35.47-4.81,47-14.44,54.05-25.65-7.61-7.7-14.63-25-25.9-35S103.48,26.49,80.89,30.2,40.65,44.79,33.43,69.12s-3.34,28.68-16,33.39C24.94,108.16,64,108.49,99.45,103.68Z" transform="translate(-13.14 -6.71)"/><path class="cls-6" d="M127.6,43c-11.26-10-24.12-16.5-46.71-12.79a72.77,72.77,0,0,0-22.1,7c19.45-8.16,47.91-8.77,65.3,6.34,8.25,7.76,12.19,13.14,19.64,20.7C139.15,56.91,134.08,48.74,127.6,43Z" transform="translate(-13.14 -6.71)"/><path class="cls-5" d="M50.58,107A35.57,35.57,0,0,1,43,89.64c-2.26-18,.77-37.38,12.44-50.47-10.12,6.28-17.81,15.86-22,30-7.21,24.32-3.34,28.68-16,33.39C21.4,105.49,34.18,107,50.58,107Z" transform="translate(-13.14 -6.71)"/><path class="cls-7" d="M99.49,104C134,99.27,146.1,90.26,153.72,78.17l.12-.18-.15-.15c-3.24-3.27-6.42-8.38-9.79-13.8-4.52-7.26-9.65-15.5-16.12-21.25-10.1-9-19.46-13.11-31.27-13.81a69.84,69.84,0,0,0-15.66,1c-25.52,4.19-41.11,17-47.67,39.1C31.07,76.15,29.93,81.48,29,85.76,26.82,95.91,26.16,99,17.32,102.26l-.45.17.39.29c3.56,2.67,13.27,3.77,20.79,4.22C54.89,108,78.43,106.8,99.49,104ZM18,102.58c8.66-3.33,9.4-6.79,11.53-16.71.92-4.27,2.07-9.59,4.17-16.68,6.5-21.9,22-34.57,47.25-38.73a70.45,70.45,0,0,1,15.54-.95c11.68.7,20.94,4.79,31,13.68,6.41,5.7,11.52,13.9,16,21.13,3.33,5.36,6.48,10.43,9.71,13.75-7.55,11.87-19.65,20.73-53.75,25.35-21,2.85-44.52,4-61.33,3C27.9,105.8,21,104.48,18,102.58Z" transform="translate(-13.14 -6.71)"/></g></g><g class="cls-3"><g id="Group_37" data-name="Group 37"><path class="cls-15" d="M101.83,136.28c3.92,1.3,9,2.34,13.78-2,30.88-8.15,47.7-35.31,48.81-39.69a12.77,12.77,0,0,1-6,1.86c6.56-5.73,9.76-11.59,9.49-16.09-1.45.49-4.81,1-10.53-1.43s-9.05-6.14-17.23-14.22-15.34-13.94-22.85-13.14S106.39,63.4,108.43,71c0,0-8.06-13.81-21.92-16.95S55.29,73.18,44.16,85.45s-20.42,16.1-28.06,16.84c4.22,14.12,11.09,16.57,16.64,18.19-2.33.22-3.79.13-4.86.25,2.92,4.7,13.74,10.86,29,14.88S92.62,138.79,101.83,136.28Z" transform="translate(-13.14 -6.71)"/><path class="cls-16" d="M101.83,136.28c3.92,1.3,9,2.34,13.78-2,25.87-6.83,41.86-27,47-35.93-10.88,12.85-25.82,21.93-40.45,30.72-1.44-2.75.29-4.78-.08-7.47-3.48,4.6-6.55,11.34-13,12S96.47,131.23,92,126.16c1.41,3.28,3.94,5.57,5.34,8.85-20.41,2.51-41.87-4.1-60.49-13.75,6.91.41,13.25,1.33,19.81-1.48-12.12-2.32-27-3.75-34.26-15.38,10.26-2.15,16.43-9.85,21.51-18.64-11,12-20.21,15.8-27.78,16.53,4.22,14.12,11.09,16.57,16.64,18.19-2.33.22-3.79.13-4.86.25,2.92,4.7,13.74,10.86,29,14.88S92.62,138.79,101.83,136.28Z" transform="translate(-13.14 -6.71)"/><path class="cls-7" d="M101.82,136.56a20.66,20.66,0,0,0,5.13,1.09,11.55,11.55,0,0,0,8.8-3.17c30.3-8,47.69-35,48.93-39.86l.15-.61-.54.31a14,14,0,0,1-5.12,1.8c6-5.43,9.3-11.16,9-15.81l0-.35-.33.11a9.1,9.1,0,0,1-3.48.37,21.08,21.08,0,0,1-6.87-1.79c-5.05-2.15-8.26-5.34-14.65-11.69l-2.49-2.48c-8-7.9-14.27-12.87-20.86-13.27a13.57,13.57,0,0,0-2.21,0,9.26,9.26,0,0,0-6.63,4.31,20.13,20.13,0,0,0-2.81,14c-2.38-3.48-9.93-13.26-21.28-15.83a12,12,0,0,0-2-.28c-11.92-.72-26,15.27-36.32,27-1.51,1.72-2.94,3.34-4.29,4.82C34.55,95.64,25.43,101.12,16.07,102l-.32,0,.09.31c4,13.42,10.56,16.43,15.43,17.95-.68,0-1.27.05-1.78.07s-1.17,0-1.64.07l-.42.05.22.36c3.24,5.22,15,11.25,29.13,15A89.93,89.93,0,0,0,74,138.45C84.39,139.07,95.28,138.33,101.82,136.56Zm-44.91-1.21C41.14,131.19,31.32,125.2,28.35,121l1.15,0c.85,0,1.91,0,3.26-.17l1.39-.13-1.34-.39c-4.8-1.4-12-3.52-16.37-17.7,9.39-1,18.52-6.55,27.92-16.9,1.34-1.49,2.77-3.11,4.29-4.83C58.88,69.21,72.88,53.33,84.54,54a12.33,12.33,0,0,1,1.92.27C100,57.37,108.11,71,108.19,71.12l1,1.72-.51-1.92a19.52,19.52,0,0,1,2.41-15.05,8.75,8.75,0,0,1,6.26-4.08,13.59,13.59,0,0,1,2.12,0c6.42.39,12.61,5.3,20.51,13.12l2.5,2.47c6.44,6.41,9.67,9.62,14.82,11.81a21.54,21.54,0,0,0,7,1.83,10.32,10.32,0,0,0,3.34-.29c.09,4.57-3.32,10.21-9.42,15.53l-.5.45.67,0A12.74,12.74,0,0,0,164,95.1c-2.3,6.15-19.39,31.22-48.41,38.88l-.07,0,0,0a11.06,11.06,0,0,1-8.46,3.08,20.4,20.4,0,0,1-5.06-1.09l-.08,0-.08,0c-6.38,1.74-17.51,2.51-27.69,1.9A89,89,0,0,1,56.91,135.35Z" transform="translate(-13.14 -6.71)"/></g></g><g class="cls-3"><g id="Group_38" data-name="Group 38"><path class="cls-39" d="M54,104.88c20.63.71,34.49-20,50.13-16.65.7-2.75-1.76-13.26-1.76-13.26-4.07-6.28-10.2-14.68-26.89-9.51-18.43,5.71-13.14,28.78-25.7,39A31.34,31.34,0,0,0,54,104.88Z" transform="translate(-13.14 -6.71)"/><path class="cls-41" d="M81.13,95.71c7-4.09,13.63-8,20.41-7.56a17,17,0,0,1,2.48.34l.25.06.07-.25c.7-2.78-1.66-13-1.76-13.39l0-.09c-3.34-5.14-7.62-10.68-16.29-11.19a30.65,30.65,0,0,0-10.9,1.58c-10.67,3.3-13.53,12.46-16.29,21.32-2.06,6.58-4.18,13.38-9.51,17.7l-.45.37.58.1a31.44,31.44,0,0,0,3.48.41h0C64,105.76,73.07,100.42,81.13,95.71Zm-30.78,8.56c5.12-4.43,7.21-11.12,9.22-17.59,2.85-9.12,5.55-17.75,15.94-21a30.54,30.54,0,0,1,10.71-1.55c8.41.5,12.59,5.89,15.85,10.91.17.73,2.27,10,1.8,12.85a15.94,15.94,0,0,0-2.29-.3c-7-.42-13.64,3.49-20.72,7.64-8.38,4.89-17,9.95-27.66,9.32h0C52.25,104.52,51.3,104.42,50.35,104.27Z" transform="translate(-13.14 -6.71)"/></g></g><g class="cls-3"><g id="Group_39" data-name="Group 39"><path class="cls-39" d="M157.86,86.74c-12-3.83-22-27.4-38.14-27.87-7.84-.23-10.66,7.45-10.24,15.29,0,0,2.65,10.64,6.86,13C125.83,92,152.68,91.67,157.86,86.74Z" transform="translate(-13.14 -6.71)"/><path class="cls-41" d="M158.05,86.93l.32-.31-.43-.13c-5-1.61-9.75-6.76-14.73-12.2-6.93-7.57-14.11-15.41-23.48-15.69a8.83,8.83,0,0,0-6.87,2.62c-2.62,2.68-3.94,7.4-3.65,13,.12.49,2.74,10.84,7,13.19,3.4,1.75,9.17,2.94,16.24,3.36h0C142.56,91.33,154.6,90.22,158.05,86.93Zm-41.58,0c-4.06-2.24-6.71-12.69-6.73-12.79-.28-5.36,1-9.94,3.5-12.51a8.34,8.34,0,0,1,6.47-2.46c9.16.26,16.25,8,23.1,15.52C147.7,80,152.33,85,157.34,86.84c-3.35,2.58-13.81,4-24.86,3.35h0C125.48,89.77,119.8,88.6,116.47,86.89Z" transform="translate(-13.14 -6.71)"/></g></g><g class="cls-3"><g id="Group_40" data-name="Group 40"><g class="cls-3"><g id="Group_41" data-name="Group 41"><g class="cls-3"><g id="Group_42" data-name="Group 42"><path class="cls-7" d="M118.9,128.28s-.52,3.54-4.53,6.64l.33.42C118.89,132.1,118.9,128.28,118.9,128.28Z" transform="translate(-13.14 -6.71)"/></g></g><g class="cls-3"><g id="Group_43" data-name="Group 43"><path class="cls-7" d="M103.58,137.08l.14-.51A14.17,14.17,0,0,1,96,130.91,12.86,12.86,0,0,0,103.58,137.08Z" transform="translate(-13.14 -6.71)"/></g></g><g class="cls-3"><g id="Group_44" data-name="Group 44"><path class="cls-42" d="M109.77,128.36c5-.57,6.78-3.13,8.1-8.38s7.87-9.13,8.81-14.67a63.39,63.39,0,0,1-12.25,3c-5.69.68-17.42,0-24.1-4-2.19.36-3.86,1.88-5.39,3.54,4.41,2.91,10.08,8.07,13,13.43C101,127,104.8,128.93,109.77,128.36Z" transform="translate(-13.14 -6.71)"/><path class="cls-43" d="M109.77,128.36c5-.57,6.78-3.13,8.1-8.38a8.87,8.87,0,0,1,.67-1.82c-2-3.57-4.94-6.46-9.11-7.48a21.78,21.78,0,0,0-16.73,3.73,33,33,0,0,1,5.23,6.91C101,127,104.8,128.93,109.77,128.36Z" transform="translate(-13.14 -6.71)"/><g class="cls-3"><g id="Group_45" data-name="Group 45"><g class="cls-3"><g id="Group_46" data-name="Group 46"><path class="cls-44" d="M109.77,128.36c3.44-.4,5.36-1.74,6.66-4.28-2.89-4.48-11.57-6.93-17.23-.69C102,127.44,105.47,128.85,109.77,128.36Z" transform="translate(-13.14 -6.71)"/><path class="cls-45" d="M101.94,121.34l-.1-.14-.39.25Z" transform="translate(-13.14 -6.71)"/><path class="cls-45" d="M109.77,128.36a8.58,8.58,0,0,0,4.9-1.92,12,12,0,0,1-12.73-5.1l-.49.11a12.16,12.16,0,0,0-2.25,1.94C102,127.44,105.47,128.85,109.77,128.36Z" transform="translate(-13.14 -6.71)"/><path class="cls-46" d="M109.8,128.62c3.43-.39,5.48-1.71,6.87-4.41l.07-.14-.09-.13a11,11,0,0,0-8.48-4.55A11.3,11.3,0,0,0,99,123.21l-.14.16.12.17c2.28,3.27,5,5,8.47,5.16A13.45,13.45,0,0,0,109.8,128.62Zm-10.26-5.21a10.71,10.71,0,0,1,8.59-3.49,10.55,10.55,0,0,1,8,4.18c-1.29,2.43-3.21,3.63-6.38,4a13.43,13.43,0,0,1-2.26.08C104.3,128,101.7,126.42,99.54,123.41Z" transform="translate(-13.14 -6.71)"/></g></g></g></g><path class="cls-7" d="M109.8,128.62c5.32-.61,7.08-3.61,8.33-8.58.61-2.44,2.36-4.56,4.22-6.79,2-2.42,4.09-4.92,4.59-7.9l.07-.45-.43.16a63.8,63.8,0,0,1-12.18,3,46.34,46.34,0,0,1-7.76.13c-3.17-.19-10.7-1-15.86-3.88a7,7,0,0,0-.82.13c5.27,3.26,13.32,4.08,16.65,4.28a46.28,46.28,0,0,0,7.85-.14,62.78,62.78,0,0,0,11.86-2.85c-.6,2.64-2.52,5-4.38,7.19s-3.69,4.44-4.33,7c-1.22,4.85-2.83,7.6-7.87,8.17a13.51,13.51,0,0,1-2.27.08c-3.9-.24-6.86-2.45-9.31-7-2.88-5.33-8.49-10.49-13-13.49l-.36.39c4.5,3,10.08,8.08,12.93,13.35,2.55,4.71,5.65,7,9.75,7.26A13.56,13.56,0,0,0,109.8,128.62Z" transform="translate(-13.14 -6.71)"/></g></g><g class="cls-3"><g id="Group_47" data-name="Group 47"><path class="cls-15" d="M110.85,110.76c8.73,4.08,16.37-4.13,18.73-8.1,0,0-8.59-1-11.05-.78-4.6.31-13.71-.92-21.3-.41a17.36,17.36,0,0,0-9.67,4C94.52,113.09,103.88,114.34,110.85,110.76Z" transform="translate(-13.14 -6.71)"/><path class="cls-16" d="M110.85,110.76c6.52,3,12.44-.77,16-4.55-4.13,2.55-8.85,5.76-12.22.85a7,7,0,0,1-1-3.88c-5.64,8.25-17.38,6.34-25.93,2.25l-.1.08C94.52,113.09,103.88,114.34,110.85,110.76Z" transform="translate(-13.14 -6.71)"/><path class="cls-7" d="M110.85,111.06c9.06,4.12,16.75-4.56,19-8.27l-.46-.27c-2.14,3.61-9.64,12.09-18.39,8l-.12,0-.12.06c-7.51,3.86-16.52,1.82-23-5.2l-.39.36a21.54,21.54,0,0,0,14.43,7.21A17.63,17.63,0,0,0,110.85,111.06Z" transform="translate(-13.14 -6.71)"/><g class="cls-3"><g id="Group_48" data-name="Group 48"><path class="cls-7" d="M130.29,102.76a8.63,8.63,0,0,0-6-1.15,10.74,10.74,0,0,1,5.7,1.6,11.26,11.26,0,0,1,4,4.44A9,9,0,0,0,130.29,102.76Z" transform="translate(-13.14 -6.71)"/></g></g><g class="cls-3"><g id="Group_49" data-name="Group 49"><path class="cls-7" d="M87,106.21a17.52,17.52,0,0,1,6.15-2.82,13.33,13.33,0,0,0-6.47,2.39c-3,2.2-4,6.49-4,6.49A15.73,15.73,0,0,1,87,106.21Z" transform="translate(-13.14 -6.71)"/></g></g></g></g></g></g></g></g><g class="cls-3"><g id="Group_50" data-name="Group 50"><path class="cls-4" d="M119.42,90.75c-.12-4.74-10.1-15.36-11.53-24.15a27.21,27.21,0,0,1,2.62-16.06l-33,2.51s9.27,1.1,14.17,5.11a26,26,0,0,1,9.14,16.55c1.21,7.6,1.48,17.68,2.62,19.75C108.27,95.41,118.4,92.15,119.42,90.75Z" transform="translate(-13.14 -6.71)"/><path class="cls-7" d="M119.63,90.9l.05-.07v-.09c-.05-2.23-2.16-5.62-4.6-9.54-2.89-4.65-6.16-9.91-6.93-14.64a27.91,27.91,0,0,1-.29-2.81c-.14.6-.28,1.18-.39,1.78q.06.56.15,1.11c.79,4.84,4.09,10.15,7,14.84,2.36,3.8,4.4,7.09,4.52,9.18-1.17,1.26-10.69,4.43-15.57,3.56-.61-1.27-1-5.07-1.37-9.43-.31-3.25-.66-6.93-1.17-10.13A26.14,26.14,0,0,0,91.81,58c-1.63-1.34-4.11-3.47-6.53-3.91-6.16-1.12-8.2,1-8.46,1a2.14,2.14,0,0,0,1.27,0,13.12,13.12,0,0,1,6.57-.39c2.38.48,5.07,2.3,6.81,3.73a25.65,25.65,0,0,1,9,16.38c.51,3.18.85,6.85,1.16,10.09.44,4.74.8,8.5,1.49,9.74l.06.11.12,0a10.8,10.8,0,0,0,1.24.15C109.76,95.18,118.59,92.34,119.63,90.9Z" transform="translate(-13.14 -6.71)"/></g></g><g class="cls-3"><g id="Group_51" data-name="Group 51"><path class="cls-47" d="M113.56,102.48c4.47-.44,7.21-4.72,7.31-9.24s-5-6.7-9.67-6.27-8.31,3.77-8.38,7.94S108,103,113.56,102.48Z" transform="translate(-13.14 -6.71)"/><path class="cls-48" d="M103.32,92.43a13.79,13.79,0,0,1,16.87-1.9c-1.53-2.67-5.4-3.89-9-3.56A9.21,9.21,0,0,0,103.32,92.43Z" transform="translate(-13.14 -6.71)"/><path class="cls-49" d="M113.56,102.48c4.47-.44,7.21-4.72,7.31-9.24a5.21,5.21,0,0,0-.43-2.2c-1.88,7.32-10.21,13.37-17.28,1.83a6.92,6.92,0,0,0-.34,2C102.75,99.08,108,103,113.56,102.48Z" transform="translate(-13.14 -6.71)"/><path class="cls-41" d="M113.59,102.75c4.83-.48,7.45-5.15,7.54-9.51.09-4.18-4.08-6.33-8-6.57a11.77,11.77,0,0,0-2,0c-4.85.45-8.56,4-8.63,8.19-.07,3.9,4.27,7.58,9.29,7.88A10.23,10.23,0,0,0,113.59,102.75Zm-10.51-7.84c.07-4,3.57-7.25,8.14-7.68a14.9,14.9,0,0,1,1.89,0c3.79.23,7.57,2.18,7.49,6-.09,4.13-2.54,8.54-7.07,9a11.48,11.48,0,0,1-1.66,0C107.13,102,103,98.54,103.08,94.91Z" transform="translate(-13.14 -6.71)"/></g></g><g class="cls-3"><g id="Group_52" data-name="Group 52"><g class="cls-3"><g id="Group_53" data-name="Group 53"><path class="cls-1" d="M135.07,86.77c4.15-2,4.92-9,1.72-15.7s-9.18-10.46-13.33-8.46-6.38,10.45-3.22,19C122.35,87.3,130.91,88.76,135.07,86.77Z" transform="translate(-13.14 -6.71)"/><path class="cls-50" d="M135.07,86.77c3-1.43,4.21-5.44,3.5-10-.88,3.8-5.74,6-9.86,5.41a12.61,12.61,0,0,1-10-8.41,23.48,23.48,0,0,0,1.49,7.86C122.35,87.3,130.91,88.76,135.07,86.77Z" transform="translate(-13.14 -6.71)"/><path class="cls-41" d="M135.17,87c4.27-2.06,5.1-9.25,1.84-16s-9.39-10.63-13.66-8.58S116.73,72.82,120,81.67a9.21,9.21,0,0,0,5.43,5.16,14.48,14.48,0,0,0,4.5,1A11,11,0,0,0,135.17,87Zm-9.54-.61a8.78,8.78,0,0,1-5.16-4.88c-3.09-8.35-.92-16.75,3.09-18.67a5.3,5.3,0,0,1,2.67-.5c3.64.22,7.84,3.65,10.34,8.84,3.14,6.54,2.42,13.44-1.61,15.37C132.56,87.7,128.72,87.63,125.63,86.38Z" transform="translate(-13.14 -6.71)"/></g></g></g></g><g class="cls-3"><g id="Group_54" data-name="Group 54"><path class="cls-51" d="M130.1,84.76c2.58-.75,3.71-4.7,2.52-8.84s-4.24-6.89-6.82-6.15-3.71,4.7-2.52,8.83S127.52,85.49,130.1,84.76Z" transform="translate(-13.14 -6.71)"/><path class="cls-52" d="M130.1,84.76c2.54-.74,3.66-4.58,2.56-8.65a12.83,12.83,0,0,1-3.6,1.51,10.3,10.3,0,0,1-6.19-1.16,11.86,11.86,0,0,0,.41,2.14C124.47,82.74,127.52,85.49,130.1,84.76Z" transform="translate(-13.14 -6.71)"/><path class="cls-41" d="M129.4,83.9c1.84-.53,2.64-3.34,1.79-6.28s-3-4.9-4.85-4.38-2.64,3.34-1.79,6.29S127.57,84.43,129.4,83.9Z" transform="translate(-13.14 -6.71)"/><path class="cls-1" d="M129.23,75.86a2.33,2.33,0,1,0-2.8,1.78A2.34,2.34,0,0,0,129.23,75.86Z" transform="translate(-13.14 -6.71)"/><path class="cls-1" d="M127.14,81.67a1,1,0,1,0-1.25.79A1,1,0,0,0,127.14,81.67Z" transform="translate(-13.14 -6.71)"/><path class="cls-53" d="M130.17,85A4.44,4.44,0,0,0,133,81.68a10.77,10.77,0,0,0-.16-5.83c-.94-3.28-3.1-5.84-5.36-6.36a3.39,3.39,0,0,0-1.79,0c-2.71.78-3.92,4.89-2.69,9.16.94,3.28,3.09,5.83,5.36,6.36A3.56,3.56,0,0,0,130.17,85Zm-6.63-6.48c-1.15-4-.1-7.8,2.33-8.5a2.9,2.9,0,0,1,1.52,0c2.08.48,4.08,2.89,5,6a10.2,10.2,0,0,1,.15,5.54,3.91,3.91,0,0,1-2.48,3,3,3,0,0,1-1.52,0C126.43,84,124.43,81.63,123.54,78.53Z" transform="translate(-13.14 -6.71)"/></g></g><g class="cls-3"><g id="Group_55" data-name="Group 55"><path class="cls-7" d="M113.83,102.46l-.54,0c.32,4.39-.66,7.08-3,8.23l.23.48C113.08,110,114.15,107.09,113.83,102.46Z" transform="translate(-13.14 -6.71)"/></g></g><g class="cls-3"><g id="Group_56" data-name="Group 56"><path class="cls-4" d="M96.16,36.13a21,21,0,0,1,9.91,1.39c-.69-3.32-6.47-7.58-13.68-7.48,5.36-3.41,10.5-4.7,15.18-4.2-5.75-6.34-14.11-3.29-19.46,0,1.33-3,4.77-7,7-9.27-11.52,2.51-19.4,15.94-19.4,15.94l15.51,5.64a21.81,21.81,0,0,1,7.7.91A6.6,6.6,0,0,0,96.16,36.13Z" transform="translate(-13.14 -6.71)"/><path class="cls-6" d="M96.16,36.13a21,21,0,0,1,9.91,1.39c-.69-3.32-6.47-7.58-13.68-7.48,5.36-3.41,10.5-4.7,15.18-4.2-5.75-6.34-14.11-3.29-19.46,0,1.33-3,4.77-7,7-9.27-9.41,2.05-16.76,11.29-19.4,15.94C80,29,85.31,22.39,90.57,19.91A18.9,18.9,0,0,0,85.43,30c5.72-5.5,11-6.9,15.86-6.18C96.92,25.69,92,27,89.1,31.62a17.43,17.43,0,0,1,14.68,4.08c-3.34-1.4-8.43-1.57-12.22-.73a22.56,22.56,0,0,1,5.19,2.44,14,14,0,0,0-5.66.72l.17.06a21.81,21.81,0,0,1,7.7.91A6.6,6.6,0,0,0,96.16,36.13Z" transform="translate(-13.14 -6.71)"/><path class="cls-7" d="M99.54,39.56l-.43-.72A7.4,7.4,0,0,0,97,36.3a21.53,21.53,0,0,1,9,1.47l.47.2-.11-.5c-.65-3.15-5.86-7.43-13-7.68,4.88-2.94,9.66-4.17,14.23-3.69l.7.08-.47-.52c-6-6.66-14.82-2.91-19-.47a40.31,40.31,0,0,1,6.6-8.39l.64-.64-.89.19a25.07,25.07,0,0,0-9.84,4.91,39.14,39.14,0,0,0-9.5,11.29,46.46,46.46,0,0,1,10-11,25,25,0,0,1,8.57-4.46C92,19.54,89.07,23,87.87,25.77l-.35.79.73-.46c4.46-2.77,12.71-6.44,18.64-.59-4.74-.32-9.64,1.12-14.64,4.31l-.79.5h.94c6.85-.1,12.17,3.77,13.27,6.76a21.19,21.19,0,0,0-9.57-1.2l-.78.18.73.33a5.39,5.39,0,0,1,2.33,2.27,17.66,17.66,0,0,0-7.12-.46,26.78,26.78,0,0,1,7.62,1.16Z" transform="translate(-13.14 -6.71)"/></g></g><path class="cls-14" d="M93,77.85c-8.13,8.85-17,8-25.85,8.66" transform="translate(-13.14 -6.71)"/><path d="M67.76,86.57h2.41l2.15,0a44.35,44.35,0,0,0,8-.87,23.55,23.55,0,0,0,5.41-1.86,21.37,21.37,0,0,0,3.11-1.87,22.18,22.18,0,0,0,1.86-1.5c.38-.35.77-.72,1.12-1.1s.45-.48.66-.73c.06-.09.15-.18.21-.26a2.82,2.82,0,0,0,.18-.29l.12-.19-.18.13-.28.2-.33.29c-.24.21-.48.43-.72.63s-.63.54-1,.8-.93.73-1.41,1.07a24.11,24.11,0,0,1-3.94,2.27,26.68,26.68,0,0,1-3.57,1.29,46.49,46.49,0,0,1-8.86,1.34c-1.1.09-2.2.17-3.3.28l-.66.06-.66.09c-.14,0-.27,0-.41.06l-.17,0-.16.05-.24.08c.13,0,.28,0,.42.06Z" transform="translate(-13.14 -6.71)"/><path class="cls-14" d="M89.32,75.16l4.89,1L93.62,79" transform="translate(-13.14 -6.71)"/><path d="M93.62,79l.1-.07.06-.08.08-.16.13-.34.22-.68.37-1.37v-.15l0-.14-.1-.1-.14-.06-2.45-.51-1.24-.18-.62,0H89.5l-.18.07.13.14.15.08.29.12.6.2,1.2.34,2.1.45-.17,1-.07.71v.64Zm.52-2.41-.35-.08.06-.37v.15l.06.13.1.11Z" transform="translate(-13.14 -6.71)"/><path class="cls-14" d="M132.24,39.55c-11.26-9.23-20.67-8.16-27.47,7.36" transform="translate(-13.14 -6.71)"/><path d="M105,46.71l.23-.25c.23-.26.46-.53.68-.81.68-.84,1.31-1.72,2-2.57.18-.23.37-.46.54-.7l.3-.37.81-1,.56-.64c.12-.12.22-.25.34-.37.31-.32.61-.65.94-1s.83-.77,1.28-1.12c.16-.13.33-.27.5-.39s.45-.33.68-.47l.58-.35A11.87,11.87,0,0,1,116,36l.6-.2.27-.08a7.61,7.61,0,0,1,1.26-.26l.37,0,.61,0h.74c.27,0,.56,0,.83.05l.29,0c.14,0,.27,0,.41.06s.25,0,.38.06.53.1.79.16a21.46,21.46,0,0,1,3,1c.34.13.67.26,1,.4l.85.37,1,.44,2,1a12.42,12.42,0,0,0,1.86.74,9.38,9.38,0,0,0-1.3-1.77A17.63,17.63,0,0,0,129.12,36c-.26-.22-.53-.42-.8-.63a18.66,18.66,0,0,0-1.92-1.26,14,14,0,0,0-1.39-.72l-.46-.21a14.35,14.35,0,0,0-2.15-.74l-.82-.2a11.77,11.77,0,0,0-1.55-.21l-.31,0a7.18,7.18,0,0,0-.93,0h-.3c-.29,0-.57,0-.85.07l-.33,0-.35.06a5,5,0,0,0-.53.11,11.74,11.74,0,0,0-2.44.84,11.52,11.52,0,0,0-1.15.62c-.31.19-.61.38-.9.6A15,15,0,0,0,110,36a12.09,12.09,0,0,0-.83.92c-.25.29-.49.58-.71.89l-.31.42c-.28.4-.57.82-.81,1.24l-.27.47c-.16.27-.3.54-.44.82s-.19.35-.27.54c-.23.49-.45,1-.64,1.49a16.08,16.08,0,0,0-.83,2.8c0,.27-.09.53-.12.8,0,.1,0,.2,0,.29a1.52,1.52,0,0,1,0,.21A1.5,1.5,0,0,0,105,46.71Z" transform="translate(-13.14 -6.71)"/><path class="cls-14" d="M94.51,70.54c-12.65-9.31-23.16-8.31-30.66,7.17" transform="translate(-13.14 -6.71)"/><path d="M63.38,71.46l.23-.24c.28-.3.53-.6.8-.9s.56-.68.84-1l1.35-1.63c.45-.54.91-1.07,1.39-1.58l.54-.58.74-.74c.39-.38.81-.75,1.23-1.1.24-.21.5-.42.76-.61l.51-.37a13,13,0,0,1,1.33-.84c.3-.16.6-.32.91-.47s.5-.22.76-.32.52-.19.79-.29.49-.14.74-.21l.84-.18.77-.11.25,0,.39,0c.46,0,.93,0,1.39,0a14.55,14.55,0,0,1,1.62.14A24.65,24.65,0,0,1,87,61.76l1.45.56c1.1.45,2.2.94,3.3,1.39.44.19.89.37,1.35.53.25.09.51.18.77.25a11.11,11.11,0,0,0-1.7-2A21.57,21.57,0,0,0,90,60.79c-.34-.25-.69-.5-1-.72l-.39-.25-.5-.3c-.27-.16-.55-.32-.84-.46-.56-.29-1.13-.57-1.72-.81-.3-.13-.62-.26-.93-.36-.56-.2-1.13-.38-1.7-.53l-.51-.12L82,57.16c-.17,0-.34-.06-.51-.09a4.5,4.5,0,0,0-.51-.08c-.46-.06-.94-.1-1.41-.12H78.22l-.51,0L77.3,57c-.37,0-.76.1-1.12.17a14.85,14.85,0,0,0-1.62.43l-.47.17-.34.13A13.82,13.82,0,0,0,71.58,59c-.41.25-.8.52-1.19.81A20.31,20.31,0,0,0,63.51,69.9c-.1.36-.19.73-.26,1.09,0,.13,0,.25,0,.38a2.74,2.74,0,0,1-.05.28A1.45,1.45,0,0,0,63.38,71.46Z" transform="translate(-13.14 -6.71)"/></g><path class="cls-14" d="M126,175.46c9.84-2.22,26.4-6.53,32.91,7.7" transform="translate(-13.14 -6.71)"/><path class="cls-9" d="M158.82,183l-.13-.18-.12-.18-.25-.43c-.32-.52-.64-1-1-1.54a15.63,15.63,0,0,0-5.19-4.83c-4.25-2.42-9.36-2.68-14.13-2.26-.66.06-1.32.13-2,.21-.8.1-1.6.21-2.39.34-1.6.26-3.18.56-4.77.86l-1.61.29-.49.08-.29,0a3.93,3.93,0,0,1-.48,0l.26-.11.18-.08.19-.06.47-.14,1.17-.32c.62-.17,1.24-.32,1.86-.47.86-.21,1.74-.4,2.61-.58s2-.38,3-.53,1.72-.23,2.58-.32,1.58-.12,2.37-.15,1.42,0,2.13,0a23.62,23.62,0,0,1,5.55.81,16.06,16.06,0,0,1,6,3.07,15,15,0,0,1,2,1.94,15.86,15.86,0,0,1,2,3l.36.77.13.33a.78.78,0,0,1,0,.14.74.74,0,0,1,0,.14c0,.08,0,.15,0,.22Z" transform="translate(-13.14 -6.71)"/><path class="cls-14" d="M66.29,151.86c-2.68,4.06-5.76,8.9-6,12.8" transform="translate(-13.14 -6.71)"/><path class="cls-9" d="M60.09,163.72a6.38,6.38,0,0,1,0-1.07c0-.09,0-.18,0-.28a5.34,5.34,0,0,1,.11-.66c.07-.31.14-.63.23-.94a18.73,18.73,0,0,1,1.5-3.51,23.43,23.43,0,0,1,2.22-3.35,13.62,13.62,0,0,1,1-1.15,4.88,4.88,0,0,1,1.08-.9,4.22,4.22,0,0,1-.21.85,10.69,10.69,0,0,1-.43,1.06c-.42,1-.91,1.88-1.4,2.8-.15.3-.31.58-.46.87l-.63,1.18c-.42.79-.82,1.59-1.21,2.39-.21.44-.41.89-.61,1.34-.1.22-.2.43-.29.65s-.18.43-.27.64-.15.38-.24.56-.09.2-.14.29l-.09.17A2.54,2.54,0,0,1,60.09,163.72Z" transform="translate(-13.14 -6.71)"/><path class="cls-14" d="M33.23,159.28c8.53-.38,16.9,1.87,24.9,10.29" transform="translate(-13.14 -6.71)"/><path class="cls-9" d="M57.67,169.26c-.32-.21-.63-.44-.93-.67l-1.6-1.2-.66-.49-.69-.49-1.08-.75c-.19-.12-.38-.24-.56-.37-.61-.41-1.25-.78-1.88-1.14-.44-.26-.91-.51-1.36-.75s-1.2-.6-1.82-.87-1-.43-1.51-.62-.95-.35-1.43-.51-1.25-.39-1.88-.56l-.68-.18-.67-.15c-.52-.11-1-.23-1.57-.32l-.69-.13c-.79-.12-1.58-.24-2.37-.34l-1.42-.18c-.54-.07-1.1-.14-1.64-.26a12.32,12.32,0,0,1,2.4-.42l.49,0c.62,0,1.26,0,1.88,0l.55,0c.49,0,1,0,1.46.11s.93.1,1.38.18a26,26,0,0,1,15.42,8.63c.31.37.62.77.9,1.17l.21.32c.07.11.14.24.22.35A2.88,2.88,0,0,1,57.67,169.26Z" transform="translate(-13.14 -6.71)"/><g class="cls-3"><g id="Group_59" data-name="Group 59"><path class="cls-39" d="M51.42,144.05a8.29,8.29,0,0,1-1.85,1.29,8.48,8.48,0,0,1-7.78,0,4.1,4.1,0,0,1-2.12-2.52,8.38,8.38,0,0,1-1.7-.71c.55,2.78,1,5.27,1.12,6.74.26,3.75-7.67,24.7-8.78,31.81s-1.22,15,1.16,18.45,9,1.59,12.93-1.33c4.64-3.51,8.3-8.78,8.14-17.39s-2-20.5-1.59-26.33a10.2,10.2,0,0,1,2.16-6.18,17,17,0,0,1,.65-2.53,4.48,4.48,0,0,1-2.3-1.29Z" transform="translate(-13.14 -6.71)"/><path class="cls-54" d="M51,154.1a10.2,10.2,0,0,1,2.16-6.18,16,16,0,0,1,.56-2.32,11.44,11.44,0,0,0-4,8c-1,7.54,1.25,16.26,1.34,26.74a27.16,27.16,0,0,1-4,15.09c3.28-3.42,5.57-8.15,5.45-15C52.38,171.82,50.58,159.93,51,154.1Z" transform="translate(-13.14 -6.71)"/><path class="cls-40" d="M42.39,154.88a16.66,16.66,0,0,0-.18-9.06,2.64,2.64,0,0,0-.1-.3l-.32-.14a4.12,4.12,0,0,1-2.11-2.49,8,8,0,0,1-1.71-.74c.55,2.78,1,5.27,1.12,6.74.26,3.75-7.67,24.7-8.78,31.81s-1.22,15,1.16,18.45,9,1.59,12.93-1.33c.42-.32.83-.65,1.23-1C31.14,189.28,38.38,167.77,42.39,154.88Z" transform="translate(-13.14 -6.71)"/><path class="cls-41" d="M51.4,167.6c.39,4.4.8,8.94.87,12.83.13,7.36-2.49,13-8,17.17-2.45,1.83-6.54,3.57-9.73,3A4.09,4.09,0,0,1,31.69,199a11.83,11.83,0,0,1-1.64-5.22,49.53,49.53,0,0,1,.53-13c.52-3.32,2.55-9.74,4.51-15.94,2.27-7.14,4.41-13.9,4.26-15.94,0-.28-.05-.6-.09-.94-.18-1.45-.55-3.43-1-5.61-.21-.11-.42-.24-.62-.37.57,2.88,1.05,5.45,1.16,7,.13,1.94-2.09,9-4.24,15.73-2,6.23-4,12.66-4.53,16a50.28,50.28,0,0,0-.54,13.17,12.53,12.53,0,0,0,1.73,5.48,4.65,4.65,0,0,0,3.18,1.87c3.34.55,7.6-1.24,10.14-3.14,5.69-4.3,8.39-10.07,8.25-17.62-.08-3.91-.48-8.46-.87-12.86a107.31,107.31,0,0,1-.72-13.44A10.23,10.23,0,0,1,53,148.45c0-.34.08-.69.14-1a10.27,10.27,0,0,0-2.5,6.65A108.11,108.11,0,0,0,51.4,167.6Z" transform="translate(-13.14 -6.71)"/></g></g><g id="Group_61" data-name="Group 61"><path class="cls-55" d="M54.25,144.33c-.65,3.47-2.34,5.6-5.86,5.33-1.33.32-14.37.93-15.61-7.77-.31-1.31-1.31-3.76-1.22-4.07-.17-1.67.71-2.72,1.93-4.87.71-2,.19-4.38,1-5.3,2.16-2.67,7.59-2,14.41.5.22-6.73-1.49-14.18,6.3-17.82,4,1.22-2.68,8.25,1.85,22.69a8.74,8.74,0,0,1,.6,5.4A11.27,11.27,0,0,1,54.25,144.33Z" transform="translate(-13.14 -6.71)"/><path class="cls-40" d="M37.75,141.5c-6.14,7.41,12.47,8.69,10.18,7.54-1.33.32-13.91,1.55-15.15-7.15-.31-1.31-1.31-3.76-1.22-4.07-.17-1.67.71-2.72,1.93-4.87.71-2,.19-4.38,1-5.3,2.16-2.67,7.59-2,14.41.5.22-6.73-1.49-14.18,6.3-17.82,1.26.73-7.06,6.8-5.45,18.42-16.62-5.4-17.22-.09-9.59,6C34,134.25,33.25,137.21,37.75,141.5Z" transform="translate(-13.14 -6.71)"/><path class="cls-56" d="M49.08,128.28c7.32,3.54,6.09,10.27-1.23,8a16.83,16.83,0,0,1-2.19-.89" transform="translate(-13.14 -6.71)"/><path class="cls-56" d="M49.14,136.36c3.21,1.22,3.59,2.86,3.27,4.27-.36,1.6-3,2.43-4.49,2.28" transform="translate(-13.14 -6.71)"/><path class="cls-56" d="M39.13,141.9c3.95,0,8,0,10.17,1.88.93.79-1.68,3.73-3.51,3.56" transform="translate(-13.14 -6.71)"/><path class="cls-56" d="M38.76,148.12c5.87,2,6.77,1.72,10.3,1.56" transform="translate(-13.14 -6.71)"/><path class="cls-56" d="M37.1,133.61l5.14,1.21,5,1.19" transform="translate(-13.14 -6.71)"/><path class="cls-56" d="M35.1,141.6l11.07.5" transform="translate(-13.14 -6.71)"/><path class="cls-54" d="M54.25,144.33a9.88,9.88,0,0,1-2.2,4.38c-.23.3,1.89-3.87.24-6,5.71.2,5.06-9.57,2.21-15.27,1-12.77.35-16.3.73-17.13,4,1.22-2.68,8.25,1.85,22.69a8.74,8.74,0,0,1,.6,5.4A11.27,11.27,0,0,1,54.25,144.33Z" transform="translate(-13.14 -6.71)"/></g><g class="cls-3"><g id="Group_62" data-name="Group 62"><path class="cls-39" d="M130.55,208c-.79-8.57,2.47-14.1,6.85-17.94,3.67-3.19,10.18-5.51,12.8-2.27,2.41,3,3,9.9,2.62,16.58-2.26,1.17-4.55,2.27-6.87,3.32Q142,209.42,138,210.9c-2,.74-4,1.43-6,2.07l-.86.27C130.93,211.41,130.71,209.63,130.55,208Z" transform="translate(-13.14 -6.71)"/><path class="cls-54" d="M130.55,208c-.62-6.82,1.31-11.71,4.34-15.36A27.27,27.27,0,0,0,132,208c.14,1.66.33,3.28.55,4.85l-.54.17-.86.27C130.93,211.41,130.71,209.63,130.55,208Z" transform="translate(-13.14 -6.71)"/><path class="cls-40" d="M136.24,191.12c.38-.38.76-.74,1.16-1.09,3.67-3.19,10.18-5.51,12.8-2.27,2.41,3,3,9.9,2.62,16.58q-3.31,1.71-6.72,3.25C145.69,200.39,143.17,194.1,136.24,191.12Z" transform="translate(-13.14 -6.71)"/><path class="cls-41" d="M130.29,208c-.7-7.52,1.57-13.46,6.93-18.17,2.39-2.08,6.51-4.18,9.88-3.87a4.57,4.57,0,0,1,3.31,1.64,12.33,12.33,0,0,1,2.13,5.33,47.4,47.4,0,0,1,.56,11.27l-.56.29A47,47,0,0,0,152,193a11.94,11.94,0,0,0-2-5.09,4.05,4.05,0,0,0-2.93-1.43c-3.22-.3-7.18,1.73-9.49,3.74-5.21,4.58-7.42,10.37-6.75,17.71.15,1.64.37,3.39.63,5.21l-.52.16C130.66,211.47,130.44,209.67,130.29,208Z" transform="translate(-13.14 -6.71)"/></g></g><g id="Group_63" data-name="Group 63"><path class="cls-57" d="M75,194.05a19,19,0,0,1,11.46-34.84h.12a19,19,0,0,1,16.55,25.64h0l-6.72-7.12a11,11,0,1,0-11.85,11.43l6.66,7.05h0a19,19,0,0,1-6.91.9h-.13A18.92,18.92,0,0,1,75,194.05Z" transform="translate(-13.14 -6.71)"/><path class="cls-58" d="M103.24,196.17,79.73,170.8c1.23-1.37,2.84-2.55,6.49-2.73l17.54,19.32Z" transform="translate(-13.14 -6.71)"/><path class="cls-59" d="M93.55,197,75.61,178.05c.45-3.62,1.75-5.14,3.21-6.27l23.53,25.35Z" transform="translate(-13.14 -6.71)"/></g><path class="cls-17" d="M47.14,211.29l11.71-40.53c-7.27,33.84,9,43.57,29.89,48.47A130.62,130.62,0,0,1,47.14,211.29Z" transform="translate(-13.14 -6.71)"/></svg>