<svg id="Layer_1" data-name="Layer 1" xmlns="http://www.w3.org/2000/svg" xmlns:xlink="http://www.w3.org/1999/xlink" viewBox="0 0 189.03 202.22"><defs><style>.cls-1{fill:#fff;}.cls-2{fill:#c6444a;}.cls-3{mask:url(#mask);}.cls-10,.cls-4{fill:#969395;}.cls-11,.cls-5{fill:#757575;}.cls-12,.cls-6{fill:#cecece;}.cls-13,.cls-7{fill:#3a3a3a;}.cls-8{fill:#b32229;}.cls-9{fill:#481212;}.cls-10,.cls-11,.cls-12,.cls-13,.cls-15,.cls-16,.cls-17,.cls-18,.cls-19,.cls-20,.cls-21{stroke:#fff;stroke-width:3.43px;}.cls-10,.cls-11,.cls-12,.cls-13,.cls-15,.cls-16,.cls-17,.cls-18,.cls-19,.cls-20,.cls-21,.cls-41,.cls-42{stroke-miterlimit:79.84;}.cls-14{fill:none;}.cls-15{fill:#7f0000;}.cls-16{fill:#350000;}.cls-17{fill:#ffa6a6;}.cls-18{fill:#f27c7c;}.cls-19{fill:#c63838;}.cls-20,.cls-22{fill:#f7efe8;}.cls-21,.cls-23{fill:#ddc9ba;}.cls-24{fill:#4d090d;}.cls-25{fill:url(#linear-gradient);}.cls-26{fill:url(#linear-gradient-2);}.cls-27{fill:url(#linear-gradient-3);}.cls-28{fill:#8f1c21;}.cls-29{fill:#494a49;}.cls-30{fill:#333;}.cls-31{fill:#0d0d0d;}.cls-32{fill:#262626;}.cls-33{fill:#686868;}.cls-34{fill:#161616;}.cls-35{fill:#c6c6c6;}.cls-36{fill:#0092ff;}.cls-37{fill:#005dcc;}.cls-38{fill:#003084;}.cls-39{fill:#7f7f7f;}.cls-40{fill:red;}.cls-41,.cls-42{stroke:#000;}.cls-41{stroke-width:0.2px;}.cls-42{fill:#ab5050;stroke-width:0.26px;}</style><mask id="mask" x="-57.31" y="-36.13" width="270.09" height="270.09" maskUnits="userSpaceOnUse"><g transform="translate(-34.8 -13.63)"><g id="TranspMask"><rect class="cls-1" x="-22.51" y="-22.51" width="270.09" height="270.09"/></g></g></mask><linearGradient id="linear-gradient" x1="0.21" y1="511.68" x2="-32.11" y2="490.87" gradientTransform="translate(117.27 -340.53)" gradientUnits="userSpaceOnUse"><stop offset="0" stop-color="#fff"/><stop offset="1" stop-color="#fff"/></linearGradient><linearGradient id="linear-gradient-2" x1="1.34" y1="510.21" x2="-43.58" y2="476.77" xlink:href="#linear-gradient"/><linearGradient id="linear-gradient-3" x1="-2.49" y1="515.41" x2="-59.22" y2="474" xlink:href="#linear-gradient"/></defs><title>Racoon-smoking</title><g id="Group"><path class="cls-2" d="M82.48,193.88a94.51,94.51,0,0,1,46.61-176.6h.57A94.53,94.53,0,0,1,219.6,139.8l0-.05L184,106.39a54.93,54.93,0,1,0-55.5,60.34l35.23,33,0,0a94.89,94.89,0,0,1-34.09,6.51H129A94,94,0,0,1,82.48,193.88Z" transform="translate(-34.8 -13.63)"/><path class="cls-2" d="M223.67,196,99.27,76.85c5.71-7.17,13.38-13.51,31.44-15.48l93,90.81Z" transform="translate(-34.8 -13.63)"/><path class="cls-2" d="M175.74,203,80.93,114.11C82.11,96,88.11,88.05,95,82l124.51,119Z" transform="translate(-34.8 -13.63)"/></g><g id="Group_1" data-name="Group 1"><g class="cls-3"><g id="Group_2" data-name="Group 2"><path class="cls-4" d="M61.55,178.35c-4.4-4.7-3.24-20.82.58-30s12.89-22.92,24.55-23,16.56,9.83,13.77,18.63c-4.56,14.43-14.78,24.33-21,34.4C79.42,178.38,69,179.24,61.55,178.35Z" transform="translate(-34.8 -13.63)"/><path class="cls-5" d="M61.55,178.35c-4.4-4.7-3.24-20.82.58-30s12.89-22.92,24.55-23a15.48,15.48,0,0,1,8.42,2.2c-14,0-23.13,15.33-25.94,28.34-1.41,8,1.2,15.46,4.1,22.81A85.65,85.65,0,0,1,61.55,178.35Z" transform="translate(-34.8 -13.63)"/><path class="cls-6" d="M81.47,171.72c4.68-7.82,12.61-16.8,15.3-25.64,2.4-6.17,2.34-9.27,1.51-15.69A14.67,14.67,0,0,1,100.45,144c-4.56,14.43-14.78,24.33-21,34.4l-1.1.07C78.78,175.85,80.27,173.67,81.47,171.72Z" transform="translate(-34.8 -13.63)"/><path class="cls-7" d="M61.52,178.59h-.09l-.06-.06c-.15-.17-.31-.35-.45-.54-3.92-5.3-2.74-20.79,1-29.75,3.54-8.57,12.76-23.08,24.78-23.13,5.15,0,9.45,1.93,12.09,5.5a15,15,0,0,1,1.92,13.46C97.54,154,91.59,162,86.33,169c-2.44,3.27-4.76,6.37-6.7,9.5l-.07.1h-.12C79.33,178.63,68.89,179.48,61.52,178.59Zm17.75-.45c1.94-3.12,4.24-6.19,6.67-9.44,5.23-7,11.15-14.91,14.27-24.8a14.54,14.54,0,0,0-1.84-13c-2.54-3.43-6.69-5.32-11.69-5.29-11.76,0-20.82,14.37-24.32,22.82-3.67,8.85-4.87,24.09-1,29.27a4.87,4.87,0,0,0,.35.42C68.55,178.92,78.08,178.23,79.27,178.14Z" transform="translate(-34.8 -13.63)"/></g></g><path class="cls-8" d="M82.9,165.57C76,160.42,67.16,159.79,58,160a78.66,78.66,0,0,1,10.81-30.76c8.45-11,24.81-12.09,24.63,5.63Z" transform="translate(-34.8 -13.63)"/><path class="cls-9" d="M82.38,165.23l-.62-.38-.55-.32c-.69-.39-1.4-.75-2.12-1.07a31.14,31.14,0,0,0-7.48-2.24l-2-.3-.8-.09-.52-.05c-.48-.06-1-.09-1.46-.13l-1.31-.08-1.65,0q-1.17,0-2.34,0c-1.4,0-2.8.06-4.2.08.07-.54.13-1.07.2-1.6.1-.68.19-1.37.3-2q.55-3.44,1.39-6.81c.46-1.8,1-3.59,1.56-5.35.31-.91.62-1.82,1-2.72.12-.29.22-.58.34-.87s.18-.49.28-.73c.26-.64.52-1.27.79-1.9.79-1.84,1.66-3.65,2.58-5.43.34-.63.68-1.26,1-1.89.15-.27.3-.55.46-.82l.67-1.16.2-.34s.06-.1.1-.15.14-.18.2-.26.37-.45.56-.68a24.26,24.26,0,0,1,2.52-2.55,22.52,22.52,0,0,1,2.9-2.13,16.48,16.48,0,0,1,9.41-2.67,11.06,11.06,0,0,1,2.14.32c.23,0,.46.13.68.2s.43.14.63.23l.64.28a9.74,9.74,0,0,1,1.73,1.1c.26.21.5.43.75.66a10.88,10.88,0,0,1,2.31,3.37c.16.37.32.76.45,1.14.2.59.36,1.16.5,1.75.07.34.14.69.2,1,0,.08,0,.17,0,.26s.06.39.08.58c0,.34.07.68.09,1s0,.71.06,1.07,0,.53,0,.79a2.43,2.43,0,0,1,0,.27.41.41,0,0,1,0,.11V135a.42.42,0,0,1,0,.1c-.17.52-.33,1-.54,1.54l-1.08,3.06-1.09,3.06-1.65,4.58c-.36,1-.73,2-1.1,3.06-.55,1.53-1.12,3.05-1.67,4.58q-1,2.67-2,5.33s-.56,1.49-.57,1.52l-1.48,3.78h0s0,0,0,0A6.06,6.06,0,0,0,82.38,165.23Zm.53.33Zm.69-2.33.46-1.56c.24-.78.49-1.55.73-2.33.48-1.55,1-3.09,1.47-4.64.34-1,.67-2.06,1-3.09.16-.52.33-1,.49-1.55l1-3.09c1.33-4.08,2.69-8.15,4-12.23v-.31c0-.36,0-.72,0-1.08a18.27,18.27,0,0,0-.85-4.81A11.12,11.12,0,0,0,90,125a8.51,8.51,0,0,0-1.91-1.68c-2.77-1.78-6.32-1.62-9.33-.57-.56.2-1.12.43-1.67.69-.33.15-.66.32-1,.49s-.59.33-.88.51a20.86,20.86,0,0,0-2.8,2.07,23.36,23.36,0,0,0-2,2c-.14.16-.29.33-.42.5s-.37.44-.54.67c-.39.65-.78,1.29-1.15,1.95-.68,1.22-1.35,2.45-2,3.7-.77,1.54-1.5,3.12-2.18,4.7-.52,1.23-1,2.46-1.47,3.71-.32.85-.6,1.7-.89,2.56-.52,1.56-1,3.13-1.38,4.71-.46,1.75-.86,3.52-1.19,5.29-.2,1-.37,2.07-.53,3.11,1.62,0,3.24,0,4.85.09.73,0,1.45.08,2.18.14s1.66.15,2.48.26l.73.1.61.09.56.09.77.14.77.16c.47.09.95.2,1.42.33l1.41.39c.76.24,1.51.5,2.25.8l.67.28c.23.09.44.19.66.29l.71.34c.24.12.47.25.7.38a18.09,18.09,0,0,1,1.79,1.08c.36.24.73.51,1.07.77l.26.2.32.25Zm-24.9-3.85H58l.59.67C58.63,159.82,58.67,159.6,58.7,159.38Zm34.15-24.75s0,.08,0,.11v.1C92.82,134.77,92.84,134.7,92.85,134.63Zm-23.38-5s0,0,0-.05l-.06.09Z" transform="translate(-34.8 -13.63)"/><g class="cls-3"><g id="Group_3" data-name="Group 3"><path class="cls-10" d="M128,181.2c.27-11.85-2.88-25.72,1.18-40.3,2.49-8.89,12-14.49,21.72-8.07s9.84,22.87,8,32.66S149.22,189.42,143,191C136.26,187.63,128,181.2,128,181.2Z" transform="translate(-34.8 -13.63)"/><path class="cls-11" d="M133,184.84c6.44-4.57,12.7-9.38,15.89-16.86,4.76-12.43,5.46-30.26-6.22-37.91a15.42,15.42,0,0,1,8.25,2.76c9.74,6.41,9.84,22.87,8,32.66S149.22,189.42,143,191A85.09,85.09,0,0,1,133,184.84Z" transform="translate(-34.8 -13.63)"/><path class="cls-12" d="M128,181.2c.27-11.85-2.88-25.72,1.18-40.3a14.7,14.7,0,0,1,9.25-10.19c-4.2,4.92-5.94,7.49-7.31,14-2.58,8.88-.85,20.72-1.21,29.83-.06,2.3,0,4.94-1,7.37C128.31,181.45,128,181.2,128,181.2Z" transform="translate(-34.8 -13.63)"/><path class="cls-13" d="M142.94,191.21l-.08,0c-6.65-3.29-14.94-9.71-15-9.77l-.1-.08v-.12c.08-3.69-.17-7.54-.43-11.62-.55-8.76-1.19-18.68,1.63-28.74a15,15,0,0,1,9-10.22c4.16-1.55,8.83-.84,13.13,2,10,6.61,9.82,23.8,8.11,32.92-1.79,9.53-9.27,23.14-15.45,25.44a6.41,6.41,0,0,1-.67.21Zm.58-.69c6-2.25,13.37-15.66,15.14-25.07,1.69-9,1.93-25.94-7.9-32.42-4.16-2.74-8.67-3.44-12.68-1.95a14.53,14.53,0,0,0-8.65,9.88c-2.79,10-2.16,19.87-1.61,28.58.26,4.05.51,7.87.43,11.54a107.84,107.84,0,0,0,14.76,9.6A5,5,0,0,0,143.52,190.52Z" transform="translate(-34.8 -13.63)"/></g></g><path class="cls-14" d="M118.87,129.45c.16,2.27,2.25,4,2.39,4.43a182.36,182.36,0,0,0,1.09,30.2" transform="translate(-34.8 -13.63)"/><path class="cls-1" d="M122.35,164.08h-.12l0,0-.07-.05-.11-.11-.15-.23-.24-.47-.36-1-.28-1-.24-1-.21-1-.19-1-.17-1-.15-1-.13-1-.12-1-.11-1-.09-1-.09-.95-.06-1-.06-.95,0-1,0-.94,0-.95,0-1V144l0-.94,0-.94,0-.94,0-.93.06-.93.06-.92.07-.93.19-1.84.2-1.53h0l-.07-.11-.08-.12-.09-.14-.09-.13-.09-.15-.09-.16-.1-.16-.09-.17-.09-.18-.09-.19-.09-.19-.09-.2-.08-.21-.07-.21-.07-.22-.05-.22,0-.23,0-.24,0-.23v-.49l0-.24.08-.25.07-.11.06-.07,0,0,.1,0h.1l0,0,.06,0,.1.09.14.18.13.16.12.16.11.15.11.15.11.15.12.14.11.14.11.13.12.13.12.13.12.12.11.12.12.12.12.11.11.12.12.1.11.11.11.1.1.1.11.09.1.09.1.1.09.08.09.09.09.09.08.09.09.1.08.12.1.15.06.11.08.29,0,.29.11,1.83.08,1.82,0,.92,0,.91,0,.92,0,.92,0,.91,0,.92,0,.92,0,.93,0,.92,0,.93,0,.93v.93l0,.93v.94l0,.94v6.66l0,1,0,1,0,1-.08,1-.12,1-.13.51-.09.26-.08.14-.06.07,0,0,0,0Zm-2.25-29.6h0v0l0-.05,0-.08,0,.1,0,0Zm-.09-.17-.05-.18,0-.3,0,.3.06.1.05.08Z" transform="translate(-34.8 -13.63)"/><g class="cls-3"><g id="Group_4" data-name="Group 4"><g class="cls-3"><g id="Group_5" data-name="Group 5"><g class="cls-3"><g id="Group_6" data-name="Group 6"><path class="cls-13" d="M97.56,125.21s.21,3.28,3.63,6.42l-.33.36C97.28,128.71,97.56,125.21,97.56,125.21Z" transform="translate(-34.8 -13.63)"/></g></g><g class="cls-3"><g id="Group_7" data-name="Group 7"><path class="cls-13" d="M110.88,134.43l-.09-.48a13.07,13.07,0,0,0,7.48-4.58A11.82,11.82,0,0,1,110.88,134.43Z" transform="translate(-34.8 -13.63)"/></g></g><g class="cls-3"><g id="Group_8" data-name="Group 8"><path class="cls-15" d="M105.89,126c-4.49-.9-6-3.37-6.75-8.27s-6.5-8.94-6.92-14.07a57.88,57.88,0,0,0,11,3.67c5.15,1.06,15.91,1.36,22.32-1.77,2,.5,3.39,2,4.66,3.66-4.26,2.31-9.84,6.59-12.9,11.26C114,125.39,110.39,126.89,105.89,126Z" transform="translate(-34.8 -13.63)"/><path class="cls-16" d="M105.89,126c-4.49-.9-6-3.37-6.75-8.27a9.43,9.43,0,0,0-.47-1.71,13.21,13.21,0,0,1,8.89-6.14,20,20,0,0,1,15,4.69,30.49,30.49,0,0,0-5.3,5.91C114,125.39,110.39,126.89,105.89,126Z" transform="translate(-34.8 -13.63)"/><g class="cls-3"><g id="Group_9" data-name="Group 9"><g class="cls-3"><g id="Group_10" data-name="Group 10"><path class="cls-17" d="M105.89,126c-3.1-.62-4.76-2-5.75-4.41,3-3.87,11.1-5.45,15.79.68C113,125.74,109.79,126.76,105.89,126Z" transform="translate(-34.8 -13.63)"/><path class="cls-18" d="M113.59,120.17l.09-.12c.12.08.23.17.34.26Z" transform="translate(-34.8 -13.63)"/><path class="cls-18" d="M105.89,126a7.8,7.8,0,0,1-4.32-2.12,11,11,0,0,0,12-3.69l.43.14a11.34,11.34,0,0,1,1.91,1.94C113,125.74,109.79,126.76,105.89,126Z" transform="translate(-34.8 -13.63)"/><path class="cls-19" d="M105.85,126.22c-3.11-.62-4.88-2-5.94-4.56l0-.13.08-.11a10.13,10.13,0,0,1,8.11-3.51,10.36,10.36,0,0,1,8.07,4.19l.12.16-.12.15c-2.34,2.81-5,4.14-8.13,4.06A11.73,11.73,0,0,1,105.85,126.22Zm9.77-4A9.87,9.87,0,0,0,108,118.4a9.66,9.66,0,0,0-7.62,3.21c1,2.32,2.65,3.56,5.52,4.13A10.87,10.87,0,0,0,108,126C110.92,126.06,113.41,124.83,115.62,122.25Z" transform="translate(-34.8 -13.63)"/></g></g></g></g><path class="cls-13" d="M105.85,126.22c-4.82-1-6.2-3.84-6.95-8.47-.37-2.28-1.81-4.35-3.34-6.54-1.65-2.36-3.36-4.8-3.58-7.55l0-.42.38.17a57.55,57.55,0,0,0,10.9,3.66,41.25,41.25,0,0,0,7.08.72c2.91.07,9.85,0,14.78-2.32a4.21,4.21,0,0,1,.74.18c-5.06,2.57-12.47,2.7-15.53,2.63a42.3,42.3,0,0,1-7.17-.73A58,58,0,0,1,92.51,104c.35,2.46,1.92,4.72,3.45,6.91s3,4.34,3.42,6.73c.74,4.53,2,7.16,6.56,8.07A11.91,11.91,0,0,0,108,126c3.58.08,6.45-1.72,9-5.66,3-4.65,8.56-8.93,12.94-11.33q.16.19.3.39c-4.34,2.36-9.82,6.61-12.83,11.21-2.69,4.09-5.7,6-9.47,5.87A11.73,11.73,0,0,1,105.85,126.22Z" transform="translate(-34.8 -13.63)"/></g></g><g class="cls-3"><g id="Group_11" data-name="Group 11"><path class="cls-20" d="M106.26,109.83c-8.29,3-14.64-5-16.49-8.84,0,0,7.92-.21,10.16.13,4.17.64,12.58.21,19.48,1.27a15.85,15.85,0,0,1,8.52,4.43C121,113.21,112.35,113.63,106.26,109.83Z" transform="translate(-34.8 -13.63)"/><path class="cls-21" d="M106.26,109.83c-6.19,2.28-11.3-1.66-14.27-5.38,3.57,2.64,7.64,5.94,11.1,1.7a6.34,6.34,0,0,0,1.25-3.45c4.52,8,15.38,7.11,23.51,4l.08.08C121,113.21,112.35,113.63,106.26,109.83Z" transform="translate(-34.8 -13.63)"/><path class="cls-13" d="M106.23,110.1c-8.59,3.07-15-5.45-16.68-9l.44-.22c1.68,3.46,7.87,11.78,16.19,8.72l.11,0,.1.06c6.57,4.1,15,2.93,21.38-3l.33.36a19.76,19.76,0,0,1-13.74,5.48A16.2,16.2,0,0,1,106.23,110.1Z" transform="translate(-34.8 -13.63)"/><g class="cls-3"><g id="Group_12" data-name="Group 12"><path class="cls-13" d="M89.11,101a7.9,7.9,0,0,1,5.56-.59,9.78,9.78,0,0,0-5.33,1,10.42,10.42,0,0,0-4,3.75A8.26,8.26,0,0,1,89.11,101Z" transform="translate(-34.8 -13.63)"/></g></g><g class="cls-3"><g id="Group_13" data-name="Group 13"><path class="cls-13" d="M128.36,107.5a16.23,16.23,0,0,0-5.4-3,12.19,12.19,0,0,1,5.73,2.68c2.53,2.24,3.2,6.23,3.2,6.23A14.3,14.3,0,0,0,128.36,107.5Z" transform="translate(-34.8 -13.63)"/></g></g></g></g></g></g></g></g><path class="cls-14" d="M126.31,158.49c16.88-6.74,28.8-1.47,34.75,18.25" transform="translate(-34.8 -13.63)"/><path class="cls-1" d="M161,176.73a.74.74,0,0,1-.27-.23l-.1-.12-.11-.16c-.15-.22-.28-.43-.41-.66l-.14-.24c-.18-.33-.35-.66-.52-1l-1.2-2.33c-.74-1.41-1.51-2.8-2.37-4.14a24.44,24.44,0,0,0-7.61-8,18.06,18.06,0,0,0-6.82-2.43,27.74,27.74,0,0,0-7.45,0c-1.18.15-2.34.34-3.5.56-.79.14-1.58.3-2.36.43-.34.05-.67.1-1,.12l-.26,0c-.13,0-.43,0-.51-.15v0s0,0,0-.06a.85.85,0,0,1,.24-.33l.11-.09.06-.05.28-.22.29-.19.59-.35c.29-.16.59-.31.89-.46a24,24,0,0,1,3.59-1.39,24.62,24.62,0,0,1,7.23-1.16,20.56,20.56,0,0,1,4.88.53,19.27,19.27,0,0,1,3.78,1.33c5,2.39,8.59,6.92,10.79,11.92a31.94,31.94,0,0,1,1.43,3.9c.17.59.32,1.18.45,1.78.06.27.12.55.17.82s.1.63.13.95c0,.1,0,.2,0,.3a1.27,1.27,0,0,1,0,.2v.2s0,.06,0,.1,0,.49-.2.56H161Z" transform="translate(-34.8 -13.63)"/><g class="cls-3"><g id="Group_14" data-name="Group 14"><path class="cls-4" d="M65.72,211.35a47.23,47.23,0,0,1,9.37-14.63,56.06,56.06,0,0,0-1.51,16.42Q69.64,212.36,65.72,211.35Z" transform="translate(-34.8 -13.63)"/><path class="cls-5" d="M68.86,212.12A56.06,56.06,0,0,1,74.8,198a55.37,55.37,0,0,0-1.22,15.12C72,212.83,70.43,212.49,68.86,212.12Z" transform="translate(-34.8 -13.63)"/><path class="cls-6" d="M65.72,211.35a47.23,47.23,0,0,1,9.37-14.63c0,.13-.14,1.36-.17,1.49a60.45,60.45,0,0,0-8,13.43Z" transform="translate(-34.8 -13.63)"/><path class="cls-7" d="M73.3,213.09a56.23,56.23,0,0,1,1.35-15.54A47.11,47.11,0,0,0,66,211.41l-.48-.13a46.93,46.93,0,0,1,9.44-14.73l.63-.63-.2.86a56,56,0,0,0-1.53,16.41Z" transform="translate(-34.8 -13.63)"/></g></g><g class="cls-3"><g id="Group_15" data-name="Group 15"><path class="cls-22" d="M70.4,212.48a89,89,0,0,1,7.09-23.33C83.05,176.78,87.4,164.22,86,148c-1-15.46,9.82-22.66,18.69-26.9,0,0,23.42,7.41,27.06,8.82s17.76,4.71,16.28,10.62-12.16,33.37-14.15,46.52c4.35,6.87,4.6,10.5,5.18,21.08,0,.71.07,1.57.1,2.54A142.38,142.38,0,0,1,70.4,212.48Z" transform="translate(-34.8 -13.63)"/><path class="cls-23" d="M124.38,204.26c1.38-6.32-5.47-5.39-5.93-14.92-.32-6.59-10.78-10.15-7.64-15.53,5.77-10.75,19.11-23.79,8.32-33.46-6.38-5.59-10.2,7.18-16.77,9.5.24-9.71,4.83-18.14,9.54-26.44,7.2,2.3,17.52,5.63,19.84,6.53,3.64,1.4,17.76,4.71,16.28,10.62s-12.16,33.37-14.15,46.52c4.35,6.87,4.6,10.5,5.18,21.08,0,.71.07,1.57.1,2.54a142.3,142.3,0,0,1-21,4.14C121,210.71,123.48,207.59,124.38,204.26Z" transform="translate(-34.8 -13.63)"/><g class="cls-3"><g id="Group_16" data-name="Group 16"><path class="cls-7" d="M110.81,134.64a14,14,0,0,1,10.85-4.2l0,.49h-.26a13.39,13.39,0,0,0-10.1,4,19.39,19.39,0,0,0-4.78,8.31A16.85,16.85,0,0,1,110.81,134.64Z" transform="translate(-34.8 -13.63)"/></g></g><path class="cls-7" d="M70.15,212.42a88.73,88.73,0,0,1,7.11-23.37c6.06-13.48,9.82-25.61,8.49-41-1-15.77,10.25-23,18.82-27.15l.09,0,.1,0c.23.08,23.47,7.43,27.07,8.83.58.22,1.45.5,2.46.82,5.34,1.72,15.27,4.91,14,10.09-.48,1.89-1.88,5.95-3.65,11.09-3.85,11.13-9.11,26.37-10.48,35.32,4.38,6.95,4.59,10.83,5.16,21.11,0,.25.06,1.13.09,2.49l-.49.14c0-1.35-.08-2.26-.1-2.6-.56-10.23-.78-14.06-5.14-21l0-.08,0-.09c1.35-9,6.65-24.3,10.51-35.49,1.77-5.13,3.17-9.18,3.64-11.05,1.18-4.73-8.46-7.83-13.64-9.5-1-.32-1.9-.61-2.49-.83-3.48-1.35-25.31-8.27-26.95-8.79-8.43,4.05-19.46,11.21-18.46,26.62,1.35,15.5-2.43,27.7-8.52,41.25a88.28,88.28,0,0,0-7.08,23.28Z" transform="translate(-34.8 -13.63)"/></g></g><g class="cls-3"><g id="Group_17" data-name="Group 17"><path class="cls-4" d="M143.38,196.1l9.45,1.31a68.93,68.93,0,0,0,4,7.14,142.12,142.12,0,0,1-29,8.79C135.6,201.88,143.38,196.1,143.38,196.1Z" transform="translate(-34.8 -13.63)"/><path class="cls-6" d="M142.16,197.09c-3.89,5-7.76,10.22-11.27,15.63-1,.22-2.07.43-3.1.62A81.72,81.72,0,0,1,142.16,197.09Z" transform="translate(-34.8 -13.63)"/><path class="cls-5" d="M146.92,196.59l5.91.82a68.93,68.93,0,0,0,4,7.14q-2.7,1.14-5.43,2.17C150,203.31,148.46,200,146.92,196.59Z" transform="translate(-34.8 -13.63)"/><path class="cls-7" d="M131,208.49a60.43,60.43,0,0,1,12.41-12.39,75.81,75.81,0,0,0-12.11,12.82c-1,1.35-2.1,2.81-3.15,4.36l-.69.13C128.62,211.64,129.81,210,131,208.49Zm21.86-11.08.46-.2a73.32,73.32,0,0,0,3.92,7.16l-.47.2A81.23,81.23,0,0,1,152.83,197.41Z" transform="translate(-34.8 -13.63)"/></g></g><path class="cls-8" d="M65.69,211.34a32.1,32.1,0,0,1,5.63-9.68c2.66-10.23,5.11-23.41,7.74-36.33,3.56-17.5,7.44-34.5,12.65-43l68.84-.57-9.29,51.3a40,40,0,0,0,1.58,24c1.41,2.54,2.85,5,4.22,7.38A142.38,142.38,0,0,1,65.69,211.34Z" transform="translate(-34.8 -13.63)"/><path class="cls-14" d="M78.81,166.46c-.32,1.58-5.15,26.23-7.49,35.2a32.1,32.1,0,0,0-5.63,9.68m91.37-6.9c-1.37-2.37-2.81-4.84-4.22-7.38a40,40,0,0,1-1.58-24l9.29-51.3-68.84.57" transform="translate(-34.8 -13.63)"/><path class="cls-9" d="M65.24,211.22l.39-1A35.84,35.84,0,0,1,69,204a27.13,27.13,0,0,1,2-2.56c.1-.4.21-.81.31-1.22l.18-.71c.09-.35.18-.7.26-1.06.21-.84.41-1.68.61-2.52l.57-2.46,1-4.38q.87-3.92,1.72-7.83c.19-.86.37-1.72.56-2.58.23-1,.45-2.07.67-3.11.32-1.47.64-2.94,1-4.42l.33-1.51.39-1.8c0-.19.09-.38.13-.57l.06-.28c0-.18.08-.37.12-.55,0,.11,0,.24-.07.36s-.07.44-.11.66c-.11.63-.23,1.25-.34,1.87s-.24,1.37-.38,2.06c-.1.53-.2,1.06-.29,1.59-.15.78-.3,1.56-.44,2.33-.43,2.28-.87,4.57-1.31,6.85-.53,2.67-1.06,5.34-1.61,8-.45,2.2-.91,4.4-1.4,6.59-.33,1.51-.67,3-1,4.53,0,.13-.06.27-.1.39l0,.16,0,0c-.14.18-.31.36-.46.54-.31.38-.62.78-.91,1.18s-.44.62-.65.94-.41.64-.61,1c-.28.47-.56.95-.81,1.43s-.41.78-.6,1.17-.31.65-.46,1-.36.8-.53,1.21l-.47,1.17Zm90.43-7.66c-.79-1.36-1.58-2.73-2.35-4.1-.27-.46-.53-.93-.79-1.4l-.27-.47c0-.07-.08-.14-.11-.21l0-.07c-.23-.6-.44-1.22-.65-1.83l-.36-1.15c-.2-.69-.39-1.37-.57-2.07a42.4,42.4,0,0,1-.92-5.13c-.15-1.33-.22-2.67-.24-4,0-.49,0-1,0-1.46s0-.82.05-1.23c0-.2,0-.41.05-.62s0-.37,0-.55l.12-1.24c0-.36.09-.72.14-1.08,0-.18.05-.36.08-.54.08-.45.15-.9.23-1.35s.19-.94.29-1.41c.05-.24.11-.48.16-.72q4.63-25.3,9.3-50.58c-7.79,0-15.59.06-23.39.07l-10.33,0H108.92l-10.33-.06-6.88,0L102,122.1c2.29,0,4.58-.11,6.88-.15,1.14,0,2.29,0,3.44-.06l6.88-.12,6.89-.12,10.32-.14q12.39-.2,24.79-.34-3,17-6.05,34.06c-.46,2.57-.91,5.14-1.37,7.7-.16.86-.3,1.71-.47,2.57l-.91,5.13a14.55,14.55,0,0,0-.46,2.57l-.09.37a44,44,0,0,0-1,6.66c0,.72-.07,1.44-.07,2.15s0,1.18,0,1.78.05,1,.09,1.43c0,.21,0,.42.05.63s.07.66.11,1c.12,1,.26,1.9.45,2.84a43.28,43.28,0,0,0,1.94,6.71c.28.5.56,1,.85,1.5l1.09,1.91,1.53,2.63c.25.45.51.89.77,1.34l-1.42.61ZM71,201.4l-.06.06,0,.1Zm82.51-4.65,0-.06.05.11S153.54,196.76,153.53,196.75Zm-3-23.84h0v0Zm10-50.58-.57-.67c0,.22-.08.45-.13.68Z" transform="translate(-34.8 -13.63)"/><path class="cls-14" d="M84.78,142.6c0-.25.36,2.65-.73,7.26-3.65,15.45-11.84,50.24-12.17,51.5" transform="translate(-34.8 -13.63)"/><path class="cls-9" d="M71.87,201.35a.19.19,0,0,0,0-.07c0-.12,0-.23,0-.35s0-.34.07-.51c.1-.63.19-1.26.31-1.89,0-.24.08-.49.13-.73s.13-.74.2-1.11c.27-1.43.56-2.87.85-4.3s.65-3.12,1-4.69c.51-2.36,1-4.73,1.56-7.09,1-4.36,2-8.72,3-13.07Q80.48,161.76,82,156c.32-1.25.65-2.51,1-3.76.23-.83.44-1.66.68-2.48h0c.2-.7.38-1.42.53-2.14.07-.34.15-.7.21-1.05,0-.19.07-.39.1-.58l.15-1c.07-.47.11-.94.15-1.41,0-.21,0-.44,0-.65a2.81,2.81,0,0,0,0-.29s0,0,0-.05h0s0,.12,0,.14c0,.22.07.43.1.65A18.7,18.7,0,0,1,85,146a28.35,28.35,0,0,1-.34,3.06c-.13.78-.3,1.55-.45,2.32-.41,2-.85,4-1.28,6s-.81,3.72-1.23,5.58q-1,4.44-2,8.85c-.61,2.6-1.23,5.19-1.86,7.79l-.87,3.51c-.52,2.06-1,4.13-1.57,6.18-.14.5-.26,1-.39,1.49s-.21.76-.31,1.14c-.22.87-.47,1.73-.7,2.6-.3,1.07-.6,2.15-.92,3.22l-.51,1.69c-.07.23-.15.45-.22.68s-.17.53-.27.79a3.22,3.22,0,0,0-.14.44Z" transform="translate(-34.8 -13.63)"/><path class="cls-24" d="M127,165.83l20.18-9c5.79,9.38,11.8,21.35,10.94,31.1C146.77,187.14,136.81,178.8,127,165.83Z" transform="translate(-34.8 -13.63)"/><g id="Group_18" data-name="Group 18"><path class="cls-25" d="M99.91,180.52a17.39,17.39,0,0,1,9.35-32.29h.11a17.39,17.39,0,0,1,16,22.94h0l-6.4-6.29a10.11,10.11,0,1,0-10.48,10.85l6.34,6.24h0a17.51,17.51,0,0,1-6.3,1h-.12A17.28,17.28,0,0,1,99.91,180.52Z" transform="translate(-34.8 -13.63)"/><path class="cls-26" d="M125.88,181.53l-22.37-22.47c1.08-1.3,2.53-2.43,5.85-2.71l16.71,17.12Z" transform="translate(-34.8 -13.63)"/><path class="cls-27" d="M117,182.61,100,165.83c.3-3.33,1.44-4.76,2.74-5.84l22.38,22.46Z" transform="translate(-34.8 -13.63)"/></g><path d="M156.46,188.16a26.93,26.93,0,0,1-4.72-1.08,33.77,33.77,0,0,1-9-4.64,58.55,58.55,0,0,1-9.46-8.61q-2.1-2.34-4-4.83c-.43-.54-.85-1.1-1.25-1.66l-.45-.61-.17-.25-.16-.26-.24-.39.73-.4.49-.26.5-.24,1.75-.83,1.49-.71,3-1.4q3-1.4,6-2.76l2-.92,2-.92,2.31-1c1,1.6,2,3.2,2.9,4.84,1.16,2,2.26,4.12,3.27,6.24.26.53.51,1.06.75,1.6l.71,1.61c.2.47.39,1,.58,1.43l.54,1.42a45.35,45.35,0,0,1,1.66,5.47,31.92,31.92,0,0,1,.85,5.75,21.88,21.88,0,0,1,0,2.29c0,.46-.06.91-.09,1.36C157.81,188.3,157.13,188.25,156.46,188.16Zm1.67-.68-.43,0c0,.14,0,.28,0,.42Zm-2.31-12.11c-.63-1.9-1.36-3.77-2.17-5.61-.53-1.2-1.09-2.39-1.67-3.57l-.9-1.76c-1.27-2.43-2.64-4.82-4.06-7.17l-7.81,3.42c-1.69.74-3.38,1.48-5.07,2.2l-2,.88-2,.86-1.28.53-.51.21-.52.19-.78.28c.17.18.36.37.52.56l.19.23c.17.19.33.38.49.58l1.14,1.36c1.35,1.61,2.72,3.18,4.15,4.71.74.78,1.49,1.56,2.26,2.32,4.65,4.59,10.14,8.82,16.46,10.78.9.28,1.81.5,2.73.69a26.15,26.15,0,0,0,2.78.38A32.68,32.68,0,0,0,155.82,175.37Zm-8.51-18.23-.46-.15.17.27Z" transform="translate(-34.8 -13.63)"/><path class="cls-28" d="M123.54,133.75c-6.75-10.64-19.82-7.83-31.83-11.42l68.84-.57-9.29,51.3a40,40,0,0,0,1.58,24c1.41,2.54,2.85,5,4.22,7.38a142.41,142.41,0,0,1-17.95,6.27C147.21,194,145.46,168.25,123.54,133.75Z" transform="translate(-34.8 -13.63)"/><path class="cls-4" d="M130.06,178.42c2.31-12.35-6.89-25.95-.13-40.5,4.11-8.88,15-13.1,24.1-4.73s6.37,25.61,2.77,35.54-14.23,23.36-21,23.9C129.33,188,130.06,178.42,130.06,178.42Z" transform="translate(-34.8 -13.63)"/><path class="cls-5" d="M130.78,193.24c-1-.65,3.19-7.06,2.32-7.66,6.21-4.4,13.25-9.64,16.33-16.85,4.59-12,5.26-29.18-6-36.56a14.89,14.89,0,0,1,7.95,2.66c9.39,6.18,9.49,22,7.72,31.49s-9.34,23.07-15.36,24.54C141.09,192.7,132.63,197.37,130.78,193.24Z" transform="translate(-34.8 -13.63)"/><path class="cls-7" d="M131.5,194.13a.86.86,0,0,1-.46-.35c-3.68-2.43-4.08-8.28-1.89-12.12l-.1-.08v-.11c.08-3.56-.16-7.27-.41-11.21-.54-8.44-1.15-18,1.56-27.71a14.51,14.51,0,0,1,8.65-9.85c4-1.49,8.51-.81,12.66,1.93,9.68,6.38,9.47,23,7.82,31.73-1.73,9.2-9,22.32-14.91,24.54a5.1,5.1,0,0,1-.63.2l-.09,0-.08,0C138.06,195.06,134.05,195.51,131.5,194.13Zm12.27-3.52c.16,0,.33-.1.5-.16,5.82-2.16,12.89-15.1,14.59-24.17,1.63-8.67,1.86-25-7.61-31.25-4-2.65-8.36-3.32-12.23-1.88a14,14,0,0,0-8.34,9.52c-2.69,9.63-2.08,19.16-1.55,27.56.25,3.9.49,7.59.41,11.12-1.34,3-2,10,1.5,12.43-.07.14.17.28.46.35C133.79,195.37,137.63,194.81,143.77,190.61Z" transform="translate(-34.8 -13.63)"/><path class="cls-8" d="M158.71,185.83c-1.58-22.43-20.47-29.84-31.77-20.14A135,135,0,0,1,130.21,125c11.15-6.79,24.78-6.22,29.37,10.1C164.44,156,162.86,172,158.71,185.83Z" transform="translate(-34.8 -13.63)"/><path class="cls-9" d="M158.3,185.34c-.07-.84-.17-1.67-.29-2.5a31.36,31.36,0,0,0-2.51-8.65,24,24,0,0,0-4.17-6.3,19,19,0,0,0-10-5.79,17.17,17.17,0,0,0-3-.36,16.71,16.71,0,0,0-4.56.5,17,17,0,0,0-4.65,2c-.41.24-.8.5-1.19.77s-.66.5-1,.72l.24-.25c.11-.11.25-.22.36-.32l.71-.56a16.76,16.76,0,0,1,3.18-1.84,16.3,16.3,0,0,1,4-1.19,17.44,17.44,0,0,1,10,1.34,20,20,0,0,1,5.56,3.76,22.4,22.4,0,0,1,2,2.14,28.56,28.56,0,0,1,5.65,13c.13.69.23,1.38.31,2.07a89.86,89.86,0,0,0,2-9c.24-1.43.45-2.86.62-4.3a89.48,89.48,0,0,0,.61-8.95,98.23,98.23,0,0,0-.33-9.86c-.22-2.61-.55-5.21-.95-7.8-.45-2.91-1-5.82-1.69-8.7a27.71,27.71,0,0,0-1.5-4.11,17.38,17.38,0,0,0-5.84-7.27,12.65,12.65,0,0,0-1.55-.92,14,14,0,0,0-2.34-.94,15.74,15.74,0,0,0-3.91-.64,19.84,19.84,0,0,0-4.55.37,27.94,27.94,0,0,0-8.95,3.55,125.05,125.05,0,0,0-3,17.19q-.5,4.89-.65,9.81c-.09,2.71-.09,5.41-.06,8.12,0,1,0,1.95.06,2.93,0,.4,0,.81,0,1.21s0,.81,0,1.22c0-.24-.06-.48-.08-.72,0,0-.06-.47-.06-.49s0-.45,0-.49l-.09-1.21c0-.73-.08-1.47-.11-2.2-.11-2.37-.15-4.76-.13-7.14a127,127,0,0,1,.87-14.19,121.13,121.13,0,0,1,2.59-14.51c.92-.56,1.84-1.08,2.8-1.55a27,27,0,0,1,6.63-2.3c.52-.1,1-.18,1.55-.25a19,19,0,0,1,4.58,0,16.37,16.37,0,0,1,3.52.82,14.57,14.57,0,0,1,2.34,1.08,16.05,16.05,0,0,1,5,4.5,21.49,21.49,0,0,1,2,3.33,22.16,22.16,0,0,1,.91,2.12l.36,1c.1.32.21.64.3,1a4.81,4.81,0,0,1,.16.54c0,.07.08.14,0,.21s0,.13.05.19.08.37.08.4c.23,1,.43,1.94.63,2.91.36,1.8.68,3.62,1,5.44a103.84,103.84,0,0,1,1.2,12.56,91.68,91.68,0,0,1-.6,13.76,88.09,88.09,0,0,1-1.84,10.19c-.32,1.34-.67,2.68-1.06,4-.31,1.1-.64,2.2-1,3.29C158.43,187.06,158.36,186.2,158.3,185.34Zm.59-1.53q-.25,1-.54,1.92l.74.08C159,185.14,159,184.47,158.89,183.81Zm.28-48.65h0Zm-28.64-10a.66.66,0,0,1,0-.15l-.17.22Z" transform="translate(-34.8 -13.63)"/><path class="cls-14" d="M125.34,134.42c0,2.07,1.86,3.73,2,4.14a166.77,166.77,0,0,0-.43,27.48" transform="translate(-34.8 -13.63)"/><path class="cls-9" d="M126.8,165.78l0-.18s0-.17,0-.18l-.09-.62-.06-.54c0-.36-.07-.71-.11-1.07s-.08-.94-.11-1.42c-.09-1.11-.14-2.23-.18-3.34q-.12-3.13-.07-6.25c0-2.11.12-4.2.25-6.3.16-2.43.37-4.86.65-7.28a1.67,1.67,0,0,0-.17-.26c-.14-.21-.3-.42-.45-.64a6.66,6.66,0,0,1-1-2.23,2.7,2.7,0,0,1-.07-.69v-.16a1.52,1.52,0,0,1,.06-.2l.07.19,0,.18,0,.18.06.18,0,.17.07.17.06.16.08.17.07.16.08.15.09.15.08.15.09.14.09.14.09.14.09.13.09.13.1.12.09.12.08.11.09.11.08.1.08.1.08.09.07.09.06.08.06.08.06.07,0,.07,0,.07,0,.08,0,0,0,.14-.11,1.66-.1,1.66-.1,1.67-.09,1.67-.08,1.68,0,.85,0,.84,0,.85,0,.85,0,.85,0,.85,0,.86,0,.86v7.83l0,.89v3.13l-.07.45C126.85,166,126.83,165.86,126.8,165.78Zm.21-27.25s0,.05,0,.07l0,.07A.68.68,0,0,1,127,138.53Z" transform="translate(-34.8 -13.63)"/><path class="cls-28" d="M154.13,171c3.87-.24,15.72-60-23.92-46,11.15-6.79,24.78-6.22,29.37,10.1,4.86,21,3.28,36.88-.87,50.76A31.25,31.25,0,0,0,154.13,171Z" transform="translate(-34.8 -13.63)"/><g class="cls-3"><g id="Group_19" data-name="Group 19"><path class="cls-22" d="M165.33,56.35c7.31-9.71,25.65-21.22,32.26-17.52S200.73,86,180.32,95C177.55,80.8,170.7,61.36,165.33,56.35Z" transform="translate(-34.8 -13.63)"/><path class="cls-23" d="M175.37,76.62C189.75,70.57,200,58,199.72,42.38,203,53.76,198,87.23,180.32,95A147.55,147.55,0,0,0,175.37,76.62Z" transform="translate(-34.8 -13.63)"/><g class="cls-3"><g id="Group_20" data-name="Group 20"><path class="cls-29" d="M173.28,65.65c4.83-4.76,13.07-12.62,15.8-10.84s-5.71,22.71-11.75,25.13C176.48,74.55,173.28,65.65,173.28,65.65Z" transform="translate(-34.8 -13.63)"/><path class="cls-30" d="M173.28,65.65c.83-.81,1.75-1.72,2.73-2.65a15.42,15.42,0,0,1,4.17,8.3c5.37-3,8.78-10.11,9.22-16.09,1.56,3.41-6.33,22.43-12.07,24.73C176.48,74.55,173.28,65.65,173.28,65.65Z" transform="translate(-34.8 -13.63)"/><path class="cls-31" d="M177.14,80.28l0-.3c-.83-5.31-4-14.16-4-14.25l-.05-.14.11-.11c5.32-5.24,11.84-11.25,15.07-11.17a2,2,0,0,1,1,.29c.54.35.74,1.22.59,2.66-.57,5.87-7.13,20.8-12.38,22.9Zm12.18-23.07c.16-1.6-.17-2.06-.37-2.2a1.49,1.49,0,0,0-.78-.22c-3.4-.08-11.44,7.81-14.61,10.92a103.3,103.3,0,0,1,4,13.88C182.23,77.26,188.72,63.32,189.32,57.21Z" transform="translate(-34.8 -13.63)"/></g></g><path class="cls-7" d="M180.14,95.36l0-.3c-2.78-14.22-9.59-33.55-14.92-38.53l-.17-.15.14-.18c6.34-8.41,21.21-18.52,29.54-18.32a6.49,6.49,0,0,1,3,.73c2.28,1.28,3.48,7,3.11,14.85-.75,16.11-7.45,36.05-20.4,41.78Zm20.19-41.93c.36-7.57-.77-13.22-2.86-14.39a5.92,5.92,0,0,0-2.81-.67c-8-.2-22.78,9.83-29,18,5.34,5.23,12.05,24.21,14.84,38.34C193.08,88.86,199.6,69.28,200.33,53.43Z" transform="translate(-34.8 -13.63)"/></g></g><g class="cls-3"><g id="Group_21" data-name="Group 21"><path class="cls-4" d="M103.68,15.4c6.29,4.61,9.45,20.06,16,27.9a160.82,160.82,0,0,1-16.2,4.24C103.49,35.83,103.68,15.4,103.68,15.4Z" transform="translate(-34.8 -13.63)"/><path class="cls-5" d="M103.51,36.18c4.09-.22,7.91-1.32,9.56-4.65,1.94,4.35,4,8.66,6.58,11.77a160.82,160.82,0,0,1-16.2,4.24C103.46,44.23,103.48,40.23,103.51,36.18Z" transform="translate(-34.8 -13.63)"/><path class="cls-7" d="M103.2,47.84v-.3c0-11.57.22-31.94.22-32.14v-.47l.38.28c3.46,2.53,5.94,8.18,8.57,14.16,2.2,5,4.48,10.2,7.45,13.77l.23.27-.34.12a162.75,162.75,0,0,1-16.23,4.25Zm16-4.66c-2.9-3.61-5.14-8.69-7.3-13.61-2.5-5.69-4.87-11.09-8-13.67,0,3.16-.19,20.74-.23,31.34A160.4,160.4,0,0,0,119.24,43.18Z" transform="translate(-34.8 -13.63)"/></g></g><g class="cls-3"><g id="Group_22" data-name="Group 22"><path class="cls-22" d="M84.37,32.45c4.6-12,11.75-20,17.32-18.38s7.74,18.25,5.89,29.3C97.44,49,88.47,58.46,83.63,63.26,80.77,53.75,79.78,44.41,84.37,32.45Z" transform="translate(-34.8 -13.63)"/><path class="cls-23" d="M84.37,32.45c3.23-8.4,7.71-14.83,12-17.38-7.11,11-8.12,25.81.41,35.81-5.52,4.57-10.15,9.38-13.17,12.38C80.77,53.75,79.78,44.41,84.37,32.45Z" transform="translate(-34.8 -13.63)"/><g class="cls-3"><g id="Group_23" data-name="Group 23"><path class="cls-29" d="M96.77,26.15c4.25.47,2.51,14.89,2.21,22-2.9,1.7-8.56,6.13-8.56,6.13C86.78,40.74,92.51,25.69,96.77,26.15Z" transform="translate(-34.8 -13.63)"/><path class="cls-30" d="M95.34,26.54c-4.09,5.63-4.49,14.25-3.3,21,2.59-2.71,4.43-3.9,7.24-4.58-.11,1.89-.24,3.66-.3,5.12-2.9,1.7-8.56,6.13-8.56,6.13C87.17,42.2,91.38,28.94,95.34,26.54Z" transform="translate(-34.8 -13.63)"/><path class="cls-31" d="M90.28,54.66l-.1-.35c-2.89-10.74.15-22.3,3.46-26.51,1-1.34,2.15-2,3.15-1.89,3.8.42,3.17,10.33,2.66,18.29-.09,1.43-.18,2.78-.22,3.92v.13l-.11.07c-2.86,1.67-8.49,6.07-8.54,6.12ZM98.74,48c.05-1.11.14-2.41.22-3.79.44-6.93,1.12-17.41-2.22-17.77h-.13c-.8,0-1.69.57-2.58,1.71-3.21,4.09-6.16,15.24-3.47,25.73C91.74,52.91,96.21,49.47,98.74,48Z" transform="translate(-34.8 -13.63)"/></g></g><path class="cls-7" d="M83.52,63.72l-.12-.39c-2.54-8.46-4.21-18.06.75-31C88.5,21,95,13.5,100.37,13.63a5.44,5.44,0,0,1,1.39.21c6,1.72,7.8,19.13,6.06,29.57l0,.12-.11.06C98.55,48.65,90.26,57,85.3,61.94l-1.49,1.49ZM85,61.6c5-5,13.23-13.28,22.39-18.39,1.88-11.39-.55-27.42-5.73-28.9a4.8,4.8,0,0,0-1.26-.19C95.21,14,88.88,21.4,84.6,32.53c-4.83,12.58-3.3,22-.85,30.27Z" transform="translate(-34.8 -13.63)"/></g></g><g class="cls-3"><g id="Group_24" data-name="Group 24"><path class="cls-4" d="M117.21,104.24c-32-7.12-41.8-16.8-47.4-27.58,7.54-6.45,15.29-21.75,26.34-30s23.3-13.23,43.65-8.1S175.44,55,180.16,77.72s.86,26.46,12.08,31.73C184.93,114,149.25,111.35,117.21,104.24Z" transform="translate(-34.8 -13.63)"/><path class="cls-6" d="M96.15,46.64c11.06-8.28,23.3-13.23,43.65-8.1a66.28,66.28,0,0,1,19.65,8.13c-17.14-9-43.09-11.7-60.13.77C91.18,53.9,87.17,58.52,79.79,64.85,84.54,58.46,89.8,51.39,96.15,46.64Z" transform="translate(-34.8 -13.63)"/><path class="cls-5" d="M161.59,111.05a32.64,32.64,0,0,0,8.29-15.31c3.44-16.3,2.15-34.2-7.5-47.06,8.76,6.52,15.05,15.85,17.78,29,4.73,22.77.86,26.46,12.08,31.73C188.38,111.88,176.58,112.27,161.59,111.05Z" transform="translate(-34.8 -13.63)"/><path class="cls-7" d="M117.16,104.47C86,97.56,75.63,88.4,69.59,76.77l-.09-.17.15-.13c3.21-2.74,6.51-7.17,10-11.85,4.69-6.29,10-13.43,16.35-18.18C105.92,39,114.79,36,125.63,36.22a64.47,64.47,0,0,1,14.23,2.08c23,5.79,36.25,18.67,40.54,39.37,1.39,6.66,2,11.62,2.54,15.6,1.21,9.44,1.58,12.29,9.4,16l.41.19-.38.24c-3.46,2.17-12.42,2.43-19.32,2.26C157.59,111.55,136.18,108.7,117.16,104.47Zm74.55,5c-7.66-3.7-8.07-6.91-9.26-16.14-.51-4-1.15-8.92-2.52-15.56-4.26-20.5-17.4-33.26-40.19-39a65.26,65.26,0,0,0-14.12-2.06c-10.73-.26-19.5,2.77-29.32,10.12C90,51.54,84.71,58.64,80,64.91c-3.46,4.64-6.72,9-9.92,11.81,6,11.42,16.35,20.44,47.15,27.28,19,4.21,40.36,7.06,55.79,7.43C182.41,111.66,188.83,111,191.71,109.47Z" transform="translate(-34.8 -13.63)"/></g></g><g class="cls-3"><g id="Group_25" data-name="Group 25"><path class="cls-22" d="M112.54,133.83c-3.68.89-8.39,1.44-12.44-2.92-27.57-9.82-40.85-35.92-41.53-40a11.83,11.83,0,0,0,5.31,2.16c-5.55-5.74-8-11.33-7.43-15.42,1.29.56,4.32,1.28,9.73-.5S74.92,72.23,83,65.47s15.08-11.55,21.88-10.25,9.07,11.69,6.63,18.46c0,0,8.42-12,21.32-13.8s27,19.88,36.28,31.94,17.42,16.28,24.34,17.54c-4.94,12.57-11.41,14.29-16.59,15.34,2.1.38,3.44.41,4.41.59-3,4.08-13.38,8.87-27.6,11.38S120.76,136.83,112.54,133.83Z" transform="translate(-34.8 -13.63)"/><path class="cls-23" d="M112.54,133.83c-3.68.89-8.39,1.44-12.44-2.92C77,122.69,63.94,103.05,59.91,94.48c9,12.57,21.9,22,34.59,31.17,1.52-2.4.1-4.39.65-6.82,2.82,4.46,5.1,10.86,10.93,12s11.74-1.18,16.24-5.47c-1.53,2.89-4,4.79-5.55,7.68,18.45,3.85,38.56-.54,56.3-7.92-6.34-.16-12.2.19-18-2.88,11.25-1.19,24.92-1.35,32.48-11.41-9.21-2.76-14.26-10.27-18.22-18.69,9.13,11.82,17.25,16,24.11,17.24-4.94,12.57-11.41,14.28-16.59,15.34,2.1.38,3.44.41,4.41.59-3,4.08-13.38,8.87-27.6,11.38S120.76,136.83,112.54,133.83Z" transform="translate(-34.8 -13.63)"/><path class="cls-7" d="M112.53,134.08a18.35,18.35,0,0,1-4.77.6,10.52,10.52,0,0,1-7.79-3.56C72.9,121.46,59.08,95.52,58.33,91l-.09-.56.47.32a12.86,12.86,0,0,0,4.53,2c-5.08-5.42-7.64-10.91-7-15.14l0-.32.3.13a8.34,8.34,0,0,0,3.14.61,19.33,19.33,0,0,0,6.41-1.12c4.79-1.57,8-4.24,14.29-9.55l2.47-2.07c7.9-6.61,14-10.67,20.06-10.52a12.35,12.35,0,0,1,2,.21,8.49,8.49,0,0,1,5.73,4.45,18.43,18.43,0,0,1,1.48,13c2.44-3,10.09-11.35,20.65-12.83a11.42,11.42,0,0,1,1.85-.11c10.94.27,22.6,16,31.11,27.41,1.25,1.69,2.44,3.28,3.55,4.73,7.8,10.2,15.72,15.9,24.19,17.45l.29.06-.1.27c-4.7,12-10.91,14.2-15.48,15.22l1.63.19c.57.06,1.06.11,1.49.2l.38.07-.23.31c-3.36,4.53-14.52,9.13-27.75,11.47a81.64,81.64,0,0,1-16,1C128.25,137.71,118.36,136.2,112.53,134.08Zm41.11,2.35c14.73-2.6,24.16-7.31,27.2-11-.32,0-.66-.08-1.05-.12-.78-.09-1.75-.19-3-.41l-1.25-.22,1.25-.26c4.49-.91,11.25-2.29,16.3-14.91-8.49-1.65-16.41-7.4-24.2-17.58-1.11-1.46-2.29-3-3.55-4.74-8.45-11.37-20-26.95-30.73-27.21a11.6,11.6,0,0,0-1.77.1c-12.64,1.77-21.06,13.58-21.15,13.7l-1,1.49.61-1.71a17.84,17.84,0,0,0-1.05-13.93,8,8,0,0,0-5.39-4.21,11.5,11.5,0,0,0-1.94-.2C97,55.12,91,59.13,83.17,65.66L80.7,67.73c-6.38,5.36-9.57,8-14.44,9.65a20.11,20.11,0,0,1-6.58,1.14,9.62,9.62,0,0,1-3-.53c-.43,4.17,2.25,9.58,7.41,14.91l.43.45-.62,0a11.85,11.85,0,0,1-4.93-1.87c1.63,5.79,15.32,30,41.25,39.23l0,0,0,0a10.1,10.1,0,0,0,7.49,3.46,18.2,18.2,0,0,0,4.71-.61l.07,0,.07,0c5.7,2.08,15.8,3.63,25.14,3.85A81.41,81.41,0,0,0,153.64,136.43Z" transform="translate(-34.8 -13.63)"/></g></g><g class="cls-3"><g id="Group_26" data-name="Group 26"><path class="cls-29" d="M158.68,108.82c-18.89-.94-30-21-44.51-19-.43-2.57,2.62-12,2.62-12,4.2-5.43,10.45-12.63,25.29-6.63,16.4,6.63,9.8,27.3,20.49,37.58A28.29,28.29,0,0,1,158.68,108.82Z" transform="translate(-34.8 -13.63)"/><path class="cls-31" d="M134.56,98.36c-6.09-4.28-11.84-8.32-18.07-8.47a14.65,14.65,0,0,0-2.29.12L114,90l0-.23c-.43-2.6,2.51-11.71,2.63-12.1l0-.07c3.44-4.45,7.78-9.17,15.74-9a28.18,28.18,0,0,1,9.83,2.28c9.49,3.83,11.4,12.42,13.25,20.72,1.37,6.17,2.79,12.55,7.32,16.91l.38.37-.53,0a31.38,31.38,0,0,1-3.21.1h0C149.48,108.85,141.56,103.28,134.56,98.36ZM162,108.54c-4.34-4.44-5.73-10.71-7.08-16.77-1.9-8.56-3.7-16.64-12.95-20.38a27.71,27.71,0,0,0-9.66-2.24c-7.72-.19-12,4.41-15.32,8.75-.21.66-2.83,8.92-2.63,11.6a13.69,13.69,0,0,1,2.12-.1c6.38.15,12.19,4.24,18.34,8.56,7.28,5.12,14.8,10.41,24.55,10.64h0C160.26,108.62,161.14,108.6,162,108.54Z" transform="translate(-34.8 -13.63)"/></g></g><g class="cls-3"><g id="Group_27" data-name="Group 27"><path class="cls-29" d="M65.16,84.28c11.28-2.58,22.23-23.34,37-22.54,7.19.39,9.17,7.63,8.19,14.76,0,0-3.24,9.52-7.27,11.32C94,91.54,69.51,89.18,65.16,84.28Z" transform="translate(-34.8 -13.63)"/><path class="cls-31" d="M65,84.44l-.27-.31.4-.09c4.73-1.08,9.43-5.42,14.4-10,6.91-6.39,14.07-13,22.65-12.53a8.08,8.08,0,0,1,6.07,2.92c2.18,2.65,3,7.06,2.34,12.11-.15.44-3.33,9.69-7.41,11.51-3.24,1.34-8.6,2-15.09,1.83h0C78.78,89.64,67.87,87.71,65,84.44Zm38,3.16c3.88-1.74,7.09-11.09,7.13-11.18.66-4.87-.15-9.15-2.24-11.69A7.62,7.62,0,0,0,102.12,62c-8.38-.47-15.46,6.08-22.29,12.39-4.88,4.51-9.49,8.77-14.2,10,2.85,2.61,12.3,4.72,22.44,5h0C94.5,89.53,99.79,88.9,103,87.6Z" transform="translate(-34.8 -13.63)"/></g></g><g class="cls-3"><g id="Group_28" data-name="Group 28"><path class="cls-4" d="M100,90.89c.47-4.32,10.4-13.25,12.38-21.18a24.9,24.9,0,0,0-1.17-14.87l30,4.83s-8.55.29-13.33,3.59a23.78,23.78,0,0,0-9.62,14.41c-1.69,6.85-2.71,16-3.91,17.84C109.79,96,100.79,92.25,100,90.89Z" transform="translate(-34.8 -13.63)"/><path class="cls-7" d="M99.76,91l0-.08v-.08c.22-2,2.4-5,4.93-8.36,3-4,6.39-8.58,7.45-12.84a21.74,21.74,0,0,0,.48-2.54c.08.55.17,1.1.22,1.65-.06.33-.14.67-.22,1-1.09,4.36-4.52,9-7.54,13-2.45,3.29-4.57,6.14-4.83,8,1,1.24,9.42,4.86,14,4.44.65-1.11,1.26-4.55,2-8.51.53-2.94,1.13-6.27,1.84-9.16a24,24,0,0,1,9.72-14.54c1.59-1.1,4-2.86,6.27-3.07,5.71-.56,7.41,1.58,7.64,1.57a1.93,1.93,0,0,1-1.16-.13,11.93,11.93,0,0,0-6-.85A16.15,16.15,0,0,0,128,63.46a23.49,23.49,0,0,0-9.51,14.26c-.71,2.87-1.31,6.2-1.84,9.13-.77,4.3-1.38,7.7-2.1,8.79l-.07.1h-.11a8.39,8.39,0,0,1-1.14,0C108.44,95.67,100.6,92.41,99.76,91Z" transform="translate(-34.8 -13.63)"/></g></g><g class="cls-3"><g id="Group_29" data-name="Group 29"><path class="cls-32" d="M104.42,102.06c-4-.75-6.23-4.87-6-9s5.1-5.73,9.31-5,7.3,4.08,7,7.89S109.48,103,104.42,102.06Z" transform="translate(-34.8 -13.63)"/><path class="cls-33" d="M114.54,93.66a12.65,12.65,0,0,0-15.26-3c1.6-2.32,5.22-3.14,8.48-2.56A8.43,8.43,0,0,1,114.54,93.66Z" transform="translate(-34.8 -13.63)"/><path class="cls-34" d="M104.42,102.06c-4-.75-6.23-4.87-6-9a4.91,4.91,0,0,1,.55-2c1.16,6.83,8.31,13,15.65,3a6.29,6.29,0,0,1,.16,1.89C114.56,99.78,109.48,103,104.42,102.06Z" transform="translate(-34.8 -13.63)"/><path class="cls-31" d="M104.37,102.3C100,101.49,98,97,98.21,93c.24-3.82,4.21-5.47,7.8-5.38a11,11,0,0,1,1.8.18c4.38.78,7.5,4.29,7.24,8.15-.23,3.56-4.48,6.59-9.08,6.48A10.58,10.58,0,0,1,104.37,102.3ZM114.57,96c.24-3.62-2.71-6.9-6.85-7.64a11.13,11.13,0,0,0-1.72-.17c-3.48-.09-7.08,1.4-7.31,4.93-.23,3.77,1.67,8,5.77,8.75A9.66,9.66,0,0,0,106,102C110.33,102.08,114.35,99.26,114.57,96Z" transform="translate(-34.8 -13.63)"/></g></g><g class="cls-3"><g id="Group_30" data-name="Group 30"><g class="cls-3"><g id="Group_31" data-name="Group 31"><path class="cls-1" d="M87.43,86.15c-3.47-2-3.62-8.19-.36-13.74S95.79,64,99.25,66s4.77,9.53,1.41,16.69C98.41,87.54,90.89,88.19,87.43,86.15Z" transform="translate(-34.8 -13.63)"/><path class="cls-35" d="M87.43,86.15c-2.48-1.46-3.27-5-2.32-9,.49,3.36,4.54,5.65,8.16,5.41A11,11,0,0,0,102.53,76a20.61,20.61,0,0,1-1.87,6.71C98.41,87.54,90.89,88.19,87.43,86.15Z" transform="translate(-34.8 -13.63)"/><path class="cls-31" d="M87.32,86.33c-3.56-2.09-3.75-8.38-.43-14s8.91-8.54,12.47-6.44,5,9.53,1.5,17a8.06,8.06,0,0,1-5.1,4.09,12.64,12.64,0,0,1-4,.53A9.46,9.46,0,0,1,87.32,86.33Zm8.32.17a7.65,7.65,0,0,0,4.83-3.86c3.29-7,2-14.46-1.32-16.42a4.72,4.72,0,0,0-2.28-.62c-3.18-.08-7.07,2.59-9.61,6.92C84.06,78,84.18,84,87.53,86A10.91,10.91,0,0,0,95.64,86.5Z" transform="translate(-34.8 -13.63)"/></g></g></g></g><g class="cls-3"><g id="Group_32" data-name="Group 32"><path class="cls-36" d="M91.88,84.77c-2.19-.84-2.88-4.35-1.54-7.85s4.18-5.66,6.36-4.83,2.87,4.34,1.54,7.84S94.06,85.6,91.88,84.77Z" transform="translate(-34.8 -13.63)"/><path class="cls-37" d="M91.88,84.77c-2.15-.82-2.85-4.24-1.6-7.69a11,11,0,0,0,3,1.57,8.93,8.93,0,0,0,5.45-.55,10.93,10.93,0,0,1-.51,1.83C96.91,83.43,94.06,85.6,91.88,84.77Z" transform="translate(-34.8 -13.63)"/><path class="cls-31" d="M92.54,84.08c-1.55-.59-2-3.09-1.09-5.58s3-4,4.53-3.44,2,3.09,1.09,5.57S94.1,84.67,92.54,84.08Z" transform="translate(-34.8 -13.63)"/><path class="cls-1" d="M93.28,77.12a2,2,0,1,1,2.3,1.75A2,2,0,0,1,93.28,77.12Z" transform="translate(-34.8 -13.63)"/><path class="cls-1" d="M94.67,82.31a.9.9,0,1,1,1,.78A.92.92,0,0,1,94.67,82.31Z" transform="translate(-34.8 -13.63)"/><path class="cls-38" d="M91.79,85a3.86,3.86,0,0,1-2.23-3.09,9.41,9.41,0,0,1,.56-5c1.06-2.78,3.11-4.84,5.12-5.13a3.07,3.07,0,0,1,1.54.16c2.3.87,3,4.53,1.68,8.14-1.06,2.78-3.12,4.84-5.12,5.13A3.11,3.11,0,0,1,91.79,85ZM98,79.85c1.29-3.38.66-6.76-1.4-7.55a2.62,2.62,0,0,0-1.31-.13c-1.85.27-3.76,2.21-4.76,4.84A8.83,8.83,0,0,0,90,81.8,3.41,3.41,0,0,0,92,84.55a2.62,2.62,0,0,0,1.31.13C95.11,84.41,97,82.47,98,79.85Z" transform="translate(-34.8 -13.63)"/></g></g><g class="cls-3"><g id="Group_33" data-name="Group 33"><g class="cls-3"><g id="Group_34" data-name="Group 34"><path class="cls-1" d="M129.45,85.22c1.34-6.57,8.08-12.35,13.94-11.08,4.41,1,7.19,9.21,5.85,15.77A9.91,9.91,0,0,1,137.32,98,10.64,10.64,0,0,1,129.45,85.22Z" transform="translate(-34.8 -13.63)"/><path class="cls-35" d="M129.38,85.61a9.42,9.42,0,0,0,7,6.93c4.59,1.18,9.86.25,12.94-3.21,0,.2-.06.39-.1.58A9.91,9.91,0,0,1,137.32,98,10.62,10.62,0,0,1,129.38,85.61Z" transform="translate(-34.8 -13.63)"/><path class="cls-31" d="M137.27,98.22a10.45,10.45,0,0,1-6.41-4.4,11.29,11.29,0,0,1-1.63-8.65,15.55,15.55,0,0,1,6.61-9.52,10.1,10.1,0,0,1,7.6-1.73c4.41,1,7.45,9,6,16a10.09,10.09,0,0,1-10.32,8.47A9.83,9.83,0,0,1,137.27,98.22Zm7.21-1.62A9.92,9.92,0,0,0,149,89.87c1.36-6.65-1.55-14.62-5.67-15.51a7.55,7.55,0,0,0-1.42-.17A10.31,10.31,0,0,0,136.09,76a15.11,15.11,0,0,0-6.42,9.23,10.8,10.8,0,0,0,1.57,8.31,9.79,9.79,0,0,0,13.24,3Z" transform="translate(-34.8 -13.63)"/></g></g></g></g><g class="cls-3"><g id="Group_35" data-name="Group 35"><path class="cls-36" d="M130.64,85.88c.83-4,3.9-6.75,6.87-6.14s4.72,4.35,3.9,8.35-3.9,6.76-6.87,6.15S129.82,89.89,130.64,85.88Z" transform="translate(-34.8 -13.63)"/><path class="cls-37" d="M130.64,85.88q.09-.41.21-.81a12.71,12.71,0,0,0,10.76.87,10,10,0,0,1-.2,2.15c-.82,4-3.9,6.76-6.87,6.15S129.82,89.89,130.64,85.88Z" transform="translate(-34.8 -13.63)"/><path class="cls-31" d="M132.6,87.84c.59-2.87,2.79-4.83,4.91-4.4s3.37,3.11,2.78,6-2.78,4.83-4.91,4.39S132,90.7,132.6,87.84Z" transform="translate(-34.8 -13.63)"/><path class="cls-1" d="M133.92,85.94a2.58,2.58,0,1,1,2.52,2.69A2.61,2.61,0,0,1,133.92,85.94Z" transform="translate(-34.8 -13.63)"/><path class="cls-1" d="M136.76,91.76A1.15,1.15,0,1,1,137.88,93,1.16,1.16,0,0,1,136.76,91.76Z" transform="translate(-34.8 -13.63)"/><path class="cls-38" d="M134.49,94.48c-3.1-.64-4.93-4.51-4.09-8.64.77-3.74,3.51-6.5,6.39-6.43a3.46,3.46,0,0,1,.78.09c3.09.63,4.93,4.51,4.08,8.64-.77,3.73-3.51,6.5-6.38,6.43A5,5,0,0,1,134.49,94.48ZM141.17,88c.79-3.86-.87-7.48-3.7-8.07a4,4,0,0,0-.69-.07c-2.64-.07-5.18,2.53-5.9,6-.79,3.87.87,7.49,3.71,8.07a4.06,4.06,0,0,0,.69.08C137.92,94.15,140.45,91.55,141.17,88Z" transform="translate(-34.8 -13.63)"/></g></g><g class="cls-3"><g id="Group_36" data-name="Group 36"><path class="cls-7" d="M104.56,102l.48.09c-.64,4.86,0,7.95,2.06,9.44l-.25.51C104.63,110.45,103.89,107.16,104.56,102Z" transform="translate(-34.8 -13.63)"/></g></g><g class="cls-3"><g id="Group_37" data-name="Group 37"><path class="cls-4" d="M125.4,42.79a18.93,18.93,0,0,0-9.16.51c.88-3,6.5-6.43,13.07-5.79-4.63-3.53-9.23-5.1-13.54-5,5.74-5.35,13.13-1.92,17.77,1.53-1-2.88-3.82-6.77-5.72-9,10.33,3.18,16.5,16,16.5,16l-14.6,4a19.73,19.73,0,0,0-7.1.24A6,6,0,0,1,125.4,42.79Z" transform="translate(-34.8 -13.63)"/><path class="cls-6" d="M125.4,42.79a18.93,18.93,0,0,0-9.16.51c.88-3,6.5-6.43,13.07-5.79-4.63-3.53-9.23-5.1-13.54-5,5.74-5.35,13.13-1.92,17.77,1.53-1-2.88-3.82-6.77-5.72-9,8.43,2.59,14.44,11.59,16.5,16-3.57-3.57-7.95-10-12.57-12.68A17.32,17.32,0,0,1,135.67,38c-4.8-5.47-9.56-7.15-14-6.86,3.86,2,8.21,3.61,10.55,8.06a16,16,0,0,0-13.73,2.59,20.72,20.72,0,0,1,11.22.27,20.76,20.76,0,0,0-4.93,1.84A12.71,12.71,0,0,1,129.88,45l-.16,0a19.73,19.73,0,0,0-7.1.24A6,6,0,0,1,125.4,42.79Z" transform="translate(-34.8 -13.63)"/><path class="cls-7" d="M122,45.66l.45-.63a7,7,0,0,1,2.14-2.16,19.68,19.68,0,0,0-8.31.66l-.45.15.13-.45c.84-2.83,5.93-6.35,12.49-6-4.23-3.06-8.5-4.56-12.72-4.46l-.64,0,.47-.44c6-5.62,13.76-1.53,17.42,1a37.36,37.36,0,0,0-5.39-8.16l-.53-.64.79.25A22.93,22.93,0,0,1,136.51,30a35.82,35.82,0,0,1,7.81,11A42.64,42.64,0,0,0,136,30.26a23,23,0,0,0-7.49-4.72c2,2.42,4.33,5.83,5.22,8.42l.26.74-.64-.47c-3.86-2.88-11.11-6.86-17-2,4.36.07,8.72,1.77,13.05,5.06l.68.52-.86-.09c-6.25-.61-11.41,2.52-12.63,5.16a19.35,19.35,0,0,1,8.82-.36l.7.22-.69.24a5,5,0,0,0-2.3,1.9,16.36,16.36,0,0,1,6.54.13,24.42,24.42,0,0,0-7,.48Z" transform="translate(-34.8 -13.63)"/></g></g><path class="cls-14" d="M126.31,158.49c16.88-6.74,28.8-1.47,34.75,18.25" transform="translate(-34.8 -13.63)"/><path class="cls-9" d="M161,176.57c0-.09-.09-.18-.13-.26s-.08-.18-.11-.27c-.11-.29-.22-.59-.34-.88s-.13-.35-.2-.52c-.2-.5-.39-1-.6-1.51a46.35,46.35,0,0,0-3-6.13,27.81,27.81,0,0,0-4.08-5.33,18.89,18.89,0,0,0-6.55-4.32,18.39,18.39,0,0,0-3.49-.95,23,23,0,0,0-5.43-.25,34.88,34.88,0,0,0-6.87,1.24c-.51.14-1,.28-1.54.44l-.78.24-.79.24-.33.1-.42.08.22-.14.14-.09.16-.08.38-.18c.46-.19.91-.39,1.38-.56a33.94,33.94,0,0,1,5.13-1.52,25.72,25.72,0,0,1,6.37-.58,20.12,20.12,0,0,1,4.56.69,17.78,17.78,0,0,1,3.5,1.37c4.71,2.43,8,6.79,10.24,11.51a39.46,39.46,0,0,1,2,5.26c.15.48.29,1,.42,1.44,0,.15.08.3.11.46s0,.12,0,.18l0,.2,0,.29Z" transform="translate(-34.8 -13.63)"/><path class="cls-14" d="M88.07,143.69c-2.32,3.81-5,8.34-5.07,11.92" transform="translate(-34.8 -13.63)"/><path class="cls-9" d="M82.78,154.76a6.42,6.42,0,0,1,0-1c0-.09,0-.17,0-.26s0-.41.08-.6.11-.59.19-.87a16.59,16.59,0,0,1,1.25-3.27,22.34,22.34,0,0,1,1.92-3.14c.28-.37.58-.75.89-1.09a5.23,5.23,0,0,1,1-.86,3.69,3.69,0,0,1-.16.79c-.1.33-.23.66-.36,1-.36.89-.77,1.75-1.19,2.62-.13.27-.26.54-.4.81l-.53,1.1c-.36.73-.7,1.48-1,2.23-.18.41-.35.83-.52,1.24-.08.21-.17.41-.24.61s-.15.39-.23.6-.13.35-.2.52l-.12.26c0,.05,0,.11-.08.17A2.55,2.55,0,0,1,82.78,154.76Z" transform="translate(-34.8 -13.63)"/><path class="cls-14" d="M58.93,153.81c7.61-1.81,15.54-1.22,24.19,5" transform="translate(-34.8 -13.63)"/><path class="cls-9" d="M82.65,158.59l-.89-.41c-.9-.44-1.79-.88-2.69-1.3a38.14,38.14,0,0,0-3.56-1.48c-.44-.15-.88-.31-1.33-.44s-1.11-.33-1.68-.47a31.16,31.16,0,0,0-8.11-.92c-1.07,0-2.14.08-3.22.14-.48,0-1,.07-1.46.09-.26,0-.52,0-.78,0A11,11,0,0,1,61,153l.43-.12c.41-.11.84-.21,1.27-.28l.51-.09c.46-.08.94-.14,1.4-.19l.71-.06c.62-.05,1.24-.06,1.87-.06.34,0,.69,0,1,0a17.87,17.87,0,0,1,2.19.23,23.83,23.83,0,0,1,7.4,2.42c.66.35,1.29.71,1.92,1.11l.65.44c.26.18.52.36.77.55l.55.43c.3.26.6.51.88.79.12.12.24.24.35.37l.17.18A2.72,2.72,0,0,1,82.65,158.59Z" transform="translate(-34.8 -13.63)"/><g class="cls-3"><g id="Group_38" data-name="Group 38"><path class="cls-29" d="M133.14,187.2c-5.08-1.33-15.32-5.73-19.18-6.64S87,184.35,79.45,184.31,63.65,183,60.5,180s-.13-9.65,3.56-13.21c4.43-4.23,10.52-7.13,19.43-5.52s21,5.49,27.07,6.09,8.33-2.2,10.77-4.74,9.84-7.87,11.36-5.55-5,4.84-6.08,7-1.07,3.48,3.68,3.79,13.46-3.61,14.47-1.91c1.81,3.26-8.5,6.95-14.75,7.69,6.79,2,17.32,1.17,17.83,3.19.71,4.74-14.63,4.11-20,3.37,2.67,2.16,13,4.7,13.09,6.37S138.21,188.54,133.14,187.2Z" transform="translate(-34.8 -13.63)"/><path class="cls-30" d="M125.43,172.84c6.86-.23,16.77-3.59,19.16-7.12a1,1,0,0,1,.17.18c1.81,3.26-8.5,6.95-14.75,7.69a37.29,37.29,0,0,0,6.3,1.16A25.06,25.06,0,0,1,125.43,172.84Z" transform="translate(-34.8 -13.63)"/><path class="cls-39" d="M83.33,162.83A28.65,28.65,0,0,0,67,164.4c4.1-2.83,9.4-4.41,16.5-3.13,8.91,1.62,21,5.49,27.07,6.09s8.33-2.2,10.77-4.74a29.71,29.71,0,0,1,7.85-5.53,42,42,0,0,0-7.22,6.8c-4.57,5.3-8.91,4.9-11.09,4.84C102.86,168.52,94.19,164.7,83.33,162.83Z" transform="translate(-34.8 -13.63)"/><path class="cls-30" d="M125.22,163.31c2.21-2.35,6.2-4.31,7.19-6.53a1.11,1.11,0,0,1,.28.29c1.51,2.32-5,4.84-6.08,7-.93,1.85-1,3.14,2.16,3.63a6.33,6.33,0,0,0-.64.06C126.31,167.78,124,165.33,125.22,163.31Z" transform="translate(-34.8 -13.63)"/><path class="cls-30" d="M128.82,180.79a28.43,28.43,0,0,1-5.38-3.2c8,1.78,19.32,2.33,24.4-.76.59,4.69-14.65,4-20,3.32a6.08,6.08,0,0,0,1,.64,8.42,8.42,0,0,0,1.44.72C129.73,181.27,129.24,181,128.82,180.79Z" transform="translate(-34.8 -13.63)"/><path class="cls-30" d="M133.14,187.2c-5.08-1.33-15.32-5.73-19.18-6.64S87,184.35,79.45,184.31,63.65,183,60.5,180s-.13-9.65,3.56-13.21c.4-.38.82-.75,1.24-1.11,5.39,16.32,29,12.43,43,10.44a17.55,17.55,0,0,1,9.38,1.71c6.94,3.56,15,8.19,23.24,8.88C140.82,188.21,138,188.49,133.14,187.2Z" transform="translate(-34.8 -13.63)"/><path class="cls-31" d="M133.07,187.48c-2.59-.68-6.47-2.14-10.21-3.55s-7.07-2.65-9-3.09-9.65.66-17.05,1.74c-6.79,1-13.82,2-17.4,2a52.32,52.32,0,0,1-13.77-1.67,13,13,0,0,1-5.38-2.72,4.81,4.81,0,0,1-1.41-3.61c0-3.57,2.56-7.69,5-10,5.42-5.18,11.86-7,19.68-5.58,4,.73,8.7,1.92,13.21,3.07a113,113,0,0,0,13.84,3c5.59.55,7.77-1.74,10.08-4.18l.45-.47c2.09-2.18,8.34-6.9,11-6.13a1.47,1.47,0,0,1,.85.61c1.08,1.66-1.12,3.23-3.25,4.75a9.93,9.93,0,0,0-2.81,2.49c-.52,1-.66,1.66-.46,2.11.31.71,1.56,1.12,3.9,1.26,2.18.14,5.26-.64,8-1.32s4.93-1.25,6.05-.92a1.1,1.1,0,0,1,.67.48,1.9,1.9,0,0,1,0,1.89c-1.39,2.69-8.39,5.15-13.57,6a62.42,62.42,0,0,0,9.09,1.17,37.26,37.26,0,0,1,6.09.78c.91.27,1.39.62,1.51,1.12a2.17,2.17,0,0,1-.67,1.95c-2.69,2.7-13,2.48-18.44,1.89a49.26,49.26,0,0,0,5.67,2.39c4,1.52,6.45,2.5,6.53,3.53a1.34,1.34,0,0,1-.5,1.2C139.65,188.58,136.94,188.5,133.07,187.48Zm7.27-.22a.78.78,0,0,0,.3-.72c-.06-.72-3.45-2-6.16-3s-5.57-2.11-6.82-3.13l-.79-.63,1,.13c5.4.74,16.56,1,19.17-1.58a1.62,1.62,0,0,0,.52-1.44c-.06-.25-.45-.49-1.11-.68a35.57,35.57,0,0,0-6-.76,55.44,55.44,0,0,1-10.43-1.51l-1.44-.43,1.36-.16c5.64-.67,13.22-3.4,14.52-5.93a1.34,1.34,0,0,0,0-1.34.55.55,0,0,0-.33-.22c-1-.28-3.29.31-5.74.93-2.76.69-5.89,1.49-8.16,1.34-2.64-.17-4-.65-4.4-1.61a3.21,3.21,0,0,1,.47-2.59,10.1,10.1,0,0,1,3-2.69c1.91-1.37,3.89-2.78,3.11-4a.94.94,0,0,0-.53-.38c-2.13-.62-8,3.51-10.38,6l-.45.47c-2.3,2.43-4.68,4.94-10.56,4.36-3.37-.33-8.49-1.65-13.92-3-4.5-1.15-9.15-2.33-13.17-3.07-7.62-1.38-13.9.4-19.18,5.44-2.32,2.24-4.81,6.2-4.8,9.6a4.3,4.3,0,0,0,1.23,3.2,12.56,12.56,0,0,0,5.15,2.59A52,52,0,0,0,79.45,184c3.54,0,10.54-1,17.31-2,7.8-1.14,15.17-2.23,17.27-1.73.29.06.61.15,1,.25,2,.59,5,1.69,8.07,2.86,3.72,1.4,7.59,2.85,10.15,3.53C136.79,187.87,139.46,188,140.34,187.26Z" transform="translate(-34.8 -13.63)"/></g></g><path class="cls-29" d="M130.12,193.52c-3-3-4.3-10.82-4.48-18.07s3.89-29.45,3-33.13,1.67-10.48.29-15.32c0-.13-.07-.26-.11-.39a7,7,0,0,0-.05,2.42c-2-2.44-1.26-6.62.05-2.42.74-3.62,4.48-5.15,6.2.22.59-6,3.94-15.94,7.1-14.26,1.65.92-2,9.33-1.57,13.88s1.7,4.52,3.7,3.46.56-8.59,2.81-7.17-2.73,8.59-5.12,11-1.29,5.79-.6,11.64,4.61,17.31,6.33,25.81-1,14.39-4.93,18.71C139.36,193.47,133.09,196.49,130.12,193.52Z" transform="translate(-34.8 -13.63)"/><path class="cls-30" d="M133.76,120.81a34.84,34.84,0,0,0,1.22,6c.59-6,3.94-15.94,7.1-14.26a.49.49,0,0,1,.17.15c-3.34,2.35-6.37,11.91-6.47,18.48A24,24,0,0,1,133.76,120.81Z" transform="translate(-34.8 -13.63)"/><path class="cls-30" d="M130.12,193.52c-3-3-4.3-10.82-4.48-18.07s3.89-29.45,3-33.13-1.83-12.27-3.21-17.11c-1.31-4.64-1.1-7.34.34-7.46.81,7.83,1.87,14.38,5.41,21a16.93,16.93,0,0,1,1.82,9c-1.65,13.5-5,36.13,10.78,41-.34.42-.68.82-1,1.21C139.36,193.47,133.09,196.49,130.12,193.52Z" transform="translate(-34.8 -13.63)"/><path d="M129.93,193.72a12.38,12.38,0,0,1-2.71-5.11,50.32,50.32,0,0,1-1.85-13.16c-.09-3.43.77-10.17,1.6-16.69.91-7.12,1.85-14.47,1.36-16.37-.37-1.48-.9-4-1.85-6.77l-.77-2a6.5,6.5,0,0,1-.42-2.71.09.09,0,0,0,0,0v0c0-2.67.9-5.29.39-7.11-.15-.53-.29-1-.4-1.44a3.75,3.75,0,0,1-.34-1.37c-.28-1.25,0-1.05,1,1.49a47.78,47.78,0,0,0,2.39,5.38c-.66-5.2,5.88-5.16,6.58-2.44.73-5,3-11.73,5.52-13.11.62-.33,1,.19,1.56.5a1,1,0,0,1,.48.64c.33,1.06.06,2.72-.53,5.26s-1.3,5.59-1.12,7.67.59,3.42,1.28,3.71c.43.19,1,0,2-.47.71-.38-3.57-4.77-2.77-5.93,1.42-2.07,2.89-4.21,4.48-3.2a1.37,1.37,0,0,1,.61.8c.78,2.49,0,10.62-2.09,12.67l-.44.44c-1.42,1.4-1.28,3.89-2,6a11.19,11.19,0,0,0-.34,4.87,107.4,107.4,0,0,0,3.14,13.19c1.18,4.3,2.41,8.74,3.18,12.6,1.5,7.46-.13,13.66-5,18.95-2.18,2.34-6.07,4.89-9.49,4.94A4.63,4.63,0,0,1,129.93,193.72Zm12.57-4c4.73-5.16,6.32-11.2,4.86-18.48-.77-3.84-2-8.27-3.18-12.56A109,109,0,0,1,141,145.38a11.82,11.82,0,0,1,.37-5.12c.73-2.24.67-4.8,2.09-6.2-.62-1.14-1-2,.44-.45,2.33-2.31,2.59-10.08,1.95-12.11a.9.9,0,0,0-.37-.5c-1.16-.72-2.48,1.2-3.75,3-.88,1.27,3.41,5.66,2.58,6.1a3,3,0,0,1-2.48.5c-.92-.39-1.41-1.66-1.62-4.18-.18-2.17.52-5.18,1.14-7.84.55-2.36.83-4.06.54-5a.53.53,0,0,0-.21-.32c-.41-.21-.59-.74-1.05-.49-2.4,1.29-4.87,8.6-5.41,14l-.13,1.31-.44-1.37c-.94-3-6.48-3-5.68,2.19l.15,1-.62-.74a18.47,18.47,0,0,1-2.22-4.25c-.1,1.71-.94,3.85-1,6a.09.09,0,0,0,0,0v0a7.78,7.78,0,0,0,.52,2.83c.24.62.47,1.23.67,1.83.88,2.22,1.65,4.24,2.12,5.72.1.34.19.64.26.92.51,2-.39,9.08-1.35,16.57-.82,6.5-1.68,13.23-1.59,16.61a49.63,49.63,0,0,0,1.82,13,11.93,11.93,0,0,0,2.57,4.88,4.1,4.1,0,0,0,3.09,1.12C136.66,194.4,140.4,191.94,142.5,189.69Zm-16.3-66c-.63-2.21-1.21-3-1.26-2.66s.19.81.34,1.37c0,.1.08.21.13.32.3.75.6,1.51.9,2.23A3.71,3.71,0,0,0,126.2,123.7Z" transform="translate(-34.8 -13.63)"/><path class="cls-14" d="M125.67,132.88l2.65,8.8" transform="translate(-34.8 -13.63)"/><path d="M128.33,141.68l-.32-.5-.25-.53-.44-1.07-.73-2.18-.59-2.22-.23-1.13-.08-.57,0-.6.32.51.25.52.44,1.07.72,2.18.6,2.22.23,1.13.08.58Z" transform="translate(-34.8 -13.63)"/><path class="cls-14" d="M128.63,142.9c-3.31-8.3-4.4-15-4.07-20.69a45.64,45.64,0,0,1-3.31-9.36c0-2.84,2.58-3.6,3.63-2.43.63-1.18,9-1.79,14-.77a3.13,3.13,0,0,1,1.89,2.7c2.64,1.1,3.16,2.26,3,3.44a11.36,11.36,0,0,1,3.68,1.19,35.45,35.45,0,0,1-6.08,23.36" transform="translate(-34.8 -13.63)"/><path d="M127.92,141.23c-.27-.66-.53-1.32-.78-2-.47-1.3-.9-2.62-1.28-4a46.37,46.37,0,0,1-1.31-6.17c-.09-.6-.16-1.21-.22-1.82,0-.34,0-.69-.08-1a33.2,33.2,0,0,1,0-4,56.11,56.11,0,0,1-2.67-6.71c-.18-.6-.35-1.2-.5-1.82,0-.18-.08-.37-.13-.56s0-.22-.06-.31a2.44,2.44,0,0,1,0-.27,4.06,4.06,0,0,1,.08-.7,3.31,3.31,0,0,1,.7-1.46,2,2,0,0,1,.24-.26l.12-.1a2,2,0,0,1,.3-.21,2.46,2.46,0,0,1,1.81-.35,2,2,0,0,1,.41.13l.13.07.12.06.13.09s0,0,0,.05a1.29,1.29,0,0,1,.73-.45,11.14,11.14,0,0,1,1.41-.34c.56-.11,1.14-.18,1.71-.24.9-.09,1.83-.15,2.74-.17l.9,0h1c.57,0,1.13,0,1.71.07.32,0,.65,0,1,.07s.89.08,1.34.14l.41.06.81.14.27,0,.09,0a.09.09,0,0,1,.05,0l.15.09.43.29.13.1.19.15a3.81,3.81,0,0,1,.82,1l.1.19s0,.08.05.12a2.08,2.08,0,0,1,.12.32c0,.13.06.25.08.39s0,.11,0,.16,0,0,0,0l.33.16a4.26,4.26,0,0,1,2.59,2.59,2.76,2.76,0,0,1,0,.64l.44.09.45.11c.32.08.63.17.95.28a9.63,9.63,0,0,1,1.19.5l.57.3a38.67,38.67,0,0,1,.09,5c0,.41,0,.82-.08,1.23-.07.74-.14,1.48-.25,2.22-.07.44-.15.89-.23,1.33,0,.22-.09.44-.13.66l-.12.56c-.1.45-.22.9-.34,1.35a33.37,33.37,0,0,1-1.81,5,33.77,33.77,0,0,1-2.25,4.19c-.26.43-.54.85-.83,1.27l-.25.37a3.71,3.71,0,0,0-.23.32,3.79,3.79,0,0,1,.2-.34l.26-.44c.3-.5.59-1,.87-1.53s.49-.93.72-1.41.46-.93.67-1.4.29-.67.43-1,.35-.84.49-1.26.27-.72.39-1.09.22-.66.32-1,.28-.95.4-1.42c0-.2.09-.39.14-.58.1-.38.19-.78.26-1.17l.09-.43c.08-.4.14-.8.21-1.2,0-.16.05-.32.07-.48.05-.42.11-.85.15-1.27.06-.58.12-1.17.14-1.75,0-.21,0-.41,0-.62s0-.49,0-.73,0-.37,0-.55c0-.48,0-1,0-1.43s0-1-.08-1.47c0-.19,0-.37,0-.56-.21-.11-.42-.21-.64-.3a12.16,12.16,0,0,0-1.8-.57c-.44-.09-.88-.16-1.32-.23,0-.14,0-.27,0-.41s0-.23,0-.35,0-.23,0-.35,0-.05,0-.08a1.31,1.31,0,0,0-.05-.15,2.27,2.27,0,0,0-.58-.83,4.33,4.33,0,0,0-.47-.38,7.38,7.38,0,0,0-1.2-.67c-.21-.1-.44-.19-.66-.28a2.9,2.9,0,0,0-.06-.78.83.83,0,0,0,0-.15.36.36,0,0,0,0-.11,2,2,0,0,0-.25-.45,3.06,3.06,0,0,0-.52-.56c-.11-.1-.23-.19-.35-.28l-.37-.24-.65-.12-1.06-.14c-.53-.07-1.07-.11-1.6-.15-1.18-.08-2.36-.09-3.54-.07-.64,0-1.28,0-1.92.08l-1.22.1a18.92,18.92,0,0,0-2.39.4c-.22,0-.44.12-.65.19a1.5,1.5,0,0,0-.45.24.2.2,0,0,0-.06.07c-.1.14-.19.29-.28.44l-.37-.38-.08-.08a1.52,1.52,0,0,0-.38-.24,1.59,1.59,0,0,0-1.21.08l-.19.11a1.87,1.87,0,0,0-.35.28,2.06,2.06,0,0,0-.27.33,2.34,2.34,0,0,0-.15.27,1.28,1.28,0,0,0-.11.27,3.23,3.23,0,0,0-.19,1.08c.12.55.24,1.09.38,1.62a42.43,42.43,0,0,0,1.75,5c.22.54.44,1.08.68,1.62l.31.72a2,2,0,0,1,.1.21l0,.1h0s0,.11,0,.14,0,.2,0,.29c0,.64-.06,1.28,0,1.91,0,.47,0,.94,0,1.41,0,.19,0,.38,0,.57,0,.64.09,1.26.15,1.89s.11,1,.18,1.53.11.73.17,1.09c.17,1,.37,2.07.6,3.1a80,80,0,0,0,2.64,8.83C128.38,142.35,128.14,141.79,127.92,141.23Zm-3.7-19a.28.28,0,0,0,0,.09l0,.07A.9.9,0,0,1,124.22,122.19ZM147.08,117c0,.07,0,.14,0,.21l.18.09Zm-2.89-1.4s0-.09,0-.14l-.36-.06.32.43Zm-22.54-2.8a.06.06,0,0,0,0,0,.28.28,0,0,1,0,.09Zm19.56-.74L141,112l.25.37C141.22,112.25,141.21,112.16,141.21,112.07Zm-16-1.94a1.42,1.42,0,0,0-.22-.2.49.49,0,0,0-.42.27ZM138.7,110l.07,0h.07Z" transform="translate(-34.8 -13.63)"/><path class="cls-29" d="M124.56,122.21a45.64,45.64,0,0,1-3.31-9.36c0-2.84,2.58-3.6,3.63-2.43.63-1.18,9-1.79,14-.77a3.13,3.13,0,0,1,1.89,2.7c2.64,1.1,3.16,2.26,3,3.44a11.36,11.36,0,0,1,3.68,1.19,35.45,35.45,0,0,1-6.08,23.36L129,142.65C125.69,134.35,124.23,127.93,124.56,122.21Zm10.26-1.61a6.34,6.34,0,0,1-2.94-1.71,2.51,2.51,0,0,1,.06-2.17l-4.24.5,1.09,2.83,2,3C132.47,122,133.52,121.48,134.82,120.6Z" transform="translate(-34.8 -13.63)"/><path class="cls-14" d="M141.34,122c-4.73-1.12-11.34-1.55-9.37-5.17,4.23-.78,11-2.11,15.48.17a35.45,35.45,0,0,1-6.08,23.36" transform="translate(-34.8 -13.63)"/><path d="M141.84,139.58c.35-.58.68-1.16,1-1.75a38.28,38.28,0,0,0,2.55-5.65c.24-.68.47-1.38.66-2.07.12-.44.24-.88.35-1.31.18-.73.32-1.46.46-2.19q.1-.58.18-1.17c.06-.4.12-.8.16-1.2l.06-.66c0-.16,0-.32,0-.48s0-.34,0-.51,0-.54,0-.81c.05-1.11.05-2.24,0-3.35,0-.44-.06-.89-.09-1.33a7.37,7.37,0,0,0-1-.44c-.3-.1-.6-.2-.91-.28s-.76-.18-1.15-.25a19.38,19.38,0,0,0-2.75-.24c-.86,0-1.72,0-2.58.08-2.29.17-4.53.57-6.78,1a2.62,2.62,0,0,0-.29.81,1.44,1.44,0,0,0,0,.46c.13,1,1.18,1.51,2,1.87.19.08.38.14.58.21s.56.19.84.27l1.06.28.86.2,1.27.27,1.23.27q.65.14,1.29.3l.45.11-2.62-.49-1.58-.29c-.53-.11-1.06-.22-1.58-.35l-.68-.17-.71-.22-.42-.15a3.87,3.87,0,0,1-2.08-1.5l-.09-.21a1.77,1.77,0,0,1-.06-1,2.1,2.1,0,0,1,.06-.24c0-.1.07-.19.1-.29l.2-.4,2.22-.4c1.47-.26,3-.49,4.46-.62.56-.05,1.14-.08,1.7-.1h.5c.49,0,1,0,1.46,0a15.38,15.38,0,0,1,3.5.55,10.69,10.69,0,0,1,1.34.48c.19.08.38.18.56.27,0,.49.07,1,.1,1.48s0,.74,0,1.11c0,.15,0,.29,0,.44,0,.51,0,1,0,1.52a33.23,33.23,0,0,1-.36,4c-.11.74-.23,1.48-.4,2.21,0,.12,0,.25-.08.37s-.12.54-.19.8-.09.35-.14.52-.12.44-.18.66-.11.39-.18.58-.13.44-.21.66-.13.39-.2.58c-.18.52-.38,1.05-.59,1.56s-.36.85-.55,1.27a37.05,37.05,0,0,1-1.79,3.42c-.33.55-.67,1.08-1,1.62-.15.23-.32.45-.47.69C141.52,140.09,141.68,139.84,141.84,139.58Zm-9.77-22.65,0-.06-.1.08Zm15.2.07a.31.31,0,0,1,0,.1l.09,0A.71.71,0,0,0,147.27,117Z" transform="translate(-34.8 -13.63)"/><path class="cls-14" d="M140.77,112.33c-5,.22-13.73.35-15.87,1.81-1.05.72.42,3.14,3.39,2.89a38.89,38.89,0,0,0,5.08-.49" transform="translate(-34.8 -13.63)"/><path d="M125.58,116.57l-.32-.23-.24-.23-.19-.21a2.2,2.2,0,0,1-.17-.25,1.39,1.39,0,0,1-.17-1.28,1.14,1.14,0,0,1,.15-.23,1.63,1.63,0,0,1,.44-.3l.39-.19.57-.19c.19-.07.38-.11.57-.16.46-.12.94-.21,1.41-.29,1.23-.19,2.47-.31,3.7-.41.32,0,.63,0,.94-.06l2.1-.1c1.1,0,2.19-.08,3.29-.09l1.22,0c.29,0,.58,0,.87,0h.63c-.57.06-1.14.1-1.71.13l-1.74.11-3.85.24c-1,.07-2,.14-3,.25-1.16.13-2.3.27-3.44.51-.26.06-.53.13-.79.21a4.71,4.71,0,0,0-1.2.51.69.69,0,0,0-.17.17.52.52,0,0,0-.06.13,1.13,1.13,0,0,0,.17.89,3,3,0,0,0,1.67,1.23,4.58,4.58,0,0,0,.64.15,4,4,0,0,0,.78,0h.32l1-.05c.8,0,1.61-.07,2.41-.14.37,0,.74-.06,1.1-.11l.47-.06a15.47,15.47,0,0,1-2.16.37c-1,.11-1.94.18-2.91.25A4.32,4.32,0,0,1,125.58,116.57Zm-.58-2.28h0Z" transform="translate(-34.8 -13.63)"/><path class="cls-14" d="M124.85,110.31a2,2,0,0,0-.07.23,3.2,3.2,0,0,0,1,3" transform="translate(-34.8 -13.63)"/><path d="M125.14,113c-.07-.09-.12-.18-.18-.27a2.45,2.45,0,0,1-.39-1.56,1.45,1.45,0,0,1,0-.3,1.63,1.63,0,0,1,.11-.31.71.71,0,0,1,.13-.22,2.09,2.09,0,0,1,0,.25v.17c0,.17,0,.34,0,.5a3.24,3.24,0,0,0,.22.93,4.68,4.68,0,0,0,.38.78,5,5,0,0,1,.32.6A2.17,2.17,0,0,1,125.14,113Z" transform="translate(-34.8 -13.63)"/><path class="cls-40" d="M119,125.75l2.16,1c-.26.73-.53,1.47-.86,2.22a3.18,3.18,0,0,1-2.18.35C117.25,128.21,118.15,127,119,125.75Z" transform="translate(-34.8 -13.63)"/><path class="cls-30" d="M124.56,122.21a45.64,45.64,0,0,1-3.31-9.36c0-2.84,2.58-3.6,3.63-2.43.63-1.18,9-1.79,14-.77.83.49-10.43-1.77-14.41,1.93-2.34,2.18,1.6,10.1,1.92,12-.79,6.94,3.11,12.59,6,18.59-1.14.49-2.19,1.13-3.47.83C125.69,134.69,124.23,127.93,124.56,122.21Z" transform="translate(-34.8 -13.63)"/><path class="cls-41" d="M120.93,127.26c-1-.72-1.85-1-2.5-.56l6.86-13.88.47.81c-2.08,1-1.22,1.94,0,2.83Z" transform="translate(-34.8 -13.63)"/><path class="cls-14" d="M139.78,125.71c-2.13,5.63-10,6.45-7.58,14.25" transform="translate(-34.8 -13.63)"/><path d="M132.05,139.57a8.81,8.81,0,0,1-.32-1.25,2.51,2.51,0,0,0,0-.27,5.11,5.11,0,0,1-.05-.55,6.66,6.66,0,0,1,0-1,6,6,0,0,1,.19-1,6.36,6.36,0,0,1,.35-.95,5.25,5.25,0,0,1,.39-.7c.08-.14.17-.28.26-.41a16.7,16.7,0,0,1,2.73-2.78l.7-.62c.47-.41.92-.83,1.36-1.27a11.91,11.91,0,0,0,1.49-1.83c.25-.39.45-.79.66-1.2a6.32,6.32,0,0,1-.32.86c-.08.14-.14.29-.22.43a8.77,8.77,0,0,1-.72,1.11c-.13.17-.27.35-.42.52s-.21.25-.32.36l-.33.35-.72.7c-.58.54-1.18,1.06-1.76,1.59a13,13,0,0,0-1.91,2.08,5.79,5.79,0,0,0-.38.58.8.8,0,0,0-.08.16l-.09.15a6.75,6.75,0,0,0-.56,1.73l0,.2a5.8,5.8,0,0,0,0,.93,9.68,9.68,0,0,0,.18,1.78l.09.45a1.18,1.18,0,0,0,.06.27A2.62,2.62,0,0,1,132.05,139.57Z" transform="translate(-34.8 -13.63)"/><path class="cls-39" d="M145.77,171.46c-2-10.37-5.81-18.61-6.16-26.27-.1-2.08-.71-3.71,3-9.91,1.69-2.08,2.33-5.67,3.94-9.2.3,1.21-2.55,10.47-4.77,13.34a12.44,12.44,0,0,0-.83,6c.69,5.85,4.61,17.32,6.33,25.82,1.36,6.77-.06,11.88-2.7,15.86A27.43,27.43,0,0,0,145.77,171.46Z" transform="translate(-34.8 -13.63)"/><path class="cls-14" d="M130.82,123.1l-2-3-1.09-2.83,4.24-.5a2.51,2.51,0,0,0-.06,2.17,6.34,6.34,0,0,0,2.94,1.71C133.52,121.48,132.47,122,130.82,123.1Z" transform="translate(-34.8 -13.63)"/><path d="M130.76,123.4l-.12-.18-2-3.08h0v0l-.51-1.43-.24-.72-.19-.73h0l1-.22,1.05-.17,2.11-.3.36,0-.17.31L132,117l-.05.13,0,.13,0,.13,0,.13V118l0,.12,0,.13,0,.12.07.25.07.21.09.12.12.13.14.12.14.12.16.11.16.1.18.1.18.1.19.1.2.09.41.17.43.17.42.17.42.16-.38.25-.24.16-.24.15-.23.15-.23.14-.47.28-.46.27-.24.14-.24.15-.26.15-.25.15-.27.17-.28.18-.29.18-.14.1-.16.11ZM131,123l-.13-.19,0,0-.15.11Zm-.13-.19.13-.08.29-.2.28-.18.27-.17.26-.16.25-.16.24-.14.24-.15.47-.27.45-.28.23-.14.23-.14.1-.06h0l-.43-.17-.42-.18-.2-.1-.2-.1-.2-.11-.19-.11-.19-.12-.17-.13-.17-.14-.15-.14-.14-.16-.13-.17,0,0v0l-.08-.27-.07-.27,0-.14,0-.14v-.58l0-.15,0-.16.05-.15.06-.16h0l-1.78.17-1.07.09-1.07,0,.36.67.3.69.57,1.38Zm3.86-2,0-.41-.23.16-.14.09Zm-5.79-.83v0h0Zm3.15-1.16v0l0,0Zm-4.39-1.6Zm3.92-.29.34,0-.19-.27-.08.15Z" transform="translate(-34.8 -13.63)"/><path class="cls-42" d="M104,113.91c1.38-2.42,2.68-2.49,4-2.15,1.1.78,1.84.55,4.22,3.33C109,113.24,105.71,115.46,104,113.91Z" transform="translate(-34.8 -13.63)"/><path class="cls-14" d="M103.89,114c2.48-4.15,5.52-1.93,8,.83" transform="translate(-34.8 -13.63)"/><path d="M111.63,114.61l-.59-.54a1.54,1.54,0,0,1-.19-.17l-.47-.4a10.67,10.67,0,0,0-1.52-1.07l-.25-.13a4.4,4.4,0,0,0-.5-.21,3.1,3.1,0,0,0-1.17-.2h-.23l-.09,0-.23,0a3.4,3.4,0,0,0-.34.12,3.35,3.35,0,0,0-1,.61,2.72,2.72,0,0,0-.3.29c-.13.13-.25.25-.36.38s-.35.43-.52.64a4.76,4.76,0,0,1,.82-1.3,3.38,3.38,0,0,1,.81-.7,2.46,2.46,0,0,1,.65-.32,2.42,2.42,0,0,1,.71-.14,2.9,2.9,0,0,1,.72,0,5.25,5.25,0,0,1,2.31,1.15,8,8,0,0,1,.69.6c.18.18.36.36.53.55s.37.42.54.64l.23.31C111.8,114.76,111.72,114.68,111.63,114.61Z" transform="translate(-34.8 -13.63)"/><path class="cls-14" d="M103.74,115.71c2.63,3.85,4.81,3,6.87.84" transform="translate(-34.8 -13.63)"/><path d="M106.82,118.7a4.18,4.18,0,0,1-2.5-1.82,3.77,3.77,0,0,1-.58-1.17c.19.14.35.29.52.44l.52.48A4.64,4.64,0,0,0,107,118a2.34,2.34,0,0,0,.7,0,3,3,0,0,0,1-.29,12.27,12.27,0,0,0,1.56-.92l.37-.2a1.68,1.68,0,0,1-.21.37,4.73,4.73,0,0,1-.61.72,4,4,0,0,1-1.78,1,3.23,3.23,0,0,1-.53.08A3.6,3.6,0,0,1,106.82,118.7Z" transform="translate(-34.8 -13.63)"/><path class="cls-1" d="M63.72,159.57a.61.61,0,0,1,.22-.65c.36-.28.84.31,1,0,.39-.7-.44-1.57,0-2a1.84,1.84,0,0,1,1.66-.16c.76.21,1,.72,1.43,1.19a3.25,3.25,0,0,0,2.47.06,2.08,2.08,0,0,0,.35-2.74c1.44.43,3.05,2.2,2.43,3.82a3.82,3.82,0,0,1-3.47,2.35c-.64,0-1.26-.3-1.89-.31-1.43,0-1.67.67-2.44.44C64.88,161.37,64.16,160.37,63.72,159.57Zm-15.7.59c0-.44,1-.75,1.42-.9s.65-.84,1.1-.81a.69.69,0,0,1,.52.89c-.34.75-1.3.89-2.1,1.13C48.64,160.57,48,160.49,48,160.16Zm3.65-3c-.89-.79-2.78-.93-3.15-2.07-.11-.34-.05-1.05.38-1.2s1.77.06,1.83-.42a3.57,3.57,0,0,0-1.43-3c-.69-.59-1.74.51-2.77-.34a3.18,3.18,0,0,1,.19-4.78A1.14,1.14,0,0,0,48,147c1.21-.37,1.27-2,.59-3.22-.92-1.74-2.48-2.58-1.89-5.62a3.07,3.07,0,0,1,1.69-2.41c.57.39,1.62.68,2,.18a3.57,3.57,0,0,0,.25-3.35c-.25-.62-1-1.07-.8-1.62a6.62,6.62,0,0,1,3.26-3.61c.56-.33,1.24.13,2.15-.28a6.8,6.8,0,0,0,1.83-1.31c.39.09.76.27.83.62.16.84-1,2.29-.22,2.53,1.26.39,3.29-3.4,4.94-2.4,1.27.76-.69,2.11-.08,2.45.31.19.78,0,1.08.19s.2,1.05.62,1.12c1,.17,2-.56,3.07-.51s2.42,1.69,3.1.85c1.3-1.56-2-2.75.61-4.67,1.11-.78,1.61,0,2.28.22a2.85,2.85,0,0,1,1.29.49,15.88,15.88,0,0,1,2.27,3c.29.48.09,1.31.58,1.57.79.44,2-.24,2.73.26a5.23,5.23,0,0,1,2.18,2.91c.23.82-.83,1.62-.7,2.48.42,2.76,2.89,5.06,4.9,4,.67-.36,1.52-1.16,1.49-1.75-.09-1.29-2.74-3-1.65-5a4.14,4.14,0,0,1,2.79-1.56c-.17.5-.64,1.57.12,1.94,1.75.83,3.3-2.36,5.27-2.53a4.66,4.66,0,0,1,3.83,1.29c.76.74,2.62-.24,3.12-1.16a3.68,3.68,0,0,0-.1-3.47c-1.13-1.77,4.79-13.18,5.21-13.82.58-.89.48-2.38,1.17-2.84s0,3.3-.63,4c-1.12,1.2-3.76,9.82-3.1,10.63a4.67,4.67,0,0,1,.88,1.82,4.59,4.59,0,0,1,.27,1.45c-.45,3-1.48,1.05-1.74,1.53s1.11,1.6.45,2.56c-.95,1.33-1.55,1.58-3.35,2.33-2.15.9-2-2.92-5-1.59-1.71.76-.47,3-.89,3.43-.83.95-2.44,2.21-2.58,3.13-.1.61,1.44.87,1.15,3.69-.09.85-1,1.73-1.77,2.7a7.75,7.75,0,0,1-6.88,2.5C82.19,149.72,82.89,148,82,147c-.46-.51-.49-.92-1.1-1.23-1.06-.53-1,.28-3.77-1.18-2.08-1.11-2.6-4.2-4.67-5.31-1.39-.73-3.66-.86-4.7.33s-.51,3.36.34,4.67c.56.88,2.47-.2,3.07.66a3.21,3.21,0,0,1,.32,1.67,10.85,10.85,0,0,1,.12,1.76c-.21,2.8-2.28,4.76-4.62,4.57-1.24-.09-.49-2.88-3.08-2.12s.4,2.18-2.68,5.37a3.29,3.29,0,0,1-4.34.71A1.78,1.78,0,0,1,55,158.64,4.22,4.22,0,0,1,51.67,157.15Zm-6.84.45c-.63-.38-1.13-.31-1.82-1.26-.51-.7-.84-1-.8-1.76s.62-.73.82-1.84c.11-.6-.7-1.4-.35-1.58s1.49.28,1.9.84c1.66,2.35-.61,2.79.38,3.85,1.39,1.5.87-1.08,1.6-.55a3.73,3.73,0,0,1,1.68,1.88c.06.16-.78,1.25-1.07,1.24A4,4,0,0,1,44.83,157.6Zm-3.62-23.42c0-3.25,2.5-2.86,2.71-3.55s-.62-1-.16-2a2.56,2.56,0,0,1,1.11-.88c1-.51,1-1.24,2.79-1.37.47,0,.67.82,1.15,1-.25.17-1-.14-1.38.15-.83.66-1.93,2.24-1.27,3.06.51.65,1.26-.66,1.26-.24a3.41,3.41,0,0,1-1.34,2.2c-.57.48-1.37-.17-1.81.14-1.06.74-2.22,2.13-.93,5.21C43,136.66,41.22,135.61,41.21,134.18ZM66,124.84c-.78-.4-.87-1-1.93-1.44-.42-.18-1.22.93-1.42.5s-.46-1.77.23-2.06c1.7-.73,2.63,2.06,4.07,3.1C66.31,124.76,66.26,125,66,124.84Z" transform="translate(-34.8 -13.63)"/><path class="cls-1" d="M117.33,126.6c-.06-.39.33-.53.19-1.18a3.94,3.94,0,0,0-.68-1.36,2.22,2.22,0,0,1-.33-1.08,2.13,2.13,0,0,1,.36-1c.68-1.14,1.67-2.37,1.29-3.89a1.82,1.82,0,0,0-.85-1.08,1.72,1.72,0,0,0-1.23-.25,5.12,5.12,0,0,1-2.26-.48c-.75-.31-1.82-1.42-1.68-2.39.3-2.2,1.75-1.92,2.87-2.47a4.68,4.68,0,0,0,.82-.58c.55-.47,1.1-.59,1.59-1.45a3.72,3.72,0,0,0,.47-1.88c0-.73-.14-1.73-.79-2.08a1.92,1.92,0,0,0-2.13.5c-1,1.08-1,2-1.61,2.86a2.71,2.71,0,0,1-3.93.71,2.79,2.79,0,0,1-.85-2.84,11.89,11.89,0,0,1,.94-1.7c.14-.27.35-.59.26-.88-.18-.53-.75-.88-1-1.34a1.73,1.73,0,0,1-.14-1.3,2.4,2.4,0,0,1,.82-1.23,5.7,5.7,0,0,1,3.79-1.08c.37,0,.74,0,1.11,0s1.09-.1,1.24-.76a1.42,1.42,0,0,0-.42-1.19,7,7,0,0,0-2.58-1.42.79.79,0,0,1-.46-.84.8.8,0,0,1,.48-.62c.23-.1.58-.15.69-.28s0-.43-.33-.52c.35,0,.7.28.65.59s-.35.33-.4.59c0,.1.11.27.19.32a22,22,0,0,1,3.22,2,3.45,3.45,0,0,1,1,2,1.83,1.83,0,0,1-.89,1.61c-.91.56-2.12.69-3,1.37a.47.47,0,0,0-.22.47c0,.27.38.07.43.31s-.4.67-.51,1a1.11,1.11,0,0,0,.15,1.23.5.5,0,0,0,.59,0,15.36,15.36,0,0,0,2.74-2.46c.29-.54,1.66-.63,2.45,0a2.16,2.16,0,0,1,1.07,1.87c0,1.46,0,3.45-.41,4.4-.86,1.93-1.94,2.64-3.11,3.93-.23.26-.87,1.06-.6,1.6a.74.74,0,0,0,.79.38c1-.17,2.11-1.14,2.85-1.22.31,0,.45.21.54.39.41.89-.18,1.81-.25,2.22a1.19,1.19,0,0,1,.59.78,3.87,3.87,0,0,1-.24,2.28c-.47,1.36-1.79,2.41-2.56,3.7a1.83,1.83,0,0,0-.28,1,1.1,1.1,0,0,0,.24.67c.16.21.41.2.52.61a.89.89,0,0,1-.09.6c-.17.35-.54.45-.58.78-.08.55.89.76.41,1.8C118.3,127.25,117.43,127.22,117.33,126.6Z" transform="translate(-34.8 -13.63)"/><path class="cls-1" d="M86.68,162.8a2.42,2.42,0,0,1-.25-1.9c.57-.78,1.84.29,2.18-.6.55-1.44,1.72-1.9,2.54-1.46a1.36,1.36,0,0,1,.67,1.48c-.08.41-.93.39-1.14.81s.27,1.19-.14,1.47c-.77.56-1.29,1.18-2.29,1.21A2.73,2.73,0,0,1,86.68,162.8Zm-7.3-3.88a1.62,1.62,0,0,1-.95-1.06.75.75,0,0,1,1.16-.65c.24.17-.57,1,1,1.57C80.54,159.05,79.78,159.09,79.38,158.92Zm1.09-3.13c-.37-.31,0-1.13,0-1.58s-2.44-1.35-2.94-1.12a3.06,3.06,0,0,1-2.79-.68,16.35,16.35,0,0,1-1.6-3.76c0-.6.91-.78,1.27-1.21a6,6,0,0,1,2.44-1.76c.6-.23,1.51.1,2.1-.13.81-.31,1.9-1.73,2.82-3,.46-.61-.39-1.07-.09-2a3.86,3.86,0,0,1,2.66-2.5c3.56-.73,4.49,1.39,5.93.77,2.19-.94,5.44-2.18,5.64-3.16-.65-.14-2.59,1-3.91.66a1.67,1.67,0,0,1-1.08-2.48c.59-1.2,1.66-2.66,2.72-2.83,1.42-.23,2.46,1,3.15.94s1.18-.81,1.34-1.27c.05-.15-.85-.28-.85-.61s.7-1.21,1.17-1.18a1.64,1.64,0,0,0,1.29-.38c1.64-1.12,1.31-6.67,2.27-6.42.74.2-.22,4-.47,5.9a.62.62,0,0,0,.52.77c.7.15.81-.51.76-.93a2.63,2.63,0,0,1,0-.79c.06-.36.26-.7.31-1.07a16.57,16.57,0,0,1,.26-3.14,12.7,12.7,0,0,0,.14-3.59c0-.76,1.36-.51,1.81-.95a3.59,3.59,0,0,0,1-1.47,5.71,5.71,0,0,0,.18-1.54c0-.35-.34-.85-.16-1.13a22.65,22.65,0,0,1,1.89-1.85c-.06.76-.69.82-.83,1.35a17.75,17.75,0,0,1-.43,4.09c-.16.52-.9.76-1.32,1.1a1.67,1.67,0,0,0-.53.62c-.09.18-.06.42-.15.6-.23.45-.73.77-.87,1.23a5.77,5.77,0,0,0,.28,1.92c.15,1,.16,1.84.36,1.87s.51-1.25.91-1a7.54,7.54,0,0,1-.07,2.52c-.24,1.33-1.15,2.34-1.69,3.54a20.31,20.31,0,0,1-1.11,2.83c-.09.13-.07.43.09.5,1,.4.84-1.95,1.34-1.84.19.05.18,1,.15,1.53-.09,1.11-1.17,1.82-1.39,2.79-.33,1.45.49,1.62.48,2.49a5,5,0,0,1-.53,2.63c-.35.4-.5-.41-1.48-.31-.59,0-1,2.61-1.13,3.55s1.12,3.33.49,3.89c-.89.78-1.07,1-1.82,1.76-.46.44-1.8-1.3-3.11-.31-2,1.53.83,3.32-.63,5.09-1.21,1.48-2.67.39-3.16.51-.27.07-.52.79-1.22.83s-1-.53-1.6-.48c-1.08.09-.72,2.08-5.06,1.81A7.08,7.08,0,0,1,80.47,155.79Zm-13.23-5.36c-1-.27-2.69-.94-2.54-2.1.94.38,2.84.1,3-.68,0-.25-1.49-1.05-1.3-1.89a1,1,0,0,1,.77-.73,8.65,8.65,0,0,1,2.2.62c.45.13,1.3.12,1.34.42.06.54-.88.56-1.06,1.05-.27.78.65,1.89-.26,3.07C68.93,150.72,67.93,150.62,67.24,150.43Zm8.05-10.3c0-.87,1.55-.35,1.51-1s-.53-1.09-.46-1.61a2.06,2.06,0,0,1,1-1.1,3.87,3.87,0,0,1,1.66.05c-.3.26-.92.85-.58,1.4s.79.24,1,.56c.57,1-.46,2.17-1.37,2.39S75.32,141,75.29,140.13Zm11.83-4.06c-.41-.59-.84-.41-.66-.87s.58-.39,1-.28.53.76.9,1c.21.15,1,.24,1.37.71a1.53,1.53,0,0,1-1.13.4A2.26,2.26,0,0,1,87.12,136.07Z" transform="translate(-34.8 -13.63)"/><path class="cls-14" d="M90.9,61.1c11-7.57,19.5-5.88,24.52,8.83" transform="translate(-34.8 -13.63)"/><path d="M113,65.27l-.11-.27c-.1-.29-.2-.59-.29-.89-.27-.91-.49-1.84-.75-2.76-.07-.24-.14-.5-.21-.75l-.12-.4-.33-1.07c-.08-.23-.16-.47-.25-.7l-.15-.41c-.15-.37-.29-.73-.45-1.08a13.5,13.5,0,0,0-.69-1.3c-.09-.15-.18-.31-.28-.46s-.27-.4-.41-.58l-.37-.45a7.88,7.88,0,0,0-1.06-1c-.14-.11-.28-.22-.43-.32l-.2-.13a6,6,0,0,0-1-.52l-.3-.13-.5-.18-.62-.17c-.23-.06-.48-.11-.72-.15l-.25,0-.37,0-.34,0c-.24,0-.49,0-.73,0a19,19,0,0,0-2.91.17l-1,.14-.85.14c-.32,0-.64.12-1,.18-.69.13-1.37.27-2.06.39a12.74,12.74,0,0,1-1.83.24,10.3,10.3,0,0,1,1.72-1.29,18.66,18.66,0,0,1,2.16-1.15l.9-.39a17.38,17.38,0,0,1,2.07-.7,14.1,14.1,0,0,1,1.43-.33l.46-.08a14.75,14.75,0,0,1,2.08-.19c.26,0,.52,0,.77,0a10.74,10.74,0,0,1,1.39.15l.26.05a6.52,6.52,0,0,1,.79.2l.26.08c.23.07.46.16.68.25l.27.12.28.12.41.22a9.1,9.1,0,0,1,1.76,1.32,10,10,0,0,1,1.3,1.56,11.67,11.67,0,0,1,1,1.91c.13.33.27.67.37,1s.2.63.29,1c0,.15.07.3.11.45.1.42.18.87.24,1.3,0,.16,0,.33.07.49s0,.55.08.83l0,.54c0,.5,0,1,0,1.49a15.39,15.39,0,0,1-.3,2.7,6.33,6.33,0,0,1-.19.75,2.76,2.76,0,0,1-.08.27,1.33,1.33,0,0,0,0,.19A.72.72,0,0,1,113,65.27Z" transform="translate(-34.8 -13.63)"/><path class="cls-14" d="M147.14,71.61c-6-11.92-14.27-14.53-25.75-4.06" transform="translate(-34.8 -13.63)"/><path d="M154.09,69.58c-.23-.32-.45-.66-.66-1s-.55-.88-.82-1.33l-.5-.82c-.13-.21-.26-.42-.4-.62s-.14-.21-.2-.32l-.5-.72c-.3-.44-.63-.87-1-1.29-.18-.22-.36-.44-.55-.65l-.25-.27-.2-.21-.25-.25-.2-.19c-.19-.16-.37-.34-.57-.49l-.46-.36a7.38,7.38,0,0,0-.74-.5c-.27-.16-.54-.32-.82-.45s-.42-.2-.63-.28l-.32-.12-.2-.06-.26-.08c-.28-.08-.55-.15-.84-.21l-.26,0a7.14,7.14,0,0,0-.79-.11l-.58,0h-.27l-1.08,0a23.48,23.48,0,0,0-5.6,1.18c-.78.24-1.57.51-2.34.78s-1.55.53-2.33.76l-.6.16c-.12,0-.27,0-.38.09a1.6,1.6,0,0,1,.16-.23c.08-.11.18-.21.27-.32a14.38,14.38,0,0,1,1.06-1,20.23,20.23,0,0,1,2.13-1.54c.57-.36,1.16-.67,1.76-1,.23-.12.47-.24.71-.34s.73-.32,1.1-.46c.54-.2,1.07-.38,1.63-.53a15.94,15.94,0,0,1,1.82-.4,12.8,12.8,0,0,1,4.7.11,9.45,9.45,0,0,1,1.59.49l.33.13.38.17a3.18,3.18,0,0,1,.32.16l.45.24.28.17a2.68,2.68,0,0,1,.28.18l.31.21.63.48a6.11,6.11,0,0,1,.53.47l.21.2c.22.21.44.44.65.67s.44.53.64.79a2.48,2.48,0,0,0,.19.26c.13.18.26.37.38.56l.17.27.18.31c.08.13.16.26.23.39l.18.34c.19.38.37.76.53,1.15.06.15.13.3.18.45s.23.59.32.9a15.19,15.19,0,0,1,.61,2.67,8,8,0,0,1,.06,2C154.35,69.93,154.22,69.76,154.09,69.58Z" transform="translate(-34.8 -13.63)"/></g></svg>