<svg width="371" height="384" xmlns="http://www.w3.org/2000/svg" xmlns:xlink="http://www.w3.org/1999/xlink">
 <style type="text/css">.st0{fill:#31343E;}
	.st1{fill:#3A3E4A;}
	.st2{fill:#262830;}
	.st3{opacity:0.4118;}
	.st4{fill:#E4B22D;}
	.st5{fill:#D4A527;}
	.st6{fill:#AD733B;}
	.st7{fill:#E84649;}
	.st8{fill:#C9292C;}
	.st9{fill:#505B67;}
	.st10{fill:#606B77;}
	.st11{fill:#636F7B;}
	.st12{opacity:0.6118;}
	.st13{fill:#363E46;}
	.st14{fill:#9AAABD;}
	.st15{fill:#D6E1EE;}
	.st16{opacity:0.6;enable-background:new    ;}
	.st17{fill:#768290;}
	.st18{fill:#606B78;}
	.st19{fill:#CCD8E5;}
	.st20{fill:#6A7786;}
	.st21{fill:#404853;}</style>
 <g>
  <title>background</title>
  <rect fill="none" id="canvas_background" height="402" width="582" y="-1" x="-1"/>
 </g>
 <g>
  <title>Layer 1</title>
  <g id="Эллипс_543">
   <g id="svg_1">
    <circle id="svg_2" r="158" cy="177" cx="177" class="st0"/>
   </g>
  </g>
  <g id="Эллипс_543_копия_2">
   <g id="svg_3">
    <ellipse id="svg_4" ry="117.5" rx="117.5" cy="181.5" cx="177.5" class="st1" transform="matrix(0.7071,-0.7071,0.7071,0.7071,-76.3513,178.6716) "/>
   </g>
  </g>
  <g id="Эллипс_543_копия_4">
   <g id="svg_5">
    <ellipse id="svg_6" ry="117.5" rx="117.5" cy="177.5" cx="177.98935" class="st2" transform="matrix(0.7071,-0.7071,0.7071,0.7071,-73.5229,177.5) "/>
   </g>
  </g>
  <g class="st3" id="Эллипс_543_копия_8">
   <g id="svg_7">
    <ellipse id="svg_8" ry="125" rx="78" cy="185" cx="143" class="st2"/>
   </g>
  </g>
  <g id="Эллипс_584_копия_3">
   <g id="svg_9">
    <ellipse id="svg_10" ry="34" rx="34" cy="260" cx="185" class="st4" transform="matrix(0.9239,-0.3827,0.3827,0.9239,-85.4154,90.5878) "/>
   </g>
  </g>
  <g id="Эллипс_584_копия_2">
   <g id="svg_11">
    <ellipse id="svg_12" ry="28.3" rx="28.3" cy="259.7" cx="185.3" class="st5" transform="matrix(0.7071,-0.7071,0.7071,0.7071,-129.4109,207.0712) "/>
   </g>
  </g>
  <g id="ark__копия_2">
   <g id="svg_13">
    <path id="svg_14" d="m186.9,248.5l-2.7,0l-10.3,23.4l3.9,0l1.9,-3.9l3.5,0l0,3.9l4.6,0l0,-3.9l3.5,0l1.9,3.9l3.9,0l-10.2,-23.4zm-5.3,15.6l3.9,-9.7l3.9,9.7l-7.8,0z" class="st6"/>
   </g>
  </g>
  <g id="Эллипс_584_копия_6">
   <g id="svg_15">
    <circle id="svg_16" r="30.5" cy="245.5" cx="235.5" class="st4"/>
   </g>
  </g>
  <g id="Эллипс_584_копия_7">
   <g id="svg_17">
    <circle id="svg_18" r="25.4" cy="245.3" cx="235.7" class="st5"/>
   </g>
  </g>
  <g stroke="null" id="svg_125">
   <path stroke="null" id="svg_122" d="m229.900176,241.175716c0.133959,-0.133576 0.275389,-0.254903 0.418905,-0.374418c1.148683,-0.968037 2.545786,-1.483829 3.962223,-1.556328c1.819854,-0.089472 3.668654,0.552536 5.060979,1.941346c1.120451,1.127921 1.755373,2.555562 1.908117,4.021101l3.721381,3.729949c1.068547,-3.65679 0.163948,-7.768955 -2.71693,-10.657357c-3.085524,-3.091402 -7.57694,-3.918888 -11.417231,-2.485425c-1.235737,0.460923 -2.405455,1.153955 -3.437149,2.082172c-0.137749,0.125337 -0.273247,0.251882 -0.405834,0.385402c-0.098314,0.098589 -0.191905,0.199375 -0.286923,0.30071c-0.943211,1.015271 -1.653874,2.165601 -2.134185,3.38843c-1.520188,3.869072 -0.722965,8.43837 2.40183,11.570415c2.948049,2.952993 7.174731,3.840237 10.895947,2.66596l-3.619606,-3.626032c-1.586647,-0.085023 -3.148577,-0.733731 -4.362949,-1.945631c-1.435715,-1.445601 -2.070802,-3.378984 -1.918333,-5.261451c0.113803,-1.393369 0.666833,-2.754003 1.651293,-3.87028c0.092437,-0.103532 0.18059,-0.209645 0.278465,-0.308563z" opacity="0.25"/>
   <path stroke="null" id="svg_123" d="m245.452806,255.921841l-0.017192,-5.143805l-10.594963,-10.621601c-1.312466,0.066183 -2.609717,0.544023 -3.677332,1.4428l14.289487,14.322606z" opacity="0.25"/>
   <path stroke="null" id="svg_124" d="m244.811347,256.560278l-14.29388,-14.32623c-0.914541,1.034714 -1.428245,2.298242 -1.532491,3.59143l10.701516,10.728099l5.124855,0.006701z" opacity="0.25"/>
  </g>
  <g id="Эллипс_584_копия_4">
   <g id="svg_21">
    <ellipse id="svg_22" ry="28" rx="28" cy="278" cx="216" class="st4" transform="matrix(0.9637,-0.2669,0.2669,0.9637,-66.37,67.7449) "/>
   </g>
  </g>
  <g id="Эллипс_584_копия_5">
   <g id="svg_23">
    <ellipse id="svg_24" ry="23.3" rx="23.3" cy="277.8" cx="216.2" class="st5" transform="matrix(0.982,-0.1891,0.1891,0.982,-48.6317,45.8985) "/>
   </g>
  </g>
  <g id="Прямоугольник_x2C__скругл._углы_505_копия">
   <g id="svg_27">
    <path id="svg_28" d="m69,152l-8,0c-2.2,0 -4,1.8 -4,4l0,29c0,2.2 1.8,4 4,4l8,0c2.2,0 4,-1.8 4,-4l0,-29c0,-2.2 -1.8,-4 -4,-4z" class="st7"/>
   </g>
  </g>
  <g id="Прямоугольник_x2C__скругл._углы_505_копия_2">
   <g id="svg_29">
    <path id="svg_30" d="m69,154l-8,0c-2.2,0 -4,1.8 -4,4l0,39c0,2.2 1.8,4 4,4l8,0c2.2,0 4,-1.8 4,-4l0,-39c0,-2.2 -1.8,-4 -4,-4z" class="st8"/>
   </g>
  </g>
  <g id="Эллипс_543_копия">
   <g id="svg_31">
    <path id="svg_32" d="m155,60c-0.1,0 -23.2,0 -23.2,0c0,0 -0.1,0 -0.1,0c-36.3,0.4 -65.7,52.8 -65.7,117.5c0,64.6 29.3,117 65.4,117.5c0.1,0 23.1,0 23.2,0c0.1,0 0.2,0 0.3,0c36.5,0 66,-52.6 66,-117.5s-29.4,-117.5 -65.9,-117.5z" class="st9"/>
   </g>
  </g>
  <g id="_x32_">
   <g id="svg_33">
    <ellipse id="svg_34" ry="117.5" rx="66" cy="177.5" cx="131" class="st10"/>
   </g>
  </g>
  <g id="Эллипс_543_копия_10">
   <g id="svg_35">
    <path id="svg_36" d="m196.9,170.4c-0.2,-7.2 -0.8,-14.2 -1.8,-21c0,-0.2 -0.1,-0.5 -0.1,-0.5l-84.2,140.5c0,0 0.2,0.1 0.3,0.2c3.7,2.1 7.6,3.6 11.6,4.5c0.1,0 0.4,0.1 0.4,0.1l73.8,-123.3c0,0 0,-0.3 0,-0.5zm-9.9,-55.1c-7.8,-22.1 -19.5,-39.3 -33.5,-48.3c-0.1,-0.1 -0.3,-0.2 -0.3,-0.2l-84.5,149.5c0,0 0,0.2 0.1,0.4c4.8,24.1 13.9,44.6 25.6,58.6c0.1,0.1 0.2,0.2 0.2,0.2l92.6,-159.7c0,-0.1 -0.1,-0.3 -0.2,-0.5zm-56,-55.3c-35.9,0 -65.1,51 -66,114.6c0,0.2 0,0.5 0,0.5l66.8,-115.1c0,0 -0.5,0 -0.8,0z" class="st11"/>
   </g>
  </g>
  <g class="st12" id="Эллипс_543_копия_7">
   <g id="svg_37">
    <path id="svg_38" d="m133.9,151c-9.3,0 -16.9,13.7 -16.9,30.5s7.6,30.5 16.9,30.5c9.3,0 16.9,-13.7 16.9,-30.5s-7.5,-30.5 -16.9,-30.5zm0.1,47c-5,0 -9,-7.2 -9,-16s4,-16 9,-16c5,0 9,7.2 9,16s-4,16 -9,16z" class="st13"/>
   </g>
  </g>
  <g id="Эллипс_543_копия_5">
   <g id="svg_39">
    <path id="svg_40" d="m127.1,151c0,0 -5.9,0 -6,0c0,0 0,0 0,0c-9.3,0.1 -16.8,13.7 -16.8,30.5c0,16.8 7.5,30.4 16.8,30.5c0,0 5.9,0 6,0c0,0 0.1,0 0.1,0c9.3,0 16.9,-13.7 16.9,-30.5s-7.7,-30.5 -17,-30.5zm-1.6,46c-4.1,0 -7.5,-6.9 -7.5,-15.5c0,-8.6 3.4,-15.5 7.5,-15.5c4.1,0 7.5,6.9 7.5,15.5c0,8.6 -3.4,15.5 -7.5,15.5z" class="st14"/>
   </g>
  </g>
  <g id="Эллипс_543_копия_6">
   <g id="svg_41">
    <path id="svg_42" d="m120.9,151c-9.3,0 -16.9,13.7 -16.9,30.5s7.6,30.5 16.9,30.5c9.3,0 16.9,-13.7 16.9,-30.5s-7.5,-30.5 -16.9,-30.5zm0.1,47c-5,0 -9,-7.2 -9,-16s4,-16 9,-16c5,0 9,7.2 9,16s-4,16 -9,16z" class="st15"/>
   </g>
  </g>
  <g class="st16" id="_x35__2_">
   <defs>
    <path d="m354,152l-34,0c-5.5,0 -10,4.5 -10,10l0,53c0,5.5 4.5,10 10,10l34,0c5.5,0 10,-4.5 10,-10l0,-53c0,-5.5 -4.5,-10 -10,-10z" class="st16" id="SVGID_1_"/>
   </defs>
   <clipPath id="SVGID_2_">
    <use id="svg_43" xlink:href="#SVGID_1_"/>
   </clipPath>
   <image clip-path="url(#SVGID_2_)" xlink:href="7F71CA894A968B83.png" id="_x35__xA0_Изображение" height="384" width="371"/>
  </g>
  <g id="Прямоугольник_x2C__скругл._углы_523_копия_2">
   <g id="svg_44">
    <path id="svg_45" d="m354,142l-34,0c-5.5,0 -10,4.5 -10,10l0,53c0,5.5 4.5,10 10,10l34,0c5.5,0 10,-4.5 10,-10l0,-53c0,-5.5 -4.5,-10 -10,-10z" class="st17"/>
   </g>
  </g>
  <g id="Прямоугольник_x2C__скругл._углы_523_копия">
   <g id="svg_46">
    <path id="svg_47" d="m354,144l-34,0c-5.5,0 -10,4.5 -10,10l0,53c0,5.5 4.5,10 10,10l34,0c5.5,0 10,-4.5 10,-10l0,-53c0,-5.5 -4.5,-10 -10,-10z" class="st18"/>
   </g>
  </g>
  <g id="Прямоугольник_x2C__скругл._углы_526">
   <g id="svg_48">
    <path id="svg_49" d="m355,149l-36,0c-2.2,0 -4,1.8 -4,4l0,6c0,2.2 1.8,4 4,4l36,0c2.2,0 4,-1.8 4,-4l0,-6c0,-2.2 -1.8,-4 -4,-4z" class="st9"/>
   </g>
  </g>
  <g id="Эллипс_527_копия_3">
   <g id="svg_50">
    <path id="svg_51" d="m327,154c-1.1,0 -2,0.9 -2,2s0.9,2 2,2c1.1,0 2,-0.9 2,-2s-0.9,-2 -2,-2zm7,0c-1.1,0 -2,0.9 -2,2s0.9,2 2,2c1.1,0 2,-0.9 2,-2s-0.9,-2 -2,-2zm7,0c-1.1,0 -2,0.9 -2,2s0.9,2 2,2s2,-0.9 2,-2s-0.9,-2 -2,-2zm7,0c-1.1,0 -2,0.9 -2,2s0.9,2 2,2c1.1,0 2,-0.9 2,-2s-0.9,-2 -2,-2z" class="st19"/>
   </g>
  </g>
  <g id="Прямоугольник_x2C__скругл._углы_526_копия_5">
   <g id="svg_52">
    <path id="svg_53" d="m324,169l-4,0c-1.1,0 -2,0.9 -2,2l0,4c0,1.1 0.9,2 2,2l4,0c1.1,0 2,-0.9 2,-2l0,-4c0,-1.1 -0.9,-2 -2,-2zm10,0l-4,0c-1.1,0 -2,0.9 -2,2l0,4c0,1.1 0.9,2 2,2l4,0c1.1,0 2,-0.9 2,-2l0,-4c0,-1.1 -0.9,-2 -2,-2zm10,0l-4,0c-1.1,0 -2,0.9 -2,2l0,4c0,1.1 0.9,2 2,2l4,0c1.1,0 2,-0.9 2,-2l0,-4c0,-1.1 -0.9,-2 -2,-2zm10,0l-4,0c-1.1,0 -2,0.9 -2,2l0,4c0,1.1 0.9,2 2,2l4,0c1.1,0 2,-0.9 2,-2l0,-4c0,-1.1 -0.9,-2 -2,-2zm-30,10l-4,0c-1.1,0 -2,0.9 -2,2l0,4c0,1.1 0.9,2 2,2l4,0c1.1,0 2,-0.9 2,-2l0,-4c0,-1.1 -0.9,-2 -2,-2zm10,0l-4,0c-1.1,0 -2,0.9 -2,2l0,4c0,1.1 0.9,2 2,2l4,0c1.1,0 2,-0.9 2,-2l0,-4c0,-1.1 -0.9,-2 -2,-2zm10,0l-4,0c-1.1,0 -2,0.9 -2,2l0,4c0,1.1 0.9,2 2,2l4,0c1.1,0 2,-0.9 2,-2l0,-4c0,-1.1 -0.9,-2 -2,-2zm10,0l-4,0c-1.1,0 -2,0.9 -2,2l0,4c0,1.1 0.9,2 2,2l4,0c1.1,0 2,-0.9 2,-2l0,-4c0,-1.1 -0.9,-2 -2,-2zm-30,10l-4,0c-1.1,0 -2,0.9 -2,2l0,4c0,1.1 0.9,2 2,2l4,0c1.1,0 2,-0.9 2,-2l0,-4c0,-1.1 -0.9,-2 -2,-2zm10,0l-4,0c-1.1,0 -2,0.9 -2,2l0,4c0,1.1 0.9,2 2,2l4,0c1.1,0 2,-0.9 2,-2l0,-4c0,-1.1 -0.9,-2 -2,-2zm10,0l-4,0c-1.1,0 -2,0.9 -2,2l0,4c0,1.1 0.9,2 2,2l4,0c1.1,0 2,-0.9 2,-2l0,-4c0,-1.1 -0.9,-2 -2,-2zm10,0l-4,0c-1.1,0 -2,0.9 -2,2l0,4c0,1.1 0.9,2 2,2l4,0c1.1,0 2,-0.9 2,-2l0,-4c0,-1.1 -0.9,-2 -2,-2zm-30,10l-4,0c-1.1,0 -2,0.9 -2,2l0,4c0,1.1 0.9,2 2,2l4,0c1.1,0 2,-0.9 2,-2l0,-4c0,-1.1 -0.9,-2 -2,-2zm10,0l-4,0c-1.1,0 -2,0.9 -2,2l0,4c0,1.1 0.9,2 2,2l4,0c1.1,0 2,-0.9 2,-2l0,-4c0,-1.1 -0.9,-2 -2,-2zm10,0l-4,0c-1.1,0 -2,0.9 -2,2l0,4c0,1.1 0.9,2 2,2l4,0c1.1,0 2,-0.9 2,-2l0,-4c0,-1.1 -0.9,-2 -2,-2zm10,0l-4,0c-1.1,0 -2,0.9 -2,2l0,4c0,1.1 0.9,2 2,2l4,0c1.1,0 2,-0.9 2,-2l0,-4c0,-1.1 -0.9,-2 -2,-2z" class="st20"/>
   </g>
  </g>
  <g id="Эллипс_539_копия_2">
   <g id="svg_54">
    <path id="svg_55" d="m318.5,19c4.1,0 7.5,-3.4 7.5,-7.5s-3.4,-7.5 -7.5,-7.5s-7.5,3.4 -7.5,7.5s3.4,7.5 7.5,7.5zm-253,-7c-7.5,0 -13.5,6 -13.5,13.5c0,7.5 6,13.5 13.5,13.5c7.5,0 13.5,-6 13.5,-13.5c0,-7.5 -6,-13.5 -13.5,-13.5zm269.5,365c-1.1,0 -2,0.9 -2,2c0,1.1 0.9,2 2,2s2,-0.9 2,-2c0,-1.1 -0.9,-2 -2,-2zm-313,-87c-7.7,0 -14,6.3 -14,14s6.3,14 14,14c7.7,0 14,-6.3 14,-14s-6.3,-14 -14,-14zm272.5,-13c-25.7,0 -46.5,20.8 -46.5,46.5c0,25.7 20.8,46.5 46.5,46.5s46.5,-20.8 46.5,-46.5c0,-25.7 -20.8,-46.5 -46.5,-46.5z" class="st21"/>
   </g>
  </g>
  <defs>
   <style>.cls-1{fill:#fff;}</style>
  </defs>
  <g stroke="null" id="svg_121">
   <path stroke="null" id="svg_118" d="m211.215127,273.0095c0.13396,-0.133575 0.275389,-0.254903 0.418906,-0.374417c1.148682,-0.968037 2.545786,-1.483829 3.962223,-1.556329c1.819854,-0.089471 3.668653,0.552536 5.060979,1.941346c1.120451,1.127921 1.755373,2.555562 1.908117,4.021101l3.721381,3.729949c1.068548,-3.65679 0.163948,-7.768955 -2.716929,-10.657357c-3.085525,-3.091401 -7.576941,-3.918888 -11.417232,-2.485424c-1.235737,0.460923 -2.405455,1.153955 -3.437148,2.082172c-0.13775,0.125337 -0.273247,0.251882 -0.405834,0.385402c-0.098314,0.098589 -0.191905,0.199374 -0.286923,0.300709c-0.943211,1.015271 -1.653874,2.165601 -2.134185,3.388431c-1.520188,3.869071 -0.722966,8.43837 2.40183,11.570415c2.94805,2.952993 7.174732,3.840236 10.895947,2.66596l-3.619606,-3.626032c-1.586647,-0.085022 -3.148577,-0.733731 -4.362949,-1.94563c-1.435715,-1.445602 -2.070802,-3.378984 -1.918333,-5.261452c0.113803,-1.393369 0.666833,-2.754003 1.651292,-3.87028c0.092437,-0.103532 0.18059,-0.209645 0.278465,-0.308563z" opacity="0.25"/>
   <path stroke="null" id="svg_119" d="m226.767757,287.755625l-0.017191,-5.143804l-10.594963,-10.621602c-1.312466,0.066184 -2.609717,0.544023 -3.677331,1.4428l14.289486,14.322605z" opacity="0.25"/>
   <path stroke="null" id="svg_120" d="m226.126299,288.394062l-14.29388,-14.32623c-0.914541,1.034715 -1.428246,2.298243 -1.532491,3.59143l10.701516,10.728099l5.124855,0.006701z" opacity="0.25"/>
  </g>
 </g>
</svg>