<svg width="371" height="383.99999999999994" xmlns="http://www.w3.org/2000/svg">
 <style type="text/css">.st0{fill:#404853;}
	.st1{opacity:0.4196;}
	.st2{fill:#191A20;}
	.st3{fill:#424B56;}
	.st4{fill:#55606D;}
	.st5{opacity:0.5216;}
	.st6{fill:#292F37;}
	.st7{fill:#25272F;}
	.st8{fill:#B6C4D4;}
	.st9{fill:#D6E1EE;}
	.st10{fill:#AAB6C5;}
	.st11{fill:#626D7A;}
	.st12{opacity:0.251;}
	.st13{fill:#363F48;}
	.st14{fill:#505B67;}
	.st15{fill:#788491;}
	.st16{fill:#566271;}
	.st17{fill:#5C6876;}
	.st18{fill:#E4B22D;}
	.st19{fill:#D4A527;}
	.st20{fill:#AD733B;}
	.st21{fill:#D52F2F;}
	.st22{fill:#FFFFFF;}</style>

 <g>
  <title>background</title>
  <rect fill="none" id="canvas_background" height="402" width="582" y="-1" x="-1"/>
 </g>
 <g>
  <title>Layer 1</title>
  <g id="Эллипс_539_копия_3">
   <g id="svg_1">
    <path id="svg_2" d="m45.5,366c-4.1,0 -7.5,3.4 -7.5,7.5c0,4.1 3.4,7.5 7.5,7.5s7.5,-3.4 7.5,-7.5c0,-4.1 -3.4,-7.5 -7.5,-7.5zm245,-116c-7.5,0 -13.5,6 -13.5,13.5c0,7.5 6,13.5 13.5,13.5c7.5,0 13.5,-6 13.5,-13.5c0,-7.5 -6,-13.5 -13.5,-13.5zm-261.5,-242c1.1,0 2,-0.9 2,-2c0,-1.1 -0.9,-2 -2,-2s-2,0.9 -2,2c0,1.1 0.9,2 2,2zm313,59c-7.7,0 -14,6.3 -14,14s6.3,14 14,14c7.7,0 14,-6.3 14,-14s-6.3,-14 -14,-14zm-272.5,-52c-25.7,0 -46.5,20.8 -46.5,46.5c0,25.7 20.8,46.5 46.5,46.5s46.5,-20.8 46.5,-46.5c0,-25.7 -20.8,-46.5 -46.5,-46.5z" class="st0"/>
   </g>
  </g>
  <g class="st1" id="Прямоугольник_x2C__скругл._углы_665_копия_9">
   <g id="svg_3">
    <path id="svg_4" d="m196.1,193.7l-104.2,0c-2.2,0 -4,1.8 -4,4l0,29.3c0,2.2 1.8,4 4,4l104.3,0c2.2,0 4,-1.8 4,-4l0,-29.3c-0.1,-2.2 -1.8,-4 -4.1,-4z" class="st2"/>
   </g>
  </g>
  <g id="Прямоугольник_x2C__скругл._углы_665_копия_10">
   <g id="svg_5">
    <path id="svg_6" d="m198,190l-108,0c-2.2,0 -4,1.8 -4,4l0,29.3c0,2.2 1.8,4 4,4l108,0c2.2,0 4,-1.8 4,-4l0,-29.3c0,-2.2 -1.8,-4 -4,-4z" class="st3"/>
   </g>
  </g>
  <g id="Эллипс_667_копия_9">
   <g id="svg_7">
    <path id="svg_8" d="m103.3,204.9c-2.6,0 -4.6,2.1 -4.6,4.7c0,2.6 2.1,4.7 4.6,4.7c2.6,0 4.6,-2.1 4.6,-4.7c0.1,-2.6 -2,-4.7 -4.6,-4.7zm14,0c-2.6,0 -4.7,2.1 -4.7,4.7c0,2.6 2.1,4.7 4.7,4.7s4.7,-2.1 4.7,-4.7c-0.1,-2.6 -2.1,-4.7 -4.7,-4.7zm13.9,0c-2.6,0 -4.7,2.1 -4.7,4.7c0,2.6 2.1,4.7 4.7,4.7s4.7,-2.1 4.7,-4.7c0,-2.6 -2.1,-4.7 -4.7,-4.7zm14,0c-2.6,0 -4.6,2.1 -4.6,4.7c0,2.6 2.1,4.7 4.6,4.7c2.6,0 4.6,-2.1 4.6,-4.7c0,-2.6 -2,-4.7 -4.6,-4.7zm13.9,0c-2.6,0 -4.7,2.1 -4.7,4.7c0,2.6 2.1,4.7 4.7,4.7c2.6,0 4.7,-2.1 4.7,-4.7c0,-2.6 -2.1,-4.7 -4.7,-4.7zm14,0c-2.6,0 -4.6,2.1 -4.6,4.7c0,2.6 2.1,4.7 4.6,4.7s4.6,-2.1 4.6,-4.7c0.1,-2.6 -2,-4.7 -4.6,-4.7z" class="st4"/>
   </g>
  </g>
  <g class="st5" id="Прямоугольник_5">
   <g id="svg_9">
    <rect id="svg_10" height="37" width="8" class="st6" y="190" x="143"/>
   </g>
  </g>
  <g id="Фигура_1650_копия">
   <g id="svg_11">
    <path id="svg_12" d="m185,169c-16.6,0 -39,5.5 -39,14l0,76c0,22.2 18.5,37 37,37s39,-10.9 39,-37l0,-76c0,-7.1 -20.4,-14 -37,-14z" class="st7"/>
   </g>
  </g>
  <g id="Прямоугольник_x2C__скругл._углы_968">
   <g id="svg_13">
    <path id="svg_14" d="m206,110l-45,0c-2.2,0 -4,1.8 -4,4l0,46c0,2.2 1.8,4 4,4l45,0c2.2,0 4,-1.8 4,-4l0,-46c0,-2.2 -1.8,-4 -4,-4z" class="st8"/>
   </g>
  </g>
  <g id="Прямоугольник_x2C__скругл._углы_968_копия_2">
   <g id="svg_15">
    <path id="svg_16" d="m206,112l-45,0c-2.2,0 -4,1.8 -4,4l0,46c0,2.2 1.8,4 4,4l45,0c2.2,0 4,-1.8 4,-4l0,-46c0,-2.2 -1.8,-4 -4,-4z" class="st9"/>
   </g>
  </g>
  <g id="Прямоугольник_x2C__скругл._углы_968_копия_3">
   <g id="svg_17">
    <path id="svg_18" d="m171,128l-1,0c-2.2,0 -4,1.8 -4,4l0,1c0,2.2 1.8,4 4,4l1,0c2.2,0 4,-1.8 4,-4l0,-1c0,-2.2 -1.8,-4 -4,-4z" class="st10"/>
   </g>
  </g>
  <g id="Прямоугольник_x2C__скругл._углы_968_копия_4">
   <g id="svg_19">
    <path id="svg_20" d="m199,128l-1,0c-2.2,0 -4,1.8 -4,4l0,1c0,2.2 1.8,4 4,4l1,0c2.2,0 4,-1.8 4,-4l0,-1c0,-2.2 -1.8,-4 -4,-4z" class="st10"/>
   </g>
  </g>
  <g id="Прямоугольник_x2C__скругл._углы_968_копия">
   <g id="svg_21">
    <path id="svg_22" d="m211,152l-55,0c-2.2,0 -4,1.8 -4,4l0,16c0,2.2 1.8,4 4,4l55,0c2.2,0 4,-1.8 4,-4l0,-16c0,-2.2 -1.8,-4 -4,-4z" class="st11"/>
   </g>
  </g>
  <g class="st12" id="Фигура_1651_копия_2">
   <g id="svg_23">
    <path id="svg_24" d="m182.7,157c-24.7,0 -30.7,5.1 -30.7,7.8s0,5.2 0,5.2s5.7,-5.7 30.7,-5.7c25,0 32.3,5.7 32.3,5.7s0,-2.1 0,-5.2s-7.6,-7.8 -32.3,-7.8z" class="st13"/>
   </g>
  </g>
  <g id="Фигура_1650">
   <g id="svg_25">
    <path id="svg_26" d="m185,162c-16.6,0 -39,5.5 -39,14l0,76c0,22.2 18.5,37 37,37s39,-10.9 39,-37l0,-76c0,-7.1 -20.4,-14 -37,-14z" class="st14"/>
   </g>
  </g>
  <g id="Фигура_1651">
   <g id="svg_27">
    <path id="svg_28" d="m183,161c-29.8,0 -37,9.9 -37,15s0,10 0,10s6.9,-11 37,-11s39,11 39,11s0,-4 0,-10s-9.2,-15 -39,-15z" class="st15"/>
   </g>
  </g>
  <g id="Фигура_1651_копия">
   <g id="svg_29">
    <path id="svg_30" d="m183,164c-29.8,0 -37,9.9 -37,15s0,10 0,10s6.9,-11 37,-11s39,11 39,11s0,-4 0,-10s-9.2,-15 -39,-15z" class="st11"/>
   </g>
  </g>
  <g id="Прямоугольник_x2C__скругл._углы_969">
   <g id="svg_31">
    <path id="svg_32" d="m196,197l-24,0c-5.5,0 -10,4.5 -10,10l0,33c0,5.5 4.5,10 10,10l24,0c5.5,0 10,-4.5 10,-10l0,-33c0,-5.5 -4.5,-10 -10,-10z" class="st16"/>
   </g>
  </g>
  <g id="Прямоугольник_x2C__скругл._углы_969_копия">
   <g id="svg_33">
    <path id="svg_34" d="m196,197l-24,0c-5.5,0 -10,4.5 -10,10l0,31c0,5.5 4.5,10 10,10l24,0c5.5,0 10,-4.5 10,-10l0,-31c0,-5.5 -4.5,-10 -10,-10z" class="st3"/>
   </g>
  </g>
  <g id="Forma_1">
   <g id="svg_35">
    <path id="svg_36" d="m188.5,262.8l0,4.5l1.1,0l0,2.3l-3.4,0l0,-9.1l2.3,0l-3.4,-4.5l-3.4,4.5l2.3,0l0,9.1l-3.4,0l0,-2.4c0.8,-0.3 1.4,-1.2 1.4,-2.2c0,-1.4 -1.1,-2.5 -2.5,-2.5s-2.5,1.1 -2.5,2.5c0,0.9 0.6,1.8 1.4,2.2l0,2.4c0,1.2 1,2.3 2.3,2.3l3.4,0l0,3.5c-0.8,0.5 -1.4,1.2 -1.4,2.2c0,1.4 1.1,2.5 2.5,2.5c1.4,0 2.5,-1.1 2.5,-2.5c0,-1 -0.6,-1.8 -1.4,-2.2l0,-3.5l3.4,0c1.2,0 2.3,-1 2.3,-2.3l0,-2.3l1.1,0l0,-4.5l-4.6,0z" class="st17"/>
   </g>
  </g>
  <g id="_x31__копия_1_">
   <g id="Эллипс_584_копия_3">
    <g id="svg_37">
     <ellipse id="svg_38" ry="17.7" rx="17.7" cy="222.1" cx="183.9" class="st18"/>
    </g>
   </g>
   <g id="Эллипс_584_копия_2">
    <g id="svg_39">
     <circle id="svg_40" r="14.7" cy="222" cx="183.8" class="st19"/>
    </g>
   </g>
   <g stroke="null" id="svg_56">
    <path stroke="null" id="svg_53" d="m180.156511,218.871976c0.091622,-0.091359 0.188352,-0.174341 0.286511,-0.256083c0.785641,-0.662089 1.74119,-1.014865 2.709962,-1.064451c1.244689,-0.061194 2.509175,0.377907 3.461456,1.327784c0.766332,0.771441 1.200588,1.747877 1.305057,2.750232l2.545238,2.551098c0.730833,-2.501061 0.112132,-5.313577 -1.858244,-7.289099c-2.110344,-2.114364 -5.182248,-2.680323 -7.808815,-1.699906c-0.845182,0.315248 -1.645211,0.789247 -2.350838,1.424101c-0.094214,0.085724 -0.186887,0.172275 -0.27757,0.263596c-0.067242,0.06743 -0.131253,0.136362 -0.196241,0.20567c-0.645109,0.694395 -1.131167,1.481163 -1.459676,2.317517c-1.039733,2.646251 -0.494472,5.771423 1.642731,7.913585c2.016318,2.019699 4.907157,2.626529 7.452283,1.823383l-2.47563,-2.480025c-1.085187,-0.058151 -2.153469,-0.501835 -2.984039,-1.330714c-0.981957,-0.988719 -1.416325,-2.311056 -1.312044,-3.59857c0.077835,-0.952995 0.456081,-1.8836 1.129401,-2.647078c0.063222,-0.070811 0.123515,-0.143387 0.190456,-0.211042z" opacity="0.25"/>
    <path stroke="null" id="svg_54" d="m190.793732,228.957588l-0.011758,-3.518105l-7.246425,-7.264644c-0.897661,0.045266 -1.784916,0.372084 -2.515111,0.986803l9.773293,9.795945z" opacity="0.25"/>
    <path stroke="null" id="svg_55" d="m190.355006,229.394247l-9.776299,-9.798425c-0.6255,0.707693 -0.976849,1.571883 -1.048147,2.456359l7.319302,7.337483l3.505145,0.004583z" opacity="0.25"/>
   </g>
  </g>
  <g class="st1" id="Прямоугольник_x2C__скругл._углы_665_копия_8">
   <g id="svg_43">
    <path id="svg_44" d="m304.1,156.7l-104.2,0c-2.2,0 -4,1.8 -4,4l0,29.3c0,2.2 1.8,4 4,4l104.3,0c2.2,0 4,-1.8 4,-4l0,-29.3c-0.1,-2.2 -1.8,-4 -4.1,-4z" class="st2"/>
   </g>
  </g>
  <g id="Прямоугольник_x2C__скругл._углы_665_копия_8_1_">
   <g id="svg_45">
    <path id="svg_46" d="m306,153l-108,0c-2.2,0 -4,1.8 -4,4l0,29.3c0,2.2 1.8,4 4,4l108,0c2.2,0 4,-1.8 4,-4l0,-29.3c0,-2.2 -1.8,-4 -4,-4z" class="st21"/>
   </g>
  </g>
  <g id="Эллипс_667_копия_8">
   <g id="svg_47">
    <path id="svg_48" d="m216.3,167.9c-2.6,0 -4.6,2.1 -4.6,4.7c0,2.6 2.1,4.7 4.6,4.7c2.6,0 4.6,-2.1 4.6,-4.7c0.1,-2.6 -2,-4.7 -4.6,-4.7zm14,0c-2.6,0 -4.7,2.1 -4.7,4.7c0,2.6 2.1,4.7 4.7,4.7c2.6,0 4.7,-2.1 4.7,-4.7c-0.1,-2.6 -2.1,-4.7 -4.7,-4.7zm13.9,0c-2.6,0 -4.7,2.1 -4.7,4.7c0,2.6 2.1,4.7 4.7,4.7c2.6,0 4.7,-2.1 4.7,-4.7c0,-2.6 -2.1,-4.7 -4.7,-4.7zm14,0c-2.6,0 -4.6,2.1 -4.6,4.7c0,2.6 2.1,4.7 4.6,4.7s4.6,-2.1 4.6,-4.7c0,-2.6 -2,-4.7 -4.6,-4.7zm13.9,0c-2.6,0 -4.7,2.1 -4.7,4.7c0,2.6 2.1,4.7 4.7,4.7c2.6,0 4.7,-2.1 4.7,-4.7c0,-2.6 -2.1,-4.7 -4.7,-4.7zm14,0c-2.6,0 -4.6,2.1 -4.6,4.7c0,2.6 2.1,4.7 4.6,4.7c2.6,0 4.6,-2.1 4.6,-4.7c0.1,-2.6 -2,-4.7 -4.6,-4.7z" class="st22"/>
   </g>
  </g>
 </g>
</svg>