<svg xmlns="http://www.w3.org/2000/svg" width="371" height="384"><style type="text/css">.st0{fill:#404853}.st1{opacity:.71;enable-background:new}.st2{fill:#606b78}.st3{fill:#505b67}.st4{fill:#4c5661}.st5{fill:#e4b22d}.st6{fill:#d4a527}.st8{fill:#3f4853}.st9{fill:#d6e1ee}.st10{fill:#cb4f51}.st11{fill:#becee2}.st12{fill:#cad9ea}.st13{fill:#303740}.st14{fill:#495463}.st15{fill:#667483}.st16{fill:#3e4853}.st17{fill:#25272f}.st18{fill:#b6c4d4}.st19{fill:#aab6c5}.st20{fill:#626d7a}.st21{opacity:.251;fill:#363f48;enable-background:new}.st22{fill:#788491}.st23{fill:#566271}.st24{fill:#424b56}.st25{fill:#8898ac}.st26{opacity:.4;fill:#303740;enable-background:new}.st27{fill:#b3c5db}.st28,.st29{fill:none;stroke:#d6e1ee;stroke-width:2;stroke-linecap:round}.st29{stroke-linejoin:round}</style><g><title>background</title><rect id="canvas_background" width="582" height="402" x="-1" y="-1" fill="none"/></g><g><title>Layer 1</title><g id="svg_1"><g id="Canvas"><g id="images"><path id="Эллипс_539_копия_3" d="m46,353.5c0,-4.1 3.4,-7.5 7.5,-7.5s7.5,3.4 7.5,7.5s-3.4,7.5 -7.5,7.5s-7.5,-3.4 -7.5,-7.5l0,0zm239,-70c0,-7.5 6,-13.5 13.5,-13.5s13.5,6 13.5,13.5s-6,13.5 -13.5,13.5l0,0c-7.5,0 -13.5,-6 -13.5,-13.5zm-254,-202c0,-25.7 20.8,-46.5 46.5,-46.5s46.5,20.8 46.5,46.5s-20.8,46.5 -46.5,46.5s-46.5,-20.8 -46.5,-46.5zm305,19.5c0,-7.7 6.3,-14 14,-14s14,6.3 14,14s-6.3,14 -14,14s-14,-6.3 -14,-14zm-301,-75c0,-1.1 0.9,-2 2,-2s2,0.9 2,2s-0.9,2 -2,2s-2,-0.9 -2,-2z" class="st0"/><path id="Прямоугольник_скругл._углы_966" d="m67.6,101.5l224.9,0c5.5,0 10,4.5 10,10l0,149.6c0,5.5 -4.5,10 -10,10l-224.9,0c-5.5,0 -10,-4.5 -10,-10l0,-149.6c0,-5.5 4.5,-10 10,-10z" class="st1"/><path id="Прямоугольник_скругл._углы_966_копия_3" d="m58.2,94l243.8,0c5.5,0 10,4.5 10,10l0,149.6c0,5.5 -4.5,10 -10,10l-243.8,0c-5.5,0 -10,-4.5 -10,-10l0,-149.6c0,-5.6 4.4,-10 10,-10z" class="st2"/><path id="Прямоугольник_скругл._углы_966_копия_2" d="m147.4,275.8l66.3,0c2.8,0 5,2.2 5,5l0,4.2c0,2.8 -2.2,5 -5,5l-66.3,0c-2.8,0 -5,-2.2 -5,-5l0,-4.2c0,-2.8 2.2,-5 5,-5z" class="st2"/><path id="Прямоугольник_скругл._углы_966_копия" d="m60,99l241,0c3.3,0 6,2.7 6,6l0,129l0,0l-253,0l0,0l0,-129c0,-3.3 2.7,-6 6,-6z" class="st3"/><circle id="Эллипс_969" cx="180.1" cy="248.5" r="6.6" class="st4"/><g id="_1_копия_2"><ellipse id="Эллипс_584_копия_3" cx="178.9" cy="214.2" class="st5" rx="17.7" ry="17.7"/><circle id="Эллипс_584_копия_2" cx="178.8" cy="214.1" r="14.7" class="st6"/><g id="svg_9" stroke="null"><path id="svg_6" stroke="null" d="m175.710917,211.815297c0.078453,-0.078228 0.16128,-0.149282 0.24533,-0.219275c0.672719,-0.566925 1.490924,-0.868995 2.320451,-0.911454c1.065786,-0.052398 2.148524,0.323589 2.963931,1.136937c0.656185,0.66056 1.028023,1.496649 1.117477,2.354933l2.179403,2.184421c0.625788,-2.141576 0.096015,-4.54984 -1.591153,-6.241415c-1.807018,-1.81046 -4.437388,-2.295072 -6.686431,-1.455573c-0.723702,0.269937 -1.40874,0.675806 -2.012945,1.219411c-0.080672,0.073403 -0.160026,0.147513 -0.237674,0.225708c-0.057577,0.057738 -0.112388,0.116762 -0.168035,0.176109c-0.552386,0.594587 -0.968581,1.268271 -1.249872,1.984413c-0.890289,2.265898 -0.4234,4.941879 1.406617,6.776142c1.726507,1.729402 4.201837,2.24901 6.381144,1.561303l-2.1198,-2.123563c-0.92921,-0.049793 -1.843945,-0.429705 -2.555134,-1.139446c-0.840818,-0.846608 -1.212752,-1.978881 -1.12346,-3.081336c0.066648,-0.816018 0.390527,-1.612865 0.967069,-2.266605c0.054135,-0.060633 0.105762,-0.122777 0.163081,-0.180708z" opacity=".25"/><path id="svg_7" stroke="null" d="m184.819218,220.451273l-0.010068,-3.012437l-6.204874,-6.220475c-0.768637,0.03876 -1.528365,0.318604 -2.153606,0.844967l8.368549,8.387945z" opacity=".25"/><path id="svg_8" stroke="null" d="m184.443552,220.82517l-8.371122,-8.390068c-0.535595,0.605974 -0.836443,1.345952 -0.897494,2.103299l6.267276,6.282845l3.00134,0.003924z" opacity=".25"/></g></g><path id="Прямоугольник_скругл._углы_967_копия_6" d="m229.2,214c-2.2,0 -4,-1.8 -4,-4l0,-53.3c0,-0.4 0.1,-0.9 0.2,-1.3c-0.1,-0.3 -0.2,-0.6 -0.2,-0.8l0,0c0,-1 0.8,-1.9 1.9,-1.9l33.1,0c1,0 1.9,0.8 1.9,1.9c0,0.3 -0.1,0.6 -0.2,0.9c0.1,0.4 0.2,0.8 0.2,1.3l0,53.2c0,2.2 -1.8,4 -4,4l-28.9,0zm-88.8,0c-2.2,0 -4,-1.8 -4,-4l0,-75c0,-2.2 1.8,-4 4,-4l72.3,0c2.2,0 4,1.8 4,4l0,75c0,2.2 -1.8,4 -4,4l-72.3,0zm-26.4,0c-2.2,0 -4,-1.8 -4,-4l0,-55.2c0,-2.2 1.8,-4 4,-4l6.2,0c2.2,0 4,1.8 4,4l0,55.2c0,2.2 -1.8,4 -4,4l-6.2,0zm0,-66c-2.2,0 -4,-1.8 -4,-4l0,-9c0,-2.2 1.8,-4 4,-4l6.2,0c2.2,0 4,1.8 4,4l0,9c0,2.2 -1.8,4 -4,4l-6.2,0zm115.2,0c-2.2,0 -4,-1.8 -4,-4l0,-9c0,-2.2 1.8,-4 4,-4l28.8,0c2.2,0 4,1.8 4,4l0,9c0,2.2 -1.8,4 -4,4l-28.8,0z" class="st8"/><path id="Прямоугольник_скругл._углы_967" d="m112,147l10,0c2.2,0 4,1.8 4,4l0,56c0,2.2 -1.8,4 -4,4l-10,0c-2.2,0 -4,-1.8 -4,-4l0,-56c0,-2.2 1.8,-4 4,-4z" class="st9"/><path id="Прямоугольник_скругл._углы_967_копия" d="m112,127l10,0c2.2,0 4,1.8 4,4l0,9c0,2.2 -1.8,4 -4,4l-10,0c-2.2,0 -4,-1.8 -4,-4l0,-9c0,-2.2 1.8,-4 4,-4z" class="st10"/><path id="Эллипс_969_копия_3" d="m111.3,198.1c0,-2.9 2.3,-5.2 5.2,-5.2c2.9,0 5.2,2.3 5.2,5.2c0,2.9 -2.3,5.2 -5.2,5.2c0,0 0,0 0,0c-2.9,-0.1 -5.2,-2.4 -5.2,-5.2zm1.9,-12.3c0,-1.8 1.5,-3.3 3.3,-3.3c1.8,0 3.3,1.5 3.3,3.3s-1.5,3.3 -3.3,3.3s-3.3,-1.4 -3.3,-3.3l0,0zm0,-17.9c0,-1.8 1.5,-3.3 3.3,-3.3c1.8,0 3.3,1.5 3.3,3.3s-1.5,3.3 -3.3,3.3s-3.3,-1.5 -3.3,-3.3l0,0zm0,-11.3c0,-1.8 1.5,-3.3 3.3,-3.3c1.8,0 3.3,1.5 3.3,3.3s-1.5,3.3 -3.3,3.3s-3.3,-1.5 -3.3,-3.3l0,0z" class="st11"/><path id="Прямоугольник_скругл._углы_967_копия_2" d="m139,128l76,0c2.2,0 4,1.8 4,4l0,75c0,2.2 -1.8,4 -4,4l-76,0c-2.2,0 -4,-1.8 -4,-4l0,-75c0,-2.2 1.8,-4 4,-4z" class="st9"/><path id="Прямоугольник_скругл._углы_968_копия_10" d="m210.2,202.3c-0.5,0 -0.9,-0.4 -0.9,-0.9c0,-0.5 0.4,-0.9 0.9,-0.9c0,0 0,0 0,0l0,0c0.5,0 0.9,0.4 0.9,0.9c0.1,0.5 -0.4,0.9 -0.9,0.9c0,0 0,0 0,0l0,0zm-9.4,0c-0.5,0 -0.9,-0.4 -0.9,-0.9c0,-0.5 0.4,-0.9 0.9,-0.9c0,0 0,0 0,0l5.7,0c0.5,0 0.9,0.4 0.9,0.9c0,0.5 -0.4,0.9 -0.9,0.9c0,0 0,0 0,0l-5.7,0zm-14.1,0c-0.5,0 -0.9,-0.4 -0.9,-0.9c0,-0.5 0.4,-0.9 0.9,-0.9l1.9,0c0.5,0 0.9,0.4 0.9,0.9c0,0.5 -0.4,0.9 -0.9,0.9c0,0 0,0 0,0l-1.9,0zm-20.8,0c-0.5,0 -0.9,-0.4 -0.9,-0.9c0,-0.5 0.4,-0.9 0.9,-0.9c0,0 0,0 0,0l8.5,0c0.5,0 0.9,0.4 0.9,0.9c0,0.5 -0.4,0.9 -0.9,0.9l-8.5,0zm-12.2,0c-0.5,0 -0.9,-0.4 -0.9,-0.9c0,-0.5 0.4,-0.9 0.9,-0.9l8.5,0c0.5,0 0.9,0.4 0.9,0.9c0,0.5 -0.4,0.9 -0.9,0.9c0,0 0,0 0,0l-8.5,0zm-8.5,0c-0.5,0 -0.9,-0.4 -0.9,-0.9c0,-0.5 0.4,-0.9 0.9,-0.9c0,0 0,0 0,0l4.7,0c0.5,0 0.9,0.4 0.9,0.9c0,0.5 -0.4,0.9 -0.9,0.9l-4.7,0zm65,-9.4c-0.5,0 -0.9,-0.4 -0.9,-0.9s0.4,-0.9 0.9,-0.9l0,0c0.5,0 0.9,0.4 0.9,0.9s-0.4,0.9 -0.9,0.9l0,0zm-9.4,0c-0.5,0 -0.9,-0.4 -0.9,-0.9s0.4,-0.9 0.9,-0.9l5.6,0c0.5,0 0.9,0.4 0.9,0.9s-0.4,0.9 -0.9,0.9l-5.6,0zm-14.1,0c-0.5,0 -0.9,-0.4 -0.9,-0.9s0.4,-0.9 0.9,-0.9l0,0l1.9,0c0.5,0 0.9,0.4 0.9,0.9s-0.4,0.9 -0.9,0.9l-1.9,0zm-20.8,0c-0.5,0 -0.9,-0.4 -0.9,-0.9s0.4,-0.9 0.9,-0.9l0,0l8.5,0c0.5,0 0.9,0.4 0.9,0.9s-0.4,0.9 -0.9,0.9l-8.5,0zm-12.2,0c-0.5,0 -0.9,-0.4 -0.9,-0.9s0.4,-0.9 0.9,-0.9l8.5,0c0.5,0 0.9,0.4 0.9,0.9s-0.4,0.9 -0.9,0.9l-8.5,0zm-8.5,0c-0.5,0 -0.9,-0.4 -0.9,-0.9s0.4,-0.9 0.9,-0.9l4.7,0c0.5,0 0.9,0.4 0.9,0.9s-0.4,0.9 -0.9,0.9l-4.7,0zm65,-9.4c-0.5,0 -0.9,-0.4 -0.9,-0.9s0.4,-0.9 0.9,-0.9l0,0c0.5,0 0.9,0.4 0.9,0.9s-0.4,0.9 -0.9,0.9l0,0zm-9.4,0c-0.5,0 -0.9,-0.4 -0.9,-0.9s0.4,-0.9 0.9,-0.9l5.6,0c0.5,0 0.9,0.4 0.9,0.9s-0.4,0.9 -0.9,0.9l-5.6,0zm-14.1,0c-0.5,0 -0.9,-0.4 -0.9,-0.9s0.4,-0.9 0.9,-0.9l0,0l1.9,0c0.5,0 0.9,0.4 0.9,0.9s-0.4,0.9 -0.9,0.9l-1.9,0zm-20.8,0c-0.5,0 -0.9,-0.4 -0.9,-0.9s0.4,-0.9 0.9,-0.9l0,0l8.5,0c0.5,0 0.9,0.4 0.9,0.9s-0.4,0.9 -0.9,0.9l-8.5,0zm-12.2,0c-0.5,0 -0.9,-0.4 -0.9,-0.9s0.4,-0.9 0.9,-0.9l8.5,0c0.5,0 0.9,0.4 0.9,0.9s-0.4,0.9 -0.9,0.9l-8.5,0zm-8.5,0c-0.5,0 -0.9,-0.4 -0.9,-0.9s0.4,-0.9 0.9,-0.9l4.7,0c0.5,0 0.9,0.4 0.9,0.9s-0.4,0.9 -0.9,0.9l-4.7,0zm65,-9.5c-0.5,0 -0.9,-0.4 -0.9,-0.9s0.4,-0.9 0.9,-0.9l0,0c0.5,0 0.9,0.4 0.9,0.9s-0.4,0.9 -0.9,0.9l0,0zm-9.4,0c-0.5,0 -0.9,-0.4 -0.9,-0.9s0.4,-0.9 0.9,-0.9l5.6,0c0.5,0 0.9,0.4 0.9,0.9s-0.4,0.9 -0.9,0.9l-5.6,0zm-14.1,0c-0.5,0 -0.9,-0.4 -0.9,-0.9s0.4,-0.9 0.9,-0.9l0,0l1.9,0c0.5,0 0.9,0.4 0.9,0.9s-0.4,0.9 -0.9,0.9l-1.9,0zm-20.8,0c-0.5,0 -0.9,-0.4 -0.9,-0.9s0.4,-0.9 0.9,-0.9l0,0l8.5,0c0.5,0 0.9,0.4 0.9,0.9s-0.4,0.9 -0.9,0.9l-8.5,0zm-12.2,0c-0.5,0 -0.9,-0.4 -0.9,-0.9s0.4,-0.9 0.9,-0.9l8.5,0c0.5,0 0.9,0.4 0.9,0.9s-0.4,0.9 -0.9,0.9l-8.5,0zm-8.5,0c-0.5,0 -0.9,-0.4 -0.9,-0.9s0.4,-0.9 0.9,-0.9l4.7,0c0.5,0 0.9,0.4 0.9,0.9s-0.4,0.9 -0.9,0.9l-4.7,0zm65,-9.4c-0.5,0 -0.9,-0.4 -0.9,-0.9s0.4,-0.9 0.9,-0.9l0,0c0.5,0 0.9,0.4 0.9,0.9s-0.4,0.9 -0.9,0.9l0,0zm-9.4,0c-0.5,0 -0.9,-0.4 -0.9,-0.9s0.4,-0.9 0.9,-0.9l5.6,0c0.5,0 0.9,0.4 0.9,0.9s-0.4,0.9 -0.9,0.9l-5.6,0zm-14.1,0c-0.5,0 -0.9,-0.4 -0.9,-0.9s0.4,-0.9 0.9,-0.9l0,0l1.9,0c0.5,0 0.9,0.4 0.9,0.9s-0.4,0.9 -0.9,0.9l-1.9,0zm-20.8,0c-0.5,0 -0.9,-0.4 -0.9,-0.9s0.4,-0.9 0.9,-0.9l0,0l8.5,0c0.5,0 0.9,0.4 0.9,0.9s-0.4,0.9 -0.9,0.9l-8.5,0zm-12.2,0c-0.5,0 -0.9,-0.4 -0.9,-0.9s0.4,-0.9 0.9,-0.9l8.5,0c0.5,0 0.9,0.4 0.9,0.9s-0.4,0.9 -0.9,0.9l-8.5,0zm-8.5,0c-0.5,0 -0.9,-0.4 -0.9,-0.9s0.4,-0.9 0.9,-0.9l4.7,0c0.5,0 0.9,0.4 0.9,0.9s-0.4,0.9 -0.9,0.9l-4.7,0zm65,-9.4c-0.5,0 -0.9,-0.4 -0.9,-0.9s0.4,-0.9 0.9,-0.9l0,0c0.5,0 0.9,0.4 0.9,0.9s-0.4,0.9 -0.9,0.9l0,0zm-9.4,0c-0.5,0 -0.9,-0.4 -0.9,-0.9s0.4,-0.9 0.9,-0.9l5.6,0c0.5,0 0.9,0.4 0.9,0.9s-0.4,0.9 -0.9,0.9l-5.6,0zm-14.1,0c-0.5,0 -0.9,-0.4 -0.9,-0.9s0.4,-0.9 0.9,-0.9l0,0l1.9,0c0.5,0 0.9,0.4 0.9,0.9s-0.4,0.9 -0.9,0.9l-1.9,0zm-20.8,0c-0.5,0 -0.9,-0.4 -0.9,-0.9s0.4,-0.9 0.9,-0.9l0,0l8.5,0c0.5,0 0.9,0.4 0.9,0.9s-0.4,0.9 -0.9,0.9l-8.5,0zm-12.2,0c-0.5,0 -0.9,-0.4 -0.9,-0.9s0.4,-0.9 0.9,-0.9l8.5,0c0.5,0 0.9,0.4 0.9,0.9s-0.4,0.9 -0.9,0.9l-8.5,0zm-8.5,0c-0.5,0 -0.9,-0.4 -0.9,-0.9s0.4,-0.9 0.9,-0.9l4.7,0c0.5,0 0.9,0.4 0.9,0.9s-0.4,0.9 -0.9,0.9l-4.7,0zm65,-9.4c-0.5,0 -0.9,-0.4 -0.9,-0.9s0.4,-0.9 0.9,-0.9l0,0c0.5,0 0.9,0.4 0.9,0.9s-0.4,0.9 -0.9,0.9l0,0zm-9.4,0c-0.5,0 -0.9,-0.4 -0.9,-0.9s0.4,-0.9 0.9,-0.9l5.6,0c0.5,0 0.9,0.4 0.9,0.9s-0.4,0.9 -0.9,0.9l-5.6,0zm-14.1,0c-0.5,0 -0.9,-0.4 -0.9,-0.9s0.4,-0.9 0.9,-0.9l0,0l1.9,0c0.5,0 0.9,0.4 0.9,0.9s-0.4,0.9 -0.9,0.9l-1.9,0zm-20.8,0c-0.5,0 -0.9,-0.4 -0.9,-0.9s0.4,-0.9 0.9,-0.9l0,0l8.5,0c0.5,0 0.9,0.4 0.9,0.9s-0.4,0.9 -0.9,0.9l-8.5,0zm-12.2,0c-0.5,0 -0.9,-0.4 -0.9,-0.9s0.4,-0.9 0.9,-0.9l8.5,0c0.5,0 0.9,0.4 0.9,0.9s-0.4,0.9 -0.9,0.9l-8.5,0zm-8.5,0c-0.5,0 -0.9,-0.4 -0.9,-0.9s0.4,-0.9 0.9,-0.9l4.7,0c0.5,0 0.9,0.4 0.9,0.9s-0.4,0.9 -0.9,0.9l-4.7,0zm65,-9.4c-0.5,0 -0.9,-0.4 -0.9,-0.9l0,0l0,0c0,-0.5 0.4,-0.9 0.9,-0.9l0,0l0,0c0.5,0 0.9,0.4 0.9,0.9l0,0l0,0c0.1,0.5 -0.4,0.9 -0.9,0.9c0,0 0,0 0,0l0,0zm-9.4,0c-0.5,0 -0.9,-0.4 -0.9,-0.9c0,0 0,0 0,0l0,0c0,-0.5 0.4,-0.9 0.9,-0.9l5.6,0c0.5,0 0.9,0.4 0.9,0.9l0,0l0,0c0,0.5 -0.4,0.9 -0.9,0.9l0,0l-5.6,0zm-14.1,0c-0.5,0 -0.9,-0.4 -0.9,-0.9c0,0 0,0 0,0l0,0c0,-0.5 0.4,-0.9 0.9,-0.9l0,0l1.9,0c0.5,0 0.9,0.4 0.9,0.9l0,0l0,0c0,0.5 -0.4,0.9 -0.9,0.9c0,0 0,0 0,0l-1.9,0zm-20.8,0c-0.5,0 -0.9,-0.4 -0.9,-0.9l0,0l0,0c0,-0.5 0.4,-0.9 0.9,-0.9l0,0l8.5,0c0.5,0 0.9,0.4 0.9,0.9l0,0l0,0c0,0.5 -0.4,0.9 -0.9,0.9c0,0 0,0 0,0l-8.5,0zm-12.2,0c-0.5,0 -0.9,-0.4 -0.9,-0.9l0,0l0,0c0,-0.5 0.4,-0.9 0.9,-0.9l0,0l8.5,0c0.5,0 0.9,0.4 0.9,0.9l0,0l0,0c0,0.5 -0.4,0.9 -0.9,0.9c0,0 0,0 0,0l-8.5,0zm-8.5,0c-0.5,0 -0.9,-0.4 -0.9,-0.9c0,0 0,0 0,0l0,0c0,-0.5 0.4,-0.9 0.9,-0.9l0,0l4.7,0c0.5,0 0.9,0.4 0.9,0.9l0,0l0,0c0,0.5 -0.4,0.9 -0.9,0.9l0,0l-4.7,0z" class="st11"/><path id="Прямоугольник_скругл._углы_967_копия_3" d="m227,149l33,0c2.2,0 4,1.8 4,4l0,53c0,2.2 -1.8,4 -4,4l-33,0c-2.2,0 -4,-1.8 -4,-4l0,-53c0,-2.2 1.8,-4 4,-4z" class="st9"/><path id="Прямоугольник_скругл._углы_969_копия_2" d="m235.6,198.5c0,-1 0.8,-1.9 1.9,-1.9s1.9,0.8 1.9,1.9s-0.8,1.9 -1.9,1.9l0,0c-1,0 -1.9,-0.8 -1.9,-1.9zm6.6,1c-0.5,0 -0.9,-0.4 -0.9,-0.9s0.4,-0.9 0.9,-0.9l0,0l13.2,0c0.5,0 0.9,0.4 0.9,0.9s-0.4,0.9 -0.9,0.9l-13.2,0zm-13.2,-4.7c0,-2.6 2.1,-4.7 4.7,-4.7s4.7,2.1 4.7,4.7c0,0.1 0,0.2 0,0.3c-1.6,-0.8 -3.6,-0.1 -4.4,1.6c-0.4,0.9 -0.4,1.9 0,2.8c-0.1,0 -0.2,0 -0.3,0c-2.5,0 -4.7,-2.1 -4.7,-4.7l0,0zm13.2,1.9c-0.5,0 -0.9,-0.4 -0.9,-0.9s0.4,-0.9 0.9,-0.9l0,0l5.6,0c0.5,0 0.9,0.4 0.9,0.9s-0.4,0.9 -0.9,0.9l-5.6,0zm-6.6,-16.1c0,-1 0.8,-1.9 1.9,-1.9s1.9,0.8 1.9,1.9s-0.8,1.9 -1.9,1.9l0,0c-1,0 -1.9,-0.8 -1.9,-1.9zm6.6,1c-0.5,0 -0.9,-0.4 -0.9,-0.9l0,0c0,-0.5 0.4,-0.9 0.9,-0.9l0,0l13.2,0c0.5,0 0.9,0.4 0.9,0.9l0,0c0,0.5 -0.4,0.9 -0.9,0.9l-13.2,0zm-13.2,-4.7c0,-2.6 2.1,-4.7 4.7,-4.7s4.7,2.1 4.7,4.7c0,0.1 0,0.2 0,0.3c-0.4,-0.2 -0.9,-0.3 -1.4,-0.3c-1.8,0 -3.3,1.5 -3.3,3.3l0,0c0,0.5 0.1,1 0.3,1.4c-0.1,0 -0.2,0 -0.3,0c-2.6,0 -4.7,-2.1 -4.7,-4.7l0,0zm13.2,1.9c-0.5,0 -0.9,-0.4 -0.9,-0.9s0.4,-0.9 0.9,-0.9l0,0l5.6,0c0.5,0 0.9,0.4 0.9,0.9s-0.4,0.9 -0.9,0.9l-5.6,0z" class="st11"/><path id="Прямоугольник_скругл._углы_969_копия_3" d="m231.9,156.2l8.5,0c0.5,0 0.9,0.4 0.9,0.9l0,0c0,0.5 -0.4,0.9 -0.9,0.9l-8.5,0c-0.5,0 -0.9,-0.4 -0.9,-0.9l0,0c-0.1,-0.5 0.4,-0.9 0.9,-0.9z" class="st11"/><path id="Прямоугольник_скругл._углы_969_копия_4" d="m248.8,156.2l8.5,0c0.5,0 0.9,0.4 0.9,0.9l0,0c0,0.5 -0.4,0.9 -0.9,0.9l-8.5,0c-0.5,0 -0.9,-0.4 -0.9,-0.9l0,0c0,-0.5 0.4,-0.9 0.9,-0.9z" class="st11"/><path id="Фигура_1664" d="m230,162.7l0,-0.9l30.2,0l0,0.9l-30.2,0zm14.1,-1.8l0,-7.5l0.9,0l0,7.5l-0.9,0z" class="st12"/><path id="Прямоугольник_скругл._углы_967_копия_3-2" d="m227.4,126.9l32.5,0c2.2,0 4,1.8 4,4l0,9c0,2.2 -1.8,4 -4,4l-32.5,0c-2.2,0 -4,-1.8 -4,-4l0,-9c0,-2.2 1.8,-4 4,-4z" class="st13"/><path id="Прямоугольник_скругл._углы_969_копия_7" d="m231.9,138.2c-0.5,0 -0.9,-0.4 -0.9,-0.9s0.4,-0.9 0.9,-0.9l17.9,0c0.5,0 0.9,0.4 0.9,0.9s-0.4,0.9 -0.9,0.9l-17.9,0zm0,-3.7c-0.5,0 -0.9,-0.4 -0.9,-0.9s0.4,-0.9 0.9,-0.9l8.5,0c0.5,0 0.9,0.4 0.9,0.9s-0.4,0.9 -0.9,0.9l-8.5,0z" class="st14"/><path id="_2" d="m223,204l41,0l0,0l0,10c0,2.2 -1.8,4 -4,4l-33,0c-2.2,0 -4,-1.8 -4,-4l0,-10l0,0z" class="st15"/><path id="Прямоугольник_скругл._углы_968_копия_6" d="m223,206l41,0l0,0l0,6c0,2.2 -1.8,4 -4,4l-33,0c-2.2,0 -4,-1.8 -4,-4l0,-6l0,0z" class="st16"/><path id="Фигура_1650_копия" d="m223,286.5c0,10.9 8.8,19.7 19.7,19.7c9.9,0 20.8,-5.8 20.8,-19.7l0,-40.5c0,-3.8 -10.9,-7.5 -19.7,-7.5s-20.8,2.9 -20.8,7.5l0,40.5z" class="st17"/><path id="Прямоугольник_скругл._углы_968" d="m232.9,207l20.3,0c2.2,0 4,1.8 4,4l0,20.8c0,2.2 -1.8,4 -4,4l-20.3,0c-2.2,0 -4,-1.8 -4,-4l0,-20.8c0,-2.2 1.8,-4 4,-4z" class="st18"/><path id="Прямоугольник_скругл._углы_968_копия_2" d="m232.9,208.1l20.3,0c2.2,0 4,1.8 4,4l0,20.8c0,2.2 -1.8,4 -4,4l-20.3,0c-2.2,0 -4,-1.8 -4,-4l0,-20.8c0,-2.2 1.8,-4 4,-4z" class="st9"/><circle id="Прямоугольник_скругл._углы_968_копия_3" cx="236.1" cy="219" r="2.4" class="st19"/><circle id="Прямоугольник_скругл._углы_968_копия_4" cx="251" cy="219" r="2.4" class="st19"/><path id="Прямоугольник_скругл._углы_968_копия" d="m230.2,229.4l25.6,0c2.2,0 4,1.8 4,4l0,4.8c0,2.2 -1.8,4 -4,4l-25.6,0c-2.2,0 -4,-1.8 -4,-4l0,-4.8c0,-2.2 1.8,-4 4,-4z" class="st20"/><path id="Фигура_1651_копия_2" d="m226.2,236.2c0,-1.4 3.2,-4.2 16.4,-4.2s17.2,2.5 17.2,4.2l0,2.8c0,0 -3.9,-3.1 -17.2,-3.1s-16.4,3.1 -16.4,3.1l0,-2.8z" class="st21"/><path id="Фигура_1650" d="m223,282.7c0,10.9 8.8,19.7 19.7,19.7c9.9,0 20.8,-5.8 20.8,-19.7l0,-40.5c0,-3.8 -10.9,-7.5 -19.7,-7.5s-20.8,2.9 -20.8,7.5l0,40.5z" class="st3"/><path id="Фигура_1651" d="m223,242.2c0,-2.7 3.8,-8 19.7,-8s20.8,4.8 20.8,8l0,5.3c0,0 -4.7,-5.9 -20.8,-5.9s-19.7,5.9 -19.7,5.9l0,-5.3z" class="st22"/><path id="Фигура_1651_копия" d="m223,243.8c0,-2.7 3.8,-8 19.7,-8s20.8,4.8 20.8,8l0,5.3c0,0 -4.7,-5.9 -20.8,-5.9s-19.7,5.9 -19.7,5.9l0,-5.3z" class="st20"/><path id="Прямоугольник_скругл._углы_969" d="m242,253l4,0c5.5,0 10,4.5 10,10l0,8c0,5.5 -4.5,10 -10,10l-4,0c-5.5,0 -10,-4.5 -10,-10l0,-8c0,-5.5 4.5,-10 10,-10z" class="st23"/><path id="Прямоугольник_скругл._углы_969_копия" d="m242,253l4,0c5.5,0 10,4.5 10,10l0,6.9c0,5.5 -4.5,10 -10,10l-4,0c-5.5,0 -10,-4.5 -10,-10l0,-6.9c0,-5.5 4.5,-10 10,-10z" class="st24"/><path id="Прямоугольник_6_копия" d="m247,274l0,-4l4,0l0,1.2c0,1.5 -1.2,2.8 -2.8,2.8l0,0l-1.2,0zm-5,0l0,-4l4,0l0,4l-4,0zm-2.2,0c-1.5,0 -2.8,-1.2 -2.8,-2.8l0,0l0,-1.2l4,0l0,4l-1.2,0zm-2.8,-5l0,-4l4,0l0,4l-4,0zm5,0l0,-9l6.6,0c1.3,0 2.4,1.1 2.4,2.4l0,6.6l-9,0zm-5,-5l0,-1.2c0,-1.5 1.2,-2.8 2.8,-2.8l0,0l1.2,0l0,4l-4,0z" class="st25"/><path id="Прямоугольник_скругл._углы_968_копия_7" d="m223,208l41,0l0,0l0,3c0,2.2 -1.8,4 -4,4l-33,0c-2.2,0 -4,-1.8 -4,-4l0,-3l0,0z" class="st26"/><path id="Прямоугольник_скругл._углы_968_копия_8" d="m223,204l41,0l0,0l0,3c0,2.2 -1.8,4 -4,4l-33,0c-2.2,0 -4,-1.8 -4,-4l0,-3l0,0z" class="st27"/><path id="Фигура_1665" d="m235,275l0,0c-25.8,23.4 -55.4,-8.2 -55.5,-35.6" class="st28"/><path id="Фигура_1666" d="m185.6,245.6c0,0 -5.5,-7.3 -6.7,-7.1s-3.1,9.1 -3.1,9.1" class="st29"/></g></g></g></g></svg>