<svg xmlns="http://www.w3.org/2000/svg" xmlns:xlink="http://www.w3.org/1999/xlink" id="Layer_1" width="50" height="50" x="0" y="0" enable-background="new 0 0 50 50" version="1.1" viewBox="0 0 50 50" xml:space="preserve"><g><title>background</title><rect id="canvas_background" width="582" height="402" x="-1" y="-1" fill="none"/></g><g><path fill-rule="evenodd" d="M4.224,14.004c-0.172,0.674-0.363,1.345-0.514,2.023 c-0.404,1.822-0.549,3.668-0.478,5.532c0.082,2.166,0.454,4.277,1.163,6.329c0.881,2.547,2.21,4.834,4.099,6.781 c1.227,1.264,2.701,2.19,4.28,2.961c1.849,0.901,3.789,1.527,5.822,1.862c1.357,0.222,2.72,0.273,4.093,0.124 c1.91-0.209,3.756-0.646,5.529-1.389c2.819-1.182,4.941-3.135,6.501-5.717c0.962-1.593,1.679-3.29,2.116-5.089 c0.146-0.602,0.148-1.246,0.153-1.871c0.018-2.131-0.344-4.197-1.272-6.133c-1.334-2.778-3.475-4.735-6.319-5.946 c-1.789-0.762-3.663-1.092-5.609-1.003c-2.2,0.1-4.223,0.713-5.974,2.072c-1.977,1.534-3.171,3.533-3.528,6 c-0.297,2.054,0.043,3.993,1.124,5.786c0.973,1.615,2.424,2.66,4.176,3.293c2.11,0.761,4.229,0.745,6.315-0.121 c0.68-0.281,1.284-0.68,1.83-1.207c1.729,1.413,3.454,2.821,5.206,4.253c-0.272,0.313-0.525,0.63-0.804,0.924 c-1.469,1.551-3.245,2.638-5.248,3.371c-2.062,0.754-4.193,1.071-6.389,0.98c-2.251-0.093-4.377-0.652-6.431-1.567 c-2.147-0.956-3.988-2.295-5.521-4.05c-1.853-2.123-3.104-4.56-3.814-7.271c-0.446-1.706-0.62-3.44-0.537-5.198 c0.045-0.961,0.222-1.905,0.404-2.849c0.729-3.766,2.613-6.896,5.362-9.542c2.443-2.351,5.303-4.013,8.58-4.959 c1.002-0.289,2.026-0.465,3.061-0.605c1.259-0.171,2.519-0.264,3.788-0.244c2.794,0.046,5.493,0.572,8.104,1.546 c3.304,1.233,6.228,3.056,8.683,5.578c3.129,3.213,5.147,7.012,6.063,11.384c0.415,1.98,0.588,3.982,0.492,6 c-0.208,4.373-1.357,8.479-3.698,12.218c-2.445,3.902-5.847,6.725-10.077,8.579c-1.993,0.873-4.071,1.461-6.222,1.807 c-1.655,0.265-3.319,0.381-4.994,0.35c-4.776-0.09-9.052-1.595-12.83-4.479c-2.933-2.24-5.232-5.021-7.049-8.201 c-0.93-1.628-1.731-3.314-2.26-5.117c-0.407-1.386-0.63-2.802-0.714-4.242c-0.077-1.321-0.042-2.641,0.119-3.952 c0.32-2.619,0.981-5.141,2.239-7.483c0.285-0.529,0.629-1.027,0.946-1.54C4.201,13.987,4.212,13.996,4.224,14.004z" clip-rule="evenodd"/></g></svg>