<svg height="512pt" viewBox="0 0 512 512.0015" width="512pt" xmlns="http://www.w3.org/2000/svg"><path d="m476.296875 38.265625-2.5625-2.566406c-47.601563-47.597657-124.777344-47.597657-172.378906 0l-92.203125 92.203125c-47.601563 47.601562-47.601563 124.78125 0 172.378906l2.5625 2.566406c47.601562 47.597656 124.777344 47.597656 172.378906 0l92.203125-92.203125c47.601563-47.601562 47.601563-124.777343 0-172.378906zm-46.882813 128.054687-89.640624 89.640626c-11.183594 11.183593-26.054688 17.34375-41.867188 17.34375-15.816406 0-30.6875-6.160157-41.867188-17.34375-23.085937-23.085938-23.085937-60.648438 0-83.734376l89.636719-89.640624c11.1875-11.183594 26.054688-17.34375 41.871094-17.34375s30.683594 6.160156 41.867187 17.34375c23.085938 23.085937 23.085938 60.648437 0 83.734374zm0 0" fill="#ffb500"/><path d="m429.414062 166.320312-89.640624 89.640626c-11.183594 11.183593-26.054688 17.34375-41.867188 17.34375-15.816406 0-30.6875-6.160157-41.867188-17.34375l-45.605468 45.601562 1.28125 1.285156c47.601562 47.597656 124.78125 47.597656 172.378906 0l92.203125-92.203125c47.601563-47.601562 47.601563-124.78125 0-172.378906l-1.28125-1.28125-45.601563 45.601563c23.085938 23.085937 23.085938 60.648437 0 83.734374zm0 0" fill="#ff9300"/><path d="m261.730469 333.070312c-1.730469 2.34375-3.652344 4.585938-5.769531 6.707032l-89.640626 89.636718c-11.183593 11.183594-26.050781 17.34375-41.867187 17.34375s-30.683594-6.160156-41.867187-17.34375c-11.183594-11.183593-17.34375-26.050781-17.34375-41.867187s6.160156-30.683594 17.34375-41.867187l89.636718-89.640626c11.183594-11.183593 26.054688-17.34375 41.871094-17.34375s30.683594 6.160157 41.867188 17.34375l.078124-.078124c11.183594 11.183593 26.050782 17.34375 41.867188 17.34375 12.835938 0 25.046875-4.058594 35.167969-11.5625-5.667969-18.304688-15.738281-35.535157-30.226563-50.027344l-2.5625-2.5625c-47.601562-47.597656-124.78125-47.597656-172.378906 0l-92.203125 92.203125c-47.601563 47.601562-47.601563 124.777343 0 172.378906l2.5625 2.5625c47.601563 47.601563 124.777344 47.601563 172.378906 0l92.203125-92.199219c14.691406-14.691406 24.839844-32.203125 30.460938-50.789062-23.308594 7.054687-48.308594 6.972656-71.578125-.238282zm0 0" fill="#ffe645"/><g fill="#ffc12e"><path d="m256.039062 255.960938c11.179688 11.183593 26.050782 17.34375 41.867188 17.34375 12.832031 0 25.042969-4.058594 35.167969-11.5625-5.667969-18.304688-15.738281-35.535157-30.230469-50.027344l-1.277344-1.277344zm0 0"/><path d="m261.730469 333.070312c-1.730469 2.34375-3.652344 4.585938-5.769531 6.707032l-89.640626 89.636718c-11.183593 11.183594-26.050781 17.34375-41.867187 17.34375s-30.683594-6.160156-41.867187-17.34375l-45.605469 45.605469 1.28125 1.28125c47.601562 47.601563 124.78125 47.601563 172.378906 0l92.203125-92.203125c14.691406-14.691406 24.84375-32.199218 30.464844-50.785156-23.308594 7.050781-48.308594 6.96875-71.578125-.242188zm0 0"/></g></svg>