<?xml version="1.0" encoding="iso-8859-1"?>
<!-- Generator: Adobe Illustrator 19.0.0, SVG Export Plug-In . SVG Version: 6.00 Build 0)  -->
<svg version="1.1" id="Capa_1" xmlns="http://www.w3.org/2000/svg" xmlns:xlink="http://www.w3.org/1999/xlink" x="0px" y="0px"
	 viewBox="0 0 512 512" style="enable-background:new 0 0 512 512;" xml:space="preserve">
<path style="fill:#F5F0EB;" d="M512,256.005c0,68.38-26.629,132.664-74.98,181.015C388.81,485.231,324.766,511.84,256.606,512
	h-0.601c-68.38,0-132.674-26.629-181.025-74.98S0,324.385,0,256.005S26.629,123.331,74.98,74.98S187.625,0,256.005,0h0.601
	c68.16,0.16,132.204,26.769,180.414,74.98C485.371,123.331,512,187.625,512,256.005z"/>
<path style="fill:#DCD2CD;" d="M512,256.005c0,68.38-26.629,132.664-74.98,181.015C388.81,485.231,324.766,511.84,256.606,512V0
	c68.16,0.16,132.204,26.769,180.414,74.98C485.371,123.331,512,187.625,512,256.005z"/>
<path style="fill:#FF712F;" d="M446.734,256.005c0,104.964-85.235,190.389-190.129,190.719h-0.601
	c-105.174,0-190.729-85.555-190.729-190.719c0-105.174,85.555-190.729,190.729-190.729h0.601
	C361.5,65.606,446.734,151.031,446.734,256.005z"/>
<path style="fill:#FF4C04;" d="M446.734,256.005c0,104.964-85.235,190.389-190.129,190.719V65.276
	C361.5,65.606,446.734,151.031,446.734,256.005z"/>
<path style="fill:#FFFFFF;" d="M319.738,255.745c0,8.292-6.73,15.022-15.022,15.022H203.949c-8.302,0-15.022-6.73-15.022-15.022
	c0-8.302,6.72-15.022,15.022-15.022h100.768C313.008,240.723,319.738,247.442,319.738,255.745z"/>
<path style="fill:#F5F0EB;" d="M319.738,255.745c0,8.292-6.73,15.022-15.022,15.022h-48.11v-30.044h48.11
	C313.008,240.723,319.738,247.442,319.738,255.745z"/>
<g>
</g>
<g>
</g>
<g>
</g>
<g>
</g>
<g>
</g>
<g>
</g>
<g>
</g>
<g>
</g>
<g>
</g>
<g>
</g>
<g>
</g>
<g>
</g>
<g>
</g>
<g>
</g>
<g>
</g>
</svg>
