<svg xmlns="http://www.w3.org/2000/svg" xmlns:xlink="http://www.w3.org/1999/xlink" width="50" height="50" x="0" y="0" enable-background="new 0 0 50 50" version="1.1" viewBox="0 0 50 50" xml:space="preserve"><g id="motion" display="none"><g display="inline"><path d="M44.126,45.256l-0.022-7.104L29.471,23.482c-1.813,0.092-3.604,0.752-5.08,1.993L44.126,45.256z"/><path d="M43.241,46.137L23.5,26.353c-1.263,1.428-1.973,3.173-2.118,4.959l14.78,14.816L43.241,46.137z"/><g><path fill-rule="evenodd" d="M44.884,30.57c0,0.651,0,1.304,0,1.956c-0.061,0.331-0.117,0.66-0.181,0.989 c-0.126,0.639-0.254,1.277-0.392,1.968c-0.178-0.096-0.229-0.11-0.264-0.144c-1.601-1.55-3.217-3.087-4.785-4.671 c-0.287-0.291-0.412-0.768-0.547-1.18c-0.172-0.532-0.185-1.133-0.429-1.624c-1.424-2.894-3.572-4.871-6.882-5.416 c-1.438-0.238-2.828-0.33-4.258,0.059c-1.034,0.281-1.891,0.854-2.8,1.36c-2.021,1.123-3.128,2.964-3.713,5.069 c-0.326,1.173-0.368,2.502-0.217,3.721c0.487,3.938,3.589,7.052,7.493,7.699c1.004,0.167,1.839,0.593,2.514,1.369 c0.663,0.762,1.372,1.486,2.064,2.224c0.533,0.571,1.071,1.139,1.672,1.775c-0.458,0.112-0.813,0.223-1.175,0.285 c-0.906,0.152-1.817,0.28-2.726,0.419c-0.445,0-0.893,0-1.339,0c-0.538-0.07-1.078-0.123-1.611-0.215 c-3.369-0.574-6.342-1.953-8.696-4.471c-2.597-2.776-5.134-5.609-7.696-8.421c-2.651-2.907-5.3-5.818-7.95-8.728 c0-0.206,0-0.412,0-0.618c0.621-0.536,0.771-0.529,1.356,0.069c0.072,0.073,0.146,0.146,0.214,0.222 c1.771,1.961,3.538,3.922,5.312,5.879c0.437,0.482,0.861,0.983,1.343,1.416c0.503,0.451,0.946,0.414,1.419-0.012 c0.449-0.405,0.497-0.874,0.124-1.424c-0.154-0.226-0.334-0.435-0.519-0.637c-2.438-2.697-4.881-5.392-7.319-8.088 c-0.517-0.572-1.036-1.143-1.533-1.733c-0.278-0.331-0.213-0.666,0.103-0.953c0.317-0.289,0.625-0.229,0.913,0.041 c0.174,0.164,0.338,0.341,0.499,0.52c2.868,3.163,5.734,6.327,8.602,9.49c0.258,0.285,0.528,0.559,0.805,0.85 c0.883-1.615,0.662-2.838-0.667-3.98c-0.193-0.167-0.36-0.366-0.524-0.562c-0.388-0.462-0.404-0.768-0.076-1.079 c0.344-0.323,0.691-0.294,1.117,0.136c0.349,0.353,0.678,0.726,0.995,1.109c0.226,0.271,0.407,0.284,0.59-0.024 c0.175-0.294,0.36-0.582,0.515-0.886c0.313-0.613,0.253-0.976-0.219-1.487c-0.874-0.944-1.749-1.886-2.622-2.831 c-0.43-0.466-0.868-0.926-1.282-1.406c-0.376-0.434-0.367-0.761-0.016-1.074c0.338-0.301,0.618-0.269,1.023,0.12 c0.075,0.071,0.147,0.145,0.215,0.221c1.233,1.381,2.464,2.764,3.697,4.145c0.239,0.268,0.47,0.365,0.761,0.039 c1.041-1.16,2.078-2.326,3.451-3.12c0.13-0.075,0.25-0.164,0.423-0.277c-0.296-0.422-0.534-0.847-0.852-1.198 c-1.08-1.194-2.188-2.364-3.288-3.541c-0.435-0.464-0.441-0.8-0.007-1.183c0.395-0.348,0.738-0.28,1.135,0.172 c1.312,1.494,2.621,2.989,3.967,4.452c0.196,0.214,0.613,0.385,0.885,0.336c0.559-0.1,1.088-0.361,1.743-0.598 c-0.291-0.376-0.517-0.687-0.761-0.982c-0.241-0.29-0.515-0.552-0.745-0.85c-0.25-0.323-0.271-0.66,0.068-0.958 c0.347-0.307,0.671-0.202,0.947,0.091c0.424,0.448,0.845,0.901,1.229,1.382c0.616,0.768,1.273,0.997,2.212,0.727 c0.145-0.041,0.31-0.014,0.454-0.051c0.223-0.055,0.435-0.14,0.651-0.213c-0.098-0.182-0.163-0.394-0.299-0.542 c-3.037-3.334-6.075-6.667-9.132-9.984c-0.492-0.533-0.636-1.07-0.325-1.725c0.206,0,0.412,0,0.618,0 c0.754,0.794,1.526,1.572,2.26,2.385c2.377,2.637,4.74,5.288,7.113,7.929c0.612,0.682,1.39,0.876,1.854,0.487 c0.498-0.415,0.451-1.239-0.166-1.934c-1.788-2.014-3.594-4.012-5.396-6.014c-0.435-0.484-0.905-0.939-1.313-1.446 c-0.269-0.334-0.151-0.684,0.172-0.947c0.302-0.246,0.604-0.208,0.874,0.054c0.198,0.191,0.381,0.396,0.563,0.6 c1.488,1.66,2.98,3.318,4.462,4.984c2.277,2.563,4.544,5.137,6.825,7.698c0.6,0.674,1.17,1.396,1.864,1.96 c2.951,2.406,4.605,5.555,5.412,9.205C44.808,29.485,44.822,30.032,44.884,30.57z" clip-rule="evenodd"/></g></g></g><g id="wave"><path d="M12.925,16.782c0.238-0.238,0.489-0.454,0.745-0.667c2.043-1.722,4.528-2.64,7.048-2.769 c3.238-0.159,6.526,0.983,9.003,3.454c1.992,2.006,3.122,4.546,3.395,7.153l6.62,6.635c1.9-6.505,0.292-13.82-4.834-18.958 c-5.487-5.5-13.478-6.971-20.31-4.421c-2.198,0.82-4.279,2.053-6.114,3.704c-0.245,0.223-0.486,0.448-0.722,0.685 c-0.175,0.176-0.341,0.355-0.51,0.535c-1.678,1.806-2.942,3.853-3.796,6.028c-2.705,6.882-1.287,15.012,4.272,20.584 c5.245,5.251,12.764,6.83,19.384,4.742l-6.439-6.451c-2.822-0.151-5.601-1.305-7.761-3.461c-2.554-2.57-3.684-6.011-3.413-9.359 c0.203-2.479,1.186-4.899,2.938-6.885C12.594,17.146,12.751,16.958,12.925,16.782z"/><path d="M16.888,21.123c7.308-2.489,11.163,2.036,11.862,2.968c0.115,0.156,0.238,0.326,0.373,0.513 c1.554,2.128,4.443,6.088,10.104,7.95c4.65,1.528,8.295,1.326,9.773,1.139c-1.797,1.2-7.989,4.921-14.992,4.469 c-5.856-0.375-9.391-5.774-12.511-10.536c-1.671-2.551-3.253-4.968-5.019-6.311L16.888,21.123z"/><path stroke="#FFF" stroke-miterlimit="10" d="M15.82,26.281c7.307-2.487,11.161,2.04,11.86,2.973 c0.115,0.154,0.239,0.324,0.375,0.512c1.553,2.128,4.443,6.088,10.104,7.95c4.647,1.528,8.294,1.326,9.773,1.139 c-1.797,1.199-7.99,4.92-14.993,4.469c-5.855-0.377-9.39-5.773-12.511-10.539c-1.671-2.55-3.253-4.966-5.019-6.309L15.82,26.281z"/></g><g id="altilly" display="none"><g display="inline"><path fill-rule="evenodd" d="M4.224,14.004c-0.172,0.674-0.363,1.345-0.514,2.023 c-0.404,1.822-0.549,3.668-0.478,5.532c0.082,2.166,0.454,4.277,1.163,6.329c0.881,2.547,2.21,4.834,4.099,6.781 c1.227,1.264,2.701,2.19,4.28,2.961c1.849,0.901,3.789,1.527,5.822,1.862c1.357,0.222,2.72,0.273,4.093,0.124 c1.91-0.209,3.756-0.646,5.529-1.389c2.819-1.182,4.941-3.135,6.501-5.717c0.962-1.593,1.679-3.29,2.116-5.089 c0.146-0.602,0.148-1.246,0.153-1.871c0.018-2.131-0.344-4.197-1.272-6.133c-1.334-2.778-3.475-4.735-6.319-5.946 c-1.789-0.762-3.663-1.092-5.609-1.003c-2.2,0.1-4.223,0.713-5.974,2.072c-1.977,1.534-3.171,3.533-3.528,6 c-0.297,2.054,0.043,3.993,1.124,5.786c0.973,1.615,2.424,2.66,4.176,3.293c2.11,0.761,4.229,0.745,6.315-0.121 c0.68-0.281,1.284-0.68,1.83-1.207c1.729,1.413,3.454,2.821,5.206,4.253c-0.272,0.313-0.525,0.63-0.804,0.924 c-1.469,1.551-3.245,2.638-5.248,3.371c-2.062,0.754-4.193,1.071-6.389,0.98c-2.251-0.093-4.377-0.652-6.431-1.567 c-2.147-0.956-3.988-2.295-5.521-4.05c-1.853-2.123-3.104-4.56-3.814-7.271c-0.446-1.706-0.62-3.44-0.537-5.198 c0.045-0.961,0.222-1.905,0.404-2.849c0.729-3.766,2.613-6.896,5.362-9.542c2.443-2.351,5.303-4.013,8.58-4.959 c1.002-0.289,2.026-0.465,3.061-0.605c1.259-0.171,2.519-0.264,3.788-0.244c2.794,0.046,5.493,0.572,8.104,1.546 c3.304,1.233,6.228,3.056,8.683,5.578c3.129,3.213,5.147,7.012,6.063,11.384c0.415,1.98,0.588,3.982,0.492,6 c-0.208,4.373-1.357,8.479-3.698,12.218c-2.445,3.902-5.847,6.725-10.077,8.579c-1.993,0.873-4.071,1.461-6.222,1.807 c-1.655,0.265-3.319,0.381-4.994,0.35c-4.776-0.09-9.052-1.595-12.83-4.479c-2.933-2.24-5.232-5.021-7.049-8.201 c-0.93-1.628-1.731-3.314-2.26-5.117c-0.407-1.386-0.63-2.802-0.714-4.242c-0.077-1.321-0.042-2.641,0.119-3.952 c0.32-2.619,0.981-5.141,2.239-7.483c0.285-0.529,0.629-1.027,0.946-1.54C4.201,13.987,4.212,13.996,4.224,14.004z" clip-rule="evenodd"/></g></g></svg>