<svg id="Layer_1" data-name="Layer 1" xmlns="http://www.w3.org/2000/svg" viewBox="0 0 111.72 123.9"><defs><style>.cls-1{fill:#fff;}.cls-1,.cls-5,.cls-6,.cls-7,.cls-8{fill-rule:evenodd;}.cls-2,.cls-8{fill:#cc6969;}.cls-3,.cls-5,.cls-6{fill:#c7292b;}.cls-4{fill:#d64c4c;}.cls-5{stroke:#d64c4c;stroke-linecap:round;stroke-linejoin:round;stroke-width:2.3px;}.cls-7{fill:#f5b0b0;}</style></defs><title>STEP-2</title><path class="cls-1" d="M36.72,22.27A46.09,46.09,0,0,1,98.81,43.33,47.1,47.1,0,0,1,78,106.12,46.09,46.09,0,0,1,15.9,85.06,47.1,47.1,0,0,1,36.72,22.27Z" transform="translate(-1.25 -4.21)"/><path class="cls-2" d="M36.72,22.27c1.4-.72,2.85-1.39,4.32-2a45.66,45.66,0,0,1,15-3.16A46.44,46.44,0,0,1,72,19.33a46.65,46.65,0,0,1,12.68,6.34,47.55,47.55,0,0,1,8.19,7.4,48.3,48.3,0,0,1,3.46,4.49c.64.92,1.23,1.88,1.8,2.85s.95,1.69,1.39,2.56A48,48,0,0,1,93.92,94.7a46.25,46.25,0,0,1-3.11,3.46,48.58,48.58,0,0,1-4.2,3.78,47.64,47.64,0,0,1-8.13,5.18,46.57,46.57,0,0,1-30.7,4,47.58,47.58,0,0,1-5.26-1.45A47.1,47.1,0,0,1,21.69,95.46a48.75,48.75,0,0,1-3.4-4.57,46.35,46.35,0,0,1-2.88-5A47.73,47.73,0,0,1,16.9,40.75a46.58,46.58,0,0,1,4.55-6.51c.74-.87,1.49-1.72,2.29-2.55a46.79,46.79,0,0,1,13-9.42,46.34,46.34,0,0,0-12.55,9.52,46.81,46.81,0,0,0-7.56,52.93v0a45.57,45.57,0,0,0,33.74,24.71,44.87,44.87,0,0,0,27.15-4.3h0A45.51,45.51,0,0,0,89.87,96a46.49,46.49,0,0,0,8.22-52.3s0,0,0,0a46.54,46.54,0,0,0-8.55-12.25,45.67,45.67,0,0,0-52.83-9.17Z" transform="translate(-1.25 -4.21)"/><path class="cls-3" d="M45.35,22.27a21.9,21.9,0,0,1,5.73-3.68A17,17,0,0,1,54,17.66c.34-.08.7-.16,1-.21s.78-.1,1.18-.13a14.43,14.43,0,0,1,2.37,0,15.8,15.8,0,0,1,3.12.54A18.48,18.48,0,0,1,64.74,19c4.52,2.19,8,6,10.77,10.12a42.4,42.4,0,0,1,2.54,4.44c.79,1.6,1.5,3.22,2.14,4.88a69.76,69.76,0,0,1,4,16.43,78.17,78.17,0,0,1,.43,14.59,77.36,77.36,0,0,1-1.93,13.11c-.5,2.05-1.07,4.08-1.77,6.07a48,48,0,0,1-6.8,13.19,30.13,30.13,0,0,1-4.38,4.72,22.22,22.22,0,0,1-5.89,3.72,17.5,17.5,0,0,1-5.28,1.27,15.33,15.33,0,0,1-3.64-.16c-7.54-1.23-13.2-7.22-16.87-13.56-.55-.95-1.07-1.92-1.55-2.91A51.67,51.67,0,0,1,34.39,90a72.27,72.27,0,0,1-4.27-23.34A77.53,77.53,0,0,1,33,43.44a54.72,54.72,0,0,1,5.44-12.8,33.84,33.84,0,0,1,6.89-8.37c-5.49,4.84-9,11.82-11.21,18.69a72.83,72.83,0,0,0-3.3,18.69A81.87,81.87,0,0,0,31,70.5q.24,2.72.65,5.41a69.62,69.62,0,0,0,2,9,60.05,60.05,0,0,0,2,5.71c.55,1.36,1.15,2.7,1.81,4C38,95.78,38.6,96.88,39.25,98c3.63,5.93,9.2,11.59,16.45,12.43a14.24,14.24,0,0,0,2.77.06,15.79,15.79,0,0,0,4.54-1,20.82,20.82,0,0,0,6-3.7h0c5.46-4.75,9-11.61,11.23-18.38a70.66,70.66,0,0,0,2.52-10.25,75.21,75.21,0,0,0,1-8.34,77.72,77.72,0,0,0-2.55-25.31c-.55-1.94-1.18-3.85-1.91-5.73-.54-1.37-1.12-2.73-1.77-4-.55-1.13-1.16-2.24-1.8-3.32C72.55,25.16,68,20.16,62.12,18.25a17.1,17.1,0,0,0-3.06-.68,14.38,14.38,0,0,0-2.86-.08,16.77,16.77,0,0,0-4.69,1A21.36,21.36,0,0,0,45.35,22.27Z" transform="translate(-1.25 -4.21)"/><path class="cls-4" d="M40.39,22.27a33.78,33.78,0,0,1,10.88-4.39,31.09,31.09,0,0,1,6.67-.63c.56,0,1.11,0,1.66.07s1,.08,1.47.13a32.3,32.3,0,0,1,10.53,3.1A41.13,41.13,0,0,1,89.52,38.39,56.36,56.36,0,0,1,92,85.1c-3.46,8.74-9.3,16.53-17.38,21.5a34.53,34.53,0,0,1-8.25,3.69A32.69,32.69,0,0,1,59,111.54a31.06,31.06,0,0,1-6.17-.3,32.15,32.15,0,0,1-5.48-1.31C37.52,106.67,29.87,99.1,25.11,90A56.34,56.34,0,0,1,23,43.43,44.93,44.93,0,0,1,37,24.6a38.12,38.12,0,0,1,3.42-2.33,39.44,39.44,0,0,0-4,2.89A42.67,42.67,0,0,0,26.21,37.53,52.81,52.81,0,0,0,23.61,43a50.63,50.63,0,0,0-1.72,4.94,56.57,56.57,0,0,0-2.24,18.75,55.19,55.19,0,0,0,4,18.27,50.06,50.06,0,0,0,4.11,7.93,39.35,39.35,0,0,0,16,14.51,32.65,32.65,0,0,0,5.15,2,31.75,31.75,0,0,0,7.87,1.18,30.19,30.19,0,0,0,8.71-1.11A33.32,33.32,0,0,0,74,105.64h0a38.37,38.37,0,0,0,4-2.83A42.39,42.39,0,0,0,88.14,90.66c.49-.86,1-1.74,1.39-2.63a51.9,51.9,0,0,0,2.31-5.55,56.33,56.33,0,0,0,3.07-20.72,55,55,0,0,0-.82-7.68,55.4,55.4,0,0,0-3-10.62h0a50.78,50.78,0,0,0-4-8,39.66,39.66,0,0,0-16-14.73,33.35,33.35,0,0,0-5.19-2,32,32,0,0,0-5.39-1.08c-.86-.09-1.71-.14-2.57-.17a30.74,30.74,0,0,0-8.85,1.05A34,34,0,0,0,40.39,22.27Z" transform="translate(-1.25 -4.21)"/><polygon class="cls-3" points="56.83 13.41 57.22 36.64 57.38 59.87 57.2 83.1 56.8 106.33 56.42 83.1 56.26 59.87 56.43 36.64 56.83 13.41"/><path class="cls-3" d="M21.49,35.27c3,.51,6,.89,8.93,1.2,3.54.37,7.09.63,10.64.83,7.49.41,15,.55,22.5.47q5.68-.06,11.37-.33c2.17-.1,4.35-.23,6.52-.41a105.8,105.8,0,0,0,12.3-1.59c-2.22.56-4.45,1-6.71,1.37-2.67.45-5.37.79-8.07,1.07-5.94.63-11.89.94-17.86,1a199.13,199.13,0,0,1-24-1.14A148.78,148.78,0,0,1,21.49,35.27Z" transform="translate(-1.25 -4.21)"/><path class="cls-3" d="M21,92.26c3,.5,6,.89,9,1.2,2.74.29,5.48.51,8.22.69q10.08.63,20.17.64c6.52,0,13.06-.11,19.57-.52,2.76-.17,5.51-.39,8.26-.7,2.53-.29,5.06-.64,7.56-1.15a106.79,106.79,0,0,1-14.89,2.46c-5.48.58-11,.89-16.49,1a203.7,203.7,0,0,1-21.25-.7A159.3,159.3,0,0,1,21,92.26Z" transform="translate(-1.25 -4.21)"/><path class="cls-5" d="M41.36,51.91a23.09,23.09,0,0,1,32.09.26,21.8,21.8,0,0,1-.27,31.35,23.08,23.08,0,0,1-32.09-.26A21.82,21.82,0,0,1,41.36,51.91Z" transform="translate(-1.25 -4.21)"/><path class="cls-6" d="M49.69,48.58A21.22,21.22,0,0,1,77,60.23,20.41,20.41,0,0,1,65,86.87,21.21,21.21,0,0,1,37.76,75.22,20.42,20.42,0,0,1,49.69,48.58Z" transform="translate(-1.25 -4.21)"/><path class="cls-6" d="M51,52.88a16.81,16.81,0,0,1,21.61,9.24A16.19,16.19,0,0,1,63.1,83.23,16.82,16.82,0,0,1,41.49,74,16.19,16.19,0,0,1,51,52.88Z" transform="translate(-1.25 -4.21)"/><path class="cls-1" d="M51.13,77.57a10.91,10.91,0,0,1-4.21-15.06A11.34,11.34,0,0,1,56.7,57h.07a11.4,11.4,0,0,1,5.56,1.45,10.91,10.91,0,0,1,5.19,12.85h0l-4.25-3.9A6.41,6.41,0,0,0,60,62.41,6.65,6.65,0,0,0,51,64.81a6.32,6.32,0,0,0,2.45,8.74,6.53,6.53,0,0,0,3.15.85l4.21,3.85h0a11.8,11.8,0,0,1-4.08.76h-.08A11.43,11.43,0,0,1,51.13,77.57Z" transform="translate(-1.25 -4.21)"/><path class="cls-7" d="M68,77.82,53.14,63.9a4.93,4.93,0,0,1,3.76-1.8L68,72.7Z" transform="translate(-1.25 -4.21)"/><path class="cls-7" d="M62.28,78.64,51,68.25a4.76,4.76,0,0,1,1.68-3.74l14.89,13.9Z" transform="translate(-1.25 -4.21)"/><path class="cls-6" d="M89.05,4.21H76.63A11.92,11.92,0,0,0,64.57,16v.24a11.84,11.84,0,0,0,9.12,11.42l-1.77,4.17a.52.52,0,0,0,.72.65L81.38,28h7.67a11.93,11.93,0,0,0,12.06-11.78V16A11.92,11.92,0,0,0,89.05,4.21Z" transform="translate(-1.25 -4.21)"/><path class="cls-6" d="M14.71,115h6.1a5.84,5.84,0,0,0,5.91-5.78v-.12a5.81,5.81,0,0,0-4.47-5.61l.87-2a.26.26,0,0,0-.36-.32l-4.28,2.19H14.71a5.84,5.84,0,0,0-5.91,5.78v.12A5.84,5.84,0,0,0,14.71,115Z" transform="translate(-1.25 -4.21)"/><path class="cls-8" d="M34,120.61a4,4,0,0,1,5.15,2.2,3.86,3.86,0,0,1-2.25,5,4,4,0,0,1-5.15-2.2A3.85,3.85,0,0,1,34,120.61Z" transform="translate(-1.25 -4.21)"/><path class="cls-1" d="M34.06,126.49a2.61,2.61,0,0,1-1-3.59,2.71,2.71,0,0,1,2.33-1.32h0a2.7,2.7,0,0,1,1.32.34A2.61,2.61,0,0,1,38,125h0l-1-.93a1.53,1.53,0,0,0-.78-1.18,1.59,1.59,0,0,0-2.14.57,1.51,1.51,0,0,0,.58,2.09,1.72,1.72,0,0,0,.76.2l1,.91h0a3.2,3.2,0,0,1-1,.18h0A2.78,2.78,0,0,1,34.06,126.49Z" transform="translate(-1.25 -4.21)"/><path class="cls-1" d="M38.09,126.55l-3.55-3.31a1.21,1.21,0,0,1,.9-.44l2.65,2.53Z" transform="translate(-1.25 -4.21)"/><path class="cls-1" d="M36.72,126.75,34,124.27a1.18,1.18,0,0,1,.4-.89L38,126.69Z" transform="translate(-1.25 -4.21)"/><path class="cls-8" d="M101,24.08A8.88,8.88,0,0,1,112.36,29a8.54,8.54,0,0,1-5,11.14A8.88,8.88,0,0,1,96,35.23,8.55,8.55,0,0,1,101,24.08Z" transform="translate(-1.25 -4.21)"/><path class="cls-1" d="M101.05,37.12a5.76,5.76,0,0,1-2.23-7.95A6,6,0,0,1,104,26.23h0A6.1,6.1,0,0,1,107,27a5.77,5.77,0,0,1,2.74,6.79h0l-2.24-2.06a3.39,3.39,0,0,0-1.74-2.61A3.52,3.52,0,0,0,101,30.38a3.35,3.35,0,0,0,1.3,4.62,3.55,3.55,0,0,0,1.66.44l2.23,2h0a6.11,6.11,0,0,1-2.15.4h0A6.1,6.1,0,0,1,101.05,37.12Z" transform="translate(-1.25 -4.21)"/><path class="cls-1" d="M110,37.25l-7.85-7.35a2.6,2.6,0,0,1,2-.95l5.87,5.6Z" transform="translate(-1.25 -4.21)"/><path class="cls-1" d="M106.93,37.68l-6-5.48a2.51,2.51,0,0,1,.89-2l7.86,7.34Z" transform="translate(-1.25 -4.21)"/><path class="cls-8" d="M5.51,31.74a6.77,6.77,0,0,1,8.69,3.71,6.52,6.52,0,0,1-3.81,8.49,6.76,6.76,0,0,1-8.68-3.72A6.51,6.51,0,0,1,5.51,31.74Z" transform="translate(-1.25 -4.21)"/><path class="cls-1" d="M5.58,41.66a4.39,4.39,0,0,1-1.69-6,4.56,4.56,0,0,1,3.93-2.24h0a4.59,4.59,0,0,1,2.23.59,4.38,4.38,0,0,1,2.09,5.16h0l-1.71-1.56a2.57,2.57,0,0,0-1.32-2,2.68,2.68,0,0,0-3.6,1,2.55,2.55,0,0,0,1,3.52,2.74,2.74,0,0,0,1.26.34l1.7,1.55h0a4.82,4.82,0,0,1-1.64.31h0A4.66,4.66,0,0,1,5.58,41.66Z" transform="translate(-1.25 -4.21)"/><path class="cls-1" d="M12.37,41.76l-6-5.59a2,2,0,0,1,1.51-.73l4.47,4.27Z" transform="translate(-1.25 -4.21)"/><path class="cls-1" d="M10.06,42.09,5.51,37.92a1.92,1.92,0,0,1,.67-1.51l6,5.59Z" transform="translate(-1.25 -4.21)"/></svg>