<svg xmlns="http://www.w3.org/2000/svg" xmlns:svg="http://www.w3.org/2000/svg" id="Layer_1" width="512.001" height="335.449" x="0" y="0" version="1.1" viewBox="0 0 512.001 335.449" xml:space="preserve"><metadata id="metadata100"/><g id="g51" transform="translate(0,-88.276)"><rect id="rect45" width="512" height="37.27" x="0" y="125.551" fill="#f5f5f5"/><rect id="rect47" width="512" height="37.27" x="0" y="200.091" fill="#f5f5f5"/><rect id="rect49" width="512" height="37.27" x="0" y="274.641" fill="#f5f5f5"/></g><rect id="rect53" width="512" height="37.27" x="0" y="223.635" fill="#41479b"/><rect id="rect55" width="512" height="37.27" x="0" y="260.905" fill="#f5f5f5"/><g id="g61" transform="translate(0,-88.276)"><path id="path57" fill="#41479b" d="m 8.828,423.725 h 494.345 c 4.875,0 8.828,-3.953 8.828,-8.828 V 386.452 H 0 v 28.445 c 0,4.876 3.953,8.828 8.828,8.828 z"/><path id="path59" fill="#41479b" d="M 512,125.549 V 97.104 c 0,-4.875 -3.953,-8.828 -8.828,-8.828 H 8.828 C 3.953,88.277 0,92.229 0,97.104 v 65.717 37.271 74.545 H 512 V 237.365 H 176.552 V 200.093 H 512 V 162.821 H 176.552 v -37.272 c 0,0 335.448,0 335.448,0 z"/></g><polygon id="polygon63" fill="#f5f5f5" points="106.912 88.277 69.64 88.277 69.64 162.821 0 162.821 0 200.093 69.64 200.093 69.64 274.637 106.912 274.637 106.912 200.093 176.552 200.093 176.552 162.821 106.912 162.821" transform="translate(0,-88.276)"/></svg>