<svg xmlns="http://www.w3.org/2000/svg" xmlns:svg="http://www.w3.org/2000/svg" id="Layer_1" width="512.001" height="335.449" x="0" y="0" version="1.1" viewBox="0 0 512.001 335.449" xml:space="preserve"><metadata id="metadata141"/><path id="path2" fill="#f5f5f5" d="M 503.172,335.449 H 8.828 C 3.953,335.449 0,331.496 0,326.621 V 8.828 C 0,3.953 3.953,0 8.828,0 h 494.345 c 4.875,0 8.828,3.953 8.828,8.828 v 317.793 c -10e-4,4.876 -3.954,8.828 -8.829,8.828 z"/><g id="g18" transform="translate(0,-88.276)"><path id="path4" fill="#ff4b55" d="M 512,114.081 H 0 V 97.104 c 0,-4.875 3.953,-8.828 8.828,-8.828 h 494.345 c 4.875,0 8.828,3.953 8.828,8.828 z"/><rect id="rect6" width="512" height="25.804" x="0" y="191.491" fill="#ff4b55"/><rect id="rect8" width="512" height="25.804" x="0" y="139.881" fill="#ff4b55"/><path id="path10" fill="#ff4b55" d="M 512,268.903 H 8.828 C 3.953,268.903 0,264.95 0,260.075 v -16.977 h 512 z"/><rect id="rect12" width="512" height="25.804" x="0" y="346.321" fill="#ff4b55"/><path id="path14" fill="#ff4b55" d="M 503.172,423.725 H 8.828 C 3.953,423.725 0,419.772 0,414.897 v -16.976 h 512 v 16.977 c 0,4.875 -3.953,8.827 -8.828,8.827 z"/><rect id="rect16" width="512" height="25.804" x="0" y="294.711" fill="#ff4b55"/></g><path id="path20" fill="#41479b" d="M 229.517,10e-4 H 8.828 C 3.953,10e-4 0,3.953 0,8.828 v 162.97 c 0,4.875 3.953,8.828 8.828,8.828 h 220.69 c 4.875,0 8.828,-3.953 8.828,-8.828 V 8.828 c -0.001,-4.875 -3.954,-8.827 -8.829,-8.827 z"/><g id="g104" transform="translate(0,-88.276)"><path id="path22" fill="#f5f5f5" d="m 24.789,108.538 1.954,5.86 6.177,0.047 c 0.8,0.007 1.131,1.027 0.488,1.502 l -4.969,3.67 1.864,5.889 c 0.242,0.762 -0.627,1.394 -1.278,0.928 L 24,122.843 l -5.025,3.592 c -0.651,0.465 -1.518,-0.166 -1.278,-0.928 l 1.864,-5.889 -4.969,-3.67 c -0.643,-0.476 -0.312,-1.495 0.488,-1.502 l 6.177,-0.047 1.954,-5.86 c 0.252,-0.76 1.324,-0.76 1.578,-0.001 z"/><path id="path24" fill="#f5f5f5" d="m 24.789,139.192 1.954,5.86 6.177,0.047 c 0.8,0.007 1.131,1.027 0.488,1.502 l -4.969,3.67 1.864,5.889 c 0.242,0.762 -0.627,1.394 -1.278,0.928 L 24,153.497 l -5.025,3.592 c -0.651,0.465 -1.518,-0.166 -1.278,-0.928 l 1.864,-5.889 -4.969,-3.67 c -0.643,-0.476 -0.312,-1.495 0.488,-1.502 l 6.177,-0.047 1.954,-5.86 c 0.252,-0.759 1.324,-0.759 1.578,-0.001 z"/><path id="path26" fill="#f5f5f5" d="m 24.789,169.846 1.954,5.86 6.177,0.047 c 0.8,0.007 1.131,1.027 0.488,1.502 l -4.969,3.67 1.864,5.889 c 0.242,0.762 -0.627,1.394 -1.278,0.928 L 24,184.151 l -5.025,3.592 c -0.651,0.465 -1.518,-0.166 -1.278,-0.928 l 1.864,-5.889 -4.969,-3.67 c -0.643,-0.476 -0.312,-1.495 0.488,-1.502 l 6.177,-0.047 1.954,-5.86 c 0.252,-0.759 1.324,-0.759 1.578,-0.001 z"/><path id="path28" fill="#f5f5f5" d="m 24.789,200.501 1.954,5.86 6.177,0.047 c 0.8,0.007 1.131,1.027 0.488,1.502 l -4.969,3.67 1.864,5.889 c 0.242,0.762 -0.627,1.394 -1.278,0.928 L 24,214.806 l -5.025,3.592 c -0.651,0.465 -1.518,-0.166 -1.278,-0.928 l 1.864,-5.889 -4.969,-3.67 c -0.643,-0.476 -0.312,-1.495 0.488,-1.502 l 6.177,-0.047 1.954,-5.86 c 0.252,-0.76 1.324,-0.76 1.578,-0.001 z"/><path id="path30" fill="#f5f5f5" d="m 24.789,231.155 1.954,5.86 6.177,0.047 c 0.8,0.007 1.131,1.027 0.488,1.502 l -4.969,3.67 1.864,5.889 c 0.242,0.762 -0.627,1.394 -1.278,0.928 L 24,245.46 l -5.025,3.592 c -0.651,0.465 -1.518,-0.166 -1.278,-0.928 l 1.864,-5.889 -4.969,-3.67 c -0.643,-0.476 -0.312,-1.495 0.488,-1.502 l 6.177,-0.047 1.954,-5.86 c 0.252,-0.761 1.324,-0.761 1.578,-0.001 z"/><path id="path32" fill="#f5f5f5" d="m 48.582,123.567 1.954,5.86 6.177,0.047 c 0.8,0.007 1.131,1.027 0.488,1.502 l -4.969,3.67 1.864,5.889 c 0.242,0.762 -0.627,1.394 -1.278,0.928 l -5.025,-3.592 -5.025,3.592 c -0.651,0.465 -1.518,-0.166 -1.278,-0.928 l 1.864,-5.889 -4.969,-3.67 c -0.643,-0.476 -0.312,-1.495 0.488,-1.502 l 6.177,-0.047 1.954,-5.86 c 0.251,-0.758 1.325,-0.758 1.578,0 z"/><path id="path34" fill="#f5f5f5" d="m 48.582,154.222 1.954,5.86 6.177,0.047 c 0.8,0.007 1.131,1.027 0.488,1.502 l -4.969,3.67 1.864,5.889 c 0.242,0.762 -0.627,1.394 -1.278,0.928 l -5.025,-3.592 -5.025,3.592 c -0.651,0.465 -1.518,-0.165 -1.278,-0.928 l 1.864,-5.889 -4.969,-3.67 c -0.643,-0.476 -0.312,-1.495 0.488,-1.502 l 6.177,-0.047 1.954,-5.86 c 0.251,-0.759 1.325,-0.759 1.578,0 z"/><path id="path36" fill="#f5f5f5" d="m 48.582,184.876 1.954,5.86 6.177,0.047 c 0.8,0.007 1.131,1.027 0.488,1.502 l -4.969,3.67 1.864,5.889 c 0.242,0.762 -0.627,1.394 -1.278,0.928 l -5.025,-3.592 -5.025,3.592 c -0.651,0.465 -1.518,-0.166 -1.278,-0.928 l 1.864,-5.889 -4.969,-3.67 c -0.643,-0.476 -0.312,-1.495 0.488,-1.502 l 6.177,-0.047 1.954,-5.86 c 0.251,-0.759 1.325,-0.759 1.578,0 z"/><path id="path38" fill="#f5f5f5" d="m 48.582,215.53 1.954,5.86 6.177,0.047 c 0.8,0.007 1.131,1.027 0.488,1.502 l -4.969,3.67 1.864,5.889 c 0.242,0.762 -0.627,1.394 -1.278,0.928 l -5.025,-3.592 -5.025,3.592 c -0.651,0.465 -1.518,-0.166 -1.278,-0.928 l 1.864,-5.889 -4.969,-3.67 c -0.643,-0.476 -0.312,-1.495 0.488,-1.502 l 6.177,-0.047 1.954,-5.86 c 0.251,-0.758 1.325,-0.758 1.578,0 z"/><path id="path40" fill="#f5f5f5" d="m 72.375,108.538 1.954,5.86 6.177,0.047 c 0.8,0.007 1.131,1.027 0.488,1.502 l -4.969,3.67 1.864,5.889 c 0.242,0.762 -0.627,1.394 -1.278,0.928 l -5.025,-3.592 -5.025,3.592 c -0.651,0.465 -1.518,-0.166 -1.278,-0.928 l 1.864,-5.889 -4.969,-3.67 c -0.643,-0.476 -0.312,-1.495 0.488,-1.502 l 6.177,-0.047 1.954,-5.86 c 0.252,-0.759 1.325,-0.759 1.578,0 z"/><path id="path42" fill="#f5f5f5" d="m 72.375,139.192 1.954,5.86 6.177,0.047 c 0.8,0.007 1.131,1.027 0.488,1.502 l -4.969,3.67 1.864,5.889 c 0.242,0.762 -0.627,1.394 -1.278,0.928 l -5.025,-3.592 -5.025,3.592 c -0.651,0.465 -1.518,-0.166 -1.278,-0.928 l 1.864,-5.889 -4.969,-3.67 c -0.643,-0.476 -0.312,-1.495 0.488,-1.502 l 6.177,-0.047 1.954,-5.86 c 0.252,-0.758 1.325,-0.758 1.578,0 z"/><path id="path44" fill="#f5f5f5" d="m 72.375,169.846 1.954,5.86 6.177,0.047 c 0.8,0.007 1.131,1.027 0.488,1.502 l -4.969,3.67 1.864,5.889 c 0.242,0.762 -0.627,1.394 -1.278,0.928 l -5.025,-3.592 -5.025,3.592 c -0.651,0.465 -1.518,-0.166 -1.278,-0.928 l 1.864,-5.889 -4.969,-3.67 c -0.643,-0.476 -0.312,-1.495 0.488,-1.502 l 6.177,-0.047 1.954,-5.86 c 0.252,-0.758 1.325,-0.758 1.578,0 z"/><path id="path46" fill="#f5f5f5" d="m 72.375,200.501 1.954,5.86 6.177,0.047 c 0.8,0.007 1.131,1.027 0.488,1.502 l -4.969,3.67 1.864,5.889 c 0.242,0.762 -0.627,1.394 -1.278,0.928 l -5.025,-3.592 -5.025,3.592 c -0.651,0.465 -1.518,-0.166 -1.278,-0.928 l 1.864,-5.889 -4.969,-3.67 c -0.643,-0.476 -0.312,-1.495 0.488,-1.502 l 6.177,-0.047 1.954,-5.86 c 0.252,-0.759 1.325,-0.759 1.578,0 z"/><path id="path48" fill="#f5f5f5" d="m 72.375,231.155 1.954,5.86 6.177,0.047 c 0.8,0.007 1.131,1.027 0.488,1.502 l -4.969,3.67 1.864,5.889 c 0.242,0.762 -0.627,1.394 -1.278,0.928 l -5.025,-3.592 -5.025,3.592 c -0.651,0.465 -1.518,-0.166 -1.278,-0.928 l 1.864,-5.889 -4.969,-3.67 c -0.643,-0.476 -0.312,-1.495 0.488,-1.502 l 6.177,-0.047 1.954,-5.86 c 0.252,-0.76 1.325,-0.76 1.578,0 z"/><path id="path50" fill="#f5f5f5" d="m 96.169,123.567 1.954,5.86 6.177,0.047 c 0.8,0.007 1.131,1.027 0.488,1.502 l -4.969,3.67 1.864,5.889 c 0.242,0.762 -0.627,1.394 -1.278,0.928 l -5.025,-3.592 -5.025,3.592 c -0.651,0.465 -1.518,-0.166 -1.278,-0.928 l 1.864,-5.889 -4.969,-3.67 c -0.643,-0.476 -0.312,-1.495 0.488,-1.502 l 6.177,-0.047 1.954,-5.86 c 0.251,-0.758 1.325,-0.758 1.578,0 z"/><path id="path52" fill="#f5f5f5" d="m 96.169,154.222 1.954,5.86 6.177,0.047 c 0.8,0.007 1.131,1.027 0.488,1.502 l -4.969,3.67 1.864,5.889 c 0.242,0.762 -0.627,1.394 -1.278,0.928 l -5.025,-3.592 -5.025,3.592 c -0.651,0.465 -1.518,-0.165 -1.278,-0.928 l 1.864,-5.889 -4.969,-3.67 c -0.643,-0.476 -0.312,-1.495 0.488,-1.502 l 6.177,-0.047 1.954,-5.86 c 0.251,-0.759 1.325,-0.759 1.578,0 z"/><path id="path54" fill="#f5f5f5" d="m 96.169,184.876 1.954,5.86 6.177,0.047 c 0.8,0.007 1.131,1.027 0.488,1.502 l -4.969,3.67 1.864,5.889 c 0.242,0.762 -0.627,1.394 -1.278,0.928 l -5.025,-3.592 -5.025,3.592 c -0.651,0.465 -1.518,-0.166 -1.278,-0.928 l 1.864,-5.889 -4.969,-3.67 c -0.643,-0.476 -0.312,-1.495 0.488,-1.502 l 6.177,-0.047 1.954,-5.86 c 0.251,-0.759 1.325,-0.759 1.578,0 z"/><path id="path56" fill="#f5f5f5" d="m 96.169,215.53 1.954,5.86 6.177,0.047 c 0.8,0.007 1.131,1.027 0.488,1.502 l -4.969,3.67 1.864,5.889 c 0.242,0.762 -0.627,1.394 -1.278,0.928 l -5.025,-3.592 -5.025,3.592 c -0.651,0.465 -1.518,-0.166 -1.278,-0.928 l 1.864,-5.889 -4.969,-3.67 c -0.643,-0.476 -0.312,-1.495 0.488,-1.502 l 6.177,-0.047 1.954,-5.86 c 0.251,-0.758 1.325,-0.758 1.578,0 z"/><path id="path58" fill="#f5f5f5" d="m 119.962,108.538 1.954,5.86 6.177,0.047 c 0.8,0.007 1.131,1.027 0.488,1.502 l -4.969,3.67 1.864,5.889 c 0.242,0.762 -0.627,1.394 -1.278,0.928 l -5.026,-3.592 -5.025,3.592 c -0.651,0.465 -1.518,-0.166 -1.278,-0.928 l 1.864,-5.889 -4.969,-3.67 c -0.643,-0.476 -0.312,-1.495 0.488,-1.502 l 6.177,-0.047 1.954,-5.86 c 0.253,-0.759 1.326,-0.759 1.579,0 z"/><path id="path60" fill="#f5f5f5" d="m 119.962,139.192 1.954,5.86 6.177,0.047 c 0.8,0.007 1.131,1.027 0.488,1.502 l -4.969,3.67 1.864,5.889 c 0.242,0.762 -0.627,1.394 -1.278,0.928 l -5.026,-3.592 -5.025,3.592 c -0.651,0.465 -1.518,-0.166 -1.278,-0.928 l 1.864,-5.889 -4.969,-3.67 c -0.643,-0.476 -0.312,-1.495 0.488,-1.502 l 6.177,-0.047 1.954,-5.86 c 0.253,-0.758 1.326,-0.758 1.579,0 z"/><path id="path62" fill="#f5f5f5" d="m 119.962,169.846 1.954,5.86 6.177,0.047 c 0.8,0.007 1.131,1.027 0.488,1.502 l -4.969,3.67 1.864,5.889 c 0.242,0.762 -0.627,1.394 -1.278,0.928 l -5.026,-3.592 -5.025,3.592 c -0.651,0.465 -1.518,-0.166 -1.278,-0.928 l 1.864,-5.889 -4.969,-3.67 c -0.643,-0.476 -0.312,-1.495 0.488,-1.502 l 6.177,-0.047 1.954,-5.86 c 0.253,-0.758 1.326,-0.758 1.579,0 z"/><path id="path64" fill="#f5f5f5" d="m 119.962,200.501 1.954,5.86 6.177,0.047 c 0.8,0.007 1.131,1.027 0.488,1.502 l -4.969,3.67 1.864,5.889 c 0.242,0.762 -0.627,1.394 -1.278,0.928 l -5.026,-3.592 -5.025,3.592 c -0.651,0.465 -1.518,-0.166 -1.278,-0.928 l 1.864,-5.889 -4.969,-3.67 c -0.643,-0.476 -0.312,-1.495 0.488,-1.502 l 6.177,-0.047 1.954,-5.86 c 0.253,-0.759 1.326,-0.759 1.579,0 z"/><path id="path66" fill="#f5f5f5" d="m 119.962,231.155 1.954,5.86 6.177,0.047 c 0.8,0.007 1.131,1.027 0.488,1.502 l -4.969,3.67 1.864,5.889 c 0.242,0.762 -0.627,1.394 -1.278,0.928 l -5.026,-3.592 -5.025,3.592 c -0.651,0.465 -1.518,-0.166 -1.278,-0.928 l 1.864,-5.889 -4.969,-3.67 c -0.643,-0.476 -0.312,-1.495 0.488,-1.502 l 6.177,-0.047 1.954,-5.86 c 0.253,-0.76 1.326,-0.76 1.579,0 z"/><path id="path68" fill="#f5f5f5" d="m 143.755,123.567 1.954,5.86 6.177,0.047 c 0.8,0.007 1.131,1.027 0.488,1.502 l -4.969,3.67 1.864,5.889 c 0.242,0.762 -0.627,1.394 -1.278,0.928 l -5.025,-3.592 -5.025,3.592 c -0.651,0.465 -1.518,-0.166 -1.278,-0.928 l 1.864,-5.889 -4.969,-3.67 c -0.643,-0.476 -0.312,-1.495 0.488,-1.502 l 6.177,-0.047 1.954,-5.86 c 0.253,-0.758 1.325,-0.758 1.578,0 z"/><path id="path70" fill="#f5f5f5" d="m 143.755,154.222 1.954,5.86 6.177,0.047 c 0.8,0.007 1.131,1.027 0.488,1.502 l -4.969,3.67 1.864,5.889 c 0.242,0.762 -0.627,1.394 -1.278,0.928 l -5.025,-3.592 -5.025,3.592 c -0.651,0.465 -1.518,-0.165 -1.278,-0.928 l 1.864,-5.889 -4.969,-3.67 c -0.643,-0.476 -0.312,-1.495 0.488,-1.502 l 6.177,-0.047 1.954,-5.86 c 0.253,-0.759 1.325,-0.759 1.578,0 z"/><path id="path72" fill="#f5f5f5" d="m 143.755,184.876 1.954,5.86 6.177,0.047 c 0.8,0.007 1.131,1.027 0.488,1.502 l -4.969,3.67 1.864,5.889 c 0.242,0.762 -0.627,1.394 -1.278,0.928 l -5.025,-3.592 -5.025,3.592 c -0.651,0.465 -1.518,-0.166 -1.278,-0.928 l 1.864,-5.889 -4.969,-3.67 c -0.643,-0.476 -0.312,-1.495 0.488,-1.502 l 6.177,-0.047 1.954,-5.86 c 0.253,-0.759 1.325,-0.759 1.578,0 z"/><path id="path74" fill="#f5f5f5" d="m 143.755,215.53 1.954,5.86 6.177,0.047 c 0.8,0.007 1.131,1.027 0.488,1.502 l -4.969,3.67 1.864,5.889 c 0.242,0.762 -0.627,1.394 -1.278,0.928 l -5.025,-3.592 -5.025,3.592 c -0.651,0.465 -1.518,-0.166 -1.278,-0.928 l 1.864,-5.889 -4.969,-3.67 c -0.643,-0.476 -0.312,-1.495 0.488,-1.502 l 6.177,-0.047 1.954,-5.86 c 0.253,-0.758 1.325,-0.758 1.578,0 z"/><path id="path76" fill="#f5f5f5" d="m 167.549,108.538 1.954,5.86 6.177,0.047 c 0.8,0.007 1.131,1.027 0.488,1.502 l -4.969,3.67 1.864,5.889 c 0.242,0.762 -0.627,1.394 -1.278,0.928 l -5.025,-3.592 -5.025,3.592 c -0.651,0.465 -1.518,-0.166 -1.278,-0.928 l 1.864,-5.889 -4.969,-3.67 c -0.643,-0.476 -0.312,-1.495 0.488,-1.502 l 6.177,-0.047 1.954,-5.86 c 0.251,-0.759 1.325,-0.759 1.578,0 z"/><path id="path78" fill="#f5f5f5" d="m 167.549,139.192 1.954,5.86 6.177,0.047 c 0.8,0.007 1.131,1.027 0.488,1.502 l -4.969,3.67 1.864,5.889 c 0.242,0.762 -0.627,1.394 -1.278,0.928 l -5.025,-3.592 -5.025,3.592 c -0.651,0.465 -1.518,-0.166 -1.278,-0.928 l 1.864,-5.889 -4.969,-3.67 c -0.643,-0.476 -0.312,-1.495 0.488,-1.502 l 6.177,-0.047 1.954,-5.86 c 0.251,-0.758 1.325,-0.758 1.578,0 z"/><path id="path80" fill="#f5f5f5" d="m 167.549,169.846 1.954,5.86 6.177,0.047 c 0.8,0.007 1.131,1.027 0.488,1.502 l -4.969,3.67 1.864,5.889 c 0.242,0.762 -0.627,1.394 -1.278,0.928 l -5.025,-3.592 -5.025,3.592 c -0.651,0.465 -1.518,-0.166 -1.278,-0.928 l 1.864,-5.889 -4.969,-3.67 c -0.643,-0.476 -0.312,-1.495 0.488,-1.502 l 6.177,-0.047 1.954,-5.86 c 0.251,-0.758 1.325,-0.758 1.578,0 z"/><path id="path82" fill="#f5f5f5" d="m 167.549,200.501 1.954,5.86 6.177,0.047 c 0.8,0.007 1.131,1.027 0.488,1.502 l -4.969,3.67 1.864,5.889 c 0.242,0.762 -0.627,1.394 -1.278,0.928 l -5.025,-3.592 -5.025,3.592 c -0.651,0.465 -1.518,-0.166 -1.278,-0.928 l 1.864,-5.889 -4.969,-3.67 c -0.643,-0.476 -0.312,-1.495 0.488,-1.502 l 6.177,-0.047 1.954,-5.86 c 0.251,-0.759 1.325,-0.759 1.578,0 z"/><path id="path84" fill="#f5f5f5" d="m 167.549,231.155 1.954,5.86 6.177,0.047 c 0.8,0.007 1.131,1.027 0.488,1.502 l -4.969,3.67 1.864,5.889 c 0.242,0.762 -0.627,1.394 -1.278,0.928 l -5.025,-3.592 -5.025,3.592 c -0.651,0.465 -1.518,-0.166 -1.278,-0.928 l 1.864,-5.889 -4.969,-3.67 c -0.643,-0.476 -0.312,-1.495 0.488,-1.502 l 6.177,-0.047 1.954,-5.86 c 0.251,-0.76 1.325,-0.76 1.578,0 z"/><path id="path86" fill="#f5f5f5" d="m 191.342,123.567 1.954,5.86 6.177,0.047 c 0.8,0.007 1.131,1.027 0.488,1.502 l -4.969,3.67 1.864,5.889 c 0.242,0.762 -0.627,1.394 -1.278,0.928 l -5.025,-3.592 -5.025,3.592 c -0.651,0.465 -1.518,-0.166 -1.278,-0.928 l 1.864,-5.889 -4.969,-3.67 c -0.643,-0.476 -0.312,-1.495 0.488,-1.502 l 6.177,-0.047 1.954,-5.86 c 0.252,-0.758 1.326,-0.758 1.578,0 z"/><path id="path88" fill="#f5f5f5" d="m 191.342,154.222 1.954,5.86 6.177,0.047 c 0.8,0.007 1.131,1.027 0.488,1.502 l -4.969,3.67 1.864,5.889 c 0.242,0.762 -0.627,1.394 -1.278,0.928 l -5.025,-3.592 -5.025,3.592 c -0.651,0.465 -1.518,-0.165 -1.278,-0.928 l 1.864,-5.889 -4.969,-3.67 c -0.643,-0.476 -0.312,-1.495 0.488,-1.502 l 6.177,-0.047 1.954,-5.86 c 0.252,-0.759 1.326,-0.759 1.578,0 z"/><path id="path90" fill="#f5f5f5" d="m 191.342,184.876 1.954,5.86 6.177,0.047 c 0.8,0.007 1.131,1.027 0.488,1.502 l -4.969,3.67 1.864,5.889 c 0.242,0.762 -0.627,1.394 -1.278,0.928 l -5.025,-3.592 -5.025,3.592 c -0.651,0.465 -1.518,-0.166 -1.278,-0.928 l 1.864,-5.889 -4.969,-3.67 c -0.643,-0.476 -0.312,-1.495 0.488,-1.502 l 6.177,-0.047 1.954,-5.86 c 0.252,-0.759 1.326,-0.759 1.578,0 z"/><path id="path92" fill="#f5f5f5" d="m 191.342,215.53 1.954,5.86 6.177,0.047 c 0.8,0.007 1.131,1.027 0.488,1.502 l -4.969,3.67 1.864,5.889 c 0.242,0.762 -0.627,1.394 -1.278,0.928 l -5.025,-3.592 -5.025,3.592 c -0.651,0.465 -1.518,-0.166 -1.278,-0.928 l 1.864,-5.889 -4.969,-3.67 c -0.643,-0.476 -0.312,-1.495 0.488,-1.502 l 6.177,-0.047 1.954,-5.86 c 0.252,-0.758 1.326,-0.758 1.578,0 z"/><path id="path94" fill="#f5f5f5" d="m 215.136,108.538 1.954,5.86 6.177,0.047 c 0.8,0.007 1.131,1.027 0.488,1.502 l -4.969,3.67 1.864,5.889 c 0.242,0.762 -0.627,1.394 -1.278,0.928 l -5.025,-3.592 -5.025,3.592 c -0.651,0.465 -1.518,-0.166 -1.278,-0.928 l 1.864,-5.889 -4.969,-3.67 c -0.643,-0.476 -0.312,-1.495 0.488,-1.502 l 6.177,-0.047 1.954,-5.86 c 0.252,-0.759 1.324,-0.759 1.578,0 z"/><path id="path96" fill="#f5f5f5" d="m 215.136,139.192 1.954,5.86 6.177,0.047 c 0.8,0.007 1.131,1.027 0.488,1.502 l -4.969,3.67 1.864,5.889 c 0.242,0.762 -0.627,1.394 -1.278,0.928 l -5.025,-3.592 -5.025,3.592 c -0.651,0.465 -1.518,-0.166 -1.278,-0.928 l 1.864,-5.889 -4.969,-3.67 c -0.643,-0.476 -0.312,-1.495 0.488,-1.502 l 6.177,-0.047 1.954,-5.86 c 0.252,-0.758 1.324,-0.758 1.578,0 z"/><path id="path98" fill="#f5f5f5" d="m 215.136,169.846 1.954,5.86 6.177,0.047 c 0.8,0.007 1.131,1.027 0.488,1.502 l -4.969,3.67 1.864,5.889 c 0.242,0.762 -0.627,1.394 -1.278,0.928 l -5.025,-3.592 -5.025,3.592 c -0.651,0.465 -1.518,-0.166 -1.278,-0.928 l 1.864,-5.889 -4.969,-3.67 c -0.643,-0.476 -0.312,-1.495 0.488,-1.502 l 6.177,-0.047 1.954,-5.86 c 0.252,-0.758 1.324,-0.758 1.578,0 z"/><path id="path100" fill="#f5f5f5" d="m 215.136,200.501 1.954,5.86 6.177,0.047 c 0.8,0.007 1.131,1.027 0.488,1.502 l -4.969,3.67 1.864,5.889 c 0.242,0.762 -0.627,1.394 -1.278,0.928 l -5.025,-3.592 -5.025,3.592 c -0.651,0.465 -1.518,-0.166 -1.278,-0.928 l 1.864,-5.889 -4.969,-3.67 c -0.643,-0.476 -0.312,-1.495 0.488,-1.502 l 6.177,-0.047 1.954,-5.86 c 0.252,-0.759 1.324,-0.759 1.578,0 z"/><path id="path102" fill="#f5f5f5" d="m 215.136,231.155 1.954,5.86 6.177,0.047 c 0.8,0.007 1.131,1.027 0.488,1.502 l -4.969,3.67 1.864,5.889 c 0.242,0.762 -0.627,1.394 -1.278,0.928 l -5.025,-3.592 -5.025,3.592 c -0.651,0.465 -1.518,-0.166 -1.278,-0.928 l 1.864,-5.889 -4.969,-3.67 c -0.643,-0.476 -0.312,-1.495 0.488,-1.502 l 6.177,-0.047 1.954,-5.86 c 0.252,-0.76 1.324,-0.76 1.578,0 z"/></g></svg>