<svg xmlns="http://www.w3.org/2000/svg" xmlns:svg="http://www.w3.org/2000/svg" id="Layer_1" width="512.001" height="335.449" x="0" y="0" version="1.1" viewBox="0 0 512.001 335.449" xml:space="preserve"><metadata id="metadata231"/><path id="path102" fill="#c8414b" d="m 8.828,335.449 h 494.345 c 4.875,0 8.828,-3.953 8.828,-8.828 V 8.828 C 512.001,3.953 508.048,0 503.173,0 H 8.828 C 3.953,10e-4 0,3.953 0,8.828 v 317.793 c 0,4.876 3.953,8.828 8.828,8.828 z"/><rect id="rect104" width="512" height="194.21" x="0" y="70.625" fill="#ffd250"/><path id="path106" fill="#c8414b" d="m 216.276,167.725 7.485,-33.681 C 224.451,130.942 222.09,128 218.912,128 h -5.272 c -3.177,0 -5.537,2.942 -4.849,6.044 z"/><rect id="rect108" width="17.655" height="75.03" x="207.45" y="150.065" fill="#f5f5f5"/><rect id="rect110" width="26.483" height="8.828" x="203.03" y="141.245" fill="#fab446"/><g id="g118" transform="translate(0,-88.276)"><rect id="rect112" width="44.14" height="8.828" x="185.38" y="256.001" fill="#c8414b"/><polygon id="polygon114" fill="#c8414b" points="203.034 273.656 229.517 282.484 229.517 291.311 203.034 282.484"/><path id="path116" fill="#c8414b" d="m 83.862,256.001 7.485,-33.681 c 0.69,-3.102 -1.671,-6.044 -4.849,-6.044 h -5.272 c -3.177,0 -5.537,2.942 -4.849,6.044 z"/></g><path id="path120" fill="#f5f5f5" d="m 114.759,141.242 c -4.875,0 -8.828,3.953 -8.828,8.828 v 57.379 c 0,10.725 10.01,30.897 44.138,30.897 34.128,0 44.138,-20.171 44.138,-30.897 V 150.07 c 0,-4.875 -3.953,-8.828 -8.828,-8.828 z"/><g id="g126" transform="translate(0,-88.276)"><path id="path122" fill="#c8414b" d="m 150.069,273.656 h -44.138 v -35.31 c 0,-4.875 3.953,-8.828 8.828,-8.828 h 35.31 z"/><path id="path124" fill="#c8414b" d="m 150.069,273.656 h 44.138 v 22.069 c 0,12.189 -9.88,22.069 -22.069,22.069 v 0 c -12.189,0 -22.069,-9.88 -22.069,-22.069 z"/></g><path id="path128" fill="#fab446" d="m 105.931,185.38 h 44.138 v 22.069 c 0,12.189 -9.88,22.069 -22.069,22.069 v 0 c -12.189,0 -22.069,-9.88 -22.069,-22.069 z"/><g id="g134" transform="translate(0,-88.276)"><path id="path130" fill="#c8414b" d="m 141.241,313.281 v -39.625 h -8.828 v 43.693 c 3.284,-0.666 6.251,-2.12 8.828,-4.068 z"/><path id="path132" fill="#c8414b" d="m 123.586,317.349 v -43.693 h -8.828 v 39.625 c 2.578,1.948 5.545,3.402 8.828,4.068 z"/></g><rect id="rect136" width="26.483" height="8.828" x="114.76" y="167.725" fill="#ffb441"/><g id="g142" transform="translate(0,-88.276)"><rect id="rect138" width="26.483" height="8.828" x="114.76" y="238.341" fill="#fab446"/><rect id="rect140" width="17.655" height="15.992" x="119.17" y="243.591" fill="#fab446"/></g><rect id="rect144" width="17.655" height="75.03" x="75.03" y="150.065" fill="#f5f5f5"/><g id="g150" transform="translate(0,-88.276)"><rect id="rect146" width="26.483" height="8.828" x="70.62" y="308.971" fill="#fab446"/><rect id="rect148" width="26.483" height="8.828" x="70.62" y="229.521" fill="#fab446"/></g><rect id="rect152" width="35.31" height="8.828" x="66.21" y="229.515" fill="#5064aa"/><rect id="rect154" width="26.483" height="8.828" x="207.45" y="220.695" fill="#fab446"/><rect id="rect156" width="35.31" height="8.828" x="198.62" y="229.515" fill="#5064aa"/><rect id="rect158" width="52.966" height="8.828" x="123.59" y="132.415" fill="#fab446"/><rect id="rect160" width="8.828" height="26.483" x="145.66" y="105.935" fill="#ffb441"/><g id="g170" transform="translate(0,-88.276)"><path id="path162" fill="#f5f5f5" d="m 141.241,207.449 c -7.302,0 -13.241,-5.94 -13.241,-13.241 0,-7.302 5.94,-13.241 13.241,-13.241 7.302,0 13.241,5.94 13.241,13.241 0.001,7.301 -5.939,13.241 -13.241,13.241 z m 0,-17.655 c -2.435,0 -4.414,1.978 -4.414,4.414 0,2.435 1.978,4.414 4.414,4.414 2.436,0 4.414,-1.978 4.414,-4.414 0,-2.435 -1.978,-4.414 -4.414,-4.414 z"/><path id="path164" fill="#f5f5f5" d="m 158.897,207.449 c -7.302,0 -13.241,-5.94 -13.241,-13.241 0,-7.302 5.94,-13.241 13.241,-13.241 7.302,0 13.241,5.94 13.241,13.241 0,7.301 -5.94,13.241 -13.241,13.241 z m 0,-17.655 c -2.435,0 -4.414,1.978 -4.414,4.414 0,2.435 1.978,4.414 4.414,4.414 2.435,0 4.414,-1.978 4.414,-4.414 -0.001,-2.435 -1.979,-4.414 -4.414,-4.414 z"/><path id="path166" fill="#f5f5f5" d="m 176.552,216.277 c -7.302,0 -13.241,-5.94 -13.241,-13.241 0,-7.302 5.94,-13.241 13.241,-13.241 7.302,0 13.241,5.94 13.241,13.241 0,7.301 -5.94,13.241 -13.241,13.241 z m 0,-17.655 c -2.435,0 -4.414,1.978 -4.414,4.414 0,2.435 1.978,4.414 4.414,4.414 2.435,0 4.414,-1.978 4.414,-4.414 0,-2.436 -1.979,-4.414 -4.414,-4.414 z"/><path id="path168" fill="#f5f5f5" d="m 123.586,216.277 c -7.302,0 -13.241,-5.94 -13.241,-13.241 0,-7.302 5.94,-13.241 13.241,-13.241 7.302,0 13.241,5.94 13.241,13.241 0.001,7.301 -5.939,13.241 -13.241,13.241 z m 0,-17.655 c -2.435,0 -4.414,1.978 -4.414,4.414 0,2.435 1.978,4.414 4.414,4.414 2.436,0 4.414,-1.979 4.414,-4.415 0,-2.435 -1.978,-4.413 -4.414,-4.413 z"/></g><path id="path172" fill="#fab446" d="m 176.552,203.035 v 4.414 c 0,2.434 -1.98,4.414 -4.414,4.414 -2.434,0 -4.414,-1.98 -4.414,-4.414 v -4.414 h 8.828 m 8.827,-8.827 h -26.483 v 13.241 c 0,7.302 5.94,13.241 13.241,13.241 7.302,0 13.241,-5.94 13.241,-13.241 v -13.241 z"/><path id="path174" fill="#ffa0d2" d="m 172.138,176.553 v 0 c -4.875,0 -8.828,-3.953 -8.828,-8.828 v -8.828 c 0,-4.875 3.953,-8.828 8.828,-8.828 v 0 c 4.875,0 8.828,3.953 8.828,8.828 v 8.828 c 0,4.875 -3.953,8.828 -8.828,8.828 z"/><circle id="circle176" cx="150.07" cy="185.375" r="13.241" fill="#5064aa"/><rect id="rect178" width="8.828" height="26.483" x="145.66" y="88.275" fill="#fab446"/><path id="path180" fill="#c8414b" d="m 123.586,132.415 -8.828,-8.828 5.171,-5.171 c 7.993,-7.993 18.835,-12.484 30.14,-12.484 v 0 c 11.305,0 22.146,4.491 30.14,12.484 l 5.171,5.171 -8.828,8.828 z"/><g id="g188" transform="translate(0,-88.276)"><circle id="circle182" cx="150.07" cy="211.861" r="4.414" fill="#ffd250"/><circle id="circle184" cx="132.41" cy="211.861" r="4.414" fill="#ffd250"/><circle id="circle186" cx="167.72" cy="211.861" r="4.414" fill="#ffd250"/></g><g id="g194" transform="translate(0,-88.276)"><rect id="rect190" width="44.14" height="8.828" x="70.62" y="256.001" fill="#c8414b"/><polygon id="polygon192" fill="#c8414b" points="97.103 273.656 70.621 282.484 70.621 291.311 97.103 282.484"/></g></svg>