<svg xmlns="http://www.w3.org/2000/svg" xmlns:svg="http://www.w3.org/2000/svg" id="Layer_1" width="512.001" height="335.449" x="0" y="0" version="1.1" viewBox="0 0 512.001 335.449" xml:space="preserve"><metadata id="metadata129"/><path id="path88" fill="#ff4b55" d="M 503.172,335.449 H 8.828 C 3.953,335.449 0,331.496 0,326.621 V 8.828 C 0,3.953 3.953,0 8.828,0 h 494.345 c 4.875,0 8.828,3.953 8.828,8.828 v 317.793 c -10e-4,4.876 -3.954,8.828 -8.829,8.828 z"/><polygon id="polygon90" fill="#f5f5f5" points="229.517 88.277 141.241 88.277 141.241 211.863 0 211.863 0 300.139 141.241 300.139 141.241 423.725 229.517 423.725 229.517 300.139 512 300.139 512 211.863 229.517 211.863" transform="translate(0,-88.276)"/><polygon id="polygon92" fill="#41479b" points="211.862 88.277 158.897 88.277 158.897 229.518 0 229.518 0 282.484 158.897 282.484 158.897 423.725 211.862 423.725 211.862 282.484 512 282.484 512 229.518 211.862 229.518" transform="translate(0,-88.276)"/></svg>