<svg xmlns="http://www.w3.org/2000/svg" xmlns:svg="http://www.w3.org/2000/svg" id="Layer_1" width="512.001" height="335.449" x="0" y="0" version="1.1" viewBox="0 0 512.001 335.449" xml:space="preserve"><metadata id="metadata549"/><path id="path510" fill="#4173cd" d="M 503.172,335.449 H 8.828 C 3.953,335.449 0,331.496 0,326.621 V 8.828 C 0,3.953 3.953,0 8.828,0 h 494.345 c 4.875,0 8.828,3.953 8.828,8.828 v 317.793 c -10e-4,4.876 -3.954,8.828 -8.829,8.828 z"/><polygon id="polygon512" fill="#ffe15a" points="211.862 88.277 158.897 88.277 158.897 229.518 0 229.518 0 282.484 158.897 282.484 158.897 423.725 211.862 423.725 211.862 282.484 512 282.484 512 229.518 211.862 229.518" transform="translate(0,-88.276)"/></svg>