<svg xmlns="http://www.w3.org/2000/svg" xmlns:svg="http://www.w3.org/2000/svg" id="Layer_1" width="512.001" height="335.449" x="0" y="0" version="1.1" viewBox="0 0 512.001 335.449" xml:space="preserve"><metadata id="metadata125"/><path id="path86" fill="#ff4b55" d="M 503.172,335.449 H 8.828 C 3.953,335.449 0,331.496 0,326.621 V 8.828 C 0,3.953 3.953,0 8.828,0 h 494.345 c 4.875,0 8.828,3.953 8.828,8.828 v 317.793 c -10e-4,4.876 -3.954,8.828 -8.829,8.828 z"/><path id="path88" fill="#ffe15a" d="m 260.119,67.694 23.609,70.79 74.621,0.578 c 4.172,0.032 5.902,5.357 2.546,7.836 l -60.029,44.329 22.509,71.147 c 1.259,3.978 -3.271,7.27 -6.666,4.843 L 256,223.824 195.29,267.217 c -3.394,2.426 -7.924,-0.865 -6.666,-4.843 l 22.509,-71.147 -60.029,-44.329 c -3.357,-2.478 -1.626,-7.804 2.546,-7.836 l 74.621,-0.578 23.609,-70.79 c 1.321,-3.958 6.919,-3.958 8.239,0 z"/></svg>