<svg xmlns="http://www.w3.org/2000/svg" xmlns:svg="http://www.w3.org/2000/svg" id="Layer_1" width="512.001" height="335.449" x="0" y="0" version="1.1" viewBox="0 0 512.001 335.449" xml:space="preserve"><metadata id="metadata51"/><path id="path2" fill="#ff4b55" d="M 503.172,335.449 H 8.828 C 3.953,335.449 0,331.496 0,326.621 V 8.828 C 0,3.953 3.953,0 8.828,0 h 494.345 c 4.875,0 8.828,3.953 8.828,8.828 v 317.793 c -10e-4,4.876 -3.954,8.828 -8.829,8.828 z"/><g id="g14" transform="translate(0,-88.276)"><path id="path4" fill="#ffe15a" d="m 85.007,140.733 8.416,25.234 26.6,0.206 c 3.444,0.026 4.872,4.422 2.101,6.467 l -21.398,15.801 8.023,25.362 c 1.038,3.284 -2.7,5.999 -5.502,3.997 l -21.64,-15.469 -21.64,15.468 c -2.802,2.003 -6.54,-0.714 -5.502,-3.997 L 62.488,188.44 41.09,172.64 c -2.771,-2.046 -1.343,-6.441 2.101,-6.467 l 26.6,-0.206 8.416,-25.234 c 1.09,-3.268 5.711,-3.268 6.8,0 z"/><path id="path6" fill="#ffe15a" d="m 181.599,146.951 6.035,8.23 9.739,-3.046 c 1.261,-0.394 2.298,1.044 1.526,2.115 l -5.962,8.281 5.906,8.321 c 0.765,1.077 -0.282,2.508 -1.54,2.105 l -9.719,-3.111 -6.089,8.189 c -0.788,1.06 -2.473,0.506 -2.478,-0.814 l -0.045,-10.205 -9.67,-3.261 c -1.251,-0.423 -1.246,-2.195 0.009,-2.609 l 9.69,-3.196 0.114,-10.204 c 0.014,-1.319 1.703,-1.86 2.484,-0.795 z"/><path id="path8" fill="#ffe15a" d="m 144.857,122.421 10.145,1.102 4.328,-9.241 c 0.561,-1.196 2.321,-0.991 2.591,0.302 l 2.086,9.988 10.126,1.26 c 1.311,0.163 1.66,1.901 0.513,2.558 l -8.855,5.07 1.931,10.02 c 0.25,1.298 -1.295,2.166 -2.274,1.279 l -7.559,-6.855 -8.932,4.932 c -1.156,0.639 -2.461,-0.563 -1.919,-1.768 l 4.183,-9.308 -7.452,-6.972 c -0.964,-0.898 -0.225,-2.509 1.088,-2.367 z"/><path id="path10" fill="#ffe15a" d="m 160.895,221.314 -6.035,8.23 -9.739,-3.046 c -1.261,-0.394 -2.298,1.044 -1.526,2.115 l 5.962,8.281 -5.906,8.321 c -0.765,1.077 0.282,2.508 1.54,2.105 l 9.719,-3.111 6.089,8.189 c 0.788,1.06 2.473,0.506 2.478,-0.814 l 0.045,-10.205 9.67,-3.261 c 1.252,-0.423 1.246,-2.195 -0.009,-2.609 l -9.69,-3.196 -0.114,-10.204 c -0.016,-1.318 -1.703,-1.861 -2.484,-0.795 z"/><path id="path12" fill="#ffe15a" d="m 197.635,198.263 -10.145,1.102 -4.328,-9.241 c -0.561,-1.196 -2.321,-0.991 -2.591,0.302 l -2.087,9.988 -10.126,1.26 c -1.311,0.163 -1.66,1.901 -0.513,2.558 l 8.855,5.07 -1.931,10.02 c -0.25,1.298 1.295,2.166 2.274,1.279 l 7.559,-6.855 8.932,4.932 c 1.156,0.639 2.461,-0.563 1.919,-1.768 l -4.183,-9.308 7.452,-6.972 c 0.967,-0.898 0.228,-2.509 -1.087,-2.367 z"/></g></svg>