<svg xmlns="http://www.w3.org/2000/svg" viewBox="0 0 205.07 214.47"><defs><style>.cls-1{opacity:0.03;}.cls-2{fill:#fff;}.cls-2,.cls-5,.cls-6{fill-rule:evenodd;}.cls-3,.cls-5{fill:#c7292b;}.cls-4{fill:#7d0000;}.cls-6{fill:#cc6969;}</style></defs><title>backup-wallet</title><g id="Layer_1" data-name="Layer 1"><g class="cls-1"><path class="cls-2" d="M67,202.68C18.42,175.56,1.51,115.1,29.13,67.46,47.83,35.54,82,17.68,117,17.49h.6a103.77,103.77,0,0,1,50,13.08c42.09,23.46,60.46,72,46.63,115.43v-.08L176,111a57.44,57.44,0,0,0-29.44-44.4c-28.24-15.72-64.34-6.17-80.39,21.57-16.23,27.52-6.28,62.74,22,78.53a59.58,59.58,0,0,0,28.24,7.52l37.91,34.6.05.08a108,108,0,0,1-36.69,6.87H117A105,105,0,0,1,67,202.68Z" transform="translate(-15.87 -12.41)"/><path class="cls-2" d="M218.61,204.94,85.07,80c6.09-7.55,14.34-14.27,33.76-16.29l99.78,95.2Z" transform="translate(-15.87 -12.41)"/><path class="cls-2" d="M167.08,212.23,65.38,119c1.3-19,7.69-27.3,15.15-33.63L214.14,210.23Z" transform="translate(-15.87 -12.41)"/></g><rect class="cls-3" x="117.96" y="59.45" width="68.91" height="19.12" rx="2.7" ry="2.7"/><path class="cls-3" d="M133.83,74.56q0,6.85.07,13.71a2.62,2.62,0,0,0,2.63,2.62L200,90.71h0a2.43,2.43,0,0,0,2.44-2.45v0q0-6.87,0-13.72h0A2.45,2.45,0,0,0,200,72.11a0,0,0,0,0,0,0l-63.51-.24a2.68,2.68,0,0,0-2.7,2.68,2.71,2.71,0,0,1,1.65-2.5,2.57,2.57,0,0,1,.72-.2l.33,0c3.89-1.68,8.47,0,12.7,0l25.41-.1L200,71.6a3,3,0,0,1,3,3c0,1.83,0,3.66,0,5.49,0,.91,0,1.83,0,2.74,0,.48,0,5,0,5.5a3,3,0,0,1-3,3l-25.4-.07-25.41-.07c-4.23,0-8.46,0-12.7,0a2.79,2.79,0,0,1-2.77-2.79Q133.79,81.41,133.83,74.56Z" transform="translate(-15.87 -12.41)"/><circle class="cls-4" cx="177.81" cy="69.34" r="2.33"/><circle class="cls-4" cx="170.58" cy="69.34" r="2.33"/><circle class="cls-4" cx="163.47" cy="69.34" r="2.33"/><circle class="cls-4" cx="156.63" cy="69.34" r="2.33"/><circle class="cls-4" cx="149.9" cy="69.34" r="2.33"/><circle class="cls-4" cx="142.48" cy="69.34" r="2.33"/><circle class="cls-4" cx="135.61" cy="69.34" r="2.33"/><circle class="cls-4" cx="129.01" cy="69.34" r="2.33"/><path class="cls-2" d="M91.38,99.48V60.32a15,15,0,0,1,14.93-15H150a15,15,0,0,1,14.92,15V99l-15,.1c0-2.06,0-4.07,0-6.19l.05-12.37,0-6.19c0-2.07,0-4.13,0-6.19a7.59,7.59,0,0,0-.31-2.17,7.85,7.85,0,0,0-1.61-3,7.53,7.53,0,0,0-1.31-1.21,7.89,7.89,0,0,0-2.15-1.08,7.63,7.63,0,0,0-2.37-.38L131,60.38c-1.85.08-3.76,0-5.64,0L114,60.45a7.62,7.62,0,0,0-7.55,7.68c0,.28.11,12.21.12,12.5q.09,9.36.17,18.74l-11.63.08Z" transform="translate(-15.87 -12.41)"/><path class="cls-5" d="M91.14,60.32a15.3,15.3,0,0,1,1.16-5.94,15.32,15.32,0,0,1,14-9.44l17.46,0c2.91,0,5.82,0,8.73,0,5.82,0,11.64-.06,17.46,0a15.2,15.2,0,0,1,8.86,2.82A14.93,14.93,0,0,1,161.47,50a15.42,15.42,0,0,1,3.42,6.44,15.79,15.79,0,0,1,.49,3.87c0,2.58,0,5.17,0,7.73s0,5.15,0,7.73,0,5.15,0,7.73-.08,5.15,0,7.73c0,1.79,0,5.46,0,8.13l-11.13,0-4.29,0v-.69l14.61-.16-.09-38.24a15.07,15.07,0,0,0-.65-4.32,14.6,14.6,0,0,0-9.49-9.56A14.87,14.87,0,0,0,150,45.8l-43.65-.13a14.54,14.54,0,0,0-5.68,1.13,14.76,14.76,0,0,0-9,13.52q-.12,19.59-.25,39.16Zm15.63,39v.09l28.29.07-43.68,0Zm58.11-.72h-.4V99Z" transform="translate(-15.87 -12.41)"/><path class="cls-2" d="M67.09,170V106.59a7.26,7.26,0,0,1,7.25-7.25h104a7.25,7.25,0,0,1,6.19,3.48c1,.52,1,4.42,1,7l.05,60.16a7.26,7.26,0,0,1-7.25,7.25h-104A7.26,7.26,0,0,1,67.09,170Z" transform="translate(-15.87 -12.41)"/><path class="cls-5" d="M157.53,178.14c-3.37-.8-6.93,0-10.4,0l-20.8-.05L115.94,178l-41.61-.23A7.79,7.79,0,0,1,66.59,170q.25-31.68.5-63.37a7.25,7.25,0,0,1,3-6,7,7,0,0,1,1.75-.93,7.62,7.62,0,0,1,2.45-.44l20.8-.15,41.59-.28,41.6-.29a8,8,0,0,1,6.25,2.94h0c1.17,1.32-1,2-1.37.91h0a6.45,6.45,0,0,0-4.86-2.24h0q-52-.36-104-.72a7.25,7.25,0,0,0-6.83,4.75,7.33,7.33,0,0,0-.43,2.41q.25,31.68.5,63.36h0a6.73,6.73,0,0,0,4.52,6.32,6.59,6.59,0,0,0,2.25.36l31.18-.17c6.93,0,13.86-.09,20.79-.11s13.87,0,20.8-.05l31.2-.08h0a6.25,6.25,0,0,0,6.28-6.29v0q.06-29.74.13-59.49a.06.06,0,0,1,0,0c.08-.83,1.64-.91,1.73.26,0,7.14,0,21.11.05,21.26.1,4.22,0,8.44,0,12.67s0,8.44,0,12.67,0,8.45,0,12.68a8.27,8.27,0,0,1-8.25,8.24c-3.47,0-6.94,0-10.4,0S160.9,179,157.53,178.14Zm-83.17-1.52h0Z" transform="translate(-15.87 -12.41)"/><polygon class="cls-3" points="51.52 112.96 80.92 112.61 110.32 112.46 139.72 112.61 169.12 112.96 139.72 113.32 110.32 113.46 80.92 113.32 51.52 112.96"/><polygon class="cls-3" points="51.74 128.18 81.21 127.83 110.67 127.68 140.14 127.83 169.6 128.18 140.14 128.53 110.67 128.68 81.21 128.53 51.74 128.18"/><polygon class="cls-3" points="51.79 141.78 81.06 141.42 110.33 141.28 139.6 141.42 168.87 141.78 139.6 142.13 110.33 142.28 81.06 142.13 51.79 141.78"/><polygon class="cls-3" points="50.9 156.31 80.63 155.95 110.35 155.81 140.08 155.95 169.81 156.31 140.08 156.66 110.35 156.81 80.63 156.66 50.9 156.31"/><path class="cls-5" d="M17,92.66v25a4.93,4.93,0,0,0,4.93,4.92H137.46a4.92,4.92,0,0,0,4.92-4.92v-25a4.92,4.92,0,0,0-4.92-4.92H21.91A4.93,4.93,0,0,0,17,92.66Z" transform="translate(-15.87 -12.41)"/><path class="cls-3" d="M17,92.66q.06,12.48.13,25a4.77,4.77,0,0,0,4.8,4.76l34.66-.14,23.11-.1,23.11,0,34.67-.06h0a4.43,4.43,0,0,0,4.44-4.43,0,0,0,0,0,0,0q0-12.48,0-25h0a4.46,4.46,0,0,0-4.45-4.46h0L21.91,87.78A4.9,4.9,0,0,0,17,92.66a5,5,0,0,1,4.93-5q28.87-.14,57.77-.27l23.11-.06c3.78.74,7.71,0,11.56,0l11.56,0,11.55,0a5.12,5.12,0,0,1,1.9.35,5.4,5.4,0,0,1,3.51,5v10a25.31,25.31,0,0,0,0,5v10a5.42,5.42,0,0,1-5.42,5.42l-23.11,0c-3.85,0-7.7-.06-11.56,0s-7.7,0-11.55,0c-9.12,0-14,0-23.11-.07Q45,122.77,21.9,122.7a5.25,5.25,0,0,1-1.79-.33,5.07,5.07,0,0,1-3.25-4.75Z" transform="translate(-15.87 -12.41)"/><ellipse class="cls-4" cx="110.01" cy="93.33" rx="4.24" ry="4.25"/><ellipse class="cls-4" cx="96.86" cy="93.33" rx="4.24" ry="4.25"/><ellipse class="cls-4" cx="83.92" cy="93.33" rx="4.24" ry="4.25"/><ellipse class="cls-4" cx="71.47" cy="93.33" rx="4.24" ry="4.25"/><circle class="cls-4" cx="59.23" cy="93.33" r="4.24"/><ellipse class="cls-4" cx="45.73" cy="93.33" rx="4.24" ry="4.25"/><ellipse class="cls-4" cx="33.23" cy="93.33" rx="4.24" ry="4.25"/><circle class="cls-4" cx="21.22" cy="93.33" r="4.24"/><path class="cls-6" d="M201,218.05a4.73,4.73,0,0,1,6.06,2.59,4.54,4.54,0,0,1-2.65,5.92,4.71,4.71,0,0,1-6.06-2.59A4.54,4.54,0,0,1,201,218.05Z" transform="translate(-15.87 -12.41)"/><path class="cls-2" d="M201,225a3.06,3.06,0,0,1-1.18-4.23,3.21,3.21,0,0,1,2.74-1.56h0a3.36,3.36,0,0,1,1.56.41,3.08,3.08,0,0,1,1.46,3.61h0l-1.2-1.09a1.79,1.79,0,0,0-.92-1.38,1.86,1.86,0,0,0-2.51.67,1.76,1.76,0,0,0,.69,2.45,1.88,1.88,0,0,0,.88.24l1.18,1.08h0a3.4,3.4,0,0,1-1.14.22h0A3.36,3.36,0,0,1,201,225Z" transform="translate(-15.87 -12.41)"/><path class="cls-2" d="M205.75,225.05l-4.17-3.9a1.36,1.36,0,0,1,1.06-.51l3.11,3Z" transform="translate(-15.87 -12.41)"/><path class="cls-2" d="M204.14,225.28,201,222.36a1.35,1.35,0,0,1,.47-1.05l4.17,3.9Z" transform="translate(-15.87 -12.41)"/><path class="cls-6" d="M34.54,13.56a17.14,17.14,0,0,1,22,9.41A16.51,16.51,0,0,1,46.94,44.5a17.15,17.15,0,0,1-22-9.42A16.5,16.5,0,0,1,34.54,13.56Z" transform="translate(-15.87 -12.41)"/><path class="cls-2" d="M34.73,38.73a11.12,11.12,0,0,1-4.3-15.35,11.56,11.56,0,0,1,10-5.68h.07a11.71,11.71,0,0,1,5.67,1.48,11.14,11.14,0,0,1,5.29,13.11h0l-4.34-4a6.51,6.51,0,0,0-3.34-5,6.79,6.79,0,0,0-9.14,2.45,6.45,6.45,0,0,0,2.5,8.91,6.7,6.7,0,0,0,3.22.86l4.29,3.94h0a11.81,11.81,0,0,1-4.16.78H40.4A11.71,11.71,0,0,1,34.73,38.73Z" transform="translate(-15.87 -12.41)"/><path class="cls-2" d="M51.94,39,36.78,24.8A5,5,0,0,1,40.61,23L51.94,33.76Z" transform="translate(-15.87 -12.41)"/><path class="cls-2" d="M46.1,39.81,34.54,29.23a4.84,4.84,0,0,1,1.72-3.82L51.44,39.58Z" transform="translate(-15.87 -12.41)"/><path class="cls-6" d="M32,197.22a8.44,8.44,0,0,1,10.86,4.64,8.13,8.13,0,0,1-4.75,10.61,8.45,8.45,0,0,1-10.86-4.64A8.13,8.13,0,0,1,32,197.22Z" transform="translate(-15.87 -12.41)"/><path class="cls-2" d="M32.07,209.63A5.48,5.48,0,0,1,30,202.06a5.69,5.69,0,0,1,4.91-2.8h0a5.73,5.73,0,0,1,2.79.73,5.48,5.48,0,0,1,2.61,6.46h0l-2.14-2A3.2,3.2,0,0,0,36.52,202a3.34,3.34,0,0,0-4.5,1.2A3.24,3.24,0,0,0,34.84,208L37,210h0a5.73,5.73,0,0,1-2.05.38h0A5.78,5.78,0,0,1,32.07,209.63Z" transform="translate(-15.87 -12.41)"/><path class="cls-2" d="M40.56,209.75l-7.48-7a2.49,2.49,0,0,1,1.89-.91l5.59,5.33Z" transform="translate(-15.87 -12.41)"/><path class="cls-2" d="M37.68,210.16,32,205a2.39,2.39,0,0,1,.85-1.89l7.48,7Z" transform="translate(-15.87 -12.41)"/><path class="cls-2" d="M113.12,130.53a17.57,17.57,0,1,1-.47,24.84A17.58,17.58,0,0,1,113.12,130.53Z" transform="translate(-15.87 -12.41)"/><path class="cls-3" d="M113.12,130.53a17.56,17.56,0,0,1,6.16-4,17.75,17.75,0,0,1,6.36-1.14,17.88,17.88,0,0,1,16.19,25,17.87,17.87,0,1,1-28.71-19.93A17.43,17.43,0,0,0,108.4,147a16.59,16.59,0,0,0,1.27,3.56,17.3,17.3,0,0,0,14.49,9.7,16.49,16.49,0,0,0,4.09-.23,17.64,17.64,0,0,0,4.33-1.38,17.4,17.4,0,0,0,4.57-3.17h0a17.19,17.19,0,0,0,3.59-19.84,17.57,17.57,0,0,0-3-4.41,0,0,0,0,0,0,0,17.55,17.55,0,0,0-6-4.12,16.37,16.37,0,0,0-1.66-.59,19,19,0,0,0-1.95-.46A17.44,17.44,0,0,0,113.12,130.53Z" transform="translate(-15.87 -12.41)"/><path class="cls-6" d="M116,133.47a13.48,13.48,0,1,1-.36,19.06A13.5,13.5,0,0,1,116,133.47Z" transform="translate(-15.87 -12.41)"/><path class="cls-3" d="M116,133.47a13.71,13.71,0,0,1,4.74-3,13.5,13.5,0,0,1,4.22-.86,13.93,13.93,0,0,1,5.16.78,13.76,13.76,0,0,1,7.86,7.26,15.44,15.44,0,0,1,.65,1.76A13.74,13.74,0,0,1,124.38,157a13.69,13.69,0,0,1-5.48-1.58,14,14,0,0,1-3.5-2.67,13.8,13.8,0,0,1-2.69-4.14A13.56,13.56,0,0,1,116,133.47a13.59,13.59,0,0,0-2.71,3.83,13.43,13.43,0,0,0,0,11.36,13.67,13.67,0,0,0,2.57,3.69h0a13.2,13.2,0,0,0,11.54,3.8,12.52,12.52,0,0,0,3.39-1,13.25,13.25,0,0,0,3.69-2.51v0a13.49,13.49,0,0,0,2.7-3.7,13.25,13.25,0,0,0,.21-11.18,14.71,14.71,0,0,0-.85-1.62,13.9,13.9,0,0,0-1.63-2.12h0a13.36,13.36,0,0,0-18.88-.55Z" transform="translate(-15.87 -12.41)"/><rect class="cls-4" x="108.35" y="120.11" width="2.57" height="22.03"/><path class="cls-3" d="M208.11,81.61c.06,0,.17-.16.22-.19l.07,0a2.64,2.64,0,0,1,.84-.09h.27l.37,0a11.3,11.3,0,0,1,1.53.23c.5.11,1,.24,1.49.4,2.88.93,5.65,2.86,6.77,5.76a8.23,8.23,0,0,1,.53,3,8.45,8.45,0,0,1-.28,2.12,8.83,8.83,0,0,1-2.49,4.3,18.54,18.54,0,0,1-2.23,1.83,30.37,30.37,0,0,1-6.24,3.26c-1.44.58-2.92,1.08-4.41,1.54s-2.93.83-4.41,1.18c-2.7.64-5.42,1.14-8.16,1.56a172.84,172.84,0,0,1-18.59,1.72c-5.35.24-10.72.33-16.08.27-1.81,0-3.61,0-5.42-.08-8.09-.16-16.2-.55-24.27-1.15a220.76,220.76,0,0,0,24.27.46c4.05-.14,8.08-.36,12.12-.68q8.12-.65,16.19-1.81c3.93-.58,7.86-1.26,11.75-2.09,2.77-.58,5.53-1.24,8.24-2a66.11,66.11,0,0,0,6.7-2.29A33,33,0,0,0,212,96.27a16.11,16.11,0,0,0,3-2.37l-.07.07a5.17,5.17,0,0,0,1-1.52,6,6,0,0,0,.49-1.75,5.14,5.14,0,0,0,0-1.11c-.3-2.56-2.75-4.33-4.77-5.56-.53-.33-1.07-.63-1.61-.93l-.6-.35a1.92,1.92,0,0,1-.31-.18,4.22,4.22,0,0,1-.9-.67A1.26,1.26,0,0,1,208.11,81.61Z" transform="translate(-15.87 -12.41)"/><polygon class="cls-3" points="195.98 75.73 195.79 75.75 195.7 75.72 195.56 75.65 195.33 75.48 194.95 75.09 194.35 74.27 194.08 73.86 193.82 73.45 193.57 73.04 193.32 72.64 193.06 72.24 192.8 71.85 192.51 71.47 192.21 71.09 191.87 70.71 191.7 70.53 191.51 70.35 191.32 70.17 191.11 69.98 190.9 69.8 190.66 69.61 190.32 69.17 190.28 68.62 190.55 68.14 191.04 67.89 198.08 67.24 201.59 66.87 205.07 66.35 201.62 67.06 198.2 67.94 191.38 69.77 191.87 69.52 192.14 69.03 192.1 68.48 191.76 68.05 192.05 68.22 192.33 68.41 192.6 68.61 192.86 68.81 193.11 69.02 193.35 69.24 193.78 69.67 194.19 70.12 194.55 70.59 194.87 71.06 195.17 71.54 195.42 72.03 195.64 72.53 195.83 73.02 195.98 73.52 196.19 74.54 196.23 75.07 196.2 75.36 196.16 75.52 196.12 75.6 195.98 75.73"/><path class="cls-5" d="M106.33,69.07a9.83,9.83,0,0,1,.53-3.66,9.4,9.4,0,0,1,1.23-2.1,9.16,9.16,0,0,1,7.2-3.32l10.32,0c1.72,0,3.44,0,5.16,0,3.43,0,6.87,0,10.31,0a9.21,9.21,0,0,1,5.33,1.57,9.16,9.16,0,0,1,2.81,3.21,9.61,9.61,0,0,1,.79,2,9.73,9.73,0,0,1,.18,2.35c0,1.53,0,3.06,0,4.57s0,3,0,4.57,0,3,0,4.56,0,3,0,4.57c0,1.06-.08,10.26-.08,11.84-2.2,0-4.39,0-6.58,0H141c0-.13,0-.27,0-.4l8.62-.1c0-7.53,0-22.1,0-29.63a9.76,9.76,0,0,0-.3-2.65,8.61,8.61,0,0,0-5.61-5.65,9.58,9.58,0,0,0-2.62-.29l-25.79-.07a9.44,9.44,0,0,0-3.51.51,8.82,8.82,0,0,0-5.16,8.15c-.05,7.71-.17,22.46-.22,30.17C106.35,91.54,106.38,76.79,106.33,69.07Zm9.16,30.06v.05l16.71,0-25.8,0Zm34.33-.42h-.24a1.69,1.69,0,0,0,0,.23C149.66,98.86,149.74,98.79,149.82,98.71Z" transform="translate(-15.87 -12.41)"/></g></svg>