<?xml version="1.0" encoding="utf-8"?>
<!-- Generator: Adobe Illustrator 16.0.0, SVG Export Plug-In . SVG Version: 6.00 Build 0)  -->
<!DOCTYPE svg PUBLIC "-//W3C//DTD SVG 1.1//EN" "http://www.w3.org/Graphics/SVG/1.1/DTD/svg11.dtd">
<svg version="1.1" id="Layer_1" xmlns="http://www.w3.org/2000/svg" xmlns:xlink="http://www.w3.org/1999/xlink" x="0px" y="0px"
	 width="595.281px" height="595.281px" viewBox="0 0 595.281 595.281" enable-background="new 0 0 595.281 595.281"
	 xml:space="preserve">
<path opacity="0.25" d="M200.811,234.31c2.439-2.432,5.014-4.641,7.627-6.817c20.914-17.625,46.351-27.016,72.14-28.336
	c33.134-1.629,66.795,10.06,92.145,35.346c20.4,20.536,31.96,46.529,34.741,73.212l67.755,67.911
	c19.455-66.579,2.985-141.449-49.467-194.038c-56.178-56.285-137.953-71.351-207.873-45.252c-22.499,8.392-43.796,21.01-62.58,37.91
	c-2.508,2.282-4.975,4.586-7.389,7.017c-1.79,1.795-3.494,3.63-5.224,5.475c-17.173,18.485-30.112,39.429-38.857,61.693
	c-27.678,70.444-13.163,153.637,43.73,210.662c53.675,53.765,130.63,69.919,198.382,48.539l-65.902-66.019
	c-28.888-1.548-57.326-13.359-79.436-35.424c-26.14-26.32-37.703-61.521-34.927-95.795c2.072-25.369,12.141-50.142,30.065-70.466
	C197.424,238.043,199.029,236.111,200.811,234.31z"/>
<path opacity="0.25" d="M483.977,502.792l-0.313-93.653L290.762,215.752c-23.896,1.205-47.515,9.905-66.953,26.269L483.977,502.792z
	"/>
<path opacity="0.25" d="M472.298,514.416L212.05,253.579c-16.651,18.839-26.004,41.844-27.902,65.389L378.99,514.294
	L472.298,514.416z"/>
</svg>
