<svg id="Layer_1" data-name="Layer 1" xmlns="http://www.w3.org/2000/svg" viewBox="0 0 134.8 134.8"><defs><style>.cls-1{fill:#d3deed;}.cls-2{fill:#eaf1fa;}.cls-3{opacity:0.25;isolation:isolate;}.cls-4{fill:#c5cfd8;}</style></defs><title>identicon-placeholder-light</title><circle class="cls-1" cx="67.4" cy="67.4" r="67.4"/><path class="cls-2" d="M91.71,114.4l-49.1-46c.61-9.39,3.72-13.5,7.29-16.61l65.5,62.62Z" transform="translate(-0.08 -0.04)"/><path class="cls-2" d="M43.43,109.68A48.94,48.94,0,0,1,67.55,18.23h.3a48.94,48.94,0,0,1,46.56,63.45v0L96,64.37A28.44,28.44,0,1,0,67.25,95.62L85.49,112.7h0a49.2,49.2,0,0,1-17.66,3.37h-.34A48.68,48.68,0,0,1,43.43,109.68Z" transform="translate(-0.08 -0.04)"/><path class="cls-2" d="M116.53,110.78,52.11,49.07c3-3.71,6.92-7,16.27-8l48.16,47Z" transform="translate(-0.08 -0.04)"/><g class="cls-3"><path class="cls-4" d="M116.61,67.37a48.69,48.69,0,0,0-8.39-27.59,44.19,44.19,0,0,1-5,31.43l11.14,10.44v0A49,49,0,0,0,116.61,67.37Z" transform="translate(-0.08 -0.04)"/><path class="cls-4" d="M53.68,91.94A44.32,44.32,0,0,1,20.8,53.16a48.85,48.85,0,0,0,46.69,62.91h.34a49.2,49.2,0,0,0,17.66-3.37L67.25,95.62A28.37,28.37,0,0,1,53.68,91.94Z" transform="translate(-0.08 -0.04)"/></g></svg>